<svg width="324" height="55" viewBox="0 0 324 55" fill="none" xmlns="http://www.w3.org/2000/svg">
<path d="M8.82824 0C3.95254 0 0 3.94002 0 8.80014C0 9.34016 0.43917 9.77794 0.980915 9.77794H51.9885C56.8643 9.77794 60.8168 5.83791 60.8168 0.977794C60.8168 0.43778 60.3776 0 59.8359 0H8.82824Z" fill="url(#paint0_linear_1605_7278)"/>
<path d="M74.5889 0C69.7132 0 65.7607 3.94002 65.7607 8.80014C65.7607 9.34016 66.1998 9.77794 66.7416 9.77794H117.71C122.585 9.77794 126.538 5.83791 126.538 0.977794C126.538 0.43778 126.099 0 125.557 0H74.5889Z" fill="url(#paint1_linear_1605_7278)"/>
<path d="M0.97854 27.0331C0.438108 27.0331 0 27.4673 0 28.0028C0 32.8224 3.94297 36.7295 8.80686 36.7295H66.1605C66.2785 36.7819 66.4092 36.8111 66.5469 36.8111C68.6367 36.8111 70.5506 36.0646 72.0318 34.826C74.0528 33.227 75.3476 30.7647 75.3476 28.0028C75.3476 27.4673 74.9095 27.0331 74.3691 27.0331H0.97854Z" fill="url(#paint2_linear_1605_7278)"/>
<g opacity="0.9">
<path d="M4.88647 13.2289C2.18775 13.2289 0 15.5274 0 18.3626V22.4696C0 23.0367 0.437549 23.4964 0.977293 23.4964H18.5686C23.4263 23.4964 27.3642 19.3592 27.3642 14.2557C27.3642 13.6886 26.9267 13.2289 26.3869 13.2289H4.88647Z" fill="url(#paint3_linear_1605_7278)"/>
<path d="M70.3651 13.2289C67.6664 13.2289 65.4787 15.5274 65.4787 18.3626V22.5553C65.4787 23.1224 65.9162 23.5821 66.456 23.5821H84.3823C89.24 23.5821 93.178 19.3677 93.178 14.2643C93.178 13.6972 92.7404 13.2289 92.2007 13.2289H70.3651Z" fill="url(#paint4_linear_1605_7278)"/>
</g>
<path d="M149.237 4.96949C149.237 4.19301 149.153 3.57829 148.984 3.12534C148.815 2.6724 148.536 2.32945 148.147 2.0965C147.757 1.86356 147.244 1.71473 146.608 1.65003C145.978 1.58532 145.196 1.55297 144.261 1.55297H139.889C139.058 1.55297 138.357 1.57885 137.785 1.63061C137.221 1.67591 136.753 1.77297 136.383 1.9218C136.013 2.07062 135.727 2.28415 135.526 2.56239C135.325 2.84063 135.179 3.20946 135.088 3.66888C134.997 4.1283 134.945 4.69449 134.932 5.36744C134.919 6.03392 134.913 6.83305 134.913 7.76483C134.913 8.69661 134.919 9.49898 134.932 10.1719C134.952 10.8384 135.007 11.4014 135.098 11.8608C135.189 12.3202 135.331 12.689 135.526 12.9673C135.727 13.2455 136.013 13.459 136.383 13.6079C136.753 13.7567 137.221 13.857 137.785 13.9088C138.357 13.954 139.058 13.9767 139.889 13.9767H144.261C144.988 13.9767 145.615 13.9573 146.14 13.9185C146.666 13.8796 147.114 13.8085 147.484 13.7049C147.854 13.6014 148.153 13.459 148.38 13.2779C148.607 13.0967 148.783 12.8702 148.906 12.5984C149.036 12.3202 149.124 11.9902 149.169 11.6084C149.214 11.2202 149.237 10.7672 149.237 10.2496H151.107C151.107 10.8708 151.068 11.4337 150.99 11.9384C150.912 12.4367 150.773 12.8831 150.571 13.2779C150.376 13.6661 150.114 14.0026 149.782 14.2873C149.451 14.572 149.033 14.8082 148.526 14.9958C148.02 15.177 147.416 15.3097 146.715 15.3938C146.014 15.4844 145.196 15.5297 144.261 15.5297H139.889C138.746 15.5297 137.782 15.4585 136.997 15.3161C136.218 15.1802 135.575 14.9732 135.068 14.6949C134.562 14.4102 134.169 14.0543 133.89 13.6273C133.618 13.2002 133.416 12.6987 133.286 12.1228C133.163 11.547 133.092 10.8966 133.072 10.1719C133.053 9.44721 133.043 8.64485 133.043 7.76483C133.043 6.88482 133.053 6.08245 133.072 5.35773C133.092 4.63302 133.163 3.98271 133.286 3.40682C133.416 2.83093 133.618 2.32945 133.89 1.90238C134.169 1.47532 134.562 1.12267 135.068 0.844425C135.575 0.559715 136.218 0.349417 136.997 0.213533C137.782 0.0711776 138.746 0 139.889 0H144.261C145.196 0 146.014 0.0452949 146.715 0.135885C147.416 0.220004 148.02 0.352653 148.526 0.533832C149.033 0.708541 149.451 0.93178 149.782 1.20355C150.114 1.47532 150.376 1.79562 150.571 2.16445C150.773 2.53328 150.912 2.95064 150.99 3.41653C151.068 3.88242 151.107 4.40007 151.107 4.96949H149.237Z" fill="url(#paint5_linear_1605_7278)"/>
<path d="M166.164 0C167.306 0 168.267 0.0711776 169.046 0.213533C169.832 0.349417 170.477 0.559715 170.984 0.844425C171.49 1.12267 171.88 1.47532 172.152 1.90238C172.425 2.32945 172.623 2.83093 172.746 3.40682C172.876 3.98271 172.951 4.63302 172.97 5.35773C172.996 6.08245 173.009 6.88482 173.009 7.76483C173.009 8.64485 172.996 9.44721 172.97 10.1719C172.951 10.8966 172.876 11.547 172.746 12.1228C172.623 12.6987 172.425 13.2002 172.152 13.6273C171.88 14.0543 171.49 14.4102 170.984 14.6949C170.477 14.9732 169.832 15.1802 169.046 15.3161C168.267 15.4585 167.306 15.5297 166.164 15.5297H160.535C159.392 15.5297 158.428 15.4585 157.643 15.3161C156.864 15.1802 156.221 14.9732 155.715 14.6949C155.208 14.4102 154.816 14.0543 154.536 13.6273C154.264 13.2002 154.063 12.6987 153.933 12.1228C153.809 11.547 153.738 10.8966 153.718 10.1719C153.699 9.44721 153.689 8.64485 153.689 7.76483C153.689 6.88482 153.699 6.08245 153.718 5.35773C153.738 4.63302 153.809 3.98271 153.933 3.40682C154.063 2.83093 154.264 2.32945 154.536 1.90238C154.816 1.47532 155.208 1.12267 155.715 0.844425C156.221 0.559715 156.864 0.349417 157.643 0.213533C158.428 0.0711776 159.392 0 160.535 0H166.164ZM166.164 13.9767C166.988 13.9767 167.683 13.954 168.247 13.9088C168.819 13.857 169.289 13.7567 169.659 13.6079C170.03 13.459 170.315 13.2455 170.516 12.9673C170.718 12.689 170.864 12.3202 170.955 11.8608C171.046 11.4014 171.097 10.8384 171.11 10.1719C171.13 9.49898 171.14 8.69661 171.14 7.76483C171.14 6.83305 171.13 6.03392 171.11 5.36744C171.097 4.69449 171.046 4.1283 170.955 3.66888C170.864 3.20946 170.718 2.84063 170.516 2.56239C170.315 2.28415 170.03 2.07062 169.659 1.9218C169.296 1.77297 168.829 1.67591 168.257 1.63061C167.692 1.57885 166.995 1.55297 166.164 1.55297H160.535C159.704 1.55297 159.003 1.57885 158.432 1.63061C157.867 1.67591 157.399 1.77297 157.029 1.9218C156.659 2.07062 156.374 2.28415 156.172 2.56239C155.971 2.84063 155.825 3.20946 155.734 3.66888C155.643 4.1283 155.591 4.69449 155.578 5.36744C155.565 6.03392 155.559 6.83305 155.559 7.76483C155.559 8.69661 155.565 9.49898 155.578 10.1719C155.598 10.8384 155.653 11.4014 155.744 11.8608C155.835 12.3202 155.978 12.689 156.172 12.9673C156.374 13.2455 156.659 13.459 157.029 13.6079C157.399 13.7567 157.867 13.857 158.432 13.9088C159.003 13.954 159.704 13.9767 160.535 13.9767H166.164Z" fill="url(#paint6_linear_1605_7278)"/>
<path d="M178.075 15.2191H176.205V0.310593H179.487L193.198 13.3555V0.310593H195.068V15.2191H192.575L178.075 1.86356V15.2191Z" fill="url(#paint7_linear_1605_7278)"/>
<path d="M213.542 11.8025H201.701L199.831 15.2191H197.65L206.375 0.310593H208.868L217.593 15.2191H215.412L213.542 11.8025ZM212.608 10.2496L207.622 1.55297L202.636 10.2496H212.608Z" fill="url(#paint8_linear_1605_7278)"/>
<path d="M133.043 36.5004V21.592H147.409V23.1449H134.917V28.1144H146.784V29.6674H134.917V36.5004H133.043Z" fill="url(#paint9_linear_1605_7278)"/>
<path d="M161.864 21.2814C163.009 21.2814 163.972 21.3525 164.753 21.4949C165.54 21.6308 166.187 21.8411 166.695 22.1258C167.202 22.404 167.593 22.7567 167.866 23.1838C168.139 23.6108 168.338 24.1123 168.461 24.6882C168.591 25.2641 168.666 25.9144 168.686 26.6391C168.712 27.3638 168.725 28.1662 168.725 29.0462C168.725 29.9262 168.712 30.7286 168.686 31.4533C168.666 32.178 168.591 32.8283 168.461 33.4042C168.338 33.9801 168.139 34.4816 167.866 34.9086C167.593 35.3357 167.202 35.6916 166.695 35.9763C166.187 36.2546 165.54 36.4616 164.753 36.5975C163.972 36.7399 163.009 36.811 161.864 36.811H156.223C155.078 36.811 154.112 36.7399 153.325 36.5975C152.544 36.4616 151.9 36.2546 151.392 35.9763C150.885 35.6916 150.491 35.3357 150.211 34.9086C149.938 34.4816 149.736 33.9801 149.606 33.4042C149.483 32.8283 149.411 32.178 149.392 31.4533C149.372 30.7286 149.362 29.9262 149.362 29.0462C149.362 28.1662 149.372 27.3638 149.392 26.6391C149.411 25.9144 149.483 25.2641 149.606 24.6882C149.736 24.1123 149.938 23.6108 150.211 23.1838C150.491 22.7567 150.885 22.404 151.392 22.1258C151.9 21.8411 152.544 21.6308 153.325 21.4949C154.112 21.3525 155.078 21.2814 156.223 21.2814H161.864ZM161.864 35.2581C162.69 35.2581 163.386 35.2354 163.953 35.1901C164.525 35.1384 164.997 35.0381 165.368 34.8892C165.738 34.7404 166.025 34.5269 166.226 34.2486C166.428 33.9704 166.574 33.6016 166.666 33.1422C166.757 32.6827 166.809 32.1198 166.822 31.4533C166.841 30.7803 166.851 29.978 166.851 29.0462C166.851 28.1144 166.841 27.3153 166.822 26.6488C166.809 25.9759 166.757 25.4097 166.666 24.9503C166.574 24.4908 166.428 24.122 166.226 23.8438C166.025 23.5655 165.738 23.352 165.368 23.2032C165.003 23.0543 164.535 22.9573 163.962 22.912C163.396 22.8602 162.697 22.8343 161.864 22.8343H156.223C155.39 22.8343 154.688 22.8602 154.115 22.912C153.549 22.9573 153.081 23.0543 152.71 23.2032C152.339 23.352 152.053 23.5655 151.851 23.8438C151.649 24.122 151.503 24.4908 151.412 24.9503C151.321 25.4097 151.269 25.9759 151.256 26.6488C151.243 27.3153 151.236 28.1144 151.236 29.0462C151.236 29.978 151.243 30.7803 151.256 31.4533C151.275 32.1198 151.33 32.6827 151.422 33.1422C151.513 33.6016 151.656 33.9704 151.851 34.2486C152.053 34.5269 152.339 34.7404 152.71 34.8892C153.081 35.0381 153.549 35.1384 154.115 35.1901C154.688 35.2354 155.39 35.2581 156.223 35.2581H161.864Z" fill="url(#paint10_linear_1605_7278)"/>
<path d="M189.426 21.592V29.0462C189.426 29.9262 189.413 30.7286 189.387 31.4533C189.368 32.178 189.293 32.8283 189.163 33.4042C189.039 33.9801 188.841 34.4816 188.567 34.9086C188.294 35.3357 187.904 35.6916 187.396 35.9763C186.889 36.2546 186.241 36.4616 185.454 36.5975C184.673 36.7399 183.71 36.811 182.565 36.811H178.174C177.029 36.811 176.062 36.7399 175.275 36.5975C174.494 36.4616 173.85 36.2546 173.343 35.9763C172.835 35.6916 172.442 35.3357 172.162 34.9086C171.889 34.4816 171.687 33.9801 171.557 33.4042C171.433 32.8283 171.362 32.178 171.342 31.4533C171.323 30.7286 171.313 29.9262 171.313 29.0462V21.592H173.187V29.0462C173.187 29.978 173.193 30.7803 173.206 31.4533C173.226 32.1198 173.281 32.6827 173.372 33.1422C173.463 33.6016 173.606 33.9704 173.801 34.2486C174.003 34.5269 174.289 34.7404 174.66 34.8892C175.031 35.0381 175.5 35.1384 176.066 35.1901C176.638 35.2354 177.341 35.2581 178.174 35.2581H182.565C183.392 35.2581 184.091 35.2354 184.664 35.1901C185.236 35.1384 185.705 35.0381 186.069 34.8892C186.44 34.7404 186.726 34.5269 186.928 34.2486C187.129 33.9704 187.276 33.6016 187.367 33.1422C187.464 32.6827 187.52 32.1198 187.533 31.4533C187.546 30.7803 187.552 29.978 187.552 29.0462L187.543 21.592H189.426Z" fill="url(#paint11_linear_1605_7278)"/>
<path d="M194.513 36.5004H192.639V21.592H195.928L209.669 34.6369V21.592H211.543V36.5004H209.044L194.513 23.1449V36.5004Z" fill="url(#paint12_linear_1605_7278)"/>
<path d="M226.613 34.9475C227.439 34.9475 228.138 34.9248 228.711 34.8795C229.284 34.8342 229.755 34.7436 230.126 34.6078C230.497 34.4654 230.783 34.2616 230.985 33.9963C231.187 33.731 231.333 33.3816 231.424 32.948C231.522 32.508 231.577 31.971 231.59 31.3368C231.609 30.6962 231.619 29.9327 231.619 29.0462C231.619 28.1597 231.609 27.3994 231.59 26.7653C231.577 26.1247 231.522 25.5876 231.424 25.1541C231.333 24.7141 231.187 24.3614 230.985 24.0961C230.783 23.8308 230.497 23.6302 230.126 23.4943C229.755 23.352 229.284 23.2582 228.711 23.2129C228.145 23.1676 227.446 23.1449 226.613 23.1449H217.254V34.9475H226.613ZM215.38 36.5004V21.592H226.613C227.758 21.592 228.721 21.6599 229.501 21.7958C230.289 21.9252 230.936 22.1258 231.444 22.3976C231.958 22.6693 232.351 23.009 232.624 23.4167C232.904 23.8244 233.106 24.3064 233.23 24.8629C233.36 25.4129 233.434 26.0373 233.454 26.7362C233.48 27.4285 233.493 28.1985 233.493 29.0462C233.493 29.8939 233.48 30.6671 233.454 31.3659C233.434 32.0583 233.36 32.6827 233.23 33.2392C233.106 33.7892 232.904 34.2681 232.624 34.6757C232.351 35.0834 231.958 35.4231 231.444 35.6948C230.936 35.9666 230.289 36.1704 229.501 36.3063C228.721 36.4357 227.758 36.5004 226.613 36.5004H215.38Z" fill="url(#paint13_linear_1605_7278)"/>
<path d="M251.374 33.0839H239.507L237.633 36.5004H235.447L244.191 21.592H246.689L255.434 36.5004H253.248L251.374 33.0839ZM250.437 31.5309L245.44 22.8343L240.444 31.5309H250.437Z" fill="url(#paint14_linear_1605_7278)"/>
<path d="M274.252 21.592V23.1449H266.756V36.5004H264.883V23.1449H257.388V21.592H274.252Z" fill="url(#paint15_linear_1605_7278)"/>
<path d="M277.454 21.592H279.328V36.5004H277.454V21.592Z" fill="url(#paint16_linear_1605_7278)"/>
<path d="M295.033 21.2814C296.178 21.2814 297.141 21.3525 297.922 21.4949C298.709 21.6308 299.356 21.8411 299.864 22.1258C300.371 22.404 300.762 22.7567 301.035 23.1838C301.308 23.6108 301.507 24.1123 301.63 24.6882C301.76 25.2641 301.835 25.9144 301.855 26.6391C301.881 27.3638 301.894 28.1662 301.894 29.0462C301.894 29.9262 301.881 30.7286 301.855 31.4533C301.835 32.178 301.76 32.8283 301.63 33.4042C301.507 33.9801 301.308 34.4816 301.035 34.9086C300.762 35.3357 300.371 35.6916 299.864 35.9763C299.356 36.2546 298.709 36.4616 297.922 36.5975C297.141 36.7399 296.178 36.811 295.033 36.811H289.392C288.247 36.811 287.281 36.7399 286.493 36.5975C285.713 36.4616 285.069 36.2546 284.561 35.9763C284.054 35.6916 283.66 35.3357 283.38 34.9086C283.107 34.4816 282.905 33.9801 282.775 33.4042C282.652 32.8283 282.58 32.178 282.56 31.4533C282.541 30.7286 282.531 29.9262 282.531 29.0462C282.531 28.1662 282.541 27.3638 282.56 26.6391C282.58 25.9144 282.652 25.2641 282.775 24.6882C282.905 24.1123 283.107 23.6108 283.38 23.1838C283.66 22.7567 284.054 22.404 284.561 22.1258C285.069 21.8411 285.713 21.6308 286.493 21.4949C287.281 21.3525 288.247 21.2814 289.392 21.2814H295.033ZM295.033 35.2581C295.859 35.2581 296.555 35.2354 297.121 35.1901C297.694 35.1384 298.166 35.0381 298.536 34.8892C298.907 34.7404 299.194 34.5269 299.395 34.2486C299.597 33.9704 299.743 33.6016 299.834 33.1422C299.926 32.6827 299.978 32.1198 299.991 31.4533C300.01 30.7803 300.02 29.978 300.02 29.0462C300.02 28.1144 300.01 27.3153 299.991 26.6488C299.978 25.9759 299.926 25.4097 299.834 24.9503C299.743 24.4908 299.597 24.122 299.395 23.8438C299.194 23.5655 298.907 23.352 298.536 23.2032C298.172 23.0543 297.704 22.9573 297.131 22.912C296.565 22.8602 295.866 22.8343 295.033 22.8343H289.392C288.559 22.8343 287.857 22.8602 287.284 22.912C286.718 22.9573 286.249 23.0543 285.879 23.2032C285.508 23.352 285.222 23.5655 285.02 23.8438C284.818 24.122 284.672 24.4908 284.581 24.9503C284.49 25.4097 284.438 25.9759 284.425 26.6488C284.411 27.3153 284.405 28.1144 284.405 29.0462C284.405 29.978 284.411 30.7803 284.425 31.4533C284.444 32.1198 284.499 32.6827 284.59 33.1422C284.682 33.6016 284.825 33.9704 285.02 34.2486C285.222 34.5269 285.508 34.7404 285.879 34.8892C286.249 35.0381 286.718 35.1384 287.284 35.1901C287.857 35.2354 288.559 35.2581 289.392 35.2581H295.033Z" fill="url(#paint17_linear_1605_7278)"/>
<path d="M306.97 36.5004H305.097V21.592H308.385L322.126 34.6369V21.592H324V36.5004H321.502L306.97 23.1449V36.5004Z" fill="url(#paint18_linear_1605_7278)"/>
<path d="M134.072 47.5891H134.933V52.3385H134.072V47.5891ZM134.502 46.6751C134.335 46.6751 134.195 46.6213 134.081 46.5138C133.974 46.4062 133.92 46.2748 133.92 46.1195C133.92 45.9642 133.974 45.8327 134.081 45.7252C134.195 45.6117 134.335 45.5549 134.502 45.5549C134.67 45.5549 134.807 45.6087 134.915 45.7162C135.028 45.8178 135.085 45.9462 135.085 46.1016C135.085 46.2629 135.028 46.4003 134.915 46.5138C134.807 46.6213 134.67 46.6751 134.502 46.6751Z" fill="#E5E5E5"/>
<path d="M139.147 47.5443C139.75 47.5443 140.228 47.7205 140.581 48.073C140.939 48.4195 141.118 48.9303 141.118 49.6053V52.3385H140.258V49.7039C140.258 49.2439 140.148 48.8974 139.927 48.6644C139.705 48.4314 139.389 48.3149 138.977 48.3149C138.511 48.3149 138.143 48.4523 137.874 48.7272C137.606 48.996 137.471 49.3843 137.471 49.8921V52.3385H136.611V47.5891H137.435V48.306C137.609 48.061 137.842 47.8729 138.134 47.7414C138.433 47.61 138.771 47.5443 139.147 47.5443Z" fill="#E5E5E5"/>
<path d="M146.861 47.5891L144.783 52.3385H143.904L141.825 47.5891H142.721L144.352 51.3976L146.019 47.5891H146.861Z" fill="#E5E5E5"/>
<path d="M151.861 49.9907C151.861 50.0564 151.855 50.143 151.843 50.2505H147.99C148.044 50.6687 148.226 51.0063 148.537 51.2631C148.853 51.5141 149.245 51.6395 149.711 51.6395C150.278 51.6395 150.735 51.4483 151.082 51.066L151.557 51.6216C151.342 51.8725 151.073 52.0637 150.75 52.1951C150.433 52.3265 150.078 52.3922 149.684 52.3922C149.182 52.3922 148.737 52.2907 148.349 52.0876C147.96 51.8785 147.659 51.5887 147.443 51.2183C147.234 50.8479 147.13 50.4298 147.13 49.9638C147.13 49.5038 147.231 49.0886 147.434 48.7182C147.644 48.3478 147.927 48.061 148.286 47.8579C148.65 47.6488 149.059 47.5443 149.513 47.5443C149.967 47.5443 150.371 47.6488 150.723 47.8579C151.082 48.061 151.359 48.3478 151.557 48.7182C151.76 49.0886 151.861 49.5127 151.861 49.9907ZM149.513 48.2701C149.101 48.2701 148.755 48.3956 148.474 48.6465C148.199 48.8974 148.038 49.226 147.99 49.6322H151.037C150.989 49.232 150.825 48.9064 150.544 48.6555C150.269 48.3986 149.926 48.2701 149.513 48.2701Z" fill="#E5E5E5"/>
<path d="M154.454 52.3922C154.065 52.3922 153.692 52.3415 153.334 52.2399C152.975 52.1324 152.694 51.9979 152.491 51.8366L152.85 51.1556C153.059 51.305 153.313 51.4244 153.611 51.5141C153.91 51.6037 154.212 51.6485 154.516 51.6485C155.269 51.6485 155.646 51.4334 155.646 51.0033C155.646 50.8599 155.595 50.7464 155.493 50.6627C155.392 50.5791 155.263 50.5194 155.108 50.4835C154.959 50.4417 154.743 50.3969 154.463 50.3491C154.08 50.2894 153.767 50.2207 153.522 50.143C153.283 50.0653 153.077 49.9339 152.903 49.7487C152.73 49.5635 152.644 49.3037 152.644 48.9691C152.644 48.539 152.823 48.1955 153.181 47.9386C153.54 47.6757 154.021 47.5443 154.624 47.5443C154.941 47.5443 155.257 47.5831 155.574 47.6608C155.891 47.7384 156.15 47.843 156.353 47.9744L155.986 48.6555C155.598 48.4046 155.141 48.2791 154.615 48.2791C154.251 48.2791 153.973 48.3388 153.782 48.4583C153.59 48.5778 153.495 48.7361 153.495 48.9333C153.495 49.0886 153.549 49.2111 153.656 49.3007C153.764 49.3903 153.895 49.456 154.05 49.4978C154.212 49.5396 154.436 49.5874 154.723 49.6412C155.105 49.7069 155.413 49.7786 155.646 49.8563C155.885 49.9279 156.088 50.0534 156.255 50.2326C156.422 50.4118 156.506 50.6627 156.506 50.9853C156.506 51.4155 156.321 51.759 155.95 52.0159C155.586 52.2668 155.087 52.3922 154.454 52.3922Z" fill="#E5E5E5"/>
<path d="M160.287 52.0607C160.162 52.1682 160.006 52.2518 159.821 52.3116C159.636 52.3654 159.445 52.3922 159.248 52.3922C158.77 52.3922 158.399 52.2638 158.137 52.0069C157.874 51.75 157.742 51.3826 157.742 50.9047V48.297H156.936V47.5891H157.742V46.5496H158.603V47.5891H159.965V48.297H158.603V50.8689C158.603 51.1257 158.665 51.3229 158.791 51.4603C158.922 51.5977 159.107 51.6664 159.346 51.6664C159.609 51.6664 159.833 51.5917 160.018 51.4424L160.287 52.0607Z" fill="#E5E5E5"/>
<path d="M162.725 52.3922C162.337 52.3922 161.963 52.3415 161.605 52.2399C161.247 52.1324 160.966 51.9979 160.763 51.8366L161.121 51.1556C161.33 51.305 161.584 51.4244 161.883 51.5141C162.182 51.6037 162.483 51.6485 162.788 51.6485C163.541 51.6485 163.917 51.4334 163.917 51.0033C163.917 50.8599 163.866 50.7464 163.765 50.6627C163.663 50.5791 163.535 50.5194 163.379 50.4835C163.23 50.4417 163.015 50.3969 162.734 50.3491C162.352 50.2894 162.038 50.2207 161.793 50.143C161.554 50.0653 161.348 49.9339 161.175 49.7487C161.002 49.5635 160.915 49.3037 160.915 48.9691C160.915 48.539 161.094 48.1955 161.453 47.9386C161.811 47.6757 162.292 47.5443 162.895 47.5443C163.212 47.5443 163.529 47.5831 163.845 47.6608C164.162 47.7384 164.422 47.843 164.625 47.9744L164.258 48.6555C163.869 48.4046 163.412 48.2791 162.886 48.2791C162.522 48.2791 162.244 48.3388 162.053 48.4583C161.862 48.5778 161.766 48.7361 161.766 48.9333C161.766 49.0886 161.82 49.2111 161.928 49.3007C162.035 49.3903 162.167 49.456 162.322 49.4978C162.483 49.5396 162.707 49.5874 162.994 49.6412C163.376 49.7069 163.684 49.7786 163.917 49.8563C164.156 49.9279 164.359 50.0534 164.526 50.2326C164.694 50.4118 164.777 50.6627 164.777 50.9853C164.777 51.4155 164.592 51.759 164.222 52.0159C163.857 52.2668 163.358 52.3922 162.725 52.3922Z" fill="#E5E5E5"/>
<path d="M166.103 51.1646C166.271 51.1646 166.408 51.2243 166.515 51.3438C166.629 51.4573 166.686 51.6007 166.686 51.7739C166.686 51.8635 166.674 51.9502 166.65 52.0338C166.632 52.1174 166.593 52.2459 166.533 52.4191L166.112 53.6647H165.548L165.879 52.3295C165.766 52.2877 165.673 52.219 165.601 52.1234C165.536 52.0218 165.503 51.9054 165.503 51.7739C165.503 51.5947 165.56 51.4483 165.673 51.3348C165.787 51.2213 165.93 51.1646 166.103 51.1646Z" fill="#E5E5E5"/>
<path d="M172.431 52.3922C171.959 52.3922 171.535 52.2877 171.158 52.0786C170.782 51.8695 170.486 51.5828 170.271 51.2183C170.062 50.8479 169.958 50.4298 169.958 49.9638C169.958 49.4978 170.062 49.0826 170.271 48.7182C170.486 48.3478 170.782 48.061 171.158 47.8579C171.535 47.6488 171.959 47.5443 172.431 47.5443C172.903 47.5443 173.324 47.6488 173.694 47.8579C174.071 48.061 174.363 48.3478 174.573 48.7182C174.788 49.0826 174.895 49.4978 174.895 49.9638C174.895 50.4298 174.788 50.8479 174.573 51.2183C174.363 51.5828 174.071 51.8695 173.694 52.0786C173.324 52.2877 172.903 52.3922 172.431 52.3922ZM172.431 51.6395C172.736 51.6395 173.007 51.5708 173.246 51.4334C173.491 51.29 173.682 51.0929 173.82 50.842C173.957 50.5851 174.026 50.2924 174.026 49.9638C174.026 49.6352 173.957 49.3455 173.82 49.0946C173.682 48.8377 173.491 48.6405 173.246 48.5031C173.007 48.3657 172.736 48.297 172.431 48.297C172.126 48.297 171.851 48.3657 171.606 48.5031C171.367 48.6405 171.176 48.8377 171.033 49.0946C170.896 49.3455 170.827 49.6352 170.827 49.9638C170.827 50.2924 170.896 50.5851 171.033 50.842C171.176 51.0929 171.367 51.29 171.606 51.4334C171.851 51.5708 172.126 51.6395 172.431 51.6395Z" fill="#E5E5E5"/>
<path d="M183.176 47.5891L181.402 52.3385H180.578L179.206 48.7361L177.818 52.3385H176.993L175.228 47.5891H176.043L177.423 51.3707L178.857 47.5891H179.583L180.99 51.3886L182.406 47.5891H183.176Z" fill="#E5E5E5"/>
<path d="M186.621 47.5443C187.224 47.5443 187.702 47.7205 188.055 48.073C188.413 48.4195 188.592 48.9303 188.592 49.6053V52.3385H187.732V49.7039C187.732 49.2439 187.622 48.8974 187.401 48.6644C187.18 48.4314 186.863 48.3149 186.451 48.3149C185.985 48.3149 185.617 48.4523 185.349 48.7272C185.08 48.996 184.945 49.3843 184.945 49.8921V52.3385H184.085V47.5891H184.909V48.306C185.083 48.061 185.316 47.8729 185.608 47.7414C185.907 47.61 186.245 47.5443 186.621 47.5443Z" fill="#E5E5E5"/>
<path d="M191.582 52.3922C191.194 52.3922 190.821 52.3415 190.462 52.2399C190.104 52.1324 189.823 51.9979 189.62 51.8366L189.978 51.1556C190.188 51.305 190.441 51.4244 190.74 51.5141C191.039 51.6037 191.34 51.6485 191.645 51.6485C192.398 51.6485 192.774 51.4334 192.774 51.0033C192.774 50.8599 192.723 50.7464 192.622 50.6627C192.52 50.5791 192.392 50.5194 192.237 50.4835C192.087 50.4417 191.872 50.3969 191.591 50.3491C191.209 50.2894 190.895 50.2207 190.65 50.143C190.412 50.0653 190.205 49.9339 190.032 49.7487C189.859 49.5635 189.772 49.3037 189.772 48.9691C189.772 48.539 189.952 48.1955 190.31 47.9386C190.668 47.6757 191.149 47.5443 191.753 47.5443C192.069 47.5443 192.386 47.5831 192.703 47.6608C193.019 47.7384 193.279 47.843 193.482 47.9744L193.115 48.6555C192.726 48.4046 192.269 48.2791 191.744 48.2791C191.379 48.2791 191.102 48.3388 190.91 48.4583C190.719 48.5778 190.624 48.7361 190.624 48.9333C190.624 49.0886 190.677 49.2111 190.785 49.3007C190.892 49.3903 191.024 49.456 191.179 49.4978C191.34 49.5396 191.565 49.5874 191.851 49.6412C192.234 49.7069 192.541 49.7786 192.774 49.8563C193.013 49.9279 193.216 50.0534 193.384 50.2326C193.551 50.4118 193.635 50.6627 193.635 50.9853C193.635 51.4155 193.449 51.759 193.079 52.0159C192.715 52.2668 192.216 52.3922 191.582 52.3922Z" fill="#E5E5E5"/>
<path d="M198.917 47.5443C199.575 47.5443 200.076 47.7056 200.423 48.0282C200.775 48.3508 200.952 48.8317 200.952 49.4709V52.3385H200.136V51.7112C199.993 51.9322 199.787 52.1025 199.518 52.222C199.255 52.3355 198.941 52.3922 198.577 52.3922C198.045 52.3922 197.618 52.2638 197.295 52.0069C196.979 51.75 196.82 51.4125 196.82 50.9943C196.82 50.5761 196.973 50.2416 197.277 49.9907C197.582 49.7338 198.066 49.6053 198.729 49.6053H200.091V49.4351C200.091 49.0647 199.984 48.7809 199.769 48.5838C199.554 48.3866 199.237 48.2881 198.819 48.2881C198.538 48.2881 198.263 48.3359 197.994 48.4314C197.726 48.521 197.499 48.6435 197.313 48.7988L196.955 48.1536C197.2 47.9565 197.493 47.8072 197.833 47.7056C198.174 47.5981 198.535 47.5443 198.917 47.5443ZM198.72 51.7291C199.049 51.7291 199.333 51.6574 199.572 51.5141C199.81 51.3647 199.984 51.1556 200.091 50.8868V50.2237H198.765C198.036 50.2237 197.672 50.4686 197.672 50.9585C197.672 51.1974 197.764 51.3856 197.95 51.523C198.135 51.6604 198.392 51.7291 198.72 51.7291Z" fill="#E5E5E5"/>
<path d="M205.115 47.5443C205.719 47.5443 206.197 47.7205 206.549 48.073C206.908 48.4195 207.087 48.9303 207.087 49.6053V52.3385H206.227V49.7039C206.227 49.2439 206.116 48.8974 205.895 48.6644C205.674 48.4314 205.357 48.3149 204.945 48.3149C204.479 48.3149 204.112 48.4523 203.843 48.7272C203.574 48.996 203.44 49.3843 203.44 49.8921V52.3385H202.579V47.5891H203.404V48.306C203.577 48.061 203.81 47.8729 204.103 47.7414C204.401 47.61 204.739 47.5443 205.115 47.5443Z" fill="#E5E5E5"/>
<path d="M213.221 45.6893V52.3385H212.397V51.5857C212.206 51.8486 211.964 52.0487 211.671 52.1861C211.379 52.3235 211.056 52.3922 210.703 52.3922C210.243 52.3922 209.831 52.2907 209.467 52.0876C209.102 51.8844 208.816 51.6007 208.607 51.2363C208.403 50.8659 208.302 50.4417 208.302 49.9638C208.302 49.4859 208.403 49.0647 208.607 48.7003C208.816 48.3359 209.102 48.0521 209.467 47.849C209.831 47.6459 210.243 47.5443 210.703 47.5443C211.044 47.5443 211.358 47.61 211.644 47.7414C211.931 47.8669 212.17 48.0551 212.361 48.306V45.6893H213.221ZM210.775 51.6395C211.074 51.6395 211.346 51.5708 211.591 51.4334C211.836 51.29 212.027 51.0929 212.164 50.842C212.301 50.5851 212.37 50.2924 212.37 49.9638C212.37 49.6352 212.301 49.3455 212.164 49.0946C212.027 48.8377 211.836 48.6405 211.591 48.5031C211.346 48.3657 211.074 48.297 210.775 48.297C210.47 48.297 210.196 48.3657 209.951 48.5031C209.712 48.6405 209.521 48.8377 209.377 49.0946C209.24 49.3455 209.171 49.6352 209.171 49.9638C209.171 50.2924 209.24 50.5851 209.377 50.842C209.521 51.0929 209.712 51.29 209.951 51.4334C210.196 51.5708 210.47 51.6395 210.775 51.6395Z" fill="#E5E5E5"/>
<path d="M223.269 47.5443C223.866 47.5443 224.338 47.7175 224.684 48.064C225.037 48.4105 225.213 48.9243 225.213 49.6053V52.3385H224.353V49.7039C224.353 49.2439 224.245 48.8974 224.03 48.6644C223.821 48.4314 223.52 48.3149 223.125 48.3149C222.689 48.3149 222.343 48.4523 222.086 48.7272C221.829 48.996 221.7 49.3843 221.7 49.8921V52.3385H220.84V49.7039C220.84 49.2439 220.733 48.8974 220.518 48.6644C220.308 48.4314 220.007 48.3149 219.612 48.3149C219.176 48.3149 218.83 48.4523 218.573 48.7272C218.316 48.996 218.188 49.3843 218.188 49.8921V52.3385H217.327V47.5891H218.152V48.297C218.325 48.0521 218.552 47.8669 218.833 47.7414C219.114 47.61 219.433 47.5443 219.792 47.5443C220.162 47.5443 220.491 47.619 220.777 47.7683C221.064 47.9177 221.285 48.1357 221.441 48.4225C221.62 48.1477 221.868 47.9326 222.184 47.7773C222.507 47.622 222.868 47.5443 223.269 47.5443Z" fill="#E5E5E5"/>
<path d="M228.561 47.5443C229.219 47.5443 229.72 47.7056 230.067 48.0282C230.419 48.3508 230.596 48.8317 230.596 49.4709V52.3385H229.78V51.7112C229.637 51.9322 229.431 52.1025 229.162 52.222C228.899 52.3355 228.585 52.3922 228.221 52.3922C227.689 52.3922 227.262 52.2638 226.939 52.0069C226.623 51.75 226.465 51.4125 226.465 50.9943C226.465 50.5761 226.617 50.2416 226.922 49.9907C227.226 49.7338 227.71 49.6053 228.373 49.6053H229.735V49.4351C229.735 49.0647 229.628 48.7809 229.413 48.5838C229.198 48.3866 228.881 48.2881 228.463 48.2881C228.182 48.2881 227.907 48.3359 227.638 48.4314C227.37 48.521 227.143 48.6435 226.957 48.7988L226.599 48.1536C226.844 47.9565 227.137 47.8072 227.477 47.7056C227.818 47.5981 228.179 47.5443 228.561 47.5443ZM228.364 51.7291C228.693 51.7291 228.977 51.6574 229.216 51.5141C229.455 51.3647 229.628 51.1556 229.735 50.8868V50.2237H228.409C227.68 50.2237 227.316 50.4686 227.316 50.9585C227.316 51.1974 227.408 51.3856 227.594 51.523C227.779 51.6604 228.036 51.7291 228.364 51.7291Z" fill="#E5E5E5"/>
<path d="M234.759 47.5443C235.363 47.5443 235.841 47.7205 236.193 48.073C236.552 48.4195 236.731 48.9303 236.731 49.6053V52.3385H235.871V49.7039C235.871 49.2439 235.76 48.8974 235.539 48.6644C235.318 48.4314 235.001 48.3149 234.589 48.3149C234.123 48.3149 233.756 48.4523 233.487 48.7272C233.218 48.996 233.084 49.3843 233.084 49.8921V52.3385H232.223V47.5891H233.048V48.306C233.221 48.061 233.454 47.8729 233.747 47.7414C234.045 47.61 234.383 47.5443 234.759 47.5443Z" fill="#E5E5E5"/>
<path d="M240.088 47.5443C240.745 47.5443 241.247 47.7056 241.594 48.0282C241.946 48.3508 242.122 48.8317 242.122 49.4709V52.3385H241.307V51.7112C241.164 51.9322 240.957 52.1025 240.689 52.222C240.426 52.3355 240.112 52.3922 239.748 52.3922C239.216 52.3922 238.789 52.2638 238.466 52.0069C238.15 51.75 237.991 51.4125 237.991 50.9943C237.991 50.5761 238.144 50.2416 238.448 49.9907C238.753 49.7338 239.237 49.6053 239.9 49.6053H241.262V49.4351C241.262 49.0647 241.155 48.7809 240.94 48.5838C240.724 48.3866 240.408 48.2881 239.99 48.2881C239.709 48.2881 239.434 48.3359 239.165 48.4314C238.896 48.521 238.669 48.6435 238.484 48.7988L238.126 48.1536C238.371 47.9565 238.663 47.8072 239.004 47.7056C239.344 47.5981 239.706 47.5443 240.088 47.5443ZM239.891 51.7291C240.22 51.7291 240.503 51.6574 240.742 51.5141C240.981 51.3647 241.155 51.1556 241.262 50.8868V50.2237H239.936C239.207 50.2237 238.843 50.4686 238.843 50.9585C238.843 51.1974 238.935 51.3856 239.12 51.523C239.306 51.6604 239.562 51.7291 239.891 51.7291Z" fill="#E5E5E5"/>
<path d="M248.32 47.5891V51.6933C248.32 52.5237 248.114 53.136 247.701 53.5303C247.289 53.9306 246.674 54.1307 245.855 54.1307C245.407 54.1307 244.98 54.068 244.574 53.9425C244.168 53.823 243.839 53.6498 243.588 53.4228L244 52.7596C244.222 52.9508 244.493 53.1002 244.816 53.2077C245.145 53.3212 245.482 53.378 245.829 53.378C246.384 53.378 246.793 53.2465 247.056 52.9837C247.325 52.7208 247.459 52.3205 247.459 51.7829V51.4065C247.256 51.6515 247.005 51.8366 246.707 51.9621C246.414 52.0816 246.094 52.1413 245.748 52.1413C245.294 52.1413 244.882 52.0457 244.511 51.8546C244.147 51.6574 243.86 51.3856 243.651 51.0391C243.442 50.6866 243.337 50.2864 243.337 49.8383C243.337 49.3903 243.442 48.993 243.651 48.6465C243.86 48.294 244.147 48.0222 244.511 47.831C244.882 47.6399 245.294 47.5443 245.748 47.5443C246.106 47.5443 246.438 47.61 246.743 47.7414C247.053 47.8729 247.307 48.067 247.504 48.3239V47.5891H248.32ZM245.846 51.3886C246.157 51.3886 246.435 51.3229 246.68 51.1915C246.931 51.06 247.125 50.8778 247.262 50.6448C247.406 50.4059 247.477 50.137 247.477 49.8383C247.477 49.3783 247.325 49.0079 247.02 48.7272C246.716 48.4404 246.324 48.297 245.846 48.297C245.363 48.297 244.968 48.4404 244.664 48.7272C244.359 49.0079 244.207 49.3783 244.207 49.8383C244.207 50.137 244.275 50.4059 244.413 50.6448C244.556 50.8778 244.75 51.06 244.995 51.1915C245.246 51.3229 245.53 51.3886 245.846 51.3886Z" fill="#E5E5E5"/>
<path d="M254.292 49.9907C254.292 50.0564 254.286 50.143 254.274 50.2505H250.42C250.474 50.6687 250.656 51.0063 250.967 51.2631C251.284 51.5141 251.675 51.6395 252.141 51.6395C252.709 51.6395 253.166 51.4483 253.512 51.066L253.987 51.6216C253.772 51.8725 253.503 52.0637 253.18 52.1951C252.864 52.3265 252.508 52.3922 252.114 52.3922C251.612 52.3922 251.167 52.2907 250.779 52.0876C250.391 51.8785 250.089 51.5887 249.874 51.2183C249.665 50.8479 249.56 50.4298 249.56 49.9638C249.56 49.5038 249.662 49.0886 249.865 48.7182C250.074 48.3478 250.358 48.061 250.716 47.8579C251.081 47.6488 251.49 47.5443 251.944 47.5443C252.398 47.5443 252.801 47.6488 253.154 47.8579C253.512 48.061 253.79 48.3478 253.987 48.7182C254.19 49.0886 254.292 49.5127 254.292 49.9907ZM251.944 48.2701C251.532 48.2701 251.185 48.3956 250.904 48.6465C250.63 48.8974 250.468 49.226 250.42 49.6322H253.467C253.419 49.232 253.255 48.9064 252.974 48.6555C252.7 48.3986 252.356 48.2701 251.944 48.2701Z" fill="#E5E5E5"/>
<path d="M256.884 52.3922C256.496 52.3922 256.122 52.3415 255.764 52.2399C255.406 52.1324 255.125 51.9979 254.922 51.8366L255.28 51.1556C255.489 51.305 255.743 51.4244 256.042 51.5141C256.341 51.6037 256.642 51.6485 256.947 51.6485C257.7 51.6485 258.076 51.4334 258.076 51.0033C258.076 50.8599 258.025 50.7464 257.924 50.6627C257.822 50.5791 257.694 50.5194 257.538 50.4835C257.389 50.4417 257.174 50.3969 256.893 50.3491C256.511 50.2894 256.197 50.2207 255.952 50.143C255.713 50.0653 255.507 49.9339 255.334 49.7487C255.161 49.5635 255.074 49.3037 255.074 48.9691C255.074 48.539 255.253 48.1955 255.612 47.9386C255.97 47.6757 256.451 47.5443 257.054 47.5443C257.371 47.5443 257.688 47.5831 258.004 47.6608C258.321 47.7384 258.581 47.843 258.784 47.9744L258.416 48.6555C258.028 48.4046 257.571 48.2791 257.045 48.2791C256.681 48.2791 256.403 48.3388 256.212 48.4583C256.021 48.5778 255.925 48.7361 255.925 48.9333C255.925 49.0886 255.979 49.2111 256.087 49.3007C256.194 49.3903 256.326 49.456 256.481 49.4978C256.642 49.5396 256.866 49.5874 257.153 49.6412C257.535 49.7069 257.843 49.7786 258.076 49.8563C258.315 49.9279 258.518 50.0534 258.685 50.2326C258.853 50.4118 258.936 50.6627 258.936 50.9853C258.936 51.4155 258.751 51.759 258.381 52.0159C258.016 52.2668 257.517 52.3922 256.884 52.3922Z" fill="#E5E5E5"/>
<path d="M263.314 48.3866C263.463 48.1118 263.684 47.9027 263.977 47.7594C264.27 47.616 264.625 47.5443 265.043 47.5443V48.3777C264.996 48.3717 264.93 48.3687 264.846 48.3687C264.38 48.3687 264.013 48.5091 263.744 48.7899C263.481 49.0647 263.35 49.459 263.35 49.9727V52.3385H262.49V47.5891H263.314V48.3866Z" fill="#E5E5E5"/>
<path d="M270.388 49.9907C270.388 50.0564 270.382 50.143 270.37 50.2505H266.517C266.571 50.6687 266.753 51.0063 267.064 51.2631C267.38 51.5141 267.772 51.6395 268.238 51.6395C268.805 51.6395 269.262 51.4483 269.609 51.066L270.084 51.6216C269.868 51.8725 269.6 52.0637 269.277 52.1951C268.96 52.3265 268.605 52.3922 268.211 52.3922C267.709 52.3922 267.264 52.2907 266.875 52.0876C266.487 51.8785 266.185 51.5887 265.97 51.2183C265.761 50.8479 265.657 50.4298 265.657 49.9638C265.657 49.5038 265.758 49.0886 265.961 48.7182C266.171 48.3478 266.454 48.061 266.813 47.8579C267.177 47.6488 267.586 47.5443 268.04 47.5443C268.494 47.5443 268.898 47.6488 269.25 47.8579C269.609 48.061 269.886 48.3478 270.084 48.7182C270.287 49.0886 270.388 49.5127 270.388 49.9907ZM268.04 48.2701C267.628 48.2701 267.282 48.3956 267.001 48.6465C266.726 48.8974 266.565 49.226 266.517 49.6322H269.564C269.516 49.232 269.352 48.9064 269.071 48.6555C268.796 48.3986 268.453 48.2701 268.04 48.2701Z" fill="#E5E5E5"/>
<path d="M273.217 47.5443C273.874 47.5443 274.376 47.7056 274.722 48.0282C275.075 48.3508 275.251 48.8317 275.251 49.4709V52.3385H274.436V51.7112C274.292 51.9322 274.086 52.1025 273.817 52.222C273.554 52.3355 273.241 52.3922 272.876 52.3922C272.345 52.3922 271.917 52.2638 271.595 52.0069C271.278 51.75 271.12 51.4125 271.12 50.9943C271.12 50.5761 271.272 50.2416 271.577 49.9907C271.882 49.7338 272.366 49.6053 273.029 49.6053H274.391V49.4351C274.391 49.0647 274.283 48.7809 274.068 48.5838C273.853 48.3866 273.536 48.2881 273.118 48.2881C272.837 48.2881 272.563 48.3359 272.294 48.4314C272.025 48.521 271.798 48.6435 271.613 48.7988L271.254 48.1536C271.499 47.9565 271.792 47.8072 272.133 47.7056C272.473 47.5981 272.834 47.5443 273.217 47.5443ZM273.02 51.7291C273.348 51.7291 273.632 51.6574 273.871 51.5141C274.11 51.3647 274.283 51.1556 274.391 50.8868V50.2237H273.064C272.336 50.2237 271.971 50.4686 271.971 50.9585C271.971 51.1974 272.064 51.3856 272.249 51.523C272.434 51.6604 272.691 51.7291 273.02 51.7291Z" fill="#E5E5E5"/>
<path d="M276.879 45.6893H277.739V52.3385H276.879V45.6893Z" fill="#E5E5E5"/>
<path d="M286.152 49.9907C286.152 50.0564 286.146 50.143 286.134 50.2505H282.281C282.335 50.6687 282.517 51.0063 282.828 51.2631C283.144 51.5141 283.536 51.6395 284.002 51.6395C284.569 51.6395 285.026 51.4483 285.373 51.066L285.848 51.6216C285.632 51.8725 285.364 52.0637 285.041 52.1951C284.724 52.3265 284.369 52.3922 283.975 52.3922C283.473 52.3922 283.028 52.2907 282.639 52.0876C282.251 51.8785 281.949 51.5887 281.734 51.2183C281.525 50.8479 281.421 50.4298 281.421 49.9638C281.421 49.5038 281.522 49.0886 281.725 48.7182C281.935 48.3478 282.218 48.061 282.577 47.8579C282.941 47.6488 283.35 47.5443 283.804 47.5443C284.258 47.5443 284.662 47.6488 285.014 47.8579C285.373 48.061 285.65 48.3478 285.848 48.7182C286.051 49.0886 286.152 49.5127 286.152 49.9907ZM283.804 48.2701C283.392 48.2701 283.046 48.3956 282.765 48.6465C282.49 48.8974 282.329 49.226 282.281 49.6322H285.328C285.28 49.232 285.116 48.9064 284.835 48.6555C284.56 48.3986 284.217 48.2701 283.804 48.2701Z" fill="#E5E5E5"/>
<path d="M288.745 52.3922C288.356 52.3922 287.983 52.3415 287.625 52.2399C287.266 52.1324 286.985 51.9979 286.782 51.8366L287.141 51.1556C287.35 51.305 287.604 51.4244 287.902 51.5141C288.201 51.6037 288.503 51.6485 288.807 51.6485C289.56 51.6485 289.937 51.4334 289.937 51.0033C289.937 50.8599 289.886 50.7464 289.784 50.6627C289.683 50.5791 289.554 50.5194 289.399 50.4835C289.25 50.4417 289.034 50.3969 288.754 50.3491C288.371 50.2894 288.058 50.2207 287.813 50.143C287.574 50.0653 287.368 49.9339 287.194 49.7487C287.021 49.5635 286.935 49.3037 286.935 48.9691C286.935 48.539 287.114 48.1955 287.472 47.9386C287.831 47.6757 288.312 47.5443 288.915 47.5443C289.232 47.5443 289.548 47.5831 289.865 47.6608C290.181 47.7384 290.441 47.843 290.644 47.9744L290.277 48.6555C289.889 48.4046 289.432 48.2791 288.906 48.2791C288.542 48.2791 288.264 48.3388 288.073 48.4583C287.881 48.5778 287.786 48.7361 287.786 48.9333C287.786 49.0886 287.84 49.2111 287.947 49.3007C288.055 49.3903 288.186 49.456 288.341 49.4978C288.503 49.5396 288.727 49.5874 289.014 49.6412C289.396 49.7069 289.704 49.7786 289.937 49.8563C290.175 49.9279 290.379 50.0534 290.546 50.2326C290.713 50.4118 290.797 50.6627 290.797 50.9853C290.797 51.4155 290.612 51.759 290.241 52.0159C289.877 52.2668 289.378 52.3922 288.745 52.3922Z" fill="#E5E5E5"/>
<path d="M294.578 52.0607C294.453 52.1682 294.297 52.2518 294.112 52.3116C293.927 52.3654 293.736 52.3922 293.539 52.3922C293.061 52.3922 292.69 52.2638 292.428 52.0069C292.165 51.75 292.033 51.3826 292.033 50.9047V48.297H291.227V47.5891H292.033V46.5496H292.893V47.5891H294.256V48.297H292.893V50.8689C292.893 51.1257 292.956 51.3229 293.082 51.4603C293.213 51.5977 293.398 51.6664 293.637 51.6664C293.9 51.6664 294.124 51.5917 294.309 51.4424L294.578 52.0607Z" fill="#E5E5E5"/>
<path d="M297.384 47.5443C298.041 47.5443 298.543 47.7056 298.889 48.0282C299.241 48.3508 299.418 48.8317 299.418 49.4709V52.3385H298.602V51.7112C298.459 51.9322 298.253 52.1025 297.984 52.222C297.721 52.3355 297.407 52.3922 297.043 52.3922C296.511 52.3922 296.084 52.2638 295.762 52.0069C295.445 51.75 295.287 51.4125 295.287 50.9943C295.287 50.5761 295.439 50.2416 295.744 49.9907C296.048 49.7338 296.532 49.6053 297.195 49.6053H298.557V49.4351C298.557 49.0647 298.45 48.7809 298.235 48.5838C298.02 48.3866 297.703 48.2881 297.285 48.2881C297.004 48.2881 296.729 48.3359 296.461 48.4314C296.192 48.521 295.965 48.6435 295.78 48.7988L295.421 48.1536C295.666 47.9565 295.959 47.8072 296.299 47.7056C296.64 47.5981 297.001 47.5443 297.384 47.5443ZM297.186 51.7291C297.515 51.7291 297.799 51.6574 298.038 51.5141C298.277 51.3647 298.45 51.1556 298.557 50.8868V50.2237H297.231C296.502 50.2237 296.138 50.4686 296.138 50.9585C296.138 51.1974 296.231 51.3856 296.416 51.523C296.601 51.6604 296.858 51.7291 297.186 51.7291Z" fill="#E5E5E5"/>
<path d="M303.716 52.0607C303.59 52.1682 303.435 52.2518 303.25 52.3116C303.065 52.3654 302.874 52.3922 302.676 52.3922C302.199 52.3922 301.828 52.2638 301.565 52.0069C301.302 51.75 301.171 51.3826 301.171 50.9047V48.297H300.365V47.5891H301.171V46.5496H302.031V47.5891H303.393V48.297H302.031V50.8689C302.031 51.1257 302.094 51.3229 302.219 51.4603C302.351 51.5977 302.536 51.6664 302.775 51.6664C303.038 51.6664 303.262 51.5917 303.447 51.4424L303.716 52.0607Z" fill="#E5E5E5"/>
<path d="M308.927 49.9907C308.927 50.0564 308.921 50.143 308.909 50.2505H305.055C305.109 50.6687 305.291 51.0063 305.602 51.2631C305.919 51.5141 306.31 51.6395 306.776 51.6395C307.344 51.6395 307.801 51.4483 308.147 51.066L308.622 51.6216C308.407 51.8725 308.138 52.0637 307.815 52.1951C307.499 52.3265 307.143 52.3922 306.749 52.3922C306.247 52.3922 305.802 52.2907 305.414 52.0876C305.026 51.8785 304.724 51.5887 304.509 51.2183C304.3 50.8479 304.195 50.4298 304.195 49.9638C304.195 49.5038 304.297 49.0886 304.5 48.7182C304.709 48.3478 304.993 48.061 305.351 47.8579C305.716 47.6488 306.125 47.5443 306.579 47.5443C307.033 47.5443 307.436 47.6488 307.789 47.8579C308.147 48.061 308.425 48.3478 308.622 48.7182C308.825 49.0886 308.927 49.5127 308.927 49.9907ZM306.579 48.2701C306.167 48.2701 305.82 48.3956 305.539 48.6465C305.265 48.8974 305.103 49.226 305.055 49.6322H308.102C308.054 49.232 307.89 48.9064 307.609 48.6555C307.335 48.3986 306.991 48.2701 306.579 48.2701Z" fill="#E5E5E5"/>
<defs>
<linearGradient id="paint0_linear_1605_7278" x1="0.0112072" y1="9.74323" x2="16.2372" y2="-37.7045" gradientUnits="userSpaceOnUse">
<stop offset="0.34375" stop-color="#6D879C"/>
<stop offset="0.6875" stop-color="#A9C1D5"/>
<stop offset="0.927083" stop-color="#6D879C"/>
</linearGradient>
<linearGradient id="paint1_linear_1605_7278" x1="0.0112072" y1="9.74323" x2="16.2372" y2="-37.7045" gradientUnits="userSpaceOnUse">
<stop offset="0.34375" stop-color="#6D879C"/>
<stop offset="0.6875" stop-color="#A9C1D5"/>
<stop offset="0.927083" stop-color="#6D879C"/>
</linearGradient>
<linearGradient id="paint2_linear_1605_7278" x1="-1.12277e-06" y1="36.8111" x2="45.2448" y2="-5.30554" gradientUnits="userSpaceOnUse">
<stop stop-color="#E5E5E5"/>
<stop offset="0.703125" stop-color="#ECECEC"/>
<stop offset="1" stop-color="#E5E5E5"/>
</linearGradient>
<linearGradient id="paint3_linear_1605_7278" x1="-1.38846e-06" y1="23.582" x2="47.862" y2="-28.4529" gradientUnits="userSpaceOnUse">
<stop stop-color="#E5E5E5"/>
<stop offset="0.703125" stop-color="#ECECEC"/>
<stop offset="1" stop-color="#E5E5E5"/>
</linearGradient>
<linearGradient id="paint4_linear_1605_7278" x1="-1.38846e-06" y1="23.582" x2="47.862" y2="-28.4529" gradientUnits="userSpaceOnUse">
<stop stop-color="#E5E5E5"/>
<stop offset="0.703125" stop-color="#ECECEC"/>
<stop offset="1" stop-color="#E5E5E5"/>
</linearGradient>
<linearGradient id="paint5_linear_1605_7278" x1="133.05" y1="15.4745" x2="174.249" y2="-35.2082" gradientUnits="userSpaceOnUse">
<stop offset="0.34375" stop-color="#6D879C"/>
<stop offset="0.6875" stop-color="#A9C1D5"/>
<stop offset="0.927083" stop-color="#6D879C"/>
</linearGradient>
<linearGradient id="paint6_linear_1605_7278" x1="133.05" y1="15.4745" x2="174.249" y2="-35.2082" gradientUnits="userSpaceOnUse">
<stop offset="0.34375" stop-color="#6D879C"/>
<stop offset="0.6875" stop-color="#A9C1D5"/>
<stop offset="0.927083" stop-color="#6D879C"/>
</linearGradient>
<linearGradient id="paint7_linear_1605_7278" x1="133.05" y1="15.4745" x2="174.249" y2="-35.2082" gradientUnits="userSpaceOnUse">
<stop offset="0.34375" stop-color="#6D879C"/>
<stop offset="0.6875" stop-color="#A9C1D5"/>
<stop offset="0.927083" stop-color="#6D879C"/>
</linearGradient>
<linearGradient id="paint8_linear_1605_7278" x1="133.05" y1="15.4745" x2="174.249" y2="-35.2082" gradientUnits="userSpaceOnUse">
<stop offset="0.34375" stop-color="#6D879C"/>
<stop offset="0.6875" stop-color="#A9C1D5"/>
<stop offset="0.927083" stop-color="#6D879C"/>
</linearGradient>
<linearGradient id="paint9_linear_1605_7278" x1="133.043" y1="36.811" x2="199.793" y2="-62.3385" gradientUnits="userSpaceOnUse">
<stop stop-color="#E5E5E5"/>
<stop offset="0.703125" stop-color="#ECECEC"/>
<stop offset="1" stop-color="#E5E5E5"/>
</linearGradient>
<linearGradient id="paint10_linear_1605_7278" x1="133.043" y1="36.811" x2="199.793" y2="-62.3385" gradientUnits="userSpaceOnUse">
<stop stop-color="#E5E5E5"/>
<stop offset="0.703125" stop-color="#ECECEC"/>
<stop offset="1" stop-color="#E5E5E5"/>
</linearGradient>
<linearGradient id="paint11_linear_1605_7278" x1="133.043" y1="36.811" x2="199.793" y2="-62.3385" gradientUnits="userSpaceOnUse">
<stop stop-color="#E5E5E5"/>
<stop offset="0.703125" stop-color="#ECECEC"/>
<stop offset="1" stop-color="#E5E5E5"/>
</linearGradient>
<linearGradient id="paint12_linear_1605_7278" x1="133.043" y1="36.811" x2="199.793" y2="-62.3385" gradientUnits="userSpaceOnUse">
<stop stop-color="#E5E5E5"/>
<stop offset="0.703125" stop-color="#ECECEC"/>
<stop offset="1" stop-color="#E5E5E5"/>
</linearGradient>
<linearGradient id="paint13_linear_1605_7278" x1="133.043" y1="36.811" x2="199.793" y2="-62.3385" gradientUnits="userSpaceOnUse">
<stop stop-color="#E5E5E5"/>
<stop offset="0.703125" stop-color="#ECECEC"/>
<stop offset="1" stop-color="#E5E5E5"/>
</linearGradient>
<linearGradient id="paint14_linear_1605_7278" x1="133.043" y1="36.811" x2="199.793" y2="-62.3385" gradientUnits="userSpaceOnUse">
<stop stop-color="#E5E5E5"/>
<stop offset="0.703125" stop-color="#ECECEC"/>
<stop offset="1" stop-color="#E5E5E5"/>
</linearGradient>
<linearGradient id="paint15_linear_1605_7278" x1="133.043" y1="36.811" x2="199.793" y2="-62.3385" gradientUnits="userSpaceOnUse">
<stop stop-color="#E5E5E5"/>
<stop offset="0.703125" stop-color="#ECECEC"/>
<stop offset="1" stop-color="#E5E5E5"/>
</linearGradient>
<linearGradient id="paint16_linear_1605_7278" x1="133.043" y1="36.811" x2="199.793" y2="-62.3385" gradientUnits="userSpaceOnUse">
<stop stop-color="#E5E5E5"/>
<stop offset="0.703125" stop-color="#ECECEC"/>
<stop offset="1" stop-color="#E5E5E5"/>
</linearGradient>
<linearGradient id="paint17_linear_1605_7278" x1="133.043" y1="36.811" x2="199.793" y2="-62.3385" gradientUnits="userSpaceOnUse">
<stop stop-color="#E5E5E5"/>
<stop offset="0.703125" stop-color="#ECECEC"/>
<stop offset="1" stop-color="#E5E5E5"/>
</linearGradient>
<linearGradient id="paint18_linear_1605_7278" x1="133.043" y1="36.811" x2="199.793" y2="-62.3385" gradientUnits="userSpaceOnUse">
<stop stop-color="#E5E5E5"/>
<stop offset="0.703125" stop-color="#ECECEC"/>
<stop offset="1" stop-color="#E5E5E5"/>
</linearGradient>
</defs>
</svg>
