<svg width="18" height="20" viewBox="0 0 18 20" fill="none" xmlns="http://www.w3.org/2000/svg">
<mask id="mask0_1765_8" style="mask-type:alpha" maskUnits="userSpaceOnUse" x="0" y="0" width="18" height="20">
<path fill-rule="evenodd" clip-rule="evenodd" d="M0 0.0116997H17.0522V19.8652H0V0.0116997Z" fill="white"/>
</mask>
<g mask="url(#mask0_1765_8)">
<path fill-rule="evenodd" clip-rule="evenodd" d="M4.57307 1.5117C2.91607 1.5117 1.54007 2.8537 1.50107 4.5087V15.2277C1.46507 16.9287 2.80507 18.3287 4.49007 18.3657H12.5731C14.2421 18.3057 15.5631 16.9287 15.5521 15.2327V6.3397L10.9181 1.5117H4.58507H4.57307ZM4.58507 19.8657H4.45907C1.94707 19.8117 -0.0529317 17.7237 0.00106828 15.2117V4.4907C0.0600683 2.0097 2.10807 0.0116997 4.57007 0.0116997H4.58807H11.2371C11.4411 0.0116997 11.6361 0.0946997 11.7781 0.2417L16.8441 5.5187C16.9771 5.6577 17.0521 5.8447 17.0521 6.0377V15.2277C17.0681 17.7367 15.1121 19.7757 12.5991 19.8657H4.58507Z" fill="#A5A5A5"/>
</g>
<path fill-rule="evenodd" clip-rule="evenodd" d="M16.2976 6.9843H13.5436C11.7126 6.9793 10.2256 5.4873 10.2256 3.6593V0.750301C10.2256 0.336301 10.5616 0.000301361 10.9756 0.000301361C11.3896 0.000301361 11.7256 0.336301 11.7256 0.750301V3.6593C11.7256 4.6633 12.5416 5.4813 13.5456 5.4843H16.2976C16.7116 5.4843 17.0476 5.8203 17.0476 6.2343C17.0476 6.6483 16.7116 6.9843 16.2976 6.9843Z" fill="#A5A5A5"/>
<path fill-rule="evenodd" clip-rule="evenodd" d="M8.1416 14.7002C7.7276 14.7002 7.3916 14.3642 7.3916 13.9502V7.9092C7.3916 7.4952 7.7276 7.1592 8.1416 7.1592C8.5556 7.1592 8.8916 7.4952 8.8916 7.9092V13.9502C8.8916 14.3642 8.5556 14.7002 8.1416 14.7002Z" fill="#A5A5A5"/>
<path fill-rule="evenodd" clip-rule="evenodd" d="M5.79663 11.0146C5.60563 11.0146 5.41363 10.9416 5.26763 10.7956C4.97463 10.5036 4.97263 10.0296 5.26563 9.7356L7.60963 7.3796C7.89163 7.0966 8.39163 7.0966 8.67263 7.3796L11.0186 9.7356C11.3106 10.0296 11.3096 10.5036 11.0166 10.7956C10.7226 11.0876 10.2476 11.0876 9.95563 10.7936L8.14163 8.9716L6.32763 10.7936C6.18163 10.9416 5.98863 11.0146 5.79663 11.0146Z" fill="#A5A5A5"/>
</svg>
