<svg width="42" height="49" viewBox="0 0 42 49" fill="none" xmlns="http://www.w3.org/2000/svg">
<mask id="mask0_1236_6525" style="mask-type:alpha" maskUnits="userSpaceOnUse" x="0" y="0" width="42" height="49">
<path fill-rule="evenodd" clip-rule="evenodd" d="M0.857178 0H41.1427V48.3318H0.857178V0Z" fill="white"/>
</mask>
<g mask="url(#mask0_1236_6525)">
<path fill-rule="evenodd" clip-rule="evenodd" d="M20.9999 3.56063C18.9864 3.56063 6.28355 8.03395 4.81856 9.25675C4.38643 9.69126 4.36981 10.4463 4.46241 15.5014C4.50515 17.9375 4.5645 21.2473 4.5645 25.8299C4.5645 38.179 18.1507 43.6614 20.9975 44.6705C23.842 43.6567 37.4353 38.1434 37.4353 25.8299C37.4353 21.2426 37.4947 17.9303 37.5398 15.4942C37.63 10.4439 37.6134 9.68889 37.1552 9.23301C35.7187 8.03395 23.0134 3.56063 20.9999 3.56063ZM21 48.3318C20.8266 48.3318 20.6533 48.308 20.4847 48.2558C19.6893 48.016 1.003 42.1703 1.003 25.8298C1.003 21.2782 0.943639 17.9849 0.900901 15.5678C0.79168 9.52976 0.767936 8.27134 2.3279 6.71375C4.19178 4.84512 18.3074 -0.000976562 21 -0.000976562C23.6901 -0.000976562 37.8058 4.84512 39.6744 6.71375C41.232 8.27134 41.2083 9.52976 41.099 15.5607C41.0563 17.9778 40.9969 21.271 40.9969 25.8298C40.9969 42.1703 22.3106 48.016 21.5152 48.2558C21.3466 48.308 21.1733 48.3318 21 48.3318Z" fill="white"/>
</g>
<path fill-rule="evenodd" clip-rule="evenodd" d="M19.3224 29.7251C18.8499 29.7251 18.3964 29.5375 18.0616 29.2027L13.5693 24.7056C12.8759 24.01 12.8759 22.8798 13.5716 22.1864C14.2649 21.4907 15.3951 21.4907 16.0908 22.1864L19.3224 25.4227L27.3192 17.4258C28.0149 16.7301 29.1404 16.7301 29.8361 17.4258C30.5318 18.1215 30.5318 19.2493 29.8361 19.945L20.5808 29.2027C20.2484 29.5375 19.7949 29.7251 19.3224 29.7251Z" fill="white"/>
</svg>
