<?xml version="1.0" standalone="no"?>
<!DOCTYPE svg PUBLIC "-//W3C//DTD SVG 1.1//EN" "http://www.w3.org/Graphics/SVG/1.1/DTD/svg11.dtd" >
<svg>
<metadata>
Created by FontForge 20090914 at Tue Jan 25 19:58:41 2022
 By www-data
Copyright &#194;&#169; 2018 by Russian Fonts. All rights reserved.
</metadata>
<defs>
<font id="RFDewiExpanded-Semibold" horiz-adv-x="820" >
  <font-face 
    font-family="RF Dewi Expanded Semibold"
    font-weight="600"
    font-stretch="expanded"
    units-per-em="1000"
    panose-1="0 0 7 5 0 0 0 0 0 0"
    ascent="800"
    descent="-200"
    x-height="524"
    cap-height="700"
    bbox="-229 -226.001 1566 945"
    underline-thickness="50"
    underline-position="-150"
    unicode-range="U+0020-U+277E"
  />
<missing-glyph horiz-adv-x="600" 
 />
    <glyph glyph-name="f_f.liga" unicode="ff" horiz-adv-x="885" 
d="M796 654c-42.667 0 -71.833 -7.66797 -87.5 -23.001s-23.5 -41.666 -23.5 -78.999v-28h167v-91h-167v-433h-120v433h-285v-433h-120v433l-138 -1v91l138 1v25c0 70.667 14.833 119.5 44.5 146.5s77.5 40.5 143.5 40.5c30.667 0 63 -2 97 -6v-92
c-37.333 2.66699 -61 4 -71 4c-36.667 0 -61.5 -7 -74.5 -21s-19.5 -39.667 -19.5 -77v-20h285v37c0 70.667 16 119.5 48 146.5s84 40.5 156 40.5c32.667 0 66 -2 100 -6v-92c-38.667 2.66699 -63 4 -73 4z" />
    <glyph glyph-name="f_f_i.liga" unicode="ffi" horiz-adv-x="1182" 
d="M565 561c0 70.667 15.168 119.499 45.501 146.499s79.5 40.5 147.5 40.5c29.333 0 60.666 -2 93.999 -6v-92c-26 2.66699 -48 4 -66 4c-38.667 0 -65.167 -7.66699 -79.5 -23s-21.5 -41.666 -21.5 -78.999v-28h167v-91h-167v-433h-120v433h-285v-433h-120v433l-138 -1v91
l138 1v25c0 70.667 14.833 119.5 44.5 146.5s77.5 40.5 143.5 40.5c30.667 0 63 -2 97 -6v-92c-37.333 2.66699 -61 4 -71 4c-36.667 0 -61.5 -7 -74.5 -21s-19.5 -39.667 -19.5 -77v-20h285v37zM983.001 725.999h127v-125h-127v125zM986.001 -0.000976562v524h120v-524
h-120z" />
    <glyph glyph-name="f_i.liga" unicode="fi" horiz-adv-x="778" 
d="M160 561c0 70.667 15.335 119.499 46.002 146.499s80 40.5 148 40.5c29.333 0 60.666 -2 93.999 -6v-92c-26 2.66699 -48 4 -66 4c-38.667 0 -65.334 -7.66699 -80.001 -23s-22 -41.666 -22 -78.999v-28h168v-91h-168v-433h-120v433h-138v91h138v37zM578.002 725.999h127
v-125h-127v125zM582.002 -0.000976562v524h120v-524h-120z" />
    <glyph glyph-name="f_l.liga" unicode="fl" horiz-adv-x="774" 
d="M160 561c0 70.667 15.335 119.499 46.002 146.499s80 40.5 148 40.5c29.333 0 60.666 -2 93.999 -6v-92c-26 2.66699 -48 4 -66 4c-38.667 0 -65.334 -7.66699 -80.001 -23s-22 -41.666 -22 -78.999v-28h168v-91h-168v-433h-120v433h-138v91h138v37zM578.002 735.999h120
v-736h-120v736z" />
    <glyph glyph-name=".notdef" horiz-adv-x="600" 
 />
    <glyph glyph-name="space" unicode=" " horiz-adv-x="315" 
 />
    <glyph glyph-name="exclam" unicode="!" horiz-adv-x="333" 
d="M215 217h-97l-15 483h127zM98 0v136h137v-136h-137z" />
    <glyph glyph-name="quotedbl" unicode="&#x22;" horiz-adv-x="417" 
d="M75 454l-10 246h106l-11 -246h-85zM257 454l-10 246h106l-11 -246h-85z" />
    <glyph glyph-name="numbersign" unicode="#" horiz-adv-x="711" 
d="M689 433h-143l-23 -165h132v-74h-142l-26 -196h-98l26 196h-160l-27 -196h-98l26 196h-134v74h144l22 165h-132v74h142l25 181h98l-24 -181h160l24 181h99l-24 -181h133v-74zM425 268l22 165h-160l-22 -165h160z" />
    <glyph glyph-name="dollar" unicode="$" horiz-adv-x="793" 
d="M748 188c0 -64 -28.167 -112.665 -84.5 -145.998s-134.833 -51.333 -235.5 -54v-84h-64v85c-103.333 4 -182.5 25.667 -237.5 65s-85.167 94.666 -90.5 165.999l112 4c3.33301 -40 23 -72.667 59 -98s88.333 -40.333 157 -45v222l-92 22
c-74 16.667 -126.333 40.667 -157 72s-46 69 -46 113c0 42 13.667 77.5 41 106.5s62.5 50 105.5 63s92.5 20.167 148.5 21.5v84h64v-86c84 -5.33301 152 -26.166 204 -62.499s81.333 -84.833 88 -145.5l-113 -7c-2.66699 32 -19.5 59.167 -50.5 81.5
s-73.833 36.166 -128.5 41.499v-207l102 -24c74.667 -17.333 129.667 -40.333 165 -69s53 -68.334 53 -119.001zM326 424.002l38.001 -9v194c-54.667 -1.33301 -97.334 -10 -128.001 -26s-46 -37.667 -46 -65c0 -42 45.333 -73.333 136 -94zM428.001 80.002
c62 2 110.667 11.168 146 27.501s53 39.833 53 70.5c0 43.333 -48 75.666 -144 96.999l-55 13v-208z" />
    <glyph glyph-name="percent" unicode="%" horiz-adv-x="1076" 
d="M35 533c0 52 20.167 93.833 60.5 125.5s94.833 47.5 163.5 47.5s123.167 -15.833 163.5 -47.5s60.5 -73.5 60.5 -125.5s-20.167 -93.833 -60.5 -125.5s-94.833 -47.5 -163.5 -47.5s-123.167 15.833 -163.5 47.5s-60.5 73.5 -60.5 125.5zM162 0l668 700h84l-668 -700h-84z
M122 533c0 -32.667 12.5 -58.5 37.5 -77.5s58.167 -28.5 99.5 -28.5s74.333 9.5 99 28.5s37 44.833 37 77.5s-12.333 58.5 -37 77.5s-57.667 28.5 -99 28.5c-42 0 -75.333 -9.5 -100 -28.5s-37 -44.833 -37 -77.5zM594 167c0 52 20.167 93.833 60.5 125.5
s94.833 47.5 163.5 47.5c68 0 122.167 -15.833 162.5 -47.5s60.5 -73.5 60.5 -125.5s-20.167 -93.833 -60.5 -125.5s-94.5 -47.5 -162.5 -47.5c-68.667 0 -123.167 15.833 -163.5 47.5s-60.5 73.5 -60.5 125.5zM681 167c0 -32.667 12.5 -58.5 37.5 -77.5
s58.167 -28.5 99.5 -28.5s74.333 9.5 99 28.5s37 44.833 37 77.5s-12.333 58.5 -37 77.5s-57.667 28.5 -99 28.5s-74.5 -9.5 -99.5 -28.5s-37.5 -44.833 -37.5 -77.5z" />
    <glyph glyph-name="ampersand" unicode="&#x26;" horiz-adv-x="866" 
d="M858 0l-135.999 0.00488281l-86 74c-72 -57.333 -166.667 -86 -284 -86c-100 0 -176 16.5 -228 49.5s-78 76.833 -78 131.5c0 19.333 3.66699 37.166 11 53.499s15.666 30.166 24.999 41.499s24 23.666 44 36.999s37.167 23.666 51.5 30.999l64.5 32l38 18l-10 10
c-44.667 38 -76.667 69.5 -96 94.5s-29 51.833 -29 80.5c0 46 22.167 81.667 66.5 107s101.5 38 171.5 38c74.667 0 133.167 -14 175.5 -42s63.5 -66.667 63.5 -116c0 -32.667 -11.5 -61.667 -34.5 -87s-61.167 -51 -114.5 -77l-42 -22l201 -173c24 34.667 39 76.667 45 126
h92c-10 -70.667 -34 -131.334 -72 -182.001zM354.001 435.005l12 -11.001l48 23c36.667 18 63.334 34.833 80.001 50.5s25 32.834 25 51.501c0 24.667 -12.5 44.167 -37.5 58.5s-57.833 21.5 -98.5 21.5c-36.667 0 -67.334 -5.83301 -92.001 -17.5s-37 -29.167 -37 -52.5
c0 -17.333 7.33301 -34.5 22 -51.5s40.667 -41.167 78 -72.5zM357.001 75.0039c88.667 0 159.667 18.999 213 56.999l-225 194l-64 -32c-40 -20 -69.5 -38.5 -88.5 -55.5s-28.5 -37.5 -28.5 -61.5c0 -29.333 16.5 -53.666 49.5 -72.999s80.833 -29 143.5 -29z" />
    <glyph glyph-name="quotesingle" unicode="'" horiz-adv-x="236" 
d="M75 454l-10 246h106l-11 -246h-85z" />
    <glyph glyph-name="parenleft" unicode="(" horiz-adv-x="387" 
d="M376 736c-62.667 -52.667 -111.334 -116.333 -146.001 -191s-52 -157.334 -52 -248.001c0 -91.333 17.333 -174.333 52 -249s83.334 -138.334 146.001 -191.001h-104c-26 19.333 -50.167 41.833 -72.5 67.5s-44.166 56.334 -65.499 92.001s-38.166 77.667 -50.499 126
s-18.5 99.833 -18.5 154.5c0 54 6.16699 105.167 18.5 153.5s29.166 90.333 50.499 126s43.166 66.334 65.499 92.001s46.5 48.167 72.5 67.5h104z" />
    <glyph glyph-name="parenright" unicode=")" horiz-adv-x="387" 
d="M115 736c26 -19.333 50.167 -41.834 72.5 -67.501s44 -56.334 65 -92.001s37.667 -77.667 50 -126s18.5 -99.5 18.5 -153.5c0 -54.667 -6.16699 -106.167 -18.5 -154.5s-29 -90.333 -50 -126s-42.667 -66.334 -65 -92.001s-46.5 -48.167 -72.5 -67.5h-104
c62.667 52.667 111.334 116.334 146.001 191.001s52 157.667 52 249c0 90.667 -17.333 173.334 -52 248.001s-83.334 138.334 -146.001 191.001h104z" />
    <glyph glyph-name="asterisk" unicode="*" horiz-adv-x="394" 
d="M238 532l78 -31l56 -32l-33 -57l-55 33l-66 51l12 -83v-64h-66v64l12 83l-65 -51l-56 -33l-33 57l56 32l79 31l-79 31l-56 32l33 57l56 -32l65 -52l-12 83v65h66v-65l-12 -83l66 52l55 32l33 -57l-56 -32z" />
    <glyph glyph-name="plus" unicode="+" horiz-adv-x="566" 
d="M503 371v-81h-178v-150h-83v150h-178v81h178v151h83v-151h178z" />
    <glyph glyph-name="comma" unicode="," horiz-adv-x="282" 
d="M73 -124v260h136v-83l-81 -177h-55z" />
    <glyph glyph-name="hyphen" unicode="-" horiz-adv-x="489" 
d="M64 345h361v-94h-361v94z" />
    <glyph glyph-name="period" unicode="." horiz-adv-x="282" 
d="M73 0v136h136v-136h-136z" />
    <glyph glyph-name="slash" unicode="/" horiz-adv-x="473" 
d="M325 729h110l-306 -789h-110z" />
    <glyph glyph-name="zero" unicode="0" horiz-adv-x="830" 
d="M56 350c0 112 32.167 200.333 96.5 265s151.833 97 262.5 97s198.167 -32.333 262.5 -97s96.5 -153 96.5 -265s-32.167 -200.333 -96.5 -265s-151.833 -97 -262.5 -97s-198.167 32.333 -262.5 97s-96.5 153 -96.5 265zM176 350c0 -81.333 21.167 -145.5 63.5 -192.5
s100.833 -70.5 175.5 -70.5s133 23.5 175 70.5s63 111.167 63 192.5s-21 145.5 -63 192.5s-100.333 70.5 -175 70.5s-133.167 -23.5 -175.5 -70.5s-63.5 -111.167 -63.5 -192.5z" />
    <glyph glyph-name="one" unicode="1" horiz-adv-x="490" 
d="M272 700h96v-700h-120v571l-207 -105v116z" />
    <glyph glyph-name="two" unicode="2" horiz-adv-x="718" 
d="M204 99l480 0.000976562v-99h-667v91l405 271c38 24 67.167 47 87.5 69s30.5 47.667 30.5 77c0 35.333 -15.833 61.666 -47.5 78.999s-73.5 26 -125.5 26c-128 0 -198.667 -51 -212 -153l-116 8c8 82 41.5 143.167 100.5 183.5s134.833 60.5 227.5 60.5
c87.333 0 158 -17 212 -51s81 -82.667 81 -146c0 -41.333 -13.333 -79 -40 -113s-69.667 -69.333 -129 -106z" />
    <glyph glyph-name="three" unicode="3" horiz-adv-x="749" 
d="M392 427c104 -0.666992 183 -19.167 237 -55.5s81 -87.833 81 -154.5c0 -75.333 -31.667 -132.333 -95 -171s-148 -58 -254 -58c-94.667 0 -172.167 17.833 -232.5 53.5s-95.5 88.5 -105.5 158.5l115 6c8 -40 31.667 -69.833 71 -89.5s90 -29.5 152 -29.5
c68.667 0 124 11.333 166 34s63 54.667 63 96c0 38 -19 68.333 -57 91s-93.333 34 -166 34c-45.333 0 -93 -4 -143 -12v81l288 190h-445v99h617v-89z" />
    <glyph glyph-name="four" unicode="4" horiz-adv-x="818" 
d="M637 256h149v-99h-149v-157h-120v157h-491v91l416 452h195v-444zM160 256h357v386z" />
    <glyph glyph-name="five" unicode="5" horiz-adv-x="759" 
d="M411 467c92 0 166.336 -20.5 223.003 -61.5s85 -98.833 85 -173.5c0 -78 -31.333 -138.167 -94 -180.5s-146 -63.5 -250 -63.5c-92.667 0 -170.334 17 -233.001 51s-100.667 82.667 -114 146l119 7c11.333 -34 37.5 -60 78.5 -78s89.833 -27 146.5 -27
c66.667 0 121 12.5 163 37.5s63 61.167 63 108.5c0 46 -20.833 81.167 -62.5 105.5s-94.834 36.5 -159.501 36.5c-98 0 -171.333 -23.333 -220 -70l-105 10l41 385h98h477v-99h-488l-24 -218c61.333 56 146.666 84 255.999 84z" />
    <glyph glyph-name="six" unicode="6" horiz-adv-x="806" 
d="M449 457c92.667 0 168.335 -20.333 227.002 -61s88 -97.334 88 -170.001c0 -74.667 -30.833 -133 -92.5 -175s-145.167 -63 -250.5 -63c-243.333 0 -365 117 -365 351c0 122 32.333 214.667 97 278s155 95 271 95c88.667 0 159.667 -17.167 213 -51.5
s83.666 -82.5 90.999 -144.5l-115 -6c-6 30 -25.833 54.667 -59.5 74s-76.834 29 -129.501 29c-77.333 0 -138 -22.667 -182 -68s-66 -110.666 -66 -195.999v-5c24 37.333 60 65.5 108 84.5s103 28.5 165 28.5zM420.001 87c67.333 0 121.333 12.5 162 37.5
s61 58.833 61 101.5c0 41.333 -20.333 74.666 -61 99.999s-94.667 38 -162 38c-66.667 0 -120.5 -12.667 -161.5 -38s-61.5 -58.666 -61.5 -99.999c0 -42 20.5 -75.667 61.5 -101s94.833 -38 161.5 -38z" />
    <glyph glyph-name="seven" unicode="7" horiz-adv-x="726" 
d="M34 700h662v-84c-189.333 -200 -315 -405.333 -377 -616h-133c66.667 210 193 410.333 379 601h-531v99z" />
    <glyph glyph-name="eight" unicode="8" horiz-adv-x="800" 
d="M543 366c67.333 -12.667 119.667 -34.334 157 -65.001s56 -69.334 56 -116.001c0 -63.333 -33.167 -112 -99.5 -146s-151.833 -51 -256.5 -51s-190.167 17 -256.5 51s-99.5 82.667 -99.5 146c0 46.667 19 85.334 57 116.001s91 52.334 159 65.001
c-60.667 12 -108 31.833 -142 59.5s-51 62.5 -51 104.5c0 40 15.167 74 45.5 102s70 48.333 119 61s105.167 19 168.5 19c97.333 0 177 -15.333 239 -46s93 -76 93 -136c0 -42.667 -16.5 -77.667 -49.5 -105s-79.5 -47 -139.5 -59zM185.001 513c0 -33.333 19.667 -59 59 -77
s91.333 -27 156 -27s116.667 9 156 27s59 43.667 59 77s-19.667 58.833 -59 76.5s-91.333 26.5 -156 26.5s-116.667 -8.83301 -156 -26.5s-59 -43.167 -59 -76.5zM400.001 84c70.667 0 128.167 10 172.5 30s66.5 48.333 66.5 85s-22.333 65.167 -67 85.5
s-102 30.5 -172 30.5c-70.667 0 -128.167 -10.167 -172.5 -30.5s-66.5 -48.833 -66.5 -85.5s22.167 -65 66.5 -85s101.833 -30 172.5 -30z" />
    <glyph glyph-name="nine" unicode="9" horiz-adv-x="807" 
d="M384 712c244.667 0 367.002 -117 367.002 -351c0 -124.667 -31.333 -218 -94 -280s-153.334 -93 -272.001 -93c-90 0 -161.5 17 -214.5 51s-83.833 82 -92.5 144l116 6c6 -30.667 25.667 -55.334 59 -74.001s77.333 -28 132 -28c78 0 138.333 22.5 181 67.5
s64 110.5 64 196.5v9c-23.333 -36 -59 -63.5 -107 -82.5s-103.667 -28.5 -167 -28.5c-91.333 0 -166.5 20.333 -225.5 61s-88.5 96.334 -88.5 167.001c0 72.667 31.167 130 93.5 172s145.166 63 248.499 63zM386.002 342c67.333 0 121.166 12.333 161.499 37
s60.5 57.334 60.5 98.001c0 41.333 -20.167 74.333 -60.5 99s-94.166 37 -161.499 37s-121.333 -12.333 -162 -37s-61 -57.667 -61 -99c0 -40.667 20.333 -73.334 61 -98.001s94.667 -37 162 -37z" />
    <glyph glyph-name="colon" unicode=":" horiz-adv-x="282" 
d="M73 376v136h136v-136h-136zM73 0v136h136v-136h-136z" />
    <glyph glyph-name="semicolon" unicode=";" horiz-adv-x="282" 
d="M73 376v136h136v-136h-136zM73 -124v260h136v-83l-81 -177h-55z" />
    <glyph glyph-name="less" unicode="&#x3c;" horiz-adv-x="559" 
d="M475 547v-99l-330 -117l330 -107v-99l-415 152v105z" />
    <glyph glyph-name="equal" unicode="=" horiz-adv-x="571" 
d="M66 452h439v-81h-439v81zM66 276h439v-81h-439v81z" />
    <glyph glyph-name="greater" unicode="&#x3e;" horiz-adv-x="559" 
d="M84 547l415 -165v-105l-415 -152v99l330 107l-330 117v99z" />
    <glyph glyph-name="question" unicode="?" horiz-adv-x="684" 
d="M22 479c8 78 41.501 136.335 100.501 175.002s136.5 58 232.5 58c86 0 156 -15.333 210 -46s81 -76.667 81 -138c0 -40 -12.833 -74.167 -38.5 -102.5s-67.5 -57.5 -125.5 -87.5c-40.667 -21.333 -67.834 -38.333 -81.501 -51s-20.5 -30.667 -20.5 -54v-13h-116v18
c0 38.667 8.66699 69 26 91s47.666 42.333 90.999 61c48.667 23.333 84.834 44.666 108.501 63.999s35.5 41.666 35.5 66.999c0 30.667 -15.667 54 -47 70s-72.333 24 -123 24c-62.667 0 -113 -12 -151 -36s-60.667 -59.333 -68 -106zM254.001 0.00195312v136h137v-136h-137
z" />
    <glyph glyph-name="at" unicode="@" horiz-adv-x="985" 
d="M590 465l92 -0.00292969v-231c0 -36.667 6.33301 -63.334 19 -80.001s34.334 -25 65.001 -25c72.667 0 109 48.333 109 145c0 94.667 -34.5 172.834 -103.5 234.501s-161.833 92.5 -278.5 92.5c-110 0 -201.5 -31.833 -274.5 -95.5s-109.5 -144.167 -109.5 -241.5
c0 -104.667 35.667 -187.167 107 -247.5s167.666 -90.5 288.999 -90.5c88.667 0 164 15.333 226 46l31 -42c-70 -35.333 -155.667 -53 -257 -53c-139.333 0 -249.5 34 -330.5 102s-121.5 163 -121.5 285c0 115.333 41.5 208.5 124.5 279.5s188.167 106.5 315.5 106.5
c132.667 0 239 -34.667 319 -104s120 -159 120 -269c0 -69.333 -16.167 -122.166 -48.5 -158.499s-77.833 -54.5 -136.5 -54.5c-76 0 -124.667 28.667 -146 86c-15.333 -31.333 -36.666 -55.166 -63.999 -71.499s-58 -24.5 -92 -24.5c-52.667 0 -96.334 19 -131.001 57
s-52 89 -52 153c0 64.667 17.333 115.834 52 153.501s78.667 56.5 132 56.5c66 0 114 -26.333 144 -79v70zM472 126.997c36 0 64.667 12.333 86 37s32 58 32 100s-10.667 75.5 -32 100.5s-50 37.5 -86 37.5c-36.667 0 -65.667 -12.5 -87 -37.5s-32 -58.5 -32 -100.5
s10.667 -75.333 32 -100s50.333 -37 87 -37z" />
    <glyph glyph-name="A" unicode="A" horiz-adv-x="924" 
d="M774 0l-82 169h-464l-82 -169h-126l346 700h191l347 -700h-130zM275 265h370l-185 381z" />
    <glyph glyph-name="B" unicode="B" horiz-adv-x="893" 
d="M637 358c138.667 -12.667 208 -69.333 208 -170c0 -59.333 -24.167 -105.5 -72.5 -138.5s-117.5 -49.5 -207.5 -49.5h-470v700h471c76 0 137.167 -16.667 183.5 -50s69.5 -77.333 69.5 -132c0 -45.333 -16.667 -81.5 -50 -108.5s-77.333 -44.167 -132 -51.5zM221 602.001
v-200h339c38.667 0 70.5 8.83301 95.5 26.5s37.5 42.167 37.5 73.5s-12.5 55.833 -37.5 73.5s-56.833 26.5 -95.5 26.5h-339zM553 98.001c110.667 0 166 35.333 166 106c0 68.667 -52 103 -156 103h-342v-209h332z" />
    <glyph glyph-name="C" unicode="C" horiz-adv-x="910" 
d="M750 242l120.997 -7.00098c-12.667 -76.667 -52.167 -137 -118.5 -181s-156.5 -66 -270.5 -66c-137.333 0 -243.666 33 -318.999 99s-113 153.667 -113 263s36.833 197 110.5 263s177.167 99 310.5 99c106.667 0 194.834 -21.167 264.501 -63.5
s111.5 -99.166 125.5 -170.499l-121 -8c-10.667 42 -40.834 75.667 -90.501 101s-109.167 38 -178.5 38c-93.333 0 -165.833 -24.167 -217.5 -72.5s-77.5 -110.5 -77.5 -186.5c0 -76.667 26.5 -139 79.5 -187s128.5 -72 226.5 -72c74.667 0 135.334 14.167 182.001 42.5
s75.334 64.5 86.001 108.5z" />
    <glyph glyph-name="D" unicode="D" horiz-adv-x="931" 
d="M453 700c134.667 0 239.667 -31.333 315 -94s113 -148 113 -256s-37.667 -193.333 -113 -256s-180.333 -94 -315 -94h-358v700h358zM440 103c102 0 180 22.333 234 67s81 104.667 81 180s-27 135.333 -81 180s-132 67 -234 67h-219v-494h219z" />
    <glyph glyph-name="E" unicode="E" 
d="M95 0v700h656v-99h-530v-198h419v-94h-419v-210h550v-99h-676z" />
    <glyph glyph-name="F" unicode="F" horiz-adv-x="776" 
d="M95 0v700h638v-103h-512v-205h414v-102h-414v-290h-126z" />
    <glyph glyph-name="G" unicode="G" horiz-adv-x="930" 
d="M488 366h385.999v-311c-116.667 -44.667 -237.667 -67 -363 -67c-146.667 0 -260.167 32.667 -340.5 98s-120.5 153.333 -120.5 264c0 109.333 36.833 197 110.5 263s177.167 99 310.5 99c103.333 0 189.333 -19.5 258 -58.5s111.667 -92.167 129 -159.5l-122 -9
c-14.667 38 -46 68.167 -94 90.5s-105 33.5 -171 33.5c-93.333 0 -165.833 -24.167 -217.5 -72.5s-77.5 -110.5 -77.5 -186.5c0 -77.333 29.333 -139.833 88 -187.5s142.334 -71.5 251.001 -71.5c84 0 165 11 243 33v156h-270v86z" />
    <glyph glyph-name="H" unicode="H" horiz-adv-x="954" 
d="M733 700h126v-700h-126v304h-512v-304h-126v700h126v-292h512v292z" />
    <glyph glyph-name="I" unicode="I" horiz-adv-x="316" 
d="M95 0v700h126v-700h-126z" />
    <glyph glyph-name="J" unicode="J" horiz-adv-x="758" 
d="M538 700h125.998v-459c0 -84 -27.667 -147.167 -83 -189.5s-131.666 -63.5 -228.999 -63.5c-98 0 -173.833 20.5 -227.5 61.5s-80.5 98.833 -80.5 173.5v57h116v-54c0 -44 17 -77.5 51 -100.5s80 -34.5 138 -34.5c58.667 0 104.834 12.833 138.501 38.5
s50.5 65.5 50.5 119.5v451z" />
    <glyph glyph-name="K" unicode="K" horiz-adv-x="906" 
d="M882 0h-164l-326 304h-171v-304h-126v700h126v-298h169l310 298h153l-362 -339z" />
    <glyph glyph-name="L" unicode="L" horiz-adv-x="736" 
d="M95 0v700h126v-597h478v-103h-604z" />
    <glyph glyph-name="M" unicode="M" horiz-adv-x="1224" 
d="M908 700h221l-2 -700h-121v636l-309 -636h-172l-309 636v-636h-121v700h220l298 -633z" />
    <glyph glyph-name="N" unicode="N" horiz-adv-x="969" 
d="M752 700h122v-700h-216l-442 634v-634h-121v700h215l442 -634v634z" />
    <glyph glyph-name="O" unicode="O" horiz-adv-x="978" 
d="M50 350c0 109.333 38.5 197 115.5 263s184.833 99 323.5 99s246.5 -33 323.5 -99s115.5 -153.667 115.5 -263s-38.5 -197 -115.5 -263s-184.833 -99 -323.5 -99s-246.5 33 -323.5 99s-115.5 153.667 -115.5 263zM176 350c0 -76 27.333 -138.167 82 -186.5
s131.667 -72.5 231 -72.5s176.333 24.167 231 72.5s82 110.5 82 186.5s-27.333 138.167 -82 186.5s-131.667 72.5 -231 72.5s-176.333 -24.167 -231 -72.5s-82 -110.5 -82 -186.5z" />
    <glyph glyph-name="P" unicode="P" horiz-adv-x="861" 
d="M555 700c78 0 141.001 -18.668 189.001 -56.001s72 -91.666 72 -162.999c0 -72 -23.333 -125.833 -70 -161.5s-110.334 -53.5 -191.001 -53.5h-334v-266h-126v700h126h334zM549.001 364.999c43.333 0 77.666 9.83301 102.999 29.5s38 48.5 38 86.5
c0 37.333 -12.667 66 -38 86s-59.666 30 -102.999 30h-328v-232h328z" />
    <glyph glyph-name="Q" unicode="Q" horiz-adv-x="978" 
d="M928 350c0 -66 -14.668 -124.833 -44.001 -176.5s-71.666 -93.167 -126.999 -124.5l84 -88l-83 -54l-99 102c-50 -14 -106.667 -21 -170 -21c-138.667 0 -246.5 33 -323.5 99s-115.5 153.667 -115.5 263s38.5 197 115.5 263s184.833 99 323.5 99s246.5 -33 323.5 -99
s115.5 -153.667 115.5 -263zM488.999 91c32.667 0 60.999 2.33301 84.999 7l-62 64l83 54l81 -83c40.667 22 71.834 51.833 93.501 89.5s32.5 80.167 32.5 127.5c0 76 -27.333 138.167 -82 186.5s-131.667 72.5 -231 72.5s-176.333 -24.167 -231 -72.5
s-82 -110.5 -82 -186.5s27.333 -138.167 82 -186.5s131.667 -72.5 231 -72.5z" />
    <glyph glyph-name="R" unicode="R" horiz-adv-x="882" 
d="M704 0l-273 275.999h-210v-276h-126v700h126h345c78 0 141 -18.5 189 -55.5s72 -90.167 72 -159.5c0 -68.667 -22.333 -120.167 -67 -154.5s-105.667 -52.166 -183 -53.499l288 -277h-161zM221 598.999l0.00195312 -226h339c43.333 0 77.666 9.66699 102.999 29
s38 47 38 83s-12.833 64 -38.5 84s-59.834 30 -102.501 30h-339z" />
    <glyph glyph-name="S" unicode="S" horiz-adv-x="828" 
d="M155 224c4 -42.667 28.5 -77 73.5 -103s108.833 -39 191.5 -39c67.333 0 123.666 8 168.999 24s68 41.333 68 76c0 44 -45.667 76 -137 96l-238 54c-140.667 30.667 -211 92.334 -211 185.001c0 44 15.333 81 46 111s69.834 51.5 117.501 64.5s101.834 19.5 162.501 19.5
c101.333 0 184.166 -18.5 248.499 -55.5s100.5 -89.167 108.5 -156.5l-119 -5c-4.66699 35.333 -28.334 64.666 -71.001 87.999s-100 35 -172 35c-58 0 -105 -8.16699 -141 -24.5s-54 -39.5 -54 -69.5c0 -44.667 44 -76.667 132 -96l226 -49
c78 -16.667 135.5 -39.5 172.5 -68.5s55.5 -68.833 55.5 -119.5c0 -67.333 -32.167 -118 -96.5 -152s-153.166 -51 -266.499 -51c-120 0 -212.5 19.833 -277.5 59.5s-100.5 97.167 -106.5 172.5z" />
    <glyph glyph-name="T" unicode="T" horiz-adv-x="800" 
d="M28 597v103h744v-103h-309v-597h-126v597h-309z" />
    <glyph glyph-name="U" unicode="U" horiz-adv-x="959" 
d="M738 700h125.999v-413c0 -94.667 -32.167 -168.167 -96.5 -220.5s-160.166 -78.5 -287.499 -78.5s-223.333 26.167 -288 78.5s-97 125.833 -97 220.5v413h126v-401c0 -67.333 21.5 -118.833 64.5 -154.5s107.833 -53.5 194.5 -53.5c86 0 150.5 17.833 193.5 53.5
s64.5 87.167 64.5 154.5v401z" />
    <glyph glyph-name="V" unicode="V" horiz-adv-x="888" 
d="M735 700h131l-330 -700h-187l-327 700h134l288 -638z" />
    <glyph glyph-name="W" unicode="W" horiz-adv-x="1335" 
d="M1175 700h132l-250 -700h-188l-201 619l-205 -619h-189l-246 700h136l210 -619l205 619h180l203 -620z" />
    <glyph glyph-name="X" unicode="X" horiz-adv-x="892" 
d="M863 0h-152l-269 282l-270 -282h-144l341 356l-321 344h152l243 -271l250 271h145l-318 -341z" />
    <glyph glyph-name="Y" unicode="Y" horiz-adv-x="908" 
d="M743 700h147l-373 -419v-281h-126v281l-373 419h152l287 -332z" />
    <glyph glyph-name="Z" unicode="Z" horiz-adv-x="793" 
d="M200 103h564v-103h-741v88l551 509h-519v103h696v-88z" />
    <glyph glyph-name="bracketleft" unicode="[" horiz-adv-x="360" 
d="M330 638h-120v-685h120v-95h-229v875h229v-95z" />
    <glyph glyph-name="backslash" unicode="\" horiz-adv-x="473" 
d="M148 729l306 -789h-110l-306 789h110z" />
    <glyph glyph-name="bracketright" unicode="]" horiz-adv-x="360" 
d="M259 733v-875h-229v95h120v685h-120v95h229z" />
    <glyph glyph-name="asciicircum" unicode="^" horiz-adv-x="453" 
d="M427 457h-93l-107 201l-109 -201h-93l146 243h112z" />
    <glyph glyph-name="underscore" unicode="_" horiz-adv-x="552" 
d="M16 -35h520v-80h-520v80z" />
    <glyph glyph-name="grave" unicode="`" horiz-adv-x="316" 
d="M276 590h-95l-141 145h124z" />
    <glyph glyph-name="a" unicode="a" horiz-adv-x="746" 
d="M380 536c96.667 -0.666992 170.166 -19.666 220.499 -56.999s75.5 -92.333 75.5 -165v-314h-110v116c-52.667 -85.333 -147 -128 -283 -128c-79.333 0 -138.666 14 -177.999 42s-59 65 -59 111c0 50 23.833 87.667 71.5 113s120.167 41 217.5 47l221 15v22
c0 34 -14.667 61.667 -44 83s-73.333 32 -132 32c-105.333 0 -166.333 -28.667 -183 -86h-113c7.33301 58.667 38 101.667 92 129s122 40.666 204 39.999zM313.999 71.001c74.667 0 133.667 14.332 177 42.999s65 64.334 65 107.001v24l-207 -13
c-122.667 -8 -184 -36.333 -184 -85c0 -22.667 12.333 -41 37 -55s62 -21 112 -21z" />
    <glyph glyph-name="b" unicode="b" horiz-adv-x="797" 
d="M446 536c92 0 166.168 -24.333 222.501 -73s84.5 -115.667 84.5 -201s-28.167 -152.333 -84.5 -201s-130.5 -73 -222.5 -73c-58.667 0 -110.834 10.833 -156.501 32.5s-80.167 53.167 -103.5 94.5v-115h-110v736h120v-312c48 74.667 131.333 112 250 112zM412.001 80
c68 0 122 16.667 162 50s60 77.333 60 132s-20 98.667 -60 132s-94 50 -162 50c-68.667 0 -122.834 -16.667 -162.501 -50s-59.5 -77.333 -59.5 -132s19.833 -98.667 59.5 -132s93.834 -50 162.501 -50z" />
    <glyph glyph-name="c" unicode="c" horiz-adv-x="740" 
d="M704 183c-12 -62 -47 -110 -105 -144s-129.333 -51 -214 -51c-105.333 0 -188.5 23.833 -249.5 71.5s-91.5 115.167 -91.5 202.5s30.333 154.833 91 202.5s142.667 71.5 246 71.5c82.667 0 152.834 -16.5 210.501 -49.5s92.5 -79.5 104.5 -139.5l-115 -7
c-11.333 33.333 -35 59 -71 77s-79 27 -129 27c-66 0 -118.833 -16.167 -158.5 -48.5s-59.5 -76.833 -59.5 -133.5s20.167 -101.167 60.5 -133.5s94.166 -48.5 161.499 -48.5c52 0 96 9.5 132 28.5s59.667 46.167 71 81.5z" />
    <glyph glyph-name="d" unicode="d" horiz-adv-x="797" 
d="M601 736h120v-736h-110v115c-23.333 -41.333 -57.833 -72.833 -103.5 -94.5s-98.167 -32.5 -157.5 -32.5c-91.333 0 -165.166 24.333 -221.499 73s-84.5 115.667 -84.5 201s28.167 152.333 84.5 201s130.5 73 222.5 73c117.333 0 200.666 -37.333 249.999 -112v312z
M385 80c68 0 122 16.667 162 50s60 77.333 60 132s-20 98.667 -60 132s-94 50 -162 50c-68.667 0 -122.834 -16.667 -162.501 -50s-59.5 -77.333 -59.5 -132s19.833 -98.667 59.5 -132s93.834 -50 162.501 -50z" />
    <glyph glyph-name="e" unicode="e" horiz-adv-x="763" 
d="M721 241v-14.001h-557c8 -51.333 32.833 -90.166 74.5 -116.499s95.5 -39.5 161.5 -39.5c94 0 158.667 24.333 194 73l116 -5c-19.333 -48 -55.5 -85.167 -108.5 -111.5s-120.167 -39.5 -201.5 -39.5c-110 0 -196.833 22.833 -260.5 68.5s-95.5 114.167 -95.5 205.5
c0 90 31.5 158.167 94.5 204.5s146.833 69.5 251.5 69.5c220.667 0 331 -98.333 331 -295zM390 452.999c-61.333 0 -111.999 -12.667 -151.999 -38s-64.333 -63 -73 -113h438c-2.66699 46.667 -22.834 83.5 -60.501 110.5s-88.5 40.5 -152.5 40.5z" />
    <glyph glyph-name="f" unicode="f" horiz-adv-x="481" 
d="M392 654c-42.667 0 -72 -7.83203 -88 -23.499s-24 -41.834 -24 -78.501v-28h168v-91h-168v-433h-120v433h-138v91h138v37c0 70.667 16.167 119.5 48.5 146.5s84.5 40.5 156.5 40.5c32.667 0 66 -2 100 -6v-92c-38.667 2.66699 -63 4 -73 4z" />
    <glyph glyph-name="g" unicode="g" horiz-adv-x="792" 
d="M606 524h110.001v-439c0 -102.667 -25.833 -177.834 -77.5 -225.501s-133.167 -71.5 -244.5 -71.5c-87.333 0 -157.333 14.833 -210 44.5s-83 73.834 -91 132.501h115c17.333 -56.667 79.333 -85 186 -85c72 0 123.667 14.5 155 43.5s47 72.5 47 130.5v67
c-50.667 -70 -132.667 -105 -246 -105c-92.667 0 -166.834 23.5 -222.501 70.5s-83.5 110.167 -83.5 189.5s28 142.5 84 189.5s130.333 70.5 223 70.5c121.333 0 206.333 -39 255 -117v105zM385.001 101c67.333 0 121.166 16.167 161.499 48.5s60.5 73.166 60.5 122.499
c0 50 -20.167 91.167 -60.5 123.5s-94.166 48.5 -161.499 48.5s-121.166 -16.167 -161.499 -48.5s-60.5 -73.5 -60.5 -123.5c0 -49.333 20.167 -90.166 60.5 -122.499s94.166 -48.5 161.499 -48.5z" />
    <glyph glyph-name="h" unicode="h" horiz-adv-x="772" 
d="M450 536c81.333 0 143.666 -20.334 186.999 -61.001s65 -100.667 65 -180v-295h-120v258c0 119.333 -57.333 179 -172 179c-68.667 0 -121.5 -18.667 -158.5 -56s-55.5 -88.666 -55.5 -153.999v-227h-120v736h120v-327c48.667 84.667 133.334 127 254.001 127z" />
    <glyph glyph-name="i" unicode="i" horiz-adv-x="271" 
d="M72 601v125h127v-125h-127zM76 0v524h120v-524h-120z" />
    <glyph glyph-name="j" unicode="j" horiz-adv-x="272" 
d="M73 726h127v-125h-127v125zM76 -21l0.000976562 544.999h120v-571c0 -59.333 -12.333 -101.666 -37 -126.999s-65 -38 -121 -38c-18.667 0 -45.667 1.66699 -81 5v96c21.333 -1.33301 35 -2 41 -2c27.333 0 47.166 6 59.499 18s18.5 36.667 18.5 74z" />
    <glyph glyph-name="k" unicode="k" horiz-adv-x="740" 
d="M729 0h-162l-257 217h-114v-217h-120v736h120v-424h117l247 212h151l-309 -250z" />
    <glyph glyph-name="l" unicode="l" horiz-adv-x="271" 
d="M76 736h120v-736h-120v736z" />
    <glyph glyph-name="m" unicode="m" horiz-adv-x="1199" 
d="M895 536c72 0 129.004 -19.834 171.004 -59.501s63 -96.5 63 -170.5v-306h-120v274c0 50.667 -13.333 90.5 -40 119.5s-65 43.5 -115 43.5c-58.667 0 -105.334 -18.667 -140.001 -56s-52 -88.666 -52 -153.999v-227h-120v274c0 50.667 -13.167 90.5 -39.5 119.5
s-64.5 43.5 -114.5 43.5c-58.667 0 -105.334 -18.667 -140.001 -56s-52 -88.666 -52 -153.999v-227h-120v524h110v-129c22 45.333 53.833 80.166 95.5 104.499s90.5 36.5 146.5 36.5c57.333 0 105.166 -12.333 143.499 -37s64.833 -60.667 79.5 -108
c20.667 46.667 52.167 82.5 94.5 107.5s92.166 37.5 149.499 37.5z" />
    <glyph glyph-name="n" unicode="n" horiz-adv-x="772" 
d="M450 536c81.333 0 143.667 -20.334 187 -61.001s65 -100.667 65 -180v-295h-120v258c0 119.333 -57.333 179 -172 179c-68.667 0 -121.5 -18.667 -158.5 -56s-55.5 -88.666 -55.5 -153.999v-227h-120v524h110v-133c22.667 46.667 56.5 82.5 101.5 107.5
s99.167 37.5 162.5 37.5z" />
    <glyph glyph-name="o" unicode="o" horiz-adv-x="782" 
d="M44 262c0 86 31.5 153.167 94.5 201.5s147.167 72.5 252.5 72.5s189.5 -24.167 252.5 -72.5s94.5 -115.5 94.5 -201.5s-31.5 -153.167 -94.5 -201.5s-147.167 -72.5 -252.5 -72.5s-189.5 24.167 -252.5 72.5s-94.5 115.5 -94.5 201.5zM163 262
c0 -54.667 20.333 -98.667 61 -132s96.334 -50 167.001 -50c70 0 125.5 16.833 166.5 50.5s61.5 77.5 61.5 131.5s-20.5 97.833 -61.5 131.5s-96.5 50.5 -166.5 50.5c-70.667 0 -126.334 -16.667 -167.001 -50s-61 -77.333 -61 -132z" />
    <glyph glyph-name="p" unicode="p" horiz-adv-x="797" 
d="M446 536c92 0 166.166 -24.333 222.499 -73s84.5 -115.667 84.5 -201s-28.167 -152.333 -84.5 -201s-130.5 -73 -222.5 -73c-116.667 0 -200 37.333 -250 112v-300h-120v724h110v-116c46.667 85.333 133.334 128 260.001 128zM411.999 80c68 0 122 16.667 162 50
s60 77.333 60 132s-20 98.667 -60 132s-94 50 -162 50c-68.667 0 -122.834 -16.667 -162.501 -50s-59.5 -77.333 -59.5 -132s19.833 -98.667 59.5 -132s93.834 -50 162.501 -50z" />
    <glyph glyph-name="q" unicode="q" horiz-adv-x="797" 
d="M611 524h109.998v-724h-120v300c-50 -74.667 -133.667 -112 -251 -112c-91.333 0 -165.166 24.333 -221.499 73s-84.5 115.667 -84.5 201s28.167 152.333 84.5 201s130.5 73 222.5 73c126.667 0 213.334 -42.667 260.001 -128v116zM384.998 80c68 0 122 16.667 162 50
s60 77.333 60 132s-20 98.667 -60 132s-94 50 -162 50c-68.667 0 -122.834 -16.667 -162.501 -50s-59.5 -77.333 -59.5 -132s19.833 -98.667 59.5 -132s93.834 -50 162.501 -50z" />
    <glyph glyph-name="r" unicode="r" horiz-adv-x="526" 
d="M407 536c26 0 53.333 -2.66699 82 -8v-106c-40.667 4.66699 -72.667 7 -96 7c-67.333 0 -117 -18.833 -149 -56.5s-48 -96.167 -48 -175.5v-197h-120l1 524h110v-137c19.333 48.667 48 85.667 86 111s82.667 38 134 38z" />
    <glyph glyph-name="s" unicode="s" horiz-adv-x="676" 
d="M513 372c-7.33301 26 -29.167 46 -65.5 60s-81.5 21 -135.5 21c-46 0 -81.333 -5.5 -106 -16.5s-37 -26.167 -37 -45.5c0 -31.333 32.667 -53.666 98 -66.999l181 -35c64 -13.333 112.167 -31.5 144.5 -54.5s48.5 -53.833 48.5 -92.5
c0 -51.333 -26.5 -89.833 -79.5 -115.5s-128.167 -38.5 -225.5 -38.5c-192.667 0 -296 55 -310 165l112 4c12 -57.333 81 -86 207 -86c117.333 0 176 22 176 66c0 28.667 -37 51 -111 67l-189 38c-114.667 23.333 -172 71.666 -172 144.999c0 51.333 24.333 89 73 113
s114 36 196 36c86 0 156.5 -13 211.5 -39s86.5 -66 94.5 -120z" />
    <glyph glyph-name="t" unicode="t" horiz-adv-x="516" 
d="M477 433l-181 0.000976562v-241c0 -40.667 6.5 -68.334 19.5 -83.001s38.833 -22 77.5 -22c26 0 54 2 84 6v-96c-35.333 -6 -71.333 -9 -108 -9c-70.667 0 -120.5 14 -149.5 42s-43.5 75.667 -43.5 143v260h-155v89h119c16 0 27.333 3 34 9s10 16 10 30v88h112v-125h181
v-91z" />
    <glyph glyph-name="u" unicode="u" horiz-adv-x="772" 
d="M576 524l120 0.000976562v-524h-110v141c-22 -48.667 -55.667 -86.334 -101 -113.001s-99.666 -40 -162.999 -40c-80 0 -142 21.167 -186 63.5s-66 103.833 -66 184.5v288h120v-252c0 -123.333 57.667 -185 173 -185c67.333 0 119.666 20.5 156.999 61.5
s56 94.833 56 161.5v214z" />
    <glyph glyph-name="v" unicode="v" horiz-adv-x="745" 
d="M595 524h130l-267 -524h-174l-264 524h132l221 -461z" />
    <glyph glyph-name="w" unicode="w" horiz-adv-x="1175" 
d="M1020 524h129l-225 -524h-171l-164 464l-166 -464h-175l-223 524h133l182 -449l166 449h170l162 -440z" />
    <glyph glyph-name="x" unicode="x" horiz-adv-x="761" 
d="M737 0h-149l-210 205l-210 -205h-144l281 268l-269 256h150l194 -189l194 189h145l-266 -253z" />
    <glyph glyph-name="y" unicode="y" horiz-adv-x="753" 
d="M602 524h129.997l-274 -573c-28.667 -62.667 -59.667 -105.5 -93 -128.5s-84.666 -34.5 -153.999 -34.5c-23.333 0 -50.666 1.66699 -81.999 5v92c24.667 -2 49.334 -3 74.001 -3c38.667 0 68 5.66699 88 17s37.667 33.333 53 66l16 35h-50l-289 524h132l247 -475z" />
    <glyph glyph-name="z" unicode="z" horiz-adv-x="657" 
d="M191 94h439v-94h-607v83l428 347h-401v94h570v-83z" />
    <glyph glyph-name="braceleft" unicode="{" horiz-adv-x="398" 
d="M259 438c0 -82 -42.333 -129 -127 -141v-4c84.667 -12 127 -59 127 -141v-114c0 -34.667 8 -59.667 24 -75s41.667 -23 77 -23h9v-82h-14c-66 0 -115.667 12.667 -149 38s-50 70.333 -50 135v108c0 76.667 -35.667 115 -107 115h-9v82h9c71.333 0 107 38.667 107 116v108
c0 64 16.833 108.833 50.5 134.5s83.167 38.5 148.5 38.5h14v-83h-9c-35.333 0 -61 -7.5 -77 -22.5s-24 -39.833 -24 -74.5v-115z" />
    <glyph glyph-name="bar" unicode="|" horiz-adv-x="280" 
d="M95 736h90v-857h-90v857z" />
    <glyph glyph-name="braceright" unicode="}" horiz-adv-x="398" 
d="M348 336h10v-82h-10c-70.667 0 -106 -38.333 -106 -115v-108c0 -64.667 -16.667 -109.667 -50 -135s-83 -38 -149 -38h-14v82h9c35.333 0 61 7.66699 77 23s24 40.333 24 75v114c0 82 42.333 129 127 141v4c-84.667 12 -127 59 -127 141v115c0 34.667 -8 59.5 -24 74.5
s-41.667 22.5 -77 22.5h-9v83h14c65.333 0 114.833 -12.833 148.5 -38.5s50.5 -70.5 50.5 -134.5v-108c0 -77.333 35.333 -116 106 -116z" />
    <glyph glyph-name="asciitilde" unicode="~" horiz-adv-x="641" 
d="M486 406l73 0.000976562c0 -42 -10 -76.667 -30 -104s-52.333 -41 -97 -41c-30 0 -58.167 6.83301 -84.5 20.5s-50.333 27.167 -72 40.5s-41.5 20 -59.5 20c-20 0 -35 -6.16699 -45 -18.5s-15 -28.5 -15 -48.5h-74c0 41.333 10.167 75.833 30.5 103.5
s52.5 41.5 96.5 41.5c30 0 58.167 -6.83301 84.5 -20.5s50.333 -27.334 72 -41.001s41.5 -20.5 59.5 -20.5c20 0 35.167 6.33301 45.5 19s15.5 29 15.5 49z" />
    <glyph glyph-name="uni00A0" unicode="&#xa0;" horiz-adv-x="315" 
 />
    <glyph glyph-name="exclamdown" unicode="&#xa1;" horiz-adv-x="333" 
d="M98 524h137v-136h-137v136zM215 307l15 -483h-127l15 483h97z" />
    <glyph glyph-name="cent" unicode="&#xa2;" horiz-adv-x="726" 
d="M691 178c-12.667 -58 -44.332 -103.167 -94.999 -135.5s-114 -50.166 -190 -53.499v-75h-60v75c-94 5.33301 -167.833 31.5 -221.5 78.5s-80.5 111.833 -80.5 194.5s27 147.667 81 195s127.667 73.333 221 78v75h60v-75c72.667 -4 134 -21.833 184 -53.5
s81 -74.834 93 -129.501l-106 -9c-10.667 30 -31.334 53.833 -62.001 71.5s-67 28.167 -109 31.5v-369c45.333 3.33301 83.833 14.333 115.5 33s52.5 44 62.5 76zM155.002 262c0 -52.667 17.167 -95.1689 51.5 -127.502s80.833 -51.166 139.5 -56.499v368
c-58 -4.66699 -104.333 -23.167 -139 -55.5s-52 -75.166 -52 -128.499z" />
    <glyph glyph-name="sterling" unicode="&#xa3;" horiz-adv-x="720" 
d="M144 100h554v-100h-678v87c91.333 58 137 118 137 180c0 12.667 -2.33301 28.334 -7 47.001h-113v69h90c-14 40.667 -21 76.667 -21 108c0 67.333 25.833 119 77.5 155s122.167 54 211.5 54c171.333 0 264 -69.667 278 -209l-114 -8c-8 78 -62.667 117 -164 117
c-52.667 0 -93.667 -10.667 -123 -32s-44 -53 -44 -95c0 -23.333 6.33301 -53.333 19 -90h280v-69h-257c5.33301 -18 8 -35.667 8 -53c0 -60.667 -44.667 -114.334 -134 -161.001z" />
    <glyph glyph-name="currency" unicode="&#xa4;" horiz-adv-x="680" 
d="M641 95l-63 -63l-88 79c-41.333 -25.333 -91.333 -38 -150 -38c-56.667 0 -106.667 12.333 -150 37l-86 -77l-64 63l83 75c-26 36.667 -39 80.667 -39 132c0 50.667 13 94.667 39 132l-84 76l63 63l88 -79c42.667 25.333 92.667 38 150 38
c56.667 0 106.667 -12.333 150 -37l87 77l63 -63l-83 -75c26 -37.333 39 -81.333 39 -132s-13 -94.667 -39 -132zM184 303c0 -42 14.167 -75.333 42.5 -100s66.166 -37 113.499 -37s85.166 12.333 113.499 37s42.5 58 42.5 100s-14.167 75.333 -42.5 100
s-66.166 37 -113.499 37s-85.166 -12.333 -113.499 -37s-42.5 -58 -42.5 -100z" />
    <glyph glyph-name="yen" unicode="&#xa5;" horiz-adv-x="857" 
d="M489 313v-5h269v-61h-269v-59h269v-61h-269v-127h-121v127h-268v61h268v59h-268v61h268v7l-350 373h143l268 -300l271 300h139z" />
    <glyph glyph-name="brokenbar" unicode="&#xa6;" horiz-adv-x="280" 
d="M95 736h90v-344h-90v344zM95 239h90v-360h-90v360z" />
    <glyph glyph-name="section" unicode="&#xa7;" horiz-adv-x="579" 
d="M439 192c60 -28 90.001 -71.667 90.001 -131c0 -52 -20.667 -91.167 -62 -117.5s-97.333 -39.5 -168 -39.5c-70 0 -126.667 14 -170 42s-67.333 71 -72 129l102 4c8 -62.667 54.667 -94 140 -94c35.333 0 64.166 6.16699 86.499 18.5s33.5 29.833 33.5 52.5
c0 16.667 -7.33301 30.667 -22 42s-38.667 21.666 -72 30.999l-139 36c-45.333 11.333 -80.166 29.833 -104.499 55.5s-36.5 54.834 -36.5 87.501c0 56.667 34 97.334 102 122.001c-54 29.333 -81 73.333 -81 132c0 50.667 19.833 88.334 59.5 113.001s90.167 37 151.5 37
c63.333 0 116.666 -13.667 159.999 -41s68 -68.333 74 -123l-103 -6c-4 29.333 -18.167 51.5 -42.5 66.5s-53.833 22.5 -88.5 22.5c-30.667 0 -55.167 -5.83301 -73.5 -17.5s-27.5 -27.834 -27.5 -48.501c0 -34 29.667 -59 89 -75l123 -32c100 -25.333 150 -73.333 150 -144
c0 -54.667 -33 -95.334 -99 -122.001zM248.001 246l104 -25.998c54 12.667 81 37 81 73c0 35.333 -31.667 62 -95 80l-102 27c-57.333 -12.667 -86 -37.334 -86 -74.001s32.667 -63.334 98 -80.001z" />
    <glyph glyph-name="dieresis" unicode="&#xa8;" horiz-adv-x="421" 
d="M40 605v111h109v-111h-109zM271 605v111h110v-111h-110z" />
    <glyph glyph-name="copyright" unicode="&#xa9;" horiz-adv-x="824" 
d="M412 -12c-105.333 0 -192 33.167 -260 99.5s-102 153.833 -102 262.5s34 196.167 102 262.5s154.667 99.5 260 99.5s192 -33.167 260 -99.5s102 -153.833 102 -262.5s-34 -196.167 -102 -262.5s-154.667 -99.5 -260 -99.5zM412 48c86.667 0 157.334 28.667 212.001 86
s82 129.333 82 216s-27.333 158.667 -82 216s-125.334 86 -212.001 86s-157.5 -28.667 -212.5 -86s-82.5 -129.333 -82.5 -216s27.5 -158.667 82.5 -216s125.833 -86 212.5 -86zM243 350c0 64.667 15.333 114.5 46 149.5s72.334 52.5 125.001 52.5
c44 0 80.833 -12.167 110.5 -36.5s47.167 -58.833 52.5 -103.5l-81 -8c-4 26.667 -13.5 46.834 -28.5 60.501s-32.833 20.5 -53.5 20.5c-26.667 0 -47.667 -11.833 -63 -35.5s-23 -56.834 -23 -99.501c0 -42 8 -75 24 -99s37.667 -36 65 -36c22 0 40.333 7.33301 55 22
s24 35.667 28 63l81 -6c-4.66699 -46.667 -21.834 -82.667 -51.501 -108s-67.167 -38 -112.5 -38c-54 0 -96.5 17.667 -127.5 53s-46.5 85 -46.5 149z" />
    <glyph glyph-name="guillemotleft" unicode="&#xab;" horiz-adv-x="620" 
d="M326 462l-202 -182l202 -182h-119l-173 158v48l173 158h119zM573 462l-202 -182l202 -182h-120l-173 158v48l173 158h120z" />
    <glyph glyph-name="logicalnot" unicode="&#xac;" horiz-adv-x="582" 
d="M72 374h428v-201h-89v118h-339v83z" />
    <glyph glyph-name="registered" unicode="&#xae;" horiz-adv-x="584" 
d="M292 712c70.667 0 130 -23.333 178 -70s72 -106.667 72 -180s-24 -133.333 -72 -180s-107.333 -70 -178 -70s-130 23.167 -178 69.5s-72 106.5 -72 180.5s24 134.167 72 180.5s107.333 69.5 178 69.5zM292 257c59.333 0 107.833 19.5 145.5 58.5s56.5 87.833 56.5 146.5
s-18.833 107.5 -56.5 146.5s-86.167 58.5 -145.5 58.5s-107.833 -19.5 -145.5 -58.5s-56.5 -87.833 -56.5 -146.5s18.833 -107.5 56.5 -146.5s86.167 -58.5 145.5 -58.5zM382 515c0 -42.667 -15.667 -67.668 -47 -75.001l55 -103h-53l-47 101h-26v-101h-48v259h92
c20.667 0 38.167 -6.66699 52.5 -20s21.5 -33.666 21.5 -60.999zM301 474.999c22.667 0 34 13.333 34 40c0 27.333 -11 41 -33 41h-38v-81h37z" />
    <glyph glyph-name="macron" unicode="&#xaf;" horiz-adv-x="478" 
d="M40 620v78h398v-78h-398z" />
    <glyph glyph-name="degree" unicode="&#xb0;" horiz-adv-x="426" 
d="M213 376c-52 0 -95.333 15.333 -130 46s-52 71.334 -52 122.001s17.333 91.334 52 122.001s78 46 130 46s95.333 -15.333 130 -46s52 -71.334 52 -122.001s-17.333 -91.334 -52 -122.001s-78 -46 -130 -46zM213 450c29.333 0 53.833 8.83301 73.5 26.5
s29.5 40.167 29.5 67.5s-9.83301 49.833 -29.5 67.5s-44.167 26.5 -73.5 26.5s-53.833 -8.83301 -73.5 -26.5s-29.5 -40.167 -29.5 -67.5s9.83301 -49.833 29.5 -67.5s44.167 -26.5 73.5 -26.5z" />
    <glyph glyph-name="plusminus" unicode="&#xb1;" horiz-adv-x="594" 
d="M339 427h178v-81h-178v-121h-83v121h-178v81h178v135h83v-135zM78 81v81h439v-81h-439z" />
    <glyph glyph-name="uni00B2" unicode="&#xb2;" horiz-adv-x="446" 
d="M155 405l260.997 0.000976562v-74h-396v68l195 134c34.667 23.333 59.167 42.666 73.5 57.999s21.5 32 21.5 50c0 19.333 -7.66699 34 -23 44s-35.666 15 -60.999 15c-62 0 -96.333 -29.667 -103 -89l-90 7c4.66699 52.667 24.334 91.834 59.001 117.501
s79.334 38.5 134.001 38.5c51.333 0 93.5 -10.833 126.5 -32.5s49.5 -53.167 49.5 -94.5c0 -25.333 -8.5 -49.833 -25.5 -73.5s-47.167 -49.834 -90.5 -78.501z" />
    <glyph glyph-name="uni00B3" unicode="&#xb3;" horiz-adv-x="466" 
d="M249 593c54 -2 97.501 -13.335 130.501 -34.002s49.5 -52.667 49.5 -96c0 -45.333 -19.5 -79.5 -58.5 -102.5s-89.5 -34.5 -151.5 -34.5c-57.333 0 -104.333 11.333 -141 34s-58 56.334 -64 101.001l90 6c8 -44.667 46.333 -67 115 -67
c35.333 0 63.666 6.33301 84.999 19s32 30 32 52c0 20.667 -9.83301 37.334 -29.5 50.001s-48.167 19 -85.5 19c-27.333 0 -55 -2 -83 -6v50l157 106h-253v74h372v-66z" />
    <glyph glyph-name="acute" unicode="&#xb4;" horiz-adv-x="316" 
d="M40 590l111 145h125l-141 -145h-95z" />
    <glyph glyph-name="paragraph" unicode="&#xb6;" horiz-adv-x="639" 
d="M63 506c0 58.667 20.499 105.667 61.499 141s96.167 53 165.5 53h65v-793h-76v405c-65.333 0 -117.666 18 -156.999 54s-59 82.667 -59 140zM455.999 700h76v-793h-76v793z" />
    <glyph glyph-name="periodcentered" unicode="&#xb7;" horiz-adv-x="282" 
d="M73 244v136h136v-136h-136z" />
    <glyph glyph-name="cedilla" unicode="&#xb8;" horiz-adv-x="350" 
d="M199 -49c28.667 0 54.335 -6.5 77.002 -19.5s34 -33.167 34 -60.5c0 -28.667 -13.167 -49.834 -39.5 -63.501s-57.833 -20.5 -94.5 -20.5c-36 0 -66.167 6.33301 -90.5 19s-39.5 30.667 -45.5 54l59 3c8 -20 30.667 -30 68 -30c43.333 0 65 12.667 65 38
c0 12.667 -5.83301 22.334 -17.5 29.001s-25.834 10 -42.501 10s-36.667 -3.66699 -60 -11l-50 19l61 82h55l-46 -62c23.333 8.66699 45.666 13 66.999 13z" />
    <glyph glyph-name="uni00B9" unicode="&#xb9;" horiz-adv-x="336" 
d="M158 764h76v-431h-93v332l-100 -65v88z" />
    <glyph glyph-name="guillemotright" unicode="&#xbb;" horiz-adv-x="620" 
d="M340 304v-48l-173 -158h-119l202 182l-202 182h119zM413 462l174 -158v-48l-174 -158h-119l202 182l-202 182h119z" />
    <glyph glyph-name="onequarter" unicode="&#xbc;" horiz-adv-x="858" 
d="M124 340v271l-90 -48v79l106 58h64v-360h-80zM624 700h87l-565 -700h-88zM758 141h74v-63h-74v-78h-81v78h-242v58l189 224h134v-219zM520 141h157v186z" />
    <glyph glyph-name="onehalf" unicode="&#xbd;" horiz-adv-x="920" 
d="M124 340v271l-90 -48v79l106 58h64v-360h-80zM624 700h87l-565 -700h-88zM618 64l219.001 0.000976562v-64h-335v58l163 111c28.667 20 49 36.5 61 49.5s18 26.833 18 41.5c0 32 -23 48 -69 48c-50 0 -78 -24.333 -84 -73l-77 6c4 44 20.5 76.833 49.5 98.5
s66.167 32.5 111.5 32.5c43.333 0 79.166 -9.16699 107.499 -27.5s42.5 -44.5 42.5 -78.5c0 -22.667 -7.16699 -43.834 -21.5 -63.501s-39.5 -41.167 -75.5 -64.5z" />
    <glyph glyph-name="threequarters" unicode="&#xbe;" horiz-adv-x="975" 
d="M372 448c0 -40 -16.832 -70.001 -50.499 -90.001s-77.167 -30 -130.5 -30c-108 0 -167 38.333 -177 115l80 5c4.66699 -39.333 37 -59 97 -59c30 0 54.333 5.33301 73 16s28 25.334 28 44.001c0 16.667 -8.33301 30.5 -25 41.5s-41.334 16.5 -74.001 16.5
c-16.667 0 -41 -2 -73 -6v51l132 85h-214v63h321v-57l-143 -85c104 -3.33301 156 -40 156 -110zM742.001 699.999h86l-565 -700h-88zM875.001 140.999h74v-63h-74v-78h-80v78h-243v58l190 224h133v-219zM638.001 140.999h157v186z" />
    <glyph glyph-name="questiondown" unicode="&#xbf;" horiz-adv-x="684" 
d="M430 524v-136h-137v136h137zM662 45c-8 -78 -41.499 -136.334 -100.499 -175.001s-136.5 -58 -232.5 -58c-86.667 0 -156.834 15.333 -210.501 46s-80.5 76.667 -80.5 138c0 40.667 12.833 75 38.5 103s67.5 57 125.5 87c40.667 21.333 67.834 38.333 81.501 51
s20.5 30.667 20.5 54v13h116v-18c0 -38.667 -8.83301 -68.834 -26.5 -90.501s-47.834 -42.167 -90.501 -61.5c-48.667 -23.333 -85 -44.666 -109 -63.999s-36 -41.666 -36 -66.999c0 -30.667 15.667 -54 47 -70s72.666 -24 123.999 -24c62.667 0 112.834 12 150.501 36
s60.5 59.333 68.5 106z" />
    <glyph glyph-name="Agrave" unicode="&#xc0;" horiz-adv-x="924" 
d="M528 762h-96l-155 119h126zM774 0l-82 169h-464l-82 -169h-126l346 700h191l347 -700h-130zM275 265h370l-185 381z" />
    <glyph glyph-name="Aacute" unicode="&#xc1;" horiz-adv-x="924" 
d="M648 881l-154 -119h-97l125 119h126zM774 0l-82 169h-464l-82 -169h-126l346 700h191l347 -700h-130zM275 265h370l-185 381z" />
    <glyph glyph-name="Acircumflex" unicode="&#xc2;" horiz-adv-x="924" 
d="M462 850l-115 -86h-96l142 119h139l141 -119h-95zM774 0l-82 169h-464l-82 -169h-126l346 700h191l347 -700h-130zM275 265h370l-185 381z" />
    <glyph glyph-name="Atilde" unicode="&#xc3;" horiz-adv-x="924" 
d="M375 809c-16 0 -28.332 -4 -36.999 -12s-13 -18.333 -13 -31h-66c0 73.333 36.333 110 109 110c31.333 0 65.5 -8.5 102.5 -25.5s63.5 -25.5 79.5 -25.5c34 0 51 14 51 42h65c0 -72.667 -36.333 -109 -109 -109c-31.333 0 -65.333 8.5 -102 25.5
s-63.334 25.5 -80.001 25.5zM774.001 0l-82 169h-464l-82 -169h-126l346 700h191l347 -700h-130zM275.001 265h370l-185 381z" />
    <glyph glyph-name="Adieresis" unicode="&#xc4;" horiz-adv-x="924" 
d="M393 868v-105h-121v105h121zM653 868v-105h-120v105h120zM774 0l-82 169h-464l-82 -169h-126l346 700h191l347 -700h-130zM275 265h370l-185 381z" />
    <glyph glyph-name="Aring" unicode="&#xc5;" horiz-adv-x="924" 
d="M462 745c-39.333 0 -72.501 8.66699 -99.501 26s-40.5 42 -40.5 74s13.333 56.667 40 74s60 26 100 26s73.5 -8.66699 100.5 -26s40.5 -42 40.5 -74s-13.667 -56.667 -41 -74s-60.666 -26 -99.999 -26zM461.999 894c-24 0 -43.333 -4.33301 -58 -13s-22 -20.667 -22 -36
c0 -14.667 7.33301 -26.334 22 -35.001s34 -13 58 -13s43.333 4.33301 58 13s22 20.334 22 35.001c0 15.333 -7.33301 27.333 -22 36s-34 13 -58 13zM773.999 0l-82 169h-464l-82 -169h-126l346 700h191l347 -700h-130zM274.999 265h370l-185 381z" />
    <glyph glyph-name="AE" unicode="&#xc6;" horiz-adv-x="1399" 
d="M800 99h550v-99h-676v169h-390l-123 -169h-147l525 700h791v-99h-530v-198h419v-94h-419v-210zM354 265h320v336h-75z" />
    <glyph glyph-name="Ccedilla" unicode="&#xc7;" horiz-adv-x="910" 
d="M482 -12l-24.002 -0.00292969l-37 -50c23.333 8.66699 45.333 13 66 13c28.667 0 54.334 -6.5 77.001 -19.5s34 -33.167 34 -60.5c0 -29.333 -13 -50.666 -39 -63.999s-57.333 -20 -94 -20s-67.167 6.33301 -91.5 19s-39.5 30.667 -45.5 54l59 3c8 -20 30.667 -30 68 -30
c43.333 0 65 12.667 65 38c0 12.667 -5.83301 22.334 -17.5 29.001s-25.834 10 -42.501 10c-17.333 0 -37 -3.66699 -59 -11l-51 19l55 74c-113.333 12 -200.833 50 -262.5 114s-92.5 145.333 -92.5 244c0 109.333 36.833 197 110.5 263s177.167 99 310.5 99
c106.667 0 194.834 -21.167 264.501 -63.5s111.5 -99.166 125.5 -170.499l-121 -8c-10.667 42 -40.834 75.667 -90.501 101s-109.167 38 -178.5 38c-93.333 0 -165.833 -24.167 -217.5 -72.5s-77.5 -110.5 -77.5 -186.5c0 -76.667 26.5 -139 79.5 -187s128.5 -72 226.5 -72
c74.667 0 135.334 14.167 182.001 42.5s75.334 64.5 86.001 108.5l121 -7c-12.667 -76.667 -52.167 -137 -118.5 -181s-156.5 -66 -270.5 -66z" />
    <glyph glyph-name="Egrave" unicode="&#xc8;" 
d="M489 762h-97l-154 119h126zM95 0v700h656v-99h-530v-198h419v-94h-419v-210h550v-99h-676z" />
    <glyph glyph-name="Eacute" unicode="&#xc9;" 
d="M331 762l125 119h126l-155 -119h-96zM95 0v700h656v-99h-530v-198h419v-94h-419v-210h550v-99h-676z" />
    <glyph glyph-name="Ecircumflex" unicode="&#xca;" 
d="M410 850l-116 -86h-96l142 119h139l142 -119h-96zM221 99h550v-99h-676v700h656v-99h-530v-198h419v-94h-419v-210z" />
    <glyph glyph-name="Edieresis" unicode="&#xcb;" 
d="M219 763v105h121v-105h-121zM480 763v105h120v-105h-120zM95 0v700h656v-99h-530v-198h419v-94h-419v-210h550v-99h-676z" />
    <glyph glyph-name="Igrave" unicode="&#xcc;" horiz-adv-x="316" 
d="M215 761h-93l-135 120h125zM95 0v700h126v-700h-126z" />
    <glyph glyph-name="Iacute" unicode="&#xcd;" horiz-adv-x="316" 
d="M101 761l103 120h124l-134 -120h-93zM95 0v700h126v-700h-126z" />
    <glyph glyph-name="Icircumflex" unicode="&#xce;" horiz-adv-x="316" 
d="M227 883l142 -119h-96l-115 86l-116 -86h-96l142 119h139zM95 0v700h126v-700h-126z" />
    <glyph glyph-name="Idieresis" unicode="&#xcf;" horiz-adv-x="316" 
d="M-3 763v105h110v-105h-110zM208 763v105h111v-105h-111zM95 0v700h126v-700h-126z" />
    <glyph glyph-name="Eth" unicode="&#xd0;" horiz-adv-x="966" 
d="M488 700c134.667 0 239.667 -31.167 315 -93.5s113 -147.833 113 -256.5s-37.667 -194.167 -113 -256.5s-180.333 -93.5 -315 -93.5h-358v305h-96v90h96v305h358zM476 103c102 0 179.833 22.167 233.5 66.5s80.5 104.5 80.5 180.5s-26.833 136.167 -80.5 180.5
s-131.5 66.5 -233.5 66.5h-220v-202h277v-90h-277v-202h220z" />
    <glyph glyph-name="Ntilde" unicode="&#xd1;" horiz-adv-x="969" 
d="M397 809c-16 0 -28.501 -4 -37.501 -12s-13.5 -18.333 -13.5 -31h-65c0 73.333 36.333 110 109 110c31.333 0 65.333 -8.5 102 -25.5s63.334 -25.5 80.001 -25.5c33.333 0 50 14 50 42h66c0 -72.667 -36.333 -109 -109 -109c-31.333 0 -65.5 8.5 -102.5 25.5
s-63.5 25.5 -79.5 25.5zM751.999 700h122v-700h-216l-442 634v-634h-121v700h215l442 -634v634z" />
    <glyph glyph-name="Ograve" unicode="&#xd2;" horiz-adv-x="978" 
d="M568 762h-97l-154 119h126zM50 350c0 109.333 38.5 197 115.5 263s184.833 99 323.5 99s246.5 -33 323.5 -99s115.5 -153.667 115.5 -263s-38.5 -197 -115.5 -263s-184.833 -99 -323.5 -99s-246.5 33 -323.5 99s-115.5 153.667 -115.5 263zM176 350
c0 -76 27.333 -138.167 82 -186.5s131.667 -72.5 231 -72.5s176.333 24.167 231 72.5s82 110.5 82 186.5s-27.333 138.167 -82 186.5s-131.667 72.5 -231 72.5s-176.333 -24.167 -231 -72.5s-82 -110.5 -82 -186.5z" />
    <glyph glyph-name="Oacute" unicode="&#xd3;" horiz-adv-x="978" 
d="M410 762l125 119h126l-155 -119h-96zM50 350c0 109.333 38.5 197 115.5 263s184.833 99 323.5 99s246.5 -33 323.5 -99s115.5 -153.667 115.5 -263s-38.5 -197 -115.5 -263s-184.833 -99 -323.5 -99s-246.5 33 -323.5 99s-115.5 153.667 -115.5 263zM176 350
c0 -76 27.333 -138.167 82 -186.5s131.667 -72.5 231 -72.5s176.333 24.167 231 72.5s82 110.5 82 186.5s-27.333 138.167 -82 186.5s-131.667 72.5 -231 72.5s-176.333 -24.167 -231 -72.5s-82 -110.5 -82 -186.5z" />
    <glyph glyph-name="Ocircumflex" unicode="&#xd4;" horiz-adv-x="978" 
d="M489 850l-116 -86h-96l142 119h139l142 -119h-96zM489 712c138.667 0 246.5 -33 323.5 -99s115.5 -153.667 115.5 -263s-38.5 -197 -115.5 -263s-184.833 -99 -323.5 -99s-246.5 33 -323.5 99s-115.5 153.667 -115.5 263s38.5 197 115.5 263s184.833 99 323.5 99zM489 91
c99.333 0 176.333 24.167 231 72.5s82 110.5 82 186.5s-27.333 138.167 -82 186.5s-131.667 72.5 -231 72.5s-176.333 -24.167 -231 -72.5s-82 -110.5 -82 -186.5s27.333 -138.167 82 -186.5s131.667 -72.5 231 -72.5z" />
    <glyph glyph-name="Otilde" unicode="&#xd5;" horiz-adv-x="978" 
d="M627 867h65.001c0 -72.667 -36.333 -109 -109 -109c-31.333 0 -65.333 8.5 -102 25.5s-63.334 25.5 -80.001 25.5c-16 0 -28.333 -4 -37 -12s-13 -18.333 -13 -31h-66c0 73.333 36.333 110 109 110c31.333 0 65.5 -8.5 102.5 -25.5s63.5 -25.5 79.5 -25.5
c34 0 51 14 51 42zM50.001 350c0 109.333 38.5 197 115.5 263s184.833 99 323.5 99s246.5 -33 323.5 -99s115.5 -153.667 115.5 -263s-38.5 -197 -115.5 -263s-184.833 -99 -323.5 -99s-246.5 33 -323.5 99s-115.5 153.667 -115.5 263zM176.001 350
c0 -76 27.333 -138.167 82 -186.5s131.667 -72.5 231 -72.5s176.333 24.167 231 72.5s82 110.5 82 186.5s-27.333 138.167 -82 186.5s-131.667 72.5 -231 72.5s-176.333 -24.167 -231 -72.5s-82 -110.5 -82 -186.5z" />
    <glyph glyph-name="Odieresis" unicode="&#xd6;" horiz-adv-x="978" 
d="M298 763v105h121v-105h-121zM559 763v105h120v-105h-120zM50 350c0 109.333 38.5 197 115.5 263s184.833 99 323.5 99s246.5 -33 323.5 -99s115.5 -153.667 115.5 -263s-38.5 -197 -115.5 -263s-184.833 -99 -323.5 -99s-246.5 33 -323.5 99s-115.5 153.667 -115.5 263z
M176 350c0 -76 27.333 -138.167 82 -186.5s131.667 -72.5 231 -72.5s176.333 24.167 231 72.5s82 110.5 82 186.5s-27.333 138.167 -82 186.5s-131.667 72.5 -231 72.5s-176.333 -24.167 -231 -72.5s-82 -110.5 -82 -186.5z" />
    <glyph glyph-name="multiply" unicode="&#xd7;" horiz-adv-x="577" 
d="M505 468l-154 -137l154 -137l-58 -59l-159 141l-158 -141l-58 59l154 137l-154 137l58 58l158 -140l159 140z" />
    <glyph glyph-name="Oslash" unicode="&#xd8;" horiz-adv-x="978" 
d="M821 605c71.333 -65.333 106.999 -150.333 106.999 -255c0 -109.333 -38.5 -197 -115.5 -263s-184.833 -99 -323.5 -99c-104 0 -193 20 -267 60l-82 -76l-60 53l76 71c-70.667 63.333 -106 148 -106 254c0 109.333 38.5 197 115.5 263s184.833 99 323.5 99
c104.667 0 193.334 -20 266.001 -60l82 76l60 -53zM175.999 350c0 -69.333 22.333 -127 67 -173l425 394c-47.333 25.333 -107 38 -179 38c-99.333 0 -176.333 -24.167 -231 -72.5s-82 -110.5 -82 -186.5zM488.999 91c99.333 0 176.333 24.167 231 72.5s82 110.5 82 186.5
c0 69.333 -22.667 127.333 -68 174l-425 -395c50.667 -25.333 110.667 -38 180 -38z" />
    <glyph glyph-name="Ugrave" unicode="&#xd9;" horiz-adv-x="959" 
d="M559 762h-97l-154 119h125zM738 700h125.999v-413c0 -94.667 -32.167 -168.167 -96.5 -220.5s-160.166 -78.5 -287.499 -78.5s-223.333 26.167 -288 78.5s-97 125.833 -97 220.5v413h126v-401c0 -67.333 21.5 -118.833 64.5 -154.5s107.833 -53.5 194.5 -53.5
c86 0 150.5 17.833 193.5 53.5s64.5 87.167 64.5 154.5v401z" />
    <glyph glyph-name="Uacute" unicode="&#xda;" horiz-adv-x="959" 
d="M652 881l-155 -119h-96l125 119h126zM738 700h125.999v-413c0 -94.667 -32.167 -168.167 -96.5 -220.5s-160.166 -78.5 -287.499 -78.5s-223.333 26.167 -288 78.5s-97 125.833 -97 220.5v413h126v-401c0 -67.333 21.5 -118.833 64.5 -154.5s107.833 -53.5 194.5 -53.5
c86 0 150.5 17.833 193.5 53.5s64.5 87.167 64.5 154.5v401z" />
    <glyph glyph-name="Ucircumflex" unicode="&#xdb;" horiz-adv-x="959" 
d="M480 850l-116 -86h-96l142 119h139l141 -119h-95zM738 700h125.999v-413c0 -94.667 -32.167 -168.167 -96.5 -220.5s-160.166 -78.5 -287.499 -78.5s-223.333 26.167 -288 78.5s-97 125.833 -97 220.5v413h126v-401c0 -67.333 21.5 -118.833 64.5 -154.5
s107.833 -53.5 194.5 -53.5c86 0 150.5 17.833 193.5 53.5s64.5 87.167 64.5 154.5v401z" />
    <glyph glyph-name="Udieresis" unicode="&#xdc;" horiz-adv-x="959" 
d="M410 868v-105h-121v105h121zM670 868v-105h-120v105h120zM738 700h125.999v-413c0 -94.667 -32.167 -168.167 -96.5 -220.5s-160.166 -78.5 -287.499 -78.5s-223.333 26.167 -288 78.5s-97 125.833 -97 220.5v413h126v-401c0 -67.333 21.5 -118.833 64.5 -154.5
s107.833 -53.5 194.5 -53.5c86 0 150.5 17.833 193.5 53.5s64.5 87.167 64.5 154.5v401z" />
    <glyph glyph-name="Yacute" unicode="&#xdd;" horiz-adv-x="908" 
d="M626 881l-154 -119h-97l126 119h125zM743 700h147l-373 -419v-281h-126v281l-373 419h152l287 -332z" />
    <glyph glyph-name="Thorn" unicode="&#xde;" horiz-adv-x="860" 
d="M554 584c78 0 141 -18.333 189 -55s72 -89.667 72 -159s-23.5 -121.5 -70.5 -156.5s-110.5 -52.5 -190.5 -52.5h-333v-161h-126v700h126v-116h333zM548 259c42.667 0 76.834 9.66895 102.501 29.002s38.5 46.666 38.5 81.999s-12.833 62.666 -38.5 81.999
s-59.834 29 -102.501 29h-327v-222h327z" />
    <glyph glyph-name="germandbls" unicode="&#xdf;" horiz-adv-x="762" 
d="M463 423c83.333 -7.33301 147.332 -28.998 191.999 -64.998s67 -84.667 67 -146c0 -72 -28.667 -126.333 -86 -163s-130.666 -55 -219.999 -55c-25.333 0 -55.333 2 -90 6v97c36.667 -3.33301 62.334 -5 77.001 -5c56 0 103.167 10.5 141.5 31.5s57.5 54.833 57.5 101.5
s-20.333 83 -61 109s-100.334 39 -179.001 39h-43v93h40c58.667 0 102.834 9.16699 132.501 27.5s44.5 44.166 44.5 77.499s-15.333 59.166 -46 77.499s-72.667 27.5 -126 27.5c-112 0 -168 -44.333 -168 -133v-543h-120v559c0 68 24.667 119.5 74 154.5
s120.666 52.5 213.999 52.5c85.333 0 155.333 -14.833 210 -44.5s82 -75.167 82 -136.5c0 -92.667 -64.333 -146.667 -193 -162z" />
    <glyph glyph-name="agrave" unicode="&#xe0;" horiz-adv-x="746" 
d="M459 590h-94l-142 145h125zM380 536c96.667 -0.666992 170.166 -19.666 220.499 -56.999s75.5 -92.333 75.5 -165v-314h-110v116c-52.667 -85.333 -147 -128 -283 -128c-79.333 0 -138.666 14 -177.999 42s-59 65 -59 111c0 50 23.833 87.667 71.5 113
s120.167 41 217.5 47l221 15v22c0 34 -14.667 61.667 -44 83s-73.333 32 -132 32c-105.333 0 -166.333 -28.667 -183 -86h-113c7.33301 58.667 38 101.667 92 129s122 40.666 204 39.999zM313.999 71.001c74.667 0 133.667 14.332 177 42.999s65 64.334 65 107.001v24
l-207 -13c-122.667 -8 -184 -36.333 -184 -85c0 -22.667 12.333 -41 37 -55s62 -21 112 -21z" />
    <glyph glyph-name="aacute" unicode="&#xe1;" horiz-adv-x="746" 
d="M549 735l-142 -145h-94l111 145h125zM380 536c96.667 -0.666992 170.166 -19.666 220.499 -56.999s75.5 -92.333 75.5 -165v-314h-110v116c-52.667 -85.333 -147 -128 -283 -128c-79.333 0 -138.666 14 -177.999 42s-59 65 -59 111c0 50 23.833 87.667 71.5 113
s120.167 41 217.5 47l221 15v22c0 34 -14.667 61.667 -44 83s-73.333 32 -132 32c-105.333 0 -166.333 -28.667 -183 -86h-113c7.33301 58.667 38 101.667 92 129s122 40.666 204 39.999zM313.999 71.001c74.667 0 133.667 14.332 177 42.999s65 64.334 65 107.001v24
l-207 -13c-122.667 -8 -184 -36.333 -184 -85c0 -22.667 12.333 -41 37 -55s62 -21 112 -21z" />
    <glyph glyph-name="acircumflex" unicode="&#xe2;" horiz-adv-x="746" 
d="M386 700l-111 -110h-88l135 145h127l135 -145h-88zM380 536c96.667 -0.666992 170.166 -19.666 220.499 -56.999s75.5 -92.333 75.5 -165v-314h-110v116c-52.667 -85.333 -147 -128 -283 -128c-79.333 0 -138.666 14 -177.999 42s-59 65 -59 111
c0 50 23.833 87.667 71.5 113s120.167 41 217.5 47l221 15v22c0 34 -14.667 61.667 -44 83s-73.333 32 -132 32c-105.333 0 -166.333 -28.667 -183 -86h-113c7.33301 58.667 38 101.667 92 129s122 40.666 204 39.999zM313.999 71.001c74.667 0 133.667 14.332 177 42.999
s65 64.334 65 107.001v24l-207 -13c-122.667 -8 -184 -36.333 -184 -85c0 -22.667 12.333 -41 37 -55s62 -21 112 -21z" />
    <glyph glyph-name="atilde" unicode="&#xe3;" horiz-adv-x="746" 
d="M295 646c-16.667 0 -29.5 -4.16699 -38.5 -12.5s-13.5 -19.5 -13.5 -33.5h-70c0 31.333 9.16699 57.5 27.5 78.5s47.5 31.5 87.5 31.5c32 0 67.167 -8.83301 105.5 -26.5s66.166 -26.5 83.499 -26.5c16.667 0 29.667 4 39 12s14 19 14 33h69c0 -32 -9 -58.333 -27 -79
s-47.333 -31 -88 -31c-32 0 -67.167 9 -105.5 27s-66.166 27 -83.499 27zM380 536c96.667 -0.666992 170.166 -19.666 220.499 -56.999s75.5 -92.333 75.5 -165v-314h-110v116c-52.667 -85.333 -147 -128 -283 -128c-79.333 0 -138.666 14 -177.999 42s-59 65 -59 111
c0 50 23.833 87.667 71.5 113s120.167 41 217.5 47l221 15v22c0 34 -14.667 61.667 -44 83s-73.333 32 -132 32c-105.333 0 -166.333 -28.667 -183 -86h-113c7.33301 58.667 38 101.667 92 129s122 40.666 204 39.999zM313.999 71.001c74.667 0 133.667 14.332 177 42.999
s65 64.334 65 107.001v24l-207 -13c-122.667 -8 -184 -36.333 -184 -85c0 -22.667 12.333 -41 37 -55s62 -21 112 -21z" />
    <glyph glyph-name="adieresis" unicode="&#xe4;" horiz-adv-x="746" 
d="M325 716v-111h-109v111h109zM556 716v-111h-109v111h109zM380 536c96.667 -0.666992 170.166 -19.666 220.499 -56.999s75.5 -92.333 75.5 -165v-314h-110v116c-52.667 -85.333 -147 -128 -283 -128c-79.333 0 -138.666 14 -177.999 42s-59 65 -59 111
c0 50 23.833 87.667 71.5 113s120.167 41 217.5 47l221 15v22c0 34 -14.667 61.667 -44 83s-73.333 32 -132 32c-105.333 0 -166.333 -28.667 -183 -86h-113c7.33301 58.667 38 101.667 92 129s122 40.666 204 39.999zM313.999 71.001c74.667 0 133.667 14.332 177 42.999
s65 64.334 65 107.001v24l-207 -13c-122.667 -8 -184 -36.333 -184 -85c0 -22.667 12.333 -41 37 -55s62 -21 112 -21z" />
    <glyph glyph-name="aring" unicode="&#xe5;" horiz-adv-x="746" 
d="M386 586c-40 0 -73.833 8.83301 -101.5 26.5s-41.5 42.5 -41.5 74.5s13.833 56.667 41.5 74s61.5 26 101.5 26s73.833 -8.66699 101.5 -26s41.5 -42 41.5 -74s-13.833 -56.833 -41.5 -74.5s-61.5 -26.5 -101.5 -26.5zM386 736c-23.333 0 -42.333 -4.33301 -57 -13
s-22 -20.667 -22 -36s7.33301 -27.5 22 -36.5s33.667 -13.5 57 -13.5s42.333 4.5 57 13.5s22 21.167 22 36.5s-7.33301 27.333 -22 36s-33.667 13 -57 13zM380 536c96.667 -0.666992 170.166 -19.666 220.499 -56.999s75.5 -92.333 75.5 -165v-314h-110v116
c-52.667 -85.333 -147 -128 -283 -128c-79.333 0 -138.666 14 -177.999 42s-59 65 -59 111c0 50 23.833 87.667 71.5 113s120.167 41 217.5 47l221 15v22c0 34 -14.667 61.667 -44 83s-73.333 32 -132 32c-105.333 0 -166.333 -28.667 -183 -86h-113
c7.33301 58.667 38 101.667 92 129s122 40.666 204 39.999zM313.999 71.001c74.667 0 133.667 14.332 177 42.999s65 64.334 65 107.001v24l-207 -13c-122.667 -8 -184 -36.333 -184 -85c0 -22.667 12.333 -41 37 -55s62 -21 112 -21z" />
    <glyph glyph-name="ae" unicode="&#xe6;" horiz-adv-x="1256" 
d="M1214 241l0.00195312 -14.001h-538c8 -51.333 32.167 -90.166 72.5 -116.499s91.5 -39.5 153.5 -39.5c42.667 0 80 6.66699 112 20s56 31 72 53l117 -5c-19.333 -47.333 -54.833 -84.333 -106.5 -111s-114.834 -40 -189.501 -40c-147.333 0 -246 45.333 -296 136
c-59.333 -90.667 -164.666 -136 -315.999 -136c-84.667 0 -147.334 14 -188.001 42s-61 65 -61 111c0 102 96.333 155.667 289 161l221 6v28c0 34.667 -14.333 62.834 -43 84.501s-73 32.5 -133 32.5c-105.333 0 -166.333 -28.667 -183 -86h-113
c7.33301 58.667 37.666 101.667 90.999 129s120 40.666 200 39.999c130 0 214.333 -36.333 253 -109c54.667 72.667 144.667 109 270 109c100.667 0 178.5 -24.333 233.5 -73s82.5 -122.667 82.5 -222zM893.002 452.999c-57.333 0 -105.501 -12.667 -144.501 -38
s-62.833 -63 -71.5 -113h418c-2.66699 46.667 -22.167 83.5 -58.5 110.5s-84.166 40.5 -143.499 40.5zM314.001 70.999c74.667 0 133.667 14.332 177 42.999s65 64.334 65 107.001v15l-207 -5c-122.667 -3.33301 -184 -31.333 -184 -84c0 -22.667 12.333 -41 37 -55
s62 -21 112 -21z" />
    <glyph glyph-name="ccedilla" unicode="&#xe7;" horiz-adv-x="740" 
d="M704 183c-12 -62 -46.999 -110 -104.999 -144s-129.333 -51 -214 -51l-37 -50c23.333 8.66699 45.666 13 66.999 13c28.667 0 54.334 -6.5 77.001 -19.5s34 -33.167 34 -60.5c0 -28.667 -13.167 -49.834 -39.5 -63.501s-57.833 -20.5 -94.5 -20.5
c-36 0 -66.167 6.33301 -90.5 19s-39.5 30.667 -45.5 54l59 3c8 -20 30.667 -30 68 -30c43.333 0 65 12.667 65 38c0 12.667 -5.83301 22.334 -17.5 29.001s-25.834 10 -42.501 10s-36.667 -3.66699 -60 -11l-50 19l54 72c-90 8 -160.5 35.333 -211.5 82
s-76.5 110 -76.5 190c0 87.333 30.333 154.833 91 202.5s142.667 71.5 246 71.5c82.667 0 152.834 -16.5 210.501 -49.5s92.5 -79.5 104.5 -139.5l-115 -7c-11.333 33.333 -35 59 -71 77s-79 27 -129 27c-66 0 -118.833 -16.167 -158.5 -48.5s-59.5 -76.833 -59.5 -133.5
s20.167 -101.167 60.5 -133.5s94.166 -48.5 161.499 -48.5c52 0 96 9.5 132 28.5s59.667 46.167 71 81.5z" />
    <glyph glyph-name="egrave" unicode="&#xe8;" horiz-adv-x="763" 
d="M463 590h-95l-141 145h124zM721 241v-14.001h-557c8 -51.333 32.833 -90.166 74.5 -116.499s95.5 -39.5 161.5 -39.5c94 0 158.667 24.333 194 73l116 -5c-19.333 -48 -55.5 -85.167 -108.5 -111.5s-120.167 -39.5 -201.5 -39.5c-110 0 -196.833 22.833 -260.5 68.5
s-95.5 114.167 -95.5 205.5c0 90 31.5 158.167 94.5 204.5s146.833 69.5 251.5 69.5c220.667 0 331 -98.333 331 -295zM390 452.999c-61.333 0 -111.999 -12.667 -151.999 -38s-64.333 -63 -73 -113h438c-2.66699 46.667 -22.834 83.5 -60.501 110.5s-88.5 40.5 -152.5 40.5
z" />
    <glyph glyph-name="eacute" unicode="&#xe9;" horiz-adv-x="763" 
d="M552 735l-141 -145h-95l112 145h124zM721 241v-14.001h-557c8 -51.333 32.833 -90.166 74.5 -116.499s95.5 -39.5 161.5 -39.5c94 0 158.667 24.333 194 73l116 -5c-19.333 -48 -55.5 -85.167 -108.5 -111.5s-120.167 -39.5 -201.5 -39.5
c-110 0 -196.833 22.833 -260.5 68.5s-95.5 114.167 -95.5 205.5c0 90 31.5 158.167 94.5 204.5s146.833 69.5 251.5 69.5c220.667 0 331 -98.333 331 -295zM390 452.999c-61.333 0 -111.999 -12.667 -151.999 -38s-64.333 -63 -73 -113h438
c-2.66699 46.667 -22.834 83.5 -60.501 110.5s-88.5 40.5 -152.5 40.5z" />
    <glyph glyph-name="ecircumflex" unicode="&#xea;" horiz-adv-x="763" 
d="M389 700l-110 -110h-88l135 145h127l135 -145h-88zM721 241v-14.001h-557c8 -51.333 32.833 -90.166 74.5 -116.499s95.5 -39.5 161.5 -39.5c94 0 158.667 24.333 194 73l116 -5c-19.333 -48 -55.5 -85.167 -108.5 -111.5s-120.167 -39.5 -201.5 -39.5
c-110 0 -196.833 22.833 -260.5 68.5s-95.5 114.167 -95.5 205.5c0 90 31.5 158.167 94.5 204.5s146.833 69.5 251.5 69.5c220.667 0 331 -98.333 331 -295zM390 452.999c-61.333 0 -111.999 -12.667 -151.999 -38s-64.333 -63 -73 -113h438
c-2.66699 46.667 -22.834 83.5 -60.501 110.5s-88.5 40.5 -152.5 40.5z" />
    <glyph glyph-name="edieresis" unicode="&#xeb;" horiz-adv-x="763" 
d="M328 716v-111h-109v111h109zM560 716v-111h-109v111h109zM721 241v-14.001h-557c8 -51.333 32.833 -90.166 74.5 -116.499s95.5 -39.5 161.5 -39.5c94 0 158.667 24.333 194 73l116 -5c-19.333 -48 -55.5 -85.167 -108.5 -111.5s-120.167 -39.5 -201.5 -39.5
c-110 0 -196.833 22.833 -260.5 68.5s-95.5 114.167 -95.5 205.5c0 90 31.5 158.167 94.5 204.5s146.833 69.5 251.5 69.5c220.667 0 331 -98.333 331 -295zM390 452.999c-61.333 0 -111.999 -12.667 -151.999 -38s-64.333 -63 -73 -113h438
c-2.66699 46.667 -22.834 83.5 -60.501 110.5s-88.5 40.5 -152.5 40.5z" />
    <glyph glyph-name="igrave" unicode="&#xec;" horiz-adv-x="271" 
d="M188 590h-95l-117 145h126zM76 0v524h120v-524h-120z" />
    <glyph glyph-name="iacute" unicode="&#xed;" horiz-adv-x="271" 
d="M83 590l86 145h126l-117 -145h-95zM76 0v524h120v-524h-120z" />
    <glyph glyph-name="icircumflex" unicode="&#xee;" horiz-adv-x="271" 
d="M197 735l110 -145h-85l-86 107l-87 -107h-85l110 145h123zM76 0v524h120v-524h-120z" />
    <glyph glyph-name="idieresis" unicode="&#xef;" horiz-adv-x="271" 
d="M-15 605v111h105v-111h-105zM182 605v111h105v-111h-105zM76 0v524h120v-524h-120z" />
    <glyph glyph-name="eth" unicode="&#xf0;" horiz-adv-x="788" 
d="M530 661c138.667 -72.667 207.999 -188 207.999 -346c0 -112.667 -31.667 -195.334 -95 -248.001s-148.333 -79 -255 -79c-106 0 -189.833 23.167 -251.5 69.5s-92.5 109.5 -92.5 189.5c0 78.667 29.833 141.167 89.5 187.5s137.5 69.5 233.5 69.5
c70 0 129.333 -12.833 178 -38.5s83.334 -61.167 104.001 -106.5c-11.333 63.333 -35.833 114.833 -73.5 154.5s-92.5 71.834 -164.5 96.501l-176 -76l-24 45l123 53c-57.333 13.333 -121.333 24 -192 32l22 97c126.667 -17.333 228 -41.333 304 -72l137 59l24 -44z
M389.999 80c71.333 0 127.333 15.167 168 45.5s61 70.833 61 121.5s-20.333 91.334 -61 122.001s-96.667 46 -168 46c-70.667 0 -126.167 -15.333 -166.5 -46s-60.5 -71.334 -60.5 -122.001s20 -91.167 60 -121.5s95.667 -45.5 167 -45.5z" />
    <glyph glyph-name="ntilde" unicode="&#xf1;" horiz-adv-x="772" 
d="M303 646c-16.667 0 -29.501 -4.16699 -38.501 -12.5s-13.5 -19.5 -13.5 -33.5h-70c0 32 9.16699 58.333 27.5 79s47.833 31 88.5 31c32 0 67 -8.83301 105 -26.5s65.667 -26.5 83 -26.5c35.333 0 53 15 53 45h70c0 -32 -9.16699 -58.333 -27.5 -79s-47.833 -31 -88.5 -31
c-32 0 -67.167 9 -105.5 27s-66.166 27 -83.499 27zM449.999 536c81.333 0 143.667 -20.334 187 -61.001s65 -100.667 65 -180v-295h-120v258c0 119.333 -57.333 179 -172 179c-68.667 0 -121.5 -18.667 -158.5 -56s-55.5 -88.666 -55.5 -153.999v-227h-120v524h110v-133
c22.667 46.667 56.5 82.5 101.5 107.5s99.167 37.5 162.5 37.5z" />
    <glyph glyph-name="ograve" unicode="&#xf2;" horiz-adv-x="782" 
d="M464 590h-94l-142 145h125zM44 262c0 86 31.5 153.167 94.5 201.5s147.167 72.5 252.5 72.5s189.5 -24.167 252.5 -72.5s94.5 -115.5 94.5 -201.5s-31.5 -153.167 -94.5 -201.5s-147.167 -72.5 -252.5 -72.5s-189.5 24.167 -252.5 72.5s-94.5 115.5 -94.5 201.5zM163 262
c0 -54.667 20.333 -98.667 61 -132s96.334 -50 167.001 -50c70 0 125.5 16.833 166.5 50.5s61.5 77.5 61.5 131.5s-20.5 97.833 -61.5 131.5s-96.5 50.5 -166.5 50.5c-70.667 0 -126.334 -16.667 -167.001 -50s-61 -77.333 -61 -132z" />
    <glyph glyph-name="oacute" unicode="&#xf3;" horiz-adv-x="782" 
d="M318 590l111 145h125l-142 -145h-94zM44 262c0 86 31.5 153.167 94.5 201.5s147.167 72.5 252.5 72.5s189.5 -24.167 252.5 -72.5s94.5 -115.5 94.5 -201.5s-31.5 -153.167 -94.5 -201.5s-147.167 -72.5 -252.5 -72.5s-189.5 24.167 -252.5 72.5s-94.5 115.5 -94.5 201.5
zM163 262c0 -54.667 20.333 -98.667 61 -132s96.334 -50 167.001 -50c70 0 125.5 16.833 166.5 50.5s61.5 77.5 61.5 131.5s-20.5 97.833 -61.5 131.5s-96.5 50.5 -166.5 50.5c-70.667 0 -126.334 -16.667 -167.001 -50s-61 -77.333 -61 -132z" />
    <glyph glyph-name="ocircumflex" unicode="&#xf4;" horiz-adv-x="782" 
d="M391 700l-111 -110h-88l135 145h127l135 -145h-88zM391 536c105.333 0 189.5 -24.167 252.5 -72.5s94.5 -115.5 94.5 -201.5s-31.5 -153.167 -94.5 -201.5s-147.167 -72.5 -252.5 -72.5s-189.5 24.167 -252.5 72.5s-94.5 115.5 -94.5 201.5s31.5 153.167 94.5 201.5
s147.167 72.5 252.5 72.5zM391 80c70 0 125.5 16.833 166.5 50.5s61.5 77.5 61.5 131.5s-20.5 97.833 -61.5 131.5s-96.5 50.5 -166.5 50.5c-70.667 0 -126.334 -16.667 -167.001 -50s-61 -77.333 -61 -132s20.333 -98.667 61 -132s96.334 -50 167.001 -50z" />
    <glyph glyph-name="otilde" unicode="&#xf5;" horiz-adv-x="782" 
d="M300 646c-16.667 0 -29.5 -4.16699 -38.5 -12.5s-13.5 -19.5 -13.5 -33.5h-70c0 31.333 9.16699 57.5 27.5 78.5s47.5 31.5 87.5 31.5c32 0 67.167 -8.83301 105.5 -26.5s66.166 -26.5 83.499 -26.5c16.667 0 29.667 4 39 12s14 19 14 33h69c0 -32 -9 -58.333 -27 -79
s-47.333 -31 -88 -31c-32 0 -67.167 9 -105.5 27s-66.166 27 -83.499 27zM391 536c105.333 0 189.5 -24.167 252.5 -72.5s94.5 -115.5 94.5 -201.5s-31.5 -153.167 -94.5 -201.5s-147.167 -72.5 -252.5 -72.5s-189.5 24.167 -252.5 72.5s-94.5 115.5 -94.5 201.5
s31.5 153.167 94.5 201.5s147.167 72.5 252.5 72.5zM391 80c70 0 125.5 16.833 166.5 50.5s61.5 77.5 61.5 131.5s-20.5 97.833 -61.5 131.5s-96.5 50.5 -166.5 50.5c-70.667 0 -126.334 -16.667 -167.001 -50s-61 -77.333 -61 -132s20.333 -98.667 61 -132
s96.334 -50 167.001 -50z" />
    <glyph glyph-name="odieresis" unicode="&#xf6;" horiz-adv-x="782" 
d="M221 605v111h109v-111h-109zM452 605v111h109v-111h-109zM44 262c0 86 31.5 153.167 94.5 201.5s147.167 72.5 252.5 72.5s189.5 -24.167 252.5 -72.5s94.5 -115.5 94.5 -201.5s-31.5 -153.167 -94.5 -201.5s-147.167 -72.5 -252.5 -72.5s-189.5 24.167 -252.5 72.5
s-94.5 115.5 -94.5 201.5zM163 262c0 -54.667 20.333 -98.667 61 -132s96.334 -50 167.001 -50c70 0 125.5 16.833 166.5 50.5s61.5 77.5 61.5 131.5s-20.5 97.833 -61.5 131.5s-96.5 50.5 -166.5 50.5c-70.667 0 -126.334 -16.667 -167.001 -50s-61 -77.333 -61 -132z" />
    <glyph glyph-name="divide" unicode="&#xf7;" horiz-adv-x="571" 
d="M285 438c-16 0 -29.667 5.5 -41 16.5s-17 24.167 -17 39.5s5.66699 28.5 17 39.5s25 16.5 41 16.5c16.667 0 30.667 -5.5 42 -16.5s17 -24.167 17 -39.5s-5.66699 -28.5 -17 -39.5s-25.333 -16.5 -42 -16.5zM66 371h439v-81h-439v81zM285 111c-16 0 -29.667 5.5 -41 16.5
s-17 24.167 -17 39.5s5.66699 28.5 17 39.5s25 16.5 41 16.5c16.667 0 30.667 -5.5 42 -16.5s17 -24.167 17 -39.5s-5.66699 -28.5 -17 -39.5s-25.333 -16.5 -42 -16.5z" />
    <glyph glyph-name="oslash" unicode="&#xf8;" horiz-adv-x="782" 
d="M647 461c60.667 -49.333 90.999 -115.666 90.999 -198.999c0 -86 -31.5 -153.167 -94.5 -201.5s-147.167 -72.5 -252.5 -72.5c-77.333 0 -143.666 13.333 -198.999 40l-63 -60l-50 42l56 53c-60.667 49.333 -91 115.666 -91 198.999c0 86 31.5 153.167 94.5 201.5
s147.167 72.5 252.5 72.5c76 0 142.333 -13.333 199 -40l63 60l50 -42zM162.999 262c0 -50 17 -91 51 -123l298 283c-35.333 14.667 -75.666 22 -120.999 22c-70.667 0 -126.334 -16.667 -167.001 -50s-61 -77.333 -61 -132zM390.999 80c70 0 125.501 16.833 166.501 50.5
s61.5 77.5 61.5 131.5c0 50 -17 91 -51 123l-298 -283c35.333 -14.667 75.666 -22 120.999 -22z" />
    <glyph glyph-name="ugrave" unicode="&#xf9;" horiz-adv-x="772" 
d="M459 590h-94l-141 145h124zM576 524l120 0.000976562v-524h-110v141c-22 -48.667 -55.667 -86.334 -101 -113.001s-99.666 -40 -162.999 -40c-80 0 -142 21.167 -186 63.5s-66 103.833 -66 184.5v288h120v-252c0 -123.333 57.667 -185 173 -185
c67.333 0 119.666 20.5 156.999 61.5s56 94.833 56 161.5v214z" />
    <glyph glyph-name="uacute" unicode="&#xfa;" horiz-adv-x="772" 
d="M549 735l-141 -145h-95l111 145h125zM576 524l120 0.000976562v-524h-110v141c-22 -48.667 -55.667 -86.334 -101 -113.001s-99.666 -40 -162.999 -40c-80 0 -142 21.167 -186 63.5s-66 103.833 -66 184.5v288h120v-252c0 -123.333 57.667 -185 173 -185
c67.333 0 119.666 20.5 156.999 61.5s56 94.833 56 161.5v214z" />
    <glyph glyph-name="ucircumflex" unicode="&#xfb;" horiz-adv-x="772" 
d="M386 700l-110 -110h-88l135 145h126l135 -145h-87zM576 524l120 0.000976562v-524h-110v141c-22 -48.667 -55.667 -86.334 -101 -113.001s-99.666 -40 -162.999 -40c-80 0 -142 21.167 -186 63.5s-66 103.833 -66 184.5v288h120v-252c0 -123.333 57.667 -185 173 -185
c67.333 0 119.666 20.5 156.999 61.5s56 94.833 56 161.5v214z" />
    <glyph glyph-name="udieresis" unicode="&#xfc;" horiz-adv-x="772" 
d="M325 716v-111h-109v111h109zM557 716v-111h-110v111h110zM576 524l120 0.000976562v-524h-110v141c-22 -48.667 -55.667 -86.334 -101 -113.001s-99.666 -40 -162.999 -40c-80 0 -142 21.167 -186 63.5s-66 103.833 -66 184.5v288h120v-252
c0 -123.333 57.667 -185 173 -185c67.333 0 119.666 20.5 156.999 61.5s56 94.833 56 161.5v214z" />
    <glyph glyph-name="yacute" unicode="&#xfd;" horiz-adv-x="753" 
d="M544 735l-141 -145h-95l112 145h124zM602 524h129.997l-274 -573c-28.667 -62.667 -59.667 -105.5 -93 -128.5s-84.666 -34.5 -153.999 -34.5c-23.333 0 -50.666 1.66699 -81.999 5v92c24.667 -2 49.334 -3 74.001 -3c38.667 0 68 5.66699 88 17s37.667 33.333 53 66
l16 35h-50l-289 524h132l247 -475z" />
    <glyph glyph-name="thorn" unicode="&#xfe;" horiz-adv-x="797" 
d="M446 536c92 0 166.167 -24.333 222.5 -73s84.5 -115.667 84.5 -201s-28.167 -152.333 -84.5 -201s-130.5 -73 -222.5 -73c-116.667 0 -200 37.333 -250 112v-300h-120v936h120v-312c48 74.667 131.333 112 250 112zM412 80c68 0 122 16.667 162 50s60 77.333 60 132
s-20 98.667 -60 132s-94 50 -162 50c-68.667 0 -122.834 -16.667 -162.501 -50s-59.5 -77.333 -59.5 -132s19.833 -98.667 59.5 -132s93.834 -50 162.501 -50z" />
    <glyph glyph-name="ydieresis" unicode="&#xff;" horiz-adv-x="753" 
d="M320 716v-111h-109v111h109zM552 716v-111h-110v111h110zM602 524h129.997l-274 -573c-28.667 -62.667 -59.667 -105.5 -93 -128.5s-84.666 -34.5 -153.999 -34.5c-23.333 0 -50.666 1.66699 -81.999 5v92c24.667 -2 49.334 -3 74.001 -3c38.667 0 68 5.66699 88 17
s37.667 33.333 53 66l16 35h-50l-289 524h132l247 -475z" />
    <glyph glyph-name="Amacron" unicode="&#x100;" horiz-adv-x="924" 
d="M676 853v-83h-427v83h427zM774 0l-82 169h-464l-82 -169h-126l346 700h191l347 -700h-130zM275 265h370l-185 381z" />
    <glyph glyph-name="amacron" unicode="&#x101;" horiz-adv-x="746" 
d="M584 698v-78h-397v78h397zM380 536c96.667 -0.666992 170.166 -19.666 220.499 -56.999s75.5 -92.333 75.5 -165v-314h-110v116c-52.667 -85.333 -147 -128 -283 -128c-79.333 0 -138.666 14 -177.999 42s-59 65 -59 111c0 50 23.833 87.667 71.5 113
s120.167 41 217.5 47l221 15v22c0 34 -14.667 61.667 -44 83s-73.333 32 -132 32c-105.333 0 -166.333 -28.667 -183 -86h-113c7.33301 58.667 38 101.667 92 129s122 40.666 204 39.999zM313.999 71.001c74.667 0 133.667 14.332 177 42.999s65 64.334 65 107.001v24
l-207 -13c-122.667 -8 -184 -36.333 -184 -85c0 -22.667 12.333 -41 37 -55s62 -21 112 -21z" />
    <glyph glyph-name="Abreve" unicode="&#x102;" horiz-adv-x="924" 
d="M463 757c-64.667 0 -113.33 12 -145.997 36s-50.334 56.667 -53.001 98h72c6.66699 -42 49 -63 127 -63s120.333 21 127 63h72c-2.66699 -41.333 -20.334 -74 -53.001 -98s-81.334 -36 -146.001 -36zM774.004 0l-82 169h-464l-82 -169h-126l346 700h191l347 -700h-130z
M275.004 265h370l-185 381z" />
    <glyph glyph-name="abreve" unicode="&#x103;" horiz-adv-x="746" 
d="M386 589c-62.667 0 -110.333 13.333 -143 40s-50 62 -52 106h71c6.66699 -50 48 -75 124 -75s117.333 25 124 75h70c-2 -44 -19.167 -79.333 -51.5 -106s-79.833 -40 -142.5 -40zM380.001 536c96.667 -0.666992 170.166 -19.666 220.499 -56.999s75.5 -92.333 75.5 -165
v-314h-110v116c-52.667 -85.333 -147 -128 -283 -128c-79.333 0 -138.666 14 -177.999 42s-59 65 -59 111c0 50 23.833 87.667 71.5 113s120.167 41 217.5 47l221 15v22c0 34 -14.667 61.667 -44 83s-73.333 32 -132 32c-105.333 0 -166.333 -28.667 -183 -86h-113
c7.33301 58.667 38 101.667 92 129s122 40.666 204 39.999zM314 71.001c74.667 0 133.667 14.332 177 42.999s65 64.334 65 107.001v24l-207 -13c-122.667 -8 -184 -36.333 -184 -85c0 -22.667 12.333 -41 37 -55s62 -21 112 -21z" />
    <glyph glyph-name="Aogonek" unicode="&#x104;" horiz-adv-x="924" 
d="M875 -101l50.999 -12.999c-7.33301 -26.667 -23 -47.667 -47 -63s-54.333 -23 -91 -23c-34 0 -61.5 7 -82.5 21s-31.5 33.333 -31.5 58c0 52 53 92.333 159 121h-59l-82 169h-464l-82 -169h-126l346 700h191l347 -700h-1c-47.333 -20 -84 -38.833 -110 -56.5
s-39 -36.834 -39 -57.501c0 -23.333 16.667 -35 50 -35c38.667 0 62.334 16 71.001 48zM274.999 265.001h370l-185 381z" />
    <glyph glyph-name="aogonek" unicode="&#x105;" horiz-adv-x="746" 
d="M648 -101l50.999 -12.998c-7.33301 -26.667 -23 -47.667 -47 -63s-54.333 -23 -91 -23c-34 0 -61.5 7 -82.5 21s-31.5 33.333 -31.5 58c0 52 52.667 92.333 158 121h-39v116c-52.667 -85.333 -147 -128 -283 -128c-79.333 0 -138.666 14 -177.999 42s-59 65 -59 111
c0 50 23.833 87.667 71.5 113s120.167 41 217.5 47l221 15v22c0 34 -14.667 61.667 -44 83s-73.333 32 -132 32c-105.333 0 -166.333 -28.667 -183 -86h-113c7.33301 58.667 38 101.667 92 129s122 40.666 204 39.999c96.667 -0.666992 170.167 -19.667 220.5 -57
s75.5 -92.333 75.5 -165v-314c-47.333 -20 -84 -38.833 -110 -56.5s-39 -36.834 -39 -57.501c0 -23.333 16.333 -35 49 -35c39.333 0 63.333 16 72 48zM313.999 71.002c74.667 0 133.667 14.332 177 42.999s65 64.334 65 107.001v24l-207 -13
c-122.667 -8 -184 -36.333 -184 -85c0 -22.667 12.333 -41 37 -55s62 -21 112 -21z" />
    <glyph glyph-name="Cacute" unicode="&#x106;" horiz-adv-x="910" 
d="M628 881l-155 -119h-97l126 119h126zM750 242l120.997 -7.00098c-12.667 -76.667 -52.167 -137 -118.5 -181s-156.5 -66 -270.5 -66c-137.333 0 -243.666 33 -318.999 99s-113 153.667 -113 263s36.833 197 110.5 263s177.167 99 310.5 99
c106.667 0 194.834 -21.167 264.501 -63.5s111.5 -99.166 125.5 -170.499l-121 -8c-10.667 42 -40.834 75.667 -90.501 101s-109.167 38 -178.5 38c-93.333 0 -165.833 -24.167 -217.5 -72.5s-77.5 -110.5 -77.5 -186.5c0 -76.667 26.5 -139 79.5 -187s128.5 -72 226.5 -72
c74.667 0 135.334 14.167 182.001 42.5s75.334 64.5 86.001 108.5z" />
    <glyph glyph-name="cacute" unicode="&#x107;" horiz-adv-x="740" 
d="M310 590l111 145h125l-142 -145h-94zM704 183c-12 -62 -47 -110 -105 -144s-129.333 -51 -214 -51c-105.333 0 -188.5 23.833 -249.5 71.5s-91.5 115.167 -91.5 202.5s30.333 154.833 91 202.5s142.667 71.5 246 71.5c82.667 0 152.834 -16.5 210.501 -49.5
s92.5 -79.5 104.5 -139.5l-115 -7c-11.333 33.333 -35 59 -71 77s-79 27 -129 27c-66 0 -118.833 -16.167 -158.5 -48.5s-59.5 -76.833 -59.5 -133.5s20.167 -101.167 60.5 -133.5s94.166 -48.5 161.499 -48.5c52 0 96 9.5 132 28.5s59.667 46.167 71 81.5z" />
    <glyph glyph-name="Cdotaccent" unicode="&#x10a;" horiz-adv-x="910" 
d="M522 869v-108h-133v108h133zM750 242l120.997 -7.00098c-12.667 -76.667 -52.167 -137 -118.5 -181s-156.5 -66 -270.5 -66c-137.333 0 -243.666 33 -318.999 99s-113 153.667 -113 263s36.833 197 110.5 263s177.167 99 310.5 99
c106.667 0 194.834 -21.167 264.501 -63.5s111.5 -99.166 125.5 -170.499l-121 -8c-10.667 42 -40.834 75.667 -90.501 101s-109.167 38 -178.5 38c-93.333 0 -165.833 -24.167 -217.5 -72.5s-77.5 -110.5 -77.5 -186.5c0 -76.667 26.5 -139 79.5 -187s128.5 -72 226.5 -72
c74.667 0 135.334 14.167 182.001 42.5s75.334 64.5 86.001 108.5z" />
    <glyph glyph-name="cdotaccent" unicode="&#x10b;" horiz-adv-x="740" 
d="M319 601v125h127v-125h-127zM704 183c-12 -62 -47 -110 -105 -144s-129.333 -51 -214 -51c-105.333 0 -188.5 23.833 -249.5 71.5s-91.5 115.167 -91.5 202.5s30.333 154.833 91 202.5s142.667 71.5 246 71.5c82.667 0 152.834 -16.5 210.501 -49.5
s92.5 -79.5 104.5 -139.5l-115 -7c-11.333 33.333 -35 59 -71 77s-79 27 -129 27c-66 0 -118.833 -16.167 -158.5 -48.5s-59.5 -76.833 -59.5 -133.5s20.167 -101.167 60.5 -133.5s94.166 -48.5 161.499 -48.5c52 0 96 9.5 132 28.5s59.667 46.167 71 81.5z" />
    <glyph glyph-name="Ccaron" unicode="&#x10c;" horiz-adv-x="910" 
d="M525 761h-139l-142 119h96l116 -86l115 86h96zM750 242l120.997 -7.00098c-12.667 -76.667 -52.167 -137 -118.5 -181s-156.5 -66 -270.5 -66c-137.333 0 -243.666 33 -318.999 99s-113 153.667 -113 263s36.833 197 110.5 263s177.167 99 310.5 99
c106.667 0 194.834 -21.167 264.501 -63.5s111.5 -99.166 125.5 -170.499l-121 -8c-10.667 42 -40.834 75.667 -90.501 101s-109.167 38 -178.5 38c-93.333 0 -165.833 -24.167 -217.5 -72.5s-77.5 -110.5 -77.5 -186.5c0 -76.667 26.5 -139 79.5 -187s128.5 -72 226.5 -72
c74.667 0 135.334 14.167 182.001 42.5s75.334 64.5 86.001 108.5z" />
    <glyph glyph-name="ccaron" unicode="&#x10d;" horiz-adv-x="740" 
d="M446 587h-127l-135 145h88l111 -109l110 109h88zM588 190l116 -7c-12 -62 -47 -110 -105 -144s-129.333 -51 -214 -51c-105.333 0 -188.5 23.833 -249.5 71.5s-91.5 115.167 -91.5 202.5s30.333 154.833 91 202.5s142.667 71.5 246 71.5
c82.667 0 152.834 -16.5 210.501 -49.5s92.5 -79.5 104.5 -139.5l-115 -7c-11.333 33.333 -35 59 -71 77s-79 27 -129 27c-66 0 -118.833 -16.167 -158.5 -48.5s-59.5 -76.833 -59.5 -133.5s20.167 -101.167 60.5 -133.5s94.166 -48.5 161.499 -48.5c52 0 96 9.5 132 28.5
s59.667 46.167 71 81.5z" />
    <glyph glyph-name="Dcaron" unicode="&#x10e;" horiz-adv-x="931" 
d="M535 761h-139l-142 119h96l116 -86l115 86h96zM453 700c134.667 0 239.667 -31.333 315 -94s113 -148 113 -256s-37.667 -193.333 -113 -256s-180.333 -94 -315 -94h-358v700h358zM440 103c102 0 180 22.333 234 67s81 104.667 81 180s-27 135.333 -81 180
s-132 67 -234 67h-219v-494h219z" />
    <glyph glyph-name="dcaron" unicode="&#x10f;" horiz-adv-x="833" 
d="M601 424v312h120v-736h-110v115c-23.333 -41.333 -57.833 -72.833 -103.5 -94.5s-98.167 -32.5 -157.5 -32.5c-91.333 0 -165.166 24.333 -221.499 73s-84.5 115.667 -84.5 201s28.167 152.333 84.5 201s130.5 73 222.5 73c117.333 0 200.666 -37.333 249.999 -112z
M796 736h91v-64l-45 -103h-46v167zM385 80c68 0 122 16.667 162 50s60 77.333 60 132s-20 98.667 -60 132s-94 50 -162 50c-68.667 0 -122.834 -16.667 -162.501 -50s-59.5 -77.333 -59.5 -132s19.833 -98.667 59.5 -132s93.834 -50 162.501 -50z" />
    <glyph glyph-name="Dcroat" unicode="&#x110;" horiz-adv-x="966" 
d="M488 700c134.667 0 239.667 -31.167 315 -93.5s113 -147.833 113 -256.5s-37.667 -194.167 -113 -256.5s-180.333 -93.5 -315 -93.5h-358v305h-96v90h96v305h358zM476 103c102 0 179.833 22.167 233.5 66.5s80.5 104.5 80.5 180.5s-26.833 136.167 -80.5 180.5
s-131.5 66.5 -233.5 66.5h-220v-202h277v-90h-277v-202h220z" />
    <glyph glyph-name="dcroat" unicode="&#x111;" horiz-adv-x="816" 
d="M806 653v-58h-85v-595h-110v115c-23.333 -41.333 -57.833 -72.833 -103.5 -94.5s-98.167 -32.5 -157.5 -32.5c-91.333 0 -165.166 24.333 -221.499 73s-84.5 115.667 -84.5 201s28.167 152.333 84.5 201s130.5 73 222.5 73c117.333 0 200.666 -37.333 249.999 -112v171
h-268v58h268v83h120v-83h85zM385 80c68 0 122 16.667 162 50s60 77.333 60 132s-20 98.667 -60 132s-94 50 -162 50c-68.667 0 -122.834 -16.667 -162.501 -50s-59.5 -77.333 -59.5 -132s19.833 -98.667 59.5 -132s93.834 -50 162.501 -50z" />
    <glyph glyph-name="Emacron" unicode="&#x112;" 
d="M196 770v83h427v-83h-427zM95 0v700h656v-99h-530v-198h419v-94h-419v-210h550v-99h-676z" />
    <glyph glyph-name="emacron" unicode="&#x113;" horiz-adv-x="763" 
d="M588 698v-78h-398v78h398zM721 241v-14.001h-557c8 -51.333 32.833 -90.166 74.5 -116.499s95.5 -39.5 161.5 -39.5c94 0 158.667 24.333 194 73l116 -5c-19.333 -48 -55.5 -85.167 -108.5 -111.5s-120.167 -39.5 -201.5 -39.5c-110 0 -196.833 22.833 -260.5 68.5
s-95.5 114.167 -95.5 205.5c0 90 31.5 158.167 94.5 204.5s146.833 69.5 251.5 69.5c220.667 0 331 -98.333 331 -295zM390 452.999c-61.333 0 -111.999 -12.667 -151.999 -38s-64.333 -63 -73 -113h438c-2.66699 46.667 -22.834 83.5 -60.501 110.5s-88.5 40.5 -152.5 40.5
z" />
    <glyph glyph-name="Edotaccent" unicode="&#x116;" 
d="M343 761v108h134v-108h-134zM95 0v700h656v-99h-530v-198h419v-94h-419v-210h550v-99h-676z" />
    <glyph glyph-name="edotaccent" unicode="&#x117;" horiz-adv-x="763" 
d="M453 726v-125h-127v125h127zM721 241v-14.001h-557c8 -51.333 32.833 -90.166 74.5 -116.499s95.5 -39.5 161.5 -39.5c94 0 158.667 24.333 194 73l116 -5c-19.333 -48 -55.5 -85.167 -108.5 -111.5s-120.167 -39.5 -201.5 -39.5c-110 0 -196.833 22.833 -260.5 68.5
s-95.5 114.167 -95.5 205.5c0 90 31.5 158.167 94.5 204.5s146.833 69.5 251.5 69.5c220.667 0 331 -98.333 331 -295zM390 452.999c-61.333 0 -111.999 -12.667 -151.999 -38s-64.333 -63 -73 -113h438c-2.66699 46.667 -22.834 83.5 -60.501 110.5s-88.5 40.5 -152.5 40.5
z" />
    <glyph glyph-name="Eogonek" unicode="&#x118;" 
d="M743 0c-47.333 -20 -84 -38.832 -110 -56.499s-39 -36.834 -39 -57.501c0 -23.333 16.333 -35 49 -35c39.333 0 63.333 16 72 48l51 -13c-7.33301 -26.667 -23 -47.667 -47 -63s-54.333 -23 -91 -23c-34 0 -61.5 7 -82.5 21s-31.5 33.333 -31.5 58
c0 52 52.667 92.333 158 121h-577v700h656v-99h-530v-198h419v-94h-419v-210h550v-99h-28z" />
    <glyph glyph-name="eogonek" unicode="&#x119;" horiz-adv-x="763" 
d="M721 241l-0.000976562 -14.001h-557c8 -51.333 32.833 -90.166 74.5 -116.499s95.5 -39.5 161.5 -39.5c94 0 158.667 24.333 194 73l116 -5c-21.333 -54.667 -64.333 -95 -129 -121c-66 -30 -113 -54.5 -141 -73.5s-42 -38.5 -42 -58.5c0 -23.333 16.667 -35 50 -35
c38.667 0 62.334 16 71.001 48l51 -13c-7.33301 -26.667 -22.833 -47.667 -46.5 -63s-54.167 -23 -91.5 -23c-34 0 -61.5 7 -82.5 21s-31.5 33.333 -31.5 58c0 46 40.667 82.667 122 110c-8.66699 -0.666992 -22 -1 -40 -1c-110 0 -196.833 22.833 -260.5 68.5
s-95.5 114.167 -95.5 205.5c0 90 31.5 158.167 94.5 204.5s146.833 69.5 251.5 69.5c220.667 0 331 -98.333 331 -295zM389.999 452.999c-61.333 0 -111.999 -12.667 -151.999 -38s-64.333 -63 -73 -113h438c-2.66699 46.667 -22.834 83.5 -60.501 110.5
s-88.5 40.5 -152.5 40.5z" />
    <glyph glyph-name="Ecaron" unicode="&#x11a;" 
d="M480 761h-139l-142 119h96l115 -86l115 86h96zM221 99h550v-99h-676v700h656v-99h-530v-198h419v-94h-419v-210z" />
    <glyph glyph-name="ecaron" unicode="&#x11b;" horiz-adv-x="763" 
d="M453 587h-127l-135 145h88l110 -109l111 109h88zM721 241v-14.001h-557c8 -51.333 32.833 -90.166 74.5 -116.499s95.5 -39.5 161.5 -39.5c94 0 158.667 24.333 194 73l116 -5c-19.333 -48 -55.5 -85.167 -108.5 -111.5s-120.167 -39.5 -201.5 -39.5
c-110 0 -196.833 22.833 -260.5 68.5s-95.5 114.167 -95.5 205.5c0 90 31.5 158.167 94.5 204.5s146.833 69.5 251.5 69.5c220.667 0 331 -98.333 331 -295zM390 452.999c-61.333 0 -111.999 -12.667 -151.999 -38s-64.333 -63 -73 -113h438
c-2.66699 46.667 -22.834 83.5 -60.501 110.5s-88.5 40.5 -152.5 40.5z" />
    <glyph glyph-name="Gbreve" unicode="&#x11e;" horiz-adv-x="930" 
d="M473 757c-64.667 0 -113.33 12 -145.997 36s-50.334 56.667 -53.001 98h72c6.66699 -42 49 -63 127 -63s120.333 21 127 63h72c-2.66699 -41.333 -20.334 -74 -53.001 -98s-81.334 -36 -146.001 -36zM488.004 366h385.999v-311c-116.667 -44.667 -237.667 -67 -363 -67
c-146.667 0 -260.167 32.667 -340.5 98s-120.5 153.333 -120.5 264c0 109.333 36.833 197 110.5 263s177.167 99 310.5 99c103.333 0 189.333 -19.5 258 -58.5s111.667 -92.167 129 -159.5l-122 -9c-14.667 38 -46 68.167 -94 90.5s-105 33.5 -171 33.5
c-93.333 0 -165.833 -24.167 -217.5 -72.5s-77.5 -110.5 -77.5 -186.5c0 -77.333 29.333 -139.833 88 -187.5s142.334 -71.5 251.001 -71.5c84 0 165 11 243 33v156h-270v86z" />
    <glyph glyph-name="gbreve" unicode="&#x11f;" horiz-adv-x="792" 
d="M402 589c-62 0 -109.331 13.333 -141.998 40s-50 62 -52 106h71c5.33301 -50 46.333 -75 123 -75c77.333 0 118.666 25 123.999 75h71c-2 -44 -19.333 -79.333 -52 -106s-80.334 -40 -143.001 -40zM606.002 524h110.001v-439c0 -102.667 -25.833 -177.834 -77.5 -225.501
s-133.167 -71.5 -244.5 -71.5c-87.333 0 -157.333 14.833 -210 44.5s-83 73.834 -91 132.501h115c17.333 -56.667 79.333 -85 186 -85c72 0 123.667 14.5 155 43.5s47 72.5 47 130.5v67c-50.667 -70 -132.667 -105 -246 -105c-92.667 0 -166.834 23.5 -222.501 70.5
s-83.5 110.167 -83.5 189.5s28 142.5 84 189.5s130.333 70.5 223 70.5c121.333 0 206.333 -39 255 -117v105zM385.003 101c67.333 0 121.166 16.167 161.499 48.5s60.5 73.166 60.5 122.499c0 50 -20.167 91.167 -60.5 123.5s-94.166 48.5 -161.499 48.5
s-121.166 -16.167 -161.499 -48.5s-60.5 -73.5 -60.5 -123.5c0 -49.333 20.167 -90.166 60.5 -122.499s94.166 -48.5 161.499 -48.5z" />
    <glyph glyph-name="Gdotaccent" unicode="&#x120;" horiz-adv-x="930" 
d="M540 869v-108h-134v108h134zM488 366h385.999v-311c-116.667 -44.667 -237.667 -67 -363 -67c-146.667 0 -260.167 32.667 -340.5 98s-120.5 153.333 -120.5 264c0 109.333 36.833 197 110.5 263s177.167 99 310.5 99c103.333 0 189.333 -19.5 258 -58.5
s111.667 -92.167 129 -159.5l-122 -9c-14.667 38 -46 68.167 -94 90.5s-105 33.5 -171 33.5c-93.333 0 -165.833 -24.167 -217.5 -72.5s-77.5 -110.5 -77.5 -186.5c0 -77.333 29.333 -139.833 88 -187.5s142.334 -71.5 251.001 -71.5c84 0 165 11 243 33v156h-270v86z" />
    <glyph glyph-name="gdotaccent" unicode="&#x121;" horiz-adv-x="792" 
d="M466 726v-125h-127v125h127zM606 524h110.001v-439c0 -102.667 -25.833 -177.834 -77.5 -225.501s-133.167 -71.5 -244.5 -71.5c-87.333 0 -157.333 14.833 -210 44.5s-83 73.834 -91 132.501h115c17.333 -56.667 79.333 -85 186 -85c72 0 123.667 14.5 155 43.5
s47 72.5 47 130.5v67c-50.667 -70 -132.667 -105 -246 -105c-92.667 0 -166.834 23.5 -222.501 70.5s-83.5 110.167 -83.5 189.5s28 142.5 84 189.5s130.333 70.5 223 70.5c121.333 0 206.333 -39 255 -117v105zM385.001 101c67.333 0 121.166 16.167 161.499 48.5
s60.5 73.166 60.5 122.499c0 50 -20.167 91.167 -60.5 123.5s-94.166 48.5 -161.499 48.5s-121.166 -16.167 -161.499 -48.5s-60.5 -73.5 -60.5 -123.5c0 -49.333 20.167 -90.166 60.5 -122.499s94.166 -48.5 161.499 -48.5z" />
    <glyph glyph-name="Gcommaaccent" unicode="&#x122;" horiz-adv-x="930" 
d="M488 366h385.999v-311c-116.667 -44.667 -237.667 -67 -363 -67c-146.667 0 -260.167 32.667 -340.5 98s-120.5 153.333 -120.5 264c0 109.333 36.833 197 110.5 263s177.167 99 310.5 99c103.333 0 189.333 -19.5 258 -58.5s111.667 -92.167 129 -159.5l-122 -9
c-14.667 38 -46 68.167 -94 90.5s-105 33.5 -171 33.5c-93.333 0 -165.833 -24.167 -217.5 -72.5s-77.5 -110.5 -77.5 -186.5c0 -77.333 29.333 -139.833 88 -187.5s142.334 -71.5 251.001 -71.5c84 0 165 11 243 33v156h-270v86zM409.999 -226v174h109v-69l-56 -105h-53z
" />
    <glyph glyph-name="gcommaaccent" unicode="&#x123;" horiz-adv-x="792" 
d="M457 784v-174h-109v69l56 105h53zM606 524h110.001v-439c0 -102.667 -25.833 -177.834 -77.5 -225.501s-133.167 -71.5 -244.5 -71.5c-87.333 0 -157.333 14.833 -210 44.5s-83 73.834 -91 132.501h115c17.333 -56.667 79.333 -85 186 -85c72 0 123.667 14.5 155 43.5
s47 72.5 47 130.5v67c-50.667 -70 -132.667 -105 -246 -105c-92.667 0 -166.834 23.5 -222.501 70.5s-83.5 110.167 -83.5 189.5s28 142.5 84 189.5s130.333 70.5 223 70.5c121.333 0 206.333 -39 255 -117v105zM385.001 101c67.333 0 121.166 16.167 161.499 48.5
s60.5 73.166 60.5 122.499c0 50 -20.167 91.167 -60.5 123.5s-94.166 48.5 -161.499 48.5s-121.166 -16.167 -161.499 -48.5s-60.5 -73.5 -60.5 -123.5c0 -49.333 20.167 -90.166 60.5 -122.499s94.166 -48.5 161.499 -48.5z" />
    <glyph glyph-name="Hbar" unicode="&#x126;" horiz-adv-x="954" 
d="M956 595v-74h-97v-521h-126v304h-512v-304h-126v521h-98v74h98v105h126v-105h512v105h126v-105h97zM733 408v113h-512v-113h512z" />
    <glyph glyph-name="hbar" unicode="&#x127;" horiz-adv-x="792" 
d="M470 536c81.333 0 143.667 -20.332 187 -60.999s65 -100.667 65 -180v-295h-120v258c0 119.333 -57.667 179 -173 179c-68 0 -120.667 -18.833 -158 -56.5s-56 -88.834 -56 -153.501v-227h-120v595h-85v58h85v83h120v-83h268v-58h-268v-186
c49.333 84.667 134.333 127 255 127z" />
    <glyph glyph-name="Imacron" unicode="&#x12a;" horiz-adv-x="316" 
d="M-26 770v83h367v-83h-367zM95 0v700h126v-700h-126z" />
    <glyph glyph-name="imacron" unicode="&#x12b;" horiz-adv-x="271" 
d="M-25 620v75h322v-75h-322zM76 0v524h120v-524h-120z" />
    <glyph glyph-name="Iogonek" unicode="&#x12e;" horiz-adv-x="316" 
d="M205 -101l51.001 -13.001c-7.33301 -26.667 -22.5 -47.667 -45.5 -63s-52.167 -23 -87.5 -23c-32.667 0 -59.334 7 -80.001 21s-31 34 -31 60c0 52.667 45.667 92.334 137 119.001h-54v700h126v-700c-86 -38.667 -129 -76 -129 -112c0 -24.667 15.667 -37 47 -37
c36 0 58 16 66 48z" />
    <glyph glyph-name="iogonek" unicode="&#x12f;" horiz-adv-x="271" 
d="M199 726v-125h-127v125h127zM180 -101l51.001 -13.001c-7.33301 -26.667 -22.5 -47.667 -45.5 -63s-52.167 -23 -87.5 -23c-32.667 0 -59.334 7 -80.001 21s-31 34 -31 60c0 52.667 45.667 92.334 137 119.001h-48v524h120v-524c-86 -38.667 -129 -76 -129 -112
c0 -24.667 15.667 -37 47 -37c36 0 58 16 66 48z" />
    <glyph glyph-name="Idotaccent" unicode="&#x130;" horiz-adv-x="316" 
d="M91 761v108h134v-108h-134zM95 0v700h126v-700h-126z" />
    <glyph glyph-name="dotlessi" unicode="&#x131;" horiz-adv-x="271" 
d="M76 0v524h120v-524h-120z" />
    <glyph glyph-name="Kcommaaccent" unicode="&#x136;" horiz-adv-x="906" 
d="M491 361l391 -361h-164l-326 304h-171v-304h-126v700h126v-298h169l310 298h153zM398 -226v174h109v-69l-56 -105h-53z" />
    <glyph glyph-name="kcommaaccent" unicode="&#x137;" horiz-adv-x="740" 
d="M402 274l327 -274h-162l-257 217h-114v-217h-120v736h120v-424h117l247 212h151zM312 -226v174h109v-69l-57 -105h-52z" />
    <glyph glyph-name="Lacute" unicode="&#x139;" horiz-adv-x="736" 
d="M101 762l125 119h126l-154 -119h-97zM95 0v700h126v-597h478v-103h-604z" />
    <glyph glyph-name="lacute" unicode="&#x13a;" horiz-adv-x="271" 
d="M80 798l101 119h119l-124 -119h-96zM76 736h120v-736h-120v736z" />
    <glyph glyph-name="Lcommaaccent" unicode="&#x13b;" horiz-adv-x="736" 
d="M95 0v700h126v-597h478v-103h-604zM342 -226v174h109v-69l-56 -105h-53z" />
    <glyph glyph-name="lcommaaccent" unicode="&#x13c;" horiz-adv-x="271" 
d="M76 736h120v-736h-120v736zM81 -226v174h110v-69l-57 -105h-53z" />
    <glyph glyph-name="Lcaron" unicode="&#x13d;" horiz-adv-x="736" 
d="M95 0v700h126v-597h478v-103h-604zM353 533v167h91v-64l-45 -103h-46z" />
    <glyph glyph-name="lcaron" unicode="&#x13e;" horiz-adv-x="308" 
d="M76 736h120v-736h-120v736zM271 569v167h91v-64l-45 -103h-46z" />
    <glyph glyph-name="Ldot" unicode="&#x13f;" horiz-adv-x="736" 
d="M95 0v700h126v-597h478v-103h-604zM373 301v136h136v-136h-136z" />
    <glyph glyph-name="ldot" unicode="&#x140;" horiz-adv-x="433" 
d="M76 736h120v-736h-120v736zM277 244v136h136v-136h-136z" />
    <glyph glyph-name="Lslash" unicode="&#x141;" horiz-adv-x="762" 
d="M247 103h478v-103h-604v293l-87 -29v82l87 30v324h126v-281l270 92v-82l-270 -93v-233z" />
    <glyph glyph-name="lslash" unicode="&#x142;" horiz-adv-x="315" 
d="M292 515v-84l-75 -59v-372h-120v279l-75 -58v84l75 59v372h120v-279z" />
    <glyph glyph-name="Nacute" unicode="&#x143;" horiz-adv-x="969" 
d="M657 881l-155 -119h-97l126 119h126zM752 700h122v-700h-216l-442 634v-634h-121v700h215l442 -634v634z" />
    <glyph glyph-name="nacute" unicode="&#x144;" horiz-adv-x="772" 
d="M557 735l-141 -145h-95l111 145h125zM450 536c81.333 0 143.667 -20.334 187 -61.001s65 -100.667 65 -180v-295h-120v258c0 119.333 -57.333 179 -172 179c-68.667 0 -121.5 -18.667 -158.5 -56s-55.5 -88.666 -55.5 -153.999v-227h-120v524h110v-133
c22.667 46.667 56.5 82.5 101.5 107.5s99.167 37.5 162.5 37.5z" />
    <glyph glyph-name="Ncommaaccent" unicode="&#x145;" horiz-adv-x="969" 
d="M752 700h122v-700h-216l-442 634v-634h-121v700h215l442 -634v634zM430 -226v174h109v-69l-57 -105h-52z" />
    <glyph glyph-name="ncommaaccent" unicode="&#x146;" horiz-adv-x="772" 
d="M450 536c81.333 0 143.667 -20.334 187 -61.001s65 -100.667 65 -180v-295h-120v258c0 119.333 -57.333 179 -172 179c-68.667 0 -121.5 -18.667 -158.5 -56s-55.5 -88.666 -55.5 -153.999v-227h-120v524h110v-133c22.667 46.667 56.5 82.5 101.5 107.5
s99.167 37.5 162.5 37.5zM340.001 -226.001v174h109v-69l-57 -105h-52z" />
    <glyph glyph-name="Ncaron" unicode="&#x147;" horiz-adv-x="969" 
d="M554 761h-139l-142 119h96l116 -86l115 86h96zM752 700h122v-700h-216l-442 634v-634h-121v700h215l442 -634v634z" />
    <glyph glyph-name="ncaron" unicode="&#x148;" horiz-adv-x="772" 
d="M457 587h-126l-135 145h88l110 -109l111 109h87zM450 536c81.333 0 143.667 -20.334 187 -61.001s65 -100.667 65 -180v-295h-120v258c0 119.333 -57.333 179 -172 179c-68.667 0 -121.5 -18.667 -158.5 -56s-55.5 -88.666 -55.5 -153.999v-227h-120v524h110v-133
c22.667 46.667 56.5 82.5 101.5 107.5s99.167 37.5 162.5 37.5z" />
    <glyph glyph-name="Eng" unicode="&#x14a;" horiz-adv-x="969" 
d="M752 700h121.999v-731c0 -36 -6.83301 -66.5 -20.5 -91.5s-33.167 -44 -58.5 -57s-52.5 -22.333 -81.5 -28s-62.5 -8.5 -100.5 -8.5c-31.333 0 -64.333 1.66699 -99 5v100c28.667 -2.66699 56.334 -4 83.001 -4c102.667 0 154 30.667 154 92v23h-93l-442 633v-633h-121
v700h215l442 -632v632z" />
    <glyph glyph-name="eng" unicode="&#x14b;" horiz-adv-x="772" 
d="M450 536c81.333 0 143.67 -20.335 187.003 -61.002s65 -100.667 65 -180v-342c0 -59.333 -12.333 -101.666 -37 -126.999s-65 -38 -121 -38c-18.667 0 -45.334 1.66699 -80.001 5v96c21.333 -1.33301 34.666 -2 39.999 -2c27.333 0 47.166 6 59.499 18
s18.5 36.667 18.5 74v279c0 119.333 -57.333 179 -172 179c-68.667 0 -121.5 -18.667 -158.5 -56s-55.5 -88.666 -55.5 -153.999v-227h-120v524h110v-133c22.667 46.667 56.5 82.5 101.5 107.5s99.167 37.5 162.5 37.5z" />
    <glyph glyph-name="Omacron" unicode="&#x14c;" horiz-adv-x="978" 
d="M275 770v83h427v-83h-427zM50 350c0 109.333 38.5 197 115.5 263s184.833 99 323.5 99s246.5 -33 323.5 -99s115.5 -153.667 115.5 -263s-38.5 -197 -115.5 -263s-184.833 -99 -323.5 -99s-246.5 33 -323.5 99s-115.5 153.667 -115.5 263zM176 350
c0 -76 27.333 -138.167 82 -186.5s131.667 -72.5 231 -72.5s176.333 24.167 231 72.5s82 110.5 82 186.5s-27.333 138.167 -82 186.5s-131.667 72.5 -231 72.5s-176.333 -24.167 -231 -72.5s-82 -110.5 -82 -186.5z" />
    <glyph glyph-name="omacron" unicode="&#x14d;" horiz-adv-x="782" 
d="M192 620v78h397v-78h-397zM44 262c0 86 31.5 153.167 94.5 201.5s147.167 72.5 252.5 72.5s189.5 -24.167 252.5 -72.5s94.5 -115.5 94.5 -201.5s-31.5 -153.167 -94.5 -201.5s-147.167 -72.5 -252.5 -72.5s-189.5 24.167 -252.5 72.5s-94.5 115.5 -94.5 201.5zM163 262
c0 -54.667 20.333 -98.667 61 -132s96.334 -50 167.001 -50c70 0 125.5 16.833 166.5 50.5s61.5 77.5 61.5 131.5s-20.5 97.833 -61.5 131.5s-96.5 50.5 -166.5 50.5c-70.667 0 -126.334 -16.667 -167.001 -50s-61 -77.333 -61 -132z" />
    <glyph glyph-name="Ohungarumlaut" unicode="&#x150;" horiz-adv-x="978" 
d="M308 761l111 120h109l-122 -120h-98zM530 761l112 120h108l-122 -120h-98zM50 350c0 109.333 38.5 197 115.5 263s184.833 99 323.5 99s246.5 -33 323.5 -99s115.5 -153.667 115.5 -263s-38.5 -197 -115.5 -263s-184.833 -99 -323.5 -99s-246.5 33 -323.5 99
s-115.5 153.667 -115.5 263zM176 350c0 -76 27.333 -138.167 82 -186.5s131.667 -72.5 231 -72.5s176.333 24.167 231 72.5s82 110.5 82 186.5s-27.333 138.167 -82 186.5s-131.667 72.5 -231 72.5s-176.333 -24.167 -231 -72.5s-82 -110.5 -82 -186.5z" />
    <glyph glyph-name="ohungarumlaut" unicode="&#x151;" horiz-adv-x="782" 
d="M227 590l104 145h96l-112 -145h-88zM426 590l104 145h97l-112 -145h-89zM44 262c0 86 31.5 153.167 94.5 201.5s147.167 72.5 252.5 72.5s189.5 -24.167 252.5 -72.5s94.5 -115.5 94.5 -201.5s-31.5 -153.167 -94.5 -201.5s-147.167 -72.5 -252.5 -72.5
s-189.5 24.167 -252.5 72.5s-94.5 115.5 -94.5 201.5zM163 262c0 -54.667 20.333 -98.667 61 -132s96.334 -50 167.001 -50c70 0 125.5 16.833 166.5 50.5s61.5 77.5 61.5 131.5s-20.5 97.833 -61.5 131.5s-96.5 50.5 -166.5 50.5c-70.667 0 -126.334 -16.667 -167.001 -50
s-61 -77.333 -61 -132z" />
    <glyph glyph-name="OE" unicode="&#x152;" horiz-adv-x="1406" 
d="M807 99h550v-99h-676h-203c-134.667 0 -239.667 31.167 -315 93.5s-113 147.833 -113 256.5s37.667 194.167 113 256.5s180.333 93.5 315 93.5h275h584v-99h-530v-198h419v-94h-419v-210zM490 103h191v494h-191c-101.333 0 -179 -22.333 -233 -67s-81 -104.667 -81 -180
s27 -135.333 81 -180s131.667 -67 233 -67z" />
    <glyph glyph-name="oe" unicode="&#x153;" horiz-adv-x="1338" 
d="M1297 241v-14.001h-558c8 -51.333 32.833 -90.166 74.5 -116.499s95.5 -39.5 161.5 -39.5c94 0 158.667 24.333 194 73l117 -5c-19.333 -47.333 -55.5 -84.333 -108.5 -111s-119.167 -40 -198.5 -40c-152 0 -252.667 45.667 -302 137
c-24 -44 -60.833 -77.833 -110.5 -101.5s-109.5 -35.5 -179.5 -35.5c-104 0 -187.167 24.167 -249.5 72.5s-93.5 115.5 -93.5 201.5s31.167 153.167 93.5 201.5s145.5 72.5 249.5 72.5c70 0 129.833 -11.833 179.5 -35.5s86.834 -57.5 111.501 -101.5
c48 91.333 145.333 137 292 137c105.333 0 186.166 -24.167 242.499 -72.5s84.5 -122.5 84.5 -222.5zM966 452.999c-62 0 -112.999 -12.667 -152.999 -38s-64.333 -63 -73 -113h438c-2.66699 46.667 -22.834 83.5 -60.501 110.5s-88.167 40.5 -151.5 40.5zM391.001 79.999
c70 0 125.5 16.833 166.5 50.5s61.5 77.5 61.5 131.5s-20.5 97.833 -61.5 131.5s-96.5 50.5 -166.5 50.5c-70.667 0 -126.334 -16.667 -167.001 -50s-61 -77.333 -61 -132s20.333 -98.667 61 -132s96.334 -50 167.001 -50z" />
    <glyph glyph-name="Racute" unicode="&#x154;" horiz-adv-x="882" 
d="M614 881l-155 -119h-97l126 119h126zM704 0l-273 275.999h-210v-276h-126v700h126h345c78 0 141 -18.5 189 -55.5s72 -90.167 72 -159.5c0 -68.667 -22.333 -120.167 -67 -154.5s-105.667 -52.166 -183 -53.499l288 -277h-161zM221 598.999l0.00195312 -226h339
c43.333 0 77.666 9.66699 102.999 29s38 47 38 83s-12.833 64 -38.5 84s-59.834 30 -102.501 30h-339z" />
    <glyph glyph-name="racute" unicode="&#x155;" horiz-adv-x="526" 
d="M448 735l-141 -145h-95l112 145h124zM407 536c26 0 53.333 -2.66699 82 -8v-106c-40.667 4.66699 -72.667 7 -96 7c-67.333 0 -117 -18.833 -149 -56.5s-48 -96.167 -48 -175.5v-197h-120l1 524h110v-137c19.333 48.667 48 85.667 86 111s82.667 38 134 38z" />
    <glyph glyph-name="Rcommaaccent" unicode="&#x156;" horiz-adv-x="882" 
d="M577 277l288 -277.001h-161l-273 276h-210v-276h-126v700h126h345c78 0 141 -18.5 189 -55.5s72 -90.167 72 -159.5c0 -68.667 -22.333 -120.167 -67 -154.5s-105.667 -52.166 -183 -53.499zM221 598.999l0.00195312 -226h339c43.333 0 77.666 9.66699 102.999 29
s38 47 38 83s-12.833 64 -38.5 84s-59.834 30 -102.501 30h-339zM387.002 -226.001v174h109v-69l-57 -105h-52z" />
    <glyph glyph-name="rcommaaccent" unicode="&#x157;" horiz-adv-x="526" 
d="M407 536c26 0 53.333 -2.66699 82 -8v-106c-40.667 4.66699 -72.667 7 -96 7c-67.333 0 -117 -18.833 -149 -56.5s-48 -96.167 -48 -175.5v-197h-120l1 524h110v-137c19.333 48.667 48 85.667 86 111s82.667 38 134 38zM81 -226v174h110v-69l-57 -105h-53z" />
    <glyph glyph-name="Rcaron" unicode="&#x158;" horiz-adv-x="882" 
d="M511 761h-139l-142 119h96l116 -86l115 86h96zM704 0l-273 275.999h-210v-276h-126v700h126h345c78 0 141 -18.5 189 -55.5s72 -90.167 72 -159.5c0 -68.667 -22.333 -120.167 -67 -154.5s-105.667 -52.166 -183 -53.499l288 -277h-161zM221 598.999l0.00195312 -226h339
c43.333 0 77.666 9.66699 102.999 29s38 47 38 83s-12.833 64 -38.5 84s-59.834 30 -102.501 30h-339z" />
    <glyph glyph-name="rcaron" unicode="&#x159;" horiz-adv-x="526" 
d="M349 587h-127l-135 145h88l110 -109l111 109h88zM407 536c26 0 53.333 -2.66699 82 -8v-106c-40.667 4.66699 -72.667 7 -96 7c-67.333 0 -117 -18.833 -149 -56.5s-48 -96.167 -48 -175.5v-197h-120l1 524h110v-137c19.333 48.667 48 85.667 86 111s82.667 38 134 38z
" />
    <glyph glyph-name="Sacute" unicode="&#x15a;" horiz-adv-x="828" 
d="M335 762l126 119h125l-154 -119h-97zM155 224c4 -42.667 28.5 -77 73.5 -103s108.833 -39 191.5 -39c67.333 0 123.666 8 168.999 24s68 41.333 68 76c0 44 -45.667 76 -137 96l-238 54c-140.667 30.667 -211 92.334 -211 185.001c0 44 15.333 81 46 111
s69.834 51.5 117.501 64.5s101.834 19.5 162.501 19.5c101.333 0 184.166 -18.5 248.499 -55.5s100.5 -89.167 108.5 -156.5l-119 -5c-4.66699 35.333 -28.334 64.666 -71.001 87.999s-100 35 -172 35c-58 0 -105 -8.16699 -141 -24.5s-54 -39.5 -54 -69.5
c0 -44.667 44 -76.667 132 -96l226 -49c78 -16.667 135.5 -39.5 172.5 -68.5s55.5 -68.833 55.5 -119.5c0 -67.333 -32.167 -118 -96.5 -152s-153.166 -51 -266.499 -51c-120 0 -212.5 19.833 -277.5 59.5s-100.5 97.167 -106.5 172.5z" />
    <glyph glyph-name="sacute" unicode="&#x15b;" horiz-adv-x="676" 
d="M265 590l112 145h124l-141 -145h-95zM513 372c-7.33301 26 -29.167 46 -65.5 60s-81.5 21 -135.5 21c-46 0 -81.333 -5.5 -106 -16.5s-37 -26.167 -37 -45.5c0 -31.333 32.667 -53.666 98 -66.999l181 -35c64 -13.333 112.167 -31.5 144.5 -54.5s48.5 -53.833 48.5 -92.5
c0 -51.333 -26.5 -89.833 -79.5 -115.5s-128.167 -38.5 -225.5 -38.5c-192.667 0 -296 55 -310 165l112 4c12 -57.333 81 -86 207 -86c117.333 0 176 22 176 66c0 28.667 -37 51 -111 67l-189 38c-114.667 23.333 -172 71.666 -172 144.999c0 51.333 24.333 89 73 113
s114 36 196 36c86 0 156.5 -13 211.5 -39s86.5 -66 94.5 -120z" />
    <glyph glyph-name="Scedilla" unicode="&#x15e;" horiz-adv-x="828" 
d="M420 -12l-3.00098 -0.00195312l-37 -50c23.333 8.66699 45.333 13 66 13c28.667 0 54.334 -6.5 77.001 -19.5s34 -33.167 34 -60.5c0 -29.333 -13 -50.666 -39 -63.999s-57.333 -20 -94 -20s-67.167 6.33301 -91.5 19s-39.5 30.667 -45.5 54l59 3
c8 -20 30.667 -30 68 -30c43.333 0 65 12.667 65 38c0 12.667 -5.83301 22.334 -17.5 29.001s-25.834 10 -42.501 10c-17.333 0 -37 -3.66699 -59 -11l-51 19l54 72c-102 6 -180.667 28.5 -236 67.5s-85.666 93.167 -90.999 162.5l119 4c4 -42.667 28.5 -77 73.5 -103
s108.833 -39 191.5 -39c67.333 0 123.666 8 168.999 24s68 41.333 68 76c0 44 -45.667 76 -137 96l-238 54c-140.667 30.667 -211 92.334 -211 185.001c0 44 15.333 81 46 111s69.834 51.5 117.501 64.5s101.834 19.5 162.501 19.5c101.333 0 184.166 -18.5 248.499 -55.5
s100.5 -89.167 108.5 -156.5l-119 -5c-4.66699 35.333 -28.334 64.666 -71.001 87.999s-100 35 -172 35c-58 0 -105 -8.16699 -141 -24.5s-54 -39.5 -54 -69.5c0 -44.667 44 -76.667 132 -96l226 -49c78 -16.667 135.5 -39.5 172.5 -68.5s55.5 -68.833 55.5 -119.5
c0 -67.333 -32.167 -118 -96.5 -152s-153.166 -51 -266.499 -51z" />
    <glyph glyph-name="scedilla" unicode="&#x15f;" horiz-adv-x="676" 
d="M641 142c0 -50.667 -26.002 -88.834 -78.002 -114.501s-126 -38.834 -222 -39.501l-37 -50c23.333 8.66699 45.333 13 66 13c28.667 0 54.334 -6.5 77.001 -19.5s34 -33.167 34 -60.5c0 -29.333 -13 -50.666 -39 -63.999s-57.333 -20 -94 -20s-67.167 6.33301 -91.5 19
s-39.5 30.667 -45.5 54l59 3c8 -20 30.667 -30 68 -30c44 0 66 12.667 66 38c0 12.667 -5.83301 22.334 -17.5 29.001s-26.167 10 -43.5 10s-37 -3.66699 -59 -11l-51 19l54 71c-160.667 9.33301 -247.667 64 -261 164l112 4c12 -57.333 81 -86 207 -86
c117.333 0 176 22 176 66c0 28.667 -37 51 -111 67l-189 38c-114.667 23.333 -172 71.666 -172 144.999c0 51.333 24.333 89 73 113s114 36 196 36c86 0 156.5 -13 211.5 -39s86.5 -66 94.5 -120l-111 -5c-7.33301 26 -29.166 46 -65.499 60s-81.5 21 -135.5 21
c-46 0 -81.333 -5.5 -106 -16.5s-37 -26.167 -37 -45.5c0 -31.333 32.667 -53.666 98 -66.999l181 -35c64 -13.333 112.167 -31.5 144.5 -54.5s48.5 -53.833 48.5 -92.5z" />
    <glyph glyph-name="Scaron" unicode="&#x160;" horiz-adv-x="828" 
d="M484 761h-139l-142 119h96l116 -86l115 86h96zM555 379c78 -16.667 135.5 -39.5 172.5 -68.5s55.5 -68.833 55.5 -119.5c0 -67.333 -32.167 -118 -96.5 -152s-153.166 -51 -266.499 -51c-120 0 -212.5 19.833 -277.5 59.5s-100.5 97.167 -106.5 172.5l119 4
c4 -42.667 28.5 -77 73.5 -103s108.833 -39 191.5 -39c67.333 0 123.666 8 168.999 24s68 41.333 68 76c0 44 -45.667 76 -137 96l-238 54c-140.667 30.667 -211 92.334 -211 185.001c0 44 15.333 81 46 111s69.834 51.5 117.501 64.5s101.834 19.5 162.501 19.5
c101.333 0 184.166 -18.5 248.499 -55.5s100.5 -89.167 108.5 -156.5l-119 -5c-4.66699 35.333 -28.334 64.666 -71.001 87.999s-100 35 -172 35c-58 0 -105 -8.16699 -141 -24.5s-54 -39.5 -54 -69.5c0 -44.667 44 -76.667 132 -96z" />
    <glyph glyph-name="scaron" unicode="&#x161;" horiz-adv-x="676" 
d="M402 587h-127l-135 145h88l110 -109l111 109h87zM448 289c64 -13.333 112.166 -31.5 144.499 -54.5s48.5 -53.833 48.5 -92.5c0 -51.333 -26.5 -89.833 -79.5 -115.5s-128.167 -38.5 -225.5 -38.5c-192.667 0 -296 55 -310 165l112 4c12 -57.333 81 -86 207 -86
c117.333 0 176 22 176 66c0 28.667 -37 51 -111 67l-189 38c-114.667 23.333 -172 71.666 -172 144.999c0 51.333 24.333 89 73 113s114 36 196 36c86 0 156.5 -13 211.5 -39s86.5 -66 94.5 -120l-111 -5c-7.33301 26 -29.166 46 -65.499 60s-81.5 21 -135.5 21
c-46 0 -81.333 -5.5 -106 -16.5s-37 -26.167 -37 -45.5c0 -31.333 32.667 -53.666 98 -66.999z" />
    <glyph glyph-name="uni0162" unicode="&#x162;" horiz-adv-x="800" 
d="M463 0h-46.999l-46 -62c23.333 8.66699 45.666 13 66.999 13c28.667 0 54.334 -6.5 77.001 -19.5s34 -33.167 34 -60.5c0 -28.667 -13.167 -49.834 -39.5 -63.501s-57.833 -20.5 -94.5 -20.5c-36 0 -66.167 6.33301 -90.5 19s-39.5 30.667 -45.5 54l59 3
c8 -20 30.667 -30 68 -30c43.333 0 65 12.667 65 38c0 12.667 -5.83301 22.334 -17.5 29.001s-25.834 10 -42.501 10s-36.667 -3.66699 -60 -11l-51 19l62 82h-24v597h-309v103h744v-103h-309v-597z" />
    <glyph glyph-name="uni0163" unicode="&#x163;" horiz-adv-x="516" 
d="M371 -49c28.667 0 54.334 -6.49805 77.001 -19.498s34 -33.167 34 -60.5c0 -28.667 -13 -49.834 -39 -63.501s-57.333 -20.5 -94 -20.5s-67.167 6.33301 -91.5 19s-39.5 30.667 -45.5 54l59 3c8 -20 30.667 -30 68 -30c43.333 0 65 12.667 65 38
c0 12.667 -5.83301 22.334 -17.5 29.001s-25.834 10 -42.501 10s-36.667 -3.66699 -60 -11l-50 19l57 77c-41.333 8.66699 -70.833 27.167 -88.5 55.5s-26.5 69.166 -26.5 122.499v260h-155v89h119c16 0 27.333 3 34 9s10 16 10 30v88h112v-125h181v-91h-181v-241
c0 -40.667 6.5 -68.334 19.5 -83.001s38.833 -22 77.5 -22c26 0 54 2 84 6v-96c-35.333 -6 -71.333 -9 -108 -9c-12 0 -21 0.333008 -27 1l-37 -51c22 8.66699 44 13 66 13z" />
    <glyph glyph-name="Tcaron" unicode="&#x164;" horiz-adv-x="800" 
d="M470 761h-139l-142 119h96l115 -86l115 86h96zM28 700h744v-103h-309v-597h-126v597h-309v103z" />
    <glyph glyph-name="tcaron" unicode="&#x165;" horiz-adv-x="516" 
d="M454 680l-45 -102h-46v158h91v-56zM477 433l-181 0.000976562v-241c0 -40.667 6.5 -68.334 19.5 -83.001s38.833 -22 77.5 -22c26 0 54 2 84 6v-96c-35.333 -6 -71.333 -9 -108 -9c-70.667 0 -120.5 14 -149.5 42s-43.5 75.667 -43.5 143v260h-155v89h119
c16 0 27.333 3 34 9s10 16 10 30v88h112v-125h181v-91z" />
    <glyph glyph-name="Tbar" unicode="&#x166;" horiz-adv-x="800" 
d="M772 597h-309v-165h209v-74h-209v-358h-126v358h-209v74h209v165h-309v103h744v-103z" />
    <glyph glyph-name="tbar" unicode="&#x167;" horiz-adv-x="516" 
d="M477 433l-181 0.000976562v-130h165v-82h-165v-29c0 -40.667 6.5 -68.334 19.5 -83.001s38.833 -22 77.5 -22c26 0 54 2 84 6v-96c-35.333 -6 -71.333 -9 -108 -9c-70.667 0 -120.5 14 -149.5 42s-43.5 75.667 -43.5 143v48h-140v82h140v130h-155v89h119
c16 0 27.333 3 34 9s10 16 10 30v88h112v-125h181v-91z" />
    <glyph glyph-name="Umacron" unicode="&#x16a;" horiz-adv-x="959" 
d="M693 853v-83h-427v83h427zM738 700h125.999v-413c0 -94.667 -32.167 -168.167 -96.5 -220.5s-160.166 -78.5 -287.499 -78.5s-223.333 26.167 -288 78.5s-97 125.833 -97 220.5v413h126v-401c0 -67.333 21.5 -118.833 64.5 -154.5s107.833 -53.5 194.5 -53.5
c86 0 150.5 17.833 193.5 53.5s64.5 87.167 64.5 154.5v401z" />
    <glyph glyph-name="umacron" unicode="&#x16b;" horiz-adv-x="772" 
d="M585 698v-78h-398v78h398zM576 524l120 0.000976562v-524h-110v141c-22 -48.667 -55.667 -86.334 -101 -113.001s-99.666 -40 -162.999 -40c-80 0 -142 21.167 -186 63.5s-66 103.833 -66 184.5v288h120v-252c0 -123.333 57.667 -185 173 -185
c67.333 0 119.666 20.5 156.999 61.5s56 94.833 56 161.5v214z" />
    <glyph glyph-name="Uring" unicode="&#x16e;" horiz-adv-x="959" 
d="M479 745c-39.333 0 -72.501 8.66699 -99.501 26s-40.5 42 -40.5 74s13.333 56.667 40 74s60 26 100 26s73.5 -8.66699 100.5 -26s40.5 -42 40.5 -74s-13.667 -56.667 -41 -74s-60.666 -26 -99.999 -26zM478.999 894c-24 0 -43.333 -4.33301 -58 -13s-22 -20.667 -22 -36
c0 -14.667 7.33301 -26.334 22 -35.001s34 -13 58 -13s43.333 4.33301 58 13s22 20.334 22 35.001c0 15.333 -7.33301 27.333 -22 36s-34 13 -58 13zM737.999 700h125.999v-413c0 -94.667 -32.167 -168.167 -96.5 -220.5s-160.166 -78.5 -287.499 -78.5
s-223.333 26.167 -288 78.5s-97 125.833 -97 220.5v413h126v-401c0 -67.333 21.5 -118.833 64.5 -154.5s107.833 -53.5 194.5 -53.5c86 0 150.5 17.833 193.5 53.5s64.5 87.167 64.5 154.5v401z" />
    <glyph glyph-name="uring" unicode="&#x16f;" horiz-adv-x="772" 
d="M386 586c-39.333 0 -73 8.83301 -101 26.5s-42 42.5 -42 74.5s14 56.667 42 74s61.667 26 101 26c40 0 74 -8.66699 102 -26s42 -42 42 -74s-14 -56.833 -42 -74.5s-62 -26.5 -102 -26.5zM386 736c-23.333 0 -42.333 -4.33301 -57 -13s-22 -20.667 -22 -36
s7.33301 -27.5 22 -36.5s33.667 -13.5 57 -13.5s42.5 4.5 57.5 13.5s22.5 21.167 22.5 36.5s-7.5 27.333 -22.5 36s-34.167 13 -57.5 13zM576 524l120 0.000976562v-524h-110v141c-22 -48.667 -55.667 -86.334 -101 -113.001s-99.666 -40 -162.999 -40
c-80 0 -142 21.167 -186 63.5s-66 103.833 -66 184.5v288h120v-252c0 -123.333 57.667 -185 173 -185c67.333 0 119.666 20.5 156.999 61.5s56 94.833 56 161.5v214z" />
    <glyph glyph-name="Uhungarumlaut" unicode="&#x170;" horiz-adv-x="959" 
d="M519 881l-122 -120h-98l111 120h109zM741 881l-122 -120h-98l112 120h108zM738 700h125.999v-413c0 -94.667 -32.167 -168.167 -96.5 -220.5s-160.166 -78.5 -287.499 -78.5s-223.333 26.167 -288 78.5s-97 125.833 -97 220.5v413h126v-401
c0 -67.333 21.5 -118.833 64.5 -154.5s107.833 -53.5 194.5 -53.5c86 0 150.5 17.833 193.5 53.5s64.5 87.167 64.5 154.5v401z" />
    <glyph glyph-name="uhungarumlaut" unicode="&#x171;" horiz-adv-x="772" 
d="M422 735l-111 -145h-89l104 145h96zM510 590h-88l103 145h97zM576 524l120 0.000976562v-524h-110v141c-22 -48.667 -55.667 -86.334 -101 -113.001s-99.666 -40 -162.999 -40c-80 0 -142 21.167 -186 63.5s-66 103.833 -66 184.5v288h120v-252
c0 -123.333 57.667 -185 173 -185c67.333 0 119.666 20.5 156.999 61.5s56 94.833 56 161.5v214z" />
    <glyph glyph-name="Uogonek" unicode="&#x172;" horiz-adv-x="959" 
d="M738 700l126 -0.000976562v-413c0 -77.333 -21.5 -140.666 -64.5 -189.999s-106.833 -82 -191.5 -98c-46.667 -20.667 -82.834 -39.667 -108.501 -57s-38.5 -36 -38.5 -56c0 -23.333 16.667 -35 50 -35c38.667 0 62.334 16 71.001 48l51 -13
c-7.33301 -26.667 -22.833 -47.667 -46.5 -63s-54.167 -23 -91.5 -23c-34 0 -61.5 7 -82.5 21s-31.5 33.333 -31.5 58c0 46 40 82.333 120 109h-21c-127.333 0 -223.333 26.167 -288 78.5s-97 125.833 -97 220.5v413h126v-401c0 -67.333 21.5 -118.833 64.5 -154.5
s107.833 -53.5 194.5 -53.5c86 0 150.5 17.833 193.5 53.5s64.5 87.167 64.5 154.5v401z" />
    <glyph glyph-name="uogonek" unicode="&#x173;" horiz-adv-x="772" 
d="M667 -101l50.999 -12.998c-7.33301 -26.667 -22.833 -47.667 -46.5 -63s-54.167 -23 -91.5 -23c-34 0 -61.5 7 -82.5 21s-31.5 33.333 -31.5 58c0 52 53 92.333 159 121h-39v141c-22 -48.667 -55.667 -86.334 -101 -113.001s-99.666 -40 -162.999 -40
c-80 0 -142 21.167 -186 63.5s-66 103.833 -66 184.5v288h120v-252c0 -123.333 57.667 -185 173 -185c67.333 0 119.666 20.5 156.999 61.5s56 94.833 56 161.5v214h120v-524h-1c-47.333 -20 -84 -38.833 -110 -56.5s-39 -36.834 -39 -57.501c0 -23.333 16.667 -35 50 -35
c38.667 0 62.334 16 71.001 48z" />
    <glyph glyph-name="Wcircumflex" unicode="&#x174;" horiz-adv-x="1335" 
d="M667 850l-115 -86h-96l142 119h139l141 -119h-96zM1175 700h132l-250 -700h-188l-201 619l-205 -619h-189l-246 700h136l210 -619l205 619h180l203 -620z" />
    <glyph glyph-name="wcircumflex" unicode="&#x175;" horiz-adv-x="1175" 
d="M591 700l-111 -110h-88l135 145h127l135 -145h-88zM1020 524h129l-225 -524h-171l-164 464l-166 -464h-175l-223 524h133l182 -449l166 449h170l162 -440z" />
    <glyph glyph-name="Ycircumflex" unicode="&#x176;" horiz-adv-x="908" 
d="M454 850l-115 -86h-96l142 119h139l141 -119h-96zM743 700h147l-373 -419v-281h-126v281l-373 419h152l287 -332z" />
    <glyph glyph-name="ycircumflex" unicode="&#x177;" horiz-adv-x="753" 
d="M381 700l-110 -110h-88l135 145h127l135 -145h-88zM602 524h129.997l-274 -573c-28.667 -62.667 -59.667 -105.5 -93 -128.5s-84.666 -34.5 -153.999 -34.5c-23.333 0 -50.666 1.66699 -81.999 5v92c24.667 -2 49.334 -3 74.001 -3c38.667 0 68 5.66699 88 17
s37.667 33.333 53 66l16 35h-50l-289 524h132l247 -475z" />
    <glyph glyph-name="Ydieresis" unicode="&#x178;" horiz-adv-x="908" 
d="M384 868v-105h-120v105h120zM645 868v-105h-121v105h121zM743 700h147l-373 -419v-281h-126v281l-373 419h152l287 -332z" />
    <glyph glyph-name="Zacute" unicode="&#x179;" horiz-adv-x="793" 
d="M569 881l-155 -119h-96l125 119h126zM200 103h564v-103h-741v88l551 509h-519v103h696v-88z" />
    <glyph glyph-name="zacute" unicode="&#x17a;" horiz-adv-x="657" 
d="M500 735l-142 -145h-94l111 145h125zM191 94h439v-94h-607v83l428 347h-401v94h570v-83z" />
    <glyph glyph-name="Zdotaccent" unicode="&#x17b;" horiz-adv-x="793" 
d="M464 869v-108h-134v108h134zM200 103h564v-103h-741v88l551 509h-519v103h696v-88z" />
    <glyph glyph-name="zdotaccent" unicode="&#x17c;" horiz-adv-x="657" 
d="M400 726v-125h-127v125h127zM191 94h439v-94h-607v83l428 347h-401v94h570v-83z" />
    <glyph glyph-name="Zcaron" unicode="&#x17d;" horiz-adv-x="793" 
d="M467 761h-139l-142 119h96l115 -86l115 86h96zM200 103h564v-103h-741v88l551 509h-519v103h696v-88z" />
    <glyph glyph-name="zcaron" unicode="&#x17e;" horiz-adv-x="657" 
d="M400 587h-127l-135 145h88l111 -109l110 109h88zM191 94h439v-94h-607v83l428 347h-401v94h570v-83z" />
    <glyph glyph-name="Scommaaccent" unicode="&#x218;" horiz-adv-x="828" 
d="M155 224c4 -42.667 28.5 -77 73.5 -103s108.833 -39 191.5 -39c67.333 0 123.666 8 168.999 24s68 41.333 68 76c0 44 -45.667 76 -137 96l-238 54c-140.667 30.667 -211 92.334 -211 185.001c0 44 15.333 81 46 111s69.834 51.5 117.501 64.5s101.834 19.5 162.501 19.5
c101.333 0 184.166 -18.5 248.499 -55.5s100.5 -89.167 108.5 -156.5l-119 -5c-4.66699 35.333 -28.334 64.666 -71.001 87.999s-100 35 -172 35c-58 0 -105 -8.16699 -141 -24.5s-54 -39.5 -54 -69.5c0 -44.667 44 -76.667 132 -96l226 -49
c78 -16.667 135.5 -39.5 172.5 -68.5s55.5 -68.833 55.5 -119.5c0 -67.333 -32.167 -118 -96.5 -152s-153.166 -51 -266.499 -51c-120 0 -212.5 19.833 -277.5 59.5s-100.5 97.167 -106.5 172.5zM360 -226v174h109v-69l-57 -105h-52z" />
    <glyph glyph-name="scommaaccent" unicode="&#x219;" horiz-adv-x="676" 
d="M513 372c-7.33301 26 -29.167 46 -65.5 60s-81.5 21 -135.5 21c-46 0 -81.333 -5.5 -106 -16.5s-37 -26.167 -37 -45.5c0 -31.333 32.667 -53.666 98 -66.999l181 -35c64 -13.333 112.167 -31.5 144.5 -54.5s48.5 -53.833 48.5 -92.5
c0 -51.333 -26.5 -89.833 -79.5 -115.5s-128.167 -38.5 -225.5 -38.5c-192.667 0 -296 55 -310 165l112 4c12 -57.333 81 -86 207 -86c117.333 0 176 22 176 66c0 28.667 -37 51 -111 67l-189 38c-114.667 23.333 -172 71.666 -172 144.999c0 51.333 24.333 89 73 113
s114 36 196 36c86 0 156.5 -13 211.5 -39s86.5 -66 94.5 -120zM283.999 -226v174h109v-69l-57 -105h-52z" />
    <glyph glyph-name="uni021A" unicode="&#x21a;" horiz-adv-x="800" 
d="M28 597v103h744v-103h-309v-597h-126v597h-309zM345 -226v174h109v-69l-56 -105h-53z" />
    <glyph glyph-name="uni021B" unicode="&#x21b;" horiz-adv-x="516" 
d="M477 433l-181 0.000976562v-241c0 -40.667 6.5 -68.334 19.5 -83.001s38.833 -22 77.5 -22c26 0 54 2 84 6v-96c-35.333 -6 -71.333 -9 -108 -9c-70.667 0 -120.5 14 -149.5 42s-43.5 75.667 -43.5 143v260h-155v89h119c16 0 27.333 3 34 9s10 16 10 30v88h112v-125h181
v-91zM284 -225.999v174h110v-69l-57 -105h-53z" />
    <glyph glyph-name="circumflex" unicode="&#x2c6;" horiz-adv-x="477" 
d="M437 590h-88l-111 110l-110 -110h-88l135 145h127z" />
    <glyph glyph-name="caron" unicode="&#x2c7;" horiz-adv-x="477" 
d="M349 732h88l-135 -145h-127l-135 145h88l110 -109z" />
    <glyph glyph-name="breve" unicode="&#x2d8;" horiz-adv-x="469" 
d="M358 735h71.002c-2 -44 -19.333 -79.333 -52 -106s-80 -40 -142 -40c-62.667 0 -110.334 13.333 -143.001 40s-50 62 -52 106h71c5.33301 -50 46.666 -75 123.999 -75c76.667 0 117.667 25 123 75z" />
    <glyph glyph-name="dotaccent" unicode="&#x2d9;" horiz-adv-x="207" 
d="M40 601v125h127v-125h-127z" />
    <glyph glyph-name="ring" unicode="&#x2da;" horiz-adv-x="366" 
d="M183 787c40 0 73.833 -8.66699 101.5 -26s41.5 -42 41.5 -74s-13.833 -56.833 -41.5 -74.5s-61.5 -26.5 -101.5 -26.5c-39.333 0 -73 8.83301 -101 26.5s-42 42.5 -42 74.5s14 56.667 42 74s61.667 26 101 26zM183 637c23.333 0 42.333 4.5 57 13.5s22 21.167 22 36.5
s-7.33301 27.333 -22 36s-33.667 13 -57 13s-42.333 -4.33301 -57 -13s-22 -20.667 -22 -36s7.33301 -27.5 22 -36.5s33.667 -13.5 57 -13.5z" />
    <glyph glyph-name="ogonek" unicode="&#x2db;" horiz-adv-x="332" 
d="M40 -121c0 52 52.999 92.334 158.999 121.001h70c-47.333 -20 -84 -38.833 -110 -56.5s-39 -36.834 -39 -57.501c0 -23.333 16.667 -35 50 -35c38.667 0 62.334 16 71.001 48l51 -13c-7.33301 -26.667 -22.833 -47.667 -46.5 -63s-54.167 -23 -91.5 -23
c-34 0 -61.5 7 -82.5 21s-31.5 33.333 -31.5 58z" />
    <glyph glyph-name="tilde" unicode="&#x2dc;" horiz-adv-x="506" 
d="M397 702h69c0 -32 -9 -58.333 -27 -79s-47.333 -31 -88 -31c-32 0 -67.167 9 -105.5 27s-66.166 27 -83.499 27c-16.667 0 -29.5 -4.16699 -38.5 -12.5s-13.5 -19.5 -13.5 -33.5h-70c0 31.333 9.16699 57.5 27.5 78.5s47.5 31.5 87.5 31.5
c32 0 67.167 -8.83301 105.5 -26.5s66.166 -26.5 83.499 -26.5c16.667 0 29.667 4 39 12s14 19 14 33z" />
    <glyph glyph-name="hungarumlaut" unicode="&#x2dd;" horiz-adv-x="480" 
d="M40 590l104 145h96l-112 -145h-88zM240 590l103 145h97l-112 -145h-88z" />
    <glyph glyph-name="pi" unicode="&#x3c0;" horiz-adv-x="835" 
d="M791 433h-113v-278c0 -24 5.66699 -40.333 17 -49s27 -13 47 -13c6 0 21.667 0.666992 47 2v-97c-36 -2.66699 -62.333 -4 -79 -4c-49.333 0 -85.833 10.167 -109.5 30.5s-35.5 53.5 -35.5 99.5v309h-302v-433h-118v433h-113v91h759v-91z" />
    <glyph glyph-name="uni0401" unicode="&#x401;" 
d="M219 763v105h121v-105h-121zM480 763v105h120v-105h-120zM95 0v700h656v-99h-530v-198h419v-94h-419v-210h550v-99h-676z" />
    <glyph glyph-name="uni0404" unicode="&#x404;" horiz-adv-x="912" 
d="M751 233l122.001 -6c-14.667 -74.667 -55 -133.167 -121 -175.5s-155.333 -63.5 -268 -63.5c-138.667 0 -245.667 32.833 -321 98.5s-113 153.5 -113 263.5c0 109.333 37 197 111 263s178 99 312 99c106 0 193.5 -20.333 262.5 -61s111.5 -95.667 127.5 -165l-122 -7
c-13.333 39.333 -44.5 70.833 -93.5 94.5s-107.167 35.5 -174.5 35.5c-82.667 0 -149.167 -18.667 -199.5 -56s-81.166 -87 -92.499 -149h391v-96h-393c9.33301 -65.333 40.166 -117.833 92.499 -157.5s123.166 -59.5 212.499 -59.5c72.667 0 132.167 13.167 178.5 39.5
s75.833 60.5 88.5 102.5z" />
    <glyph glyph-name="uni0406" unicode="&#x406;" horiz-adv-x="316" 
d="M95 0v700h126v-700h-126z" />
    <glyph glyph-name="uni0407" unicode="&#x407;" horiz-adv-x="316" 
d="M-3 763v105h110v-105h-110zM208 763v105h111v-105h-111zM95 0v700h126v-700h-126z" />
    <glyph glyph-name="uni040E" unicode="&#x40e;" horiz-adv-x="887" 
d="M444 757c-130 0 -197.333 46 -202 138h83c6 -46.667 45.667 -70 119 -70s113 23.333 119 70h83c-4.66699 -92 -72 -138 -202 -138zM731 700h137.001l-301 -518c-41.333 -72.667 -79.333 -122.167 -114 -148.5s-82.334 -39.5 -143.001 -39.5c-24 0 -56.333 2 -97 6v99
c29.333 -2.66699 57 -4 83 -4c30 0 55.167 5.5 75.5 16.5s39.5 31.5 57.5 61.5l10 20h-49l-366 507h140l320 -460z" />
    <glyph glyph-name="uni0410" unicode="&#x410;" horiz-adv-x="924" 
d="M774 0l-82 169h-464l-82 -169h-126l346 700h191l347 -700h-130zM275 265h370l-185 381z" />
    <glyph glyph-name="uni0411" unicode="&#x411;" horiz-adv-x="867" 
d="M563 419c79.333 0 142.5 -17.834 189.5 -53.501s70.5 -87.5 70.5 -155.5c0 -69.333 -23.5 -121.666 -70.5 -156.999s-110.167 -53 -189.5 -53h-418h-50v700h126h531v-98h-531v-183h342zM553 97.999c46 0 81.5 9.83398 106.5 29.501s37.5 47.5 37.5 83.5
c0 35.333 -12.5 62.666 -37.5 81.999s-60.5 29 -106.5 29h-332v-224h332z" />
    <glyph glyph-name="uni0412" unicode="&#x412;" horiz-adv-x="893" 
d="M637 358c138.667 -12.667 208 -69.333 208 -170c0 -59.333 -24.167 -105.5 -72.5 -138.5s-117.5 -49.5 -207.5 -49.5h-470v700h471c76 0 137.167 -16.667 183.5 -50s69.5 -77.333 69.5 -132c0 -45.333 -16.667 -81.5 -50 -108.5s-77.333 -44.167 -132 -51.5zM221 602.001
v-200h339c38.667 0 70.5 8.83301 95.5 26.5s37.5 42.167 37.5 73.5s-12.5 55.833 -37.5 73.5s-56.833 26.5 -95.5 26.5h-339zM553 98.001c110.667 0 166 35.333 166 106c0 68.667 -52 103 -156 103h-342v-209h332z" />
    <glyph glyph-name="uni0413" unicode="&#x413;" horiz-adv-x="730" 
d="M95 0v700h602v-103h-476v-597h-126z" />
    <glyph glyph-name="uni0414" unicode="&#x414;" horiz-adv-x="913" 
d="M809 103h86v-265h-117v162h-651v-162h-116v265h72c34 42.667 59.333 111 76 205s29 224.667 37 392h613v-597zM683 103v494h-375c-12 -150 -26.333 -259.667 -43 -329c-15.333 -66.667 -35.333 -121.667 -60 -165h478z" />
    <glyph glyph-name="uni0415" unicode="&#x415;" 
d="M95 0v700h656v-99h-530v-198h419v-94h-419v-210h550v-99h-676z" />
    <glyph glyph-name="uni0416" unicode="&#x416;" horiz-adv-x="1405" 
d="M1381 0h-162l-301 304h-154v-304h-123v304h-153l-302 -304h-162l366 361l-353 339h154l295 -298h155v298h123v-298h156l294 298h153l-351 -339z" />
    <glyph glyph-name="uni0417" unicode="&#x417;" horiz-adv-x="830" 
d="M520 360c174.667 -13.333 262.003 -72.3291 262.003 -176.996c0 -64.667 -32.5 -113.334 -97.5 -146.001s-154.167 -49 -267.5 -49c-236.667 0 -364.334 74.667 -383.001 224l119 4c14.667 -86.667 102.667 -130 264 -130c75.333 0 134 9.66699 176 29s63 47 63 83
c0 35.333 -20.333 62.666 -61 81.999s-100 29 -178 29h-127v94h126c69.333 0 122.166 9.33301 158.499 28s54.5 44.334 54.5 77.001c0 33.333 -18.833 59.333 -56.5 78s-88.834 28 -153.501 28c-43.333 0 -81.666 -3.83301 -114.999 -11.5s-62 -20.667 -86 -39
s-38.667 -41.5 -44 -69.5l-119 7c9.33301 69.333 46.833 121.833 112.5 157.5s149.5 53.5 251.5 53.5c101.333 0 182.666 -15.333 243.999 -46s92 -76.334 92 -137.001c0 -48.667 -19.667 -87.334 -59 -116.001s-98 -46.334 -176 -53.001z" />
    <glyph glyph-name="uni0418" unicode="&#x418;" horiz-adv-x="974" 
d="M685 700h194v-700h-124v619l-466 -619h-194v700h123v-619z" />
    <glyph glyph-name="uni0419" unicode="&#x419;" horiz-adv-x="974" 
d="M487 757c-130 0 -197.333 46 -202 138h83c6 -46.667 45.667 -70 119 -70s113 23.333 119 70h83c-4.66699 -92 -72 -138 -202 -138zM685 700h194v-700h-124v619l-466 -619h-194v700h123v-619z" />
    <glyph glyph-name="uni041A" unicode="&#x41a;" horiz-adv-x="906" 
d="M882 0h-164l-326 304h-171v-304h-126v700h126v-298h169l310 298h153l-362 -339z" />
    <glyph glyph-name="uni041B" unicode="&#x41b;" horiz-adv-x="946" 
d="M214 700l636.999 -0.000976562v-700h-126v597h-398c-1.33301 -26.667 -3.33301 -64.667 -6 -114c-2.66699 -66 -5.16699 -114.5 -7.5 -145.5s-6.33301 -69.667 -12 -116s-13 -79.833 -22 -100.5s-21.167 -42.667 -36.5 -66s-34.666 -39.166 -57.999 -47.499
s-51 -12.5 -83 -12.5c-27.333 0 -54.333 1.33301 -81 4v102c22 -2 38.333 -3 49 -3c54.667 0 89.5 31.333 104.5 94s25.833 178 32.5 346c2.66699 69.333 5 123.333 7 162z" />
    <glyph glyph-name="uni041C" unicode="&#x41c;" horiz-adv-x="1224" 
d="M908 700h221l-2 -700h-121v636l-309 -636h-172l-309 636v-636h-121v700h220l298 -633z" />
    <glyph glyph-name="uni041D" unicode="&#x41d;" horiz-adv-x="954" 
d="M733 700h126v-700h-126v304h-512v-304h-126v700h126v-292h512v292z" />
    <glyph glyph-name="uni041E" unicode="&#x41e;" horiz-adv-x="978" 
d="M50 350c0 109.333 38.5 197 115.5 263s184.833 99 323.5 99s246.5 -33 323.5 -99s115.5 -153.667 115.5 -263s-38.5 -197 -115.5 -263s-184.833 -99 -323.5 -99s-246.5 33 -323.5 99s-115.5 153.667 -115.5 263zM176 350c0 -76 27.333 -138.167 82 -186.5
s131.667 -72.5 231 -72.5s176.333 24.167 231 72.5s82 110.5 82 186.5s-27.333 138.167 -82 186.5s-131.667 72.5 -231 72.5s-176.333 -24.167 -231 -72.5s-82 -110.5 -82 -186.5z" />
    <glyph glyph-name="uni041F" unicode="&#x41f;" horiz-adv-x="947" 
d="M852 700v-700h-126v597h-505v-597h-126v700h757z" />
    <glyph glyph-name="uni0420" unicode="&#x420;" horiz-adv-x="861" 
d="M555 700c78 0 141.001 -18.668 189.001 -56.001s72 -91.666 72 -162.999c0 -72 -23.333 -125.833 -70 -161.5s-110.334 -53.5 -191.001 -53.5h-334v-266h-126v700h126h334zM549.001 364.999c43.333 0 77.666 9.83301 102.999 29.5s38 48.5 38 86.5
c0 37.333 -12.667 66 -38 86s-59.666 30 -102.999 30h-328v-232h328z" />
    <glyph glyph-name="uni0421" unicode="&#x421;" horiz-adv-x="910" 
d="M750 242l120.997 -7.00098c-12.667 -76.667 -52.167 -137 -118.5 -181s-156.5 -66 -270.5 -66c-137.333 0 -243.666 33 -318.999 99s-113 153.667 -113 263s36.833 197 110.5 263s177.167 99 310.5 99c106.667 0 194.834 -21.167 264.501 -63.5
s111.5 -99.166 125.5 -170.499l-121 -8c-10.667 42 -40.834 75.667 -90.501 101s-109.167 38 -178.5 38c-93.333 0 -165.833 -24.167 -217.5 -72.5s-77.5 -110.5 -77.5 -186.5c0 -76.667 26.5 -139 79.5 -187s128.5 -72 226.5 -72c74.667 0 135.334 14.167 182.001 42.5
s75.334 64.5 86.001 108.5z" />
    <glyph glyph-name="uni0422" unicode="&#x422;" horiz-adv-x="800" 
d="M28 597v103h744v-103h-309v-597h-126v597h-309z" />
    <glyph glyph-name="uni0423" unicode="&#x423;" horiz-adv-x="887" 
d="M731 700h137.001l-301 -518c-41.333 -72.667 -79.333 -122.167 -114 -148.5s-82.334 -39.5 -143.001 -39.5c-24 0 -56.333 2 -97 6v99c29.333 -2.66699 57 -4 83 -4c30 0 55.167 5.5 75.5 16.5s39.5 31.5 57.5 61.5l10 20h-49l-366 507h140l320 -460z" />
    <glyph glyph-name="uni0424" unicode="&#x424;" horiz-adv-x="1151" 
d="M714 651c126 0 222.667 -24 290 -72s101 -119 101 -213c0 -93.333 -33.667 -164 -101 -212s-164 -72 -290 -72h-77v-82h-122v82h-78c-126 0 -222.667 24 -290 72s-101 118.667 -101 212c0 94 33.667 165 101 213s164 72 290 72h78v61h122v-61h77zM445 181h70v371h-70
c-182 0 -273 -62 -273 -186c0 -123.333 91 -185 273 -185zM706 181c182 0 273 61.667 273 185c0 124 -91 186 -273 186h-69v-371h69z" />
    <glyph glyph-name="uni0425" unicode="&#x425;" horiz-adv-x="892" 
d="M863 0h-152l-269 282l-270 -282h-144l341 356l-321 344h152l243 -271l250 271h145l-318 -341z" />
    <glyph glyph-name="uni0426" unicode="&#x426;" horiz-adv-x="956" 
d="M95 0v700h126v-597h505v597h126v-597h86v-265h-116v162h-727z" />
    <glyph glyph-name="uni0427" unicode="&#x427;" horiz-adv-x="889" 
d="M668 700h126v-700h-126v290c-96.667 -20 -190.667 -30 -282 -30c-212 0 -318 73 -318 219v221h126v-199c0 -50.667 18.167 -86.167 54.5 -106.5s94.5 -30.5 174.5 -30.5c86 0 167.667 9.66699 245 29v307z" />
    <glyph glyph-name="uni0428" unicode="&#x428;" horiz-adv-x="1313" 
d="M95 0v700h123v-597h377v597h123v-597h377v597h124v-700h-1124z" />
    <glyph glyph-name="uni0429" unicode="&#x429;" horiz-adv-x="1323" 
d="M95 0v700h123v-597h377v597h123v-597h377v597h124v-597h86v-265h-116v162h-1094z" />
    <glyph glyph-name="uni042A" unicode="&#x42a;" horiz-adv-x="1001" 
d="M702 430c80 0 143.5 -18 190.5 -54s70.5 -89.667 70.5 -161s-23.5 -125 -70.5 -161s-110.5 -54 -190.5 -54h-400h-50v597h-228v103h353h1v-270h324zM695 103c44 0 78.667 9.66797 104 29.001s38 47.666 38 84.999c0 36.667 -12.833 64.667 -38.5 84s-60.167 29 -103.5 29
h-317v-227h317z" />
    <glyph glyph-name="uni042B" unicode="&#x42b;" horiz-adv-x="1136" 
d="M526 430c79.333 0 142.5 -18.167 189.5 -54.5s70.5 -89.833 70.5 -160.5c0 -71.333 -23.5 -125 -70.5 -161s-110.167 -54 -189.5 -54h-381h-50v700h126v-270h305zM915 700h126v-700h-126v700zM519 103c43.333 0 77.666 9.66797 102.999 29.001s38 47.666 38 84.999
c0 36.667 -12.667 64.667 -38 84s-59.666 29 -102.999 29h-298v-227h298z" />
    <glyph glyph-name="uni042C" unicode="&#x42c;" horiz-adv-x="844" 
d="M545 430c80 0 143.5 -18 190.5 -54s70.5 -89.667 70.5 -161s-23.5 -125 -70.5 -161s-110.5 -54 -190.5 -54h-400h-50v700h126v-270h324zM539 103c43.333 0 77.666 9.66797 102.999 29.001s38 47.666 38 84.999c0 36.667 -12.667 64.667 -38 84s-59.666 29 -102.999 29
h-318v-227h318z" />
    <glyph glyph-name="uni042D" unicode="&#x42d;" horiz-adv-x="912" 
d="M439 712c134 0 238.002 -33 312.002 -99s111 -153.667 111 -263c0 -110 -37.667 -197.833 -113 -263.5s-182.333 -98.5 -321 -98.5c-112.667 0 -202 21.167 -268 63.5s-106.333 100.833 -121 175.5l122 6c12.667 -42 42.167 -76.167 88.5 -102.5
s105.833 -39.5 178.5 -39.5c89.333 0 160.166 19.833 212.499 59.5s83.166 92.167 92.499 157.5h-393v96h392c-12 62 -43.333 111.667 -94 149s-117 56 -199 56c-67.333 0 -125.5 -11.833 -174.5 -35.5s-80.167 -55.167 -93.5 -94.5l-122 7
c16.667 69.333 59.5 124.333 128.5 165s156.167 61 261.5 61z" />
    <glyph glyph-name="uni042E" unicode="&#x42e;" horiz-adv-x="1309" 
d="M831 712c136 0 241.333 -33.167 316 -99.5s112 -153.833 112 -262.5s-37.333 -196.167 -112 -262.5s-180 -99.5 -316 -99.5c-126 0 -226 28.667 -300 86s-116 134 -126 230h-184v-304h-126v700h126v-292h185c12.667 93.333 55.667 167.333 129 222s172 82 296 82zM831 91
c97.333 0 172 24.167 224 72.5s78 110.5 78 186.5s-26 138.167 -78 186.5s-126.667 72.5 -224 72.5s-172.166 -24.167 -224.499 -72.5s-78.5 -110.5 -78.5 -186.5s26.167 -138.167 78.5 -186.5s127.166 -72.5 224.499 -72.5z" />
    <glyph glyph-name="uni042F" unicode="&#x42f;" horiz-adv-x="882" 
d="M788 700l0.000976562 -699.999h-126v276h-235l-248 -276h-162l268 277c-74.667 2.66699 -133.334 21.167 -176.001 55.5s-64 85.166 -64 152.499c0 69.333 23.833 122.5 71.5 159.5s110.5 55.5 188.5 55.5h483zM312.001 373.001h350v226h-350
c-43.333 0 -77.666 -10 -102.999 -30s-38 -48 -38 -84s12.667 -63.667 38 -83s59.666 -29 102.999 -29z" />
    <glyph glyph-name="uni0430" unicode="&#x430;" horiz-adv-x="746" 
d="M380 536c96.667 -0.666992 170.166 -19.666 220.499 -56.999s75.5 -92.333 75.5 -165v-314h-110v116c-52.667 -85.333 -147 -128 -283 -128c-79.333 0 -138.666 14 -177.999 42s-59 65 -59 111c0 50 23.833 87.667 71.5 113s120.167 41 217.5 47l221 15v22
c0 34 -14.667 61.667 -44 83s-73.333 32 -132 32c-105.333 0 -166.333 -28.667 -183 -86h-113c7.33301 58.667 38 101.667 92 129s122 40.666 204 39.999zM313.999 71.001c74.667 0 133.667 14.332 177 42.999s65 64.334 65 107.001v24l-207 -13
c-122.667 -8 -184 -36.333 -184 -85c0 -22.667 12.333 -41 37 -55s62 -21 112 -21z" />
    <glyph glyph-name="uni0431" unicode="&#x431;" horiz-adv-x="789" 
d="M420 506c97.333 0 175.832 -23.499 235.499 -70.499s89.5 -109.833 89.5 -188.5c0 -79.333 -31 -142.333 -93 -189s-146.667 -70 -254 -70c-106 0 -190.167 26.833 -252.5 80.5s-93.5 141.167 -93.5 262.5c0 113.333 22.5 199.333 67.5 258s119.833 96.334 224.5 113.001
c16.667 2.66699 77.334 9.66699 182.001 21c65.333 7.33301 114 15.666 146 24.999v-94c-28.667 -12.667 -71.667 -21.667 -129 -27c-16.667 -2 -39.834 -4 -69.501 -6s-52.5 -3.66699 -68.5 -5c-40 -3.33301 -73 -8.5 -99 -15.5s-51.5 -19.333 -76.5 -37
s-44.667 -43.334 -59 -77.001s-24.166 -76.5 -29.499 -128.5c20.667 46 55 82.167 103 108.5s106.667 39.5 176 39.5zM397.999 80.001c71.333 0 127.333 15 168 45s61 70.667 61 122c0 52 -20.333 93 -61 123s-96.667 45 -168 45c-70.667 0 -126.167 -15 -166.5 -45
s-60.5 -71 -60.5 -123s20.167 -92.833 60.5 -122.5s95.833 -44.5 166.5 -44.5z" />
    <glyph glyph-name="uni0432" unicode="&#x432;" horiz-adv-x="729" 
d="M508 272c60 -6 104.668 -19.002 134.001 -39.002s44 -49.667 44 -89c0 -41.333 -17.833 -75.666 -53.5 -102.999s-97.834 -41 -186.501 -41h-370v524h354c80.667 0 139.667 -12.167 177 -36.5s56 -56.166 56 -95.499c0 -66 -51.667 -106 -155 -120zM196.001 438.998v-135
h219c85.333 0 128 22.667 128 68c0 44.667 -45 67 -135 67h-212zM427.001 84.998c92.667 0 139 24.333 139 73c0 24 -11.167 42 -33.5 54s-59.833 18 -112.5 18h-224v-145h231z" />
    <glyph glyph-name="uni0433" unicode="&#x433;" horiz-adv-x="590" 
d="M76 0v524h484v-99h-364v-425h-120z" />
    <glyph glyph-name="uni0434" unicode="&#x434;" horiz-adv-x="770" 
d="M662 99l86 0.000976562v-238h-113v139h-508v-139h-113v238h57c14.667 23.333 26.667 57.166 36 101.499s16 86.333 20 126s9.66699 105.5 17 197.5h518v-425zM542 99.001v326h-297c-9.33301 -92 -17.833 -161 -25.5 -207s-19.167 -85.667 -34.5 -119h357z" />
    <glyph glyph-name="uni0435" unicode="&#x435;" horiz-adv-x="763" 
d="M721 241v-14.001h-557c8 -51.333 32.833 -90.166 74.5 -116.499s95.5 -39.5 161.5 -39.5c94 0 158.667 24.333 194 73l116 -5c-19.333 -48 -55.5 -85.167 -108.5 -111.5s-120.167 -39.5 -201.5 -39.5c-110 0 -196.833 22.833 -260.5 68.5s-95.5 114.167 -95.5 205.5
c0 90 31.5 158.167 94.5 204.5s146.833 69.5 251.5 69.5c220.667 0 331 -98.333 331 -295zM390 452.999c-61.333 0 -111.999 -12.667 -151.999 -38s-64.333 -63 -73 -113h438c-2.66699 46.667 -22.834 83.5 -60.501 110.5s-88.5 40.5 -152.5 40.5z" />
    <glyph glyph-name="uni0436" unicode="&#x436;" horiz-adv-x="1123" 
d="M1112 0h-158l-229 217h-105v-217h-117v217h-105l-229 -217h-158l295 274l-284 250h150l222 -212h109v212h117v-212h109l222 212h150l-284 -250z" />
    <glyph glyph-name="uni0437" unicode="&#x437;" horiz-adv-x="705" 
d="M469 272c128.667 -13.333 193 -56.001 193 -128.001c0 -45.333 -24.167 -82.666 -72.5 -111.999s-127.166 -44 -236.499 -44c-201.333 0 -309 58.667 -323 176l115 3c14 -61.333 83.333 -92 208 -92c126.667 0 190 26.667 190 80c0 50 -68 75 -204 75h-94v74h87
c124.667 0 187 24 187 72c0 22.667 -15.333 40.5 -46 53.5s-70.667 19.5 -120 19.5c-110.667 0 -172.334 -29 -185.001 -87l-115 5c6.66699 56.667 37 99 91 127s123.667 42 209 42c93.333 0 164.333 -12.5 213 -37.5s73 -58.833 73 -101.5
c0 -67.333 -56.667 -109 -170 -125z" />
    <glyph glyph-name="uni0438" unicode="&#x438;" horiz-adv-x="795" 
d="M544 524h176v-524h-116v445l-353 -445h-175v524h115v-445z" />
    <glyph glyph-name="uni0439" unicode="&#x439;" horiz-adv-x="795" 
d="M398 589c-63.333 0 -111.164 13 -143.497 39s-49.833 61.333 -52.5 106h83c2.66699 -20.667 12.667 -38.667 30 -54s45 -23 83 -23c37.333 0 64.666 7.5 81.999 22.5s27.666 33.167 30.999 54.5h82c-2 -44.667 -19.333 -80 -52 -106s-80.334 -39 -143.001 -39z
M544.002 524h176v-524h-116v445l-353 -445h-175v524h115v-445z" />
    <glyph glyph-name="uni043A" unicode="&#x43a;" horiz-adv-x="740" 
d="M729 0h-162l-257 217h-114v-217h-120v524h120v-212h117l247 212h151l-309 -250z" />
    <glyph glyph-name="uni043B" unicode="&#x43b;" horiz-adv-x="760" 
d="M171 524l514 -0.000976562v-524h-120v425h-289c-12 -140 -20 -223 -24 -249c-13.333 -81.333 -39 -134.333 -77 -159c-24 -16 -55.667 -24 -95 -24c-20.667 0 -40.667 1.33301 -60 4v98c14.667 -1.33301 25.667 -2 33 -2c44.667 0 73.167 25.833 85.5 77.5
s22.833 160.834 31.5 327.501c0.666992 11.333 1 20 1 26z" />
    <glyph glyph-name="uni043C" unicode="&#x43c;" horiz-adv-x="1029" 
d="M753 524h200v-524h-115v454l-245 -454h-157l-245 453v-453h-115v524h201l239 -462z" />
    <glyph glyph-name="uni043D" unicode="&#x43d;" horiz-adv-x="777" 
d="M76 0v524h120v-207h385v207h120v-524h-120v218h-385v-218h-120z" />
    <glyph glyph-name="uni043E" unicode="&#x43e;" horiz-adv-x="782" 
d="M44 262c0 86 31.5 153.167 94.5 201.5s147.167 72.5 252.5 72.5s189.5 -24.167 252.5 -72.5s94.5 -115.5 94.5 -201.5s-31.5 -153.167 -94.5 -201.5s-147.167 -72.5 -252.5 -72.5s-189.5 24.167 -252.5 72.5s-94.5 115.5 -94.5 201.5zM163 262
c0 -54.667 20.333 -98.667 61 -132s96.334 -50 167.001 -50c70 0 125.5 16.833 166.5 50.5s61.5 77.5 61.5 131.5s-20.5 97.833 -61.5 131.5s-96.5 50.5 -166.5 50.5c-70.667 0 -126.334 -16.667 -167.001 -50s-61 -77.333 -61 -132z" />
    <glyph glyph-name="uni043F" unicode="&#x43f;" horiz-adv-x="768" 
d="M76 0v524h616v-524h-120v425h-376v-425h-120z" />
    <glyph glyph-name="uni0440" unicode="&#x440;" horiz-adv-x="797" 
d="M446 536c92 0 166.166 -24.333 222.499 -73s84.5 -115.667 84.5 -201s-28.167 -152.333 -84.5 -201s-130.5 -73 -222.5 -73c-116.667 0 -200 37.333 -250 112v-300h-120v724h110v-116c46.667 85.333 133.334 128 260.001 128zM411.999 80c68 0 122 16.667 162 50
s60 77.333 60 132s-20 98.667 -60 132s-94 50 -162 50c-68.667 0 -122.834 -16.667 -162.501 -50s-59.5 -77.333 -59.5 -132s19.833 -98.667 59.5 -132s93.834 -50 162.501 -50z" />
    <glyph glyph-name="uni0441" unicode="&#x441;" horiz-adv-x="740" 
d="M704 183c-12 -62 -47 -110 -105 -144s-129.333 -51 -214 -51c-105.333 0 -188.5 23.833 -249.5 71.5s-91.5 115.167 -91.5 202.5s30.333 154.833 91 202.5s142.667 71.5 246 71.5c82.667 0 152.834 -16.5 210.501 -49.5s92.5 -79.5 104.5 -139.5l-115 -7
c-11.333 33.333 -35 59 -71 77s-79 27 -129 27c-66 0 -118.833 -16.167 -158.5 -48.5s-59.5 -76.833 -59.5 -133.5s20.167 -101.167 60.5 -133.5s94.166 -48.5 161.499 -48.5c52 0 96 9.5 132 28.5s59.667 46.167 71 81.5z" />
    <glyph glyph-name="uni0442" unicode="&#x442;" horiz-adv-x="669" 
d="M25 425v99h619v-99h-249v-425h-120v425h-250z" />
    <glyph glyph-name="uni0443" unicode="&#x443;" horiz-adv-x="753" 
d="M602 524h129.997l-274 -573c-28.667 -62.667 -59.667 -105.5 -93 -128.5s-84.666 -34.5 -153.999 -34.5c-23.333 0 -50.666 1.66699 -81.999 5v92c24.667 -2 49.334 -3 74.001 -3c38.667 0 68 5.66699 88 17s37.667 33.333 53 66l16 35h-50l-289 524h132l247 -475z" />
    <glyph glyph-name="uni0444" unicode="&#x444;" horiz-adv-x="989" 
d="M586 536c115.333 0 203.666 -24 264.999 -72s92 -115.333 92 -202s-30.667 -154 -92 -202s-149.666 -72 -264.999 -72h-33v-188h-117v188h-34c-115.333 0 -203.5 24 -264.5 72s-91.5 115.333 -91.5 202s30.5 154 91.5 202s149.167 72 264.5 72h34v200h117v-200h33z
M406 80h30v364h-30c-80.667 0 -141.334 -15.833 -182.001 -47.5s-61 -76.5 -61 -134.5s20.333 -102.833 61 -134.5s101.334 -47.5 182.001 -47.5zM582 80c80.667 0 141.334 15.833 182.001 47.5s61 76.5 61 134.5s-20.333 102.833 -61 134.5s-101.334 47.5 -182.001 47.5
h-29v-364h29z" />
    <glyph glyph-name="uni0445" unicode="&#x445;" horiz-adv-x="761" 
d="M737 0h-149l-210 205l-210 -205h-144l281 268l-269 256h150l194 -189l194 189h145l-266 -253z" />
    <glyph glyph-name="uni0446" unicode="&#x446;" horiz-adv-x="800" 
d="M76 0v524h120v-425h376v425h120v-425h86v-238h-113v139h-589z" />
    <glyph glyph-name="uni0447" unicode="&#x447;" horiz-adv-x="736" 
d="M540 524h120v-524h-120v207c-86.667 -14.667 -163 -22 -229 -22c-83.333 0 -146.833 14.5 -190.5 43.5s-65.5 76.833 -65.5 143.5v152h120v-137c0 -38 13.5 -64.667 40.5 -80s70.5 -23 130.5 -23c52 0 116.667 6.33301 194 19v221z" />
    <glyph glyph-name="uni0448" unicode="&#x448;" horiz-adv-x="1119" 
d="M76 0v524h118v-425h306v425h118v-425h307v425h118v-524h-967z" />
    <glyph glyph-name="uni0449" unicode="&#x449;" horiz-adv-x="1151" 
d="M76 0v524h118v-425h306v425h118v-425h307v425h118v-425h86v-238h-114v139h-939z" />
    <glyph glyph-name="uni044A" unicode="&#x44a;" horiz-adv-x="838" 
d="M545 336c169.333 0 254 -56 254 -168s-84.667 -168 -254 -168h-285h-58v425h-177v99h297v-188h223zM535 87c96.667 0 145 27.333 145 82s-48.333 82 -145 82h-213v-164h213z" />
    <glyph glyph-name="uni044B" unicode="&#x44b;" horiz-adv-x="959" 
d="M401 336c170 0 255 -56 255 -168s-85 -168 -255 -168h-268h-57v524h120v-188h205zM763 524h120v-524h-120v524zM392 87c96 0 144 27.333 144 82s-48 82 -144 82h-196v-164h196z" />
    <glyph glyph-name="uni044C" unicode="&#x44c;" horiz-adv-x="711" 
d="M418 336c169.333 0 254 -56 254 -168s-84.667 -168 -254 -168h-285h-57v524h120v-188h222zM408 87c96.667 0 145 27.333 145 82s-48.333 82 -145 82h-212v-164h212z" />
    <glyph glyph-name="uni044D" unicode="&#x44d;" horiz-adv-x="738" 
d="M357 536c104 0 186.168 -23.834 246.501 -71.501s90.5 -115.167 90.5 -202.5c0 -88 -30.333 -155.667 -91 -203s-144 -71 -250 -71c-83.333 0 -153.666 16.5 -210.999 49.5s-93 79.167 -107 138.5l120 5c12.667 -32 36.667 -56.833 72 -74.5s77.333 -26.5 126 -26.5
c60.667 0 110.5 13.167 149.5 39.5s62.167 62.833 69.5 109.5h-288v76h287c-10 44 -34 78.167 -72 102.5s-85.333 36.5 -142 36.5c-47.333 0 -88.5 -8.16699 -123.5 -24.5s-59.167 -40.166 -72.5 -71.499l-118 6c13.333 58 48.666 102.833 105.999 134.5
s126.666 47.5 207.999 47.5z" />
    <glyph glyph-name="uni044E" unicode="&#x44e;" horiz-adv-x="1068" 
d="M685 536c103.333 0 185.667 -24.333 247 -73s92 -115.667 92 -201s-30.667 -152.333 -92 -201s-143.666 -73 -246.999 -73c-93.333 0 -169.833 20.167 -229.5 60.5s-94.834 96.833 -105.501 169.5h-154v-218h-120v524h120v-207l156 -1
c12.667 69.333 48.5 123.333 107.5 162s134.167 58 225.5 58zM685.001 80c68.667 0 122.5 16.5 161.5 49.5s58.5 77.167 58.5 132.5s-19.5 99.5 -58.5 132.5s-92.833 49.5 -161.5 49.5s-122.334 -16.5 -161.001 -49.5s-58 -77.167 -58 -132.5s19.333 -99.5 58 -132.5
s92.334 -49.5 161.001 -49.5z" />
    <glyph glyph-name="uni044F" unicode="&#x44f;" horiz-adv-x="734" 
d="M658 524v-524h-120v194h-184l-174 -194h-148l198 199c-115.333 16.667 -173 70 -173 160c0 110 85 165 255 165h346zM321 272h217v165h-217c-96 0 -144 -27.667 -144 -83c0 -54.667 48 -82 144 -82z" />
    <glyph glyph-name="uni0451" unicode="&#x451;" horiz-adv-x="763" 
d="M328 716v-111h-109v111h109zM560 716v-111h-109v111h109zM721 241v-14.001h-557c8 -51.333 32.833 -90.166 74.5 -116.499s95.5 -39.5 161.5 -39.5c94 0 158.667 24.333 194 73l116 -5c-19.333 -48 -55.5 -85.167 -108.5 -111.5s-120.167 -39.5 -201.5 -39.5
c-110 0 -196.833 22.833 -260.5 68.5s-95.5 114.167 -95.5 205.5c0 90 31.5 158.167 94.5 204.5s146.833 69.5 251.5 69.5c220.667 0 331 -98.333 331 -295zM390 452.999c-61.333 0 -111.999 -12.667 -151.999 -38s-64.333 -63 -73 -113h438
c-2.66699 46.667 -22.834 83.5 -60.501 110.5s-88.5 40.5 -152.5 40.5z" />
    <glyph glyph-name="uni0454" unicode="&#x454;" horiz-adv-x="738" 
d="M584 181l119.002 -4.99902c-14 -59.333 -49.667 -105.5 -107 -138.5s-127.666 -49.5 -210.999 -49.5c-105.333 0 -188.5 23.833 -249.5 71.5s-91.5 115.167 -91.5 202.5s30.333 154.833 91 202.5s142.667 71.5 246 71.5c81.333 0 150.666 -15.833 207.999 -47.5
s92.666 -76.5 105.999 -134.5l-118 -6c-13.333 31.333 -37.5 55.166 -72.5 71.499s-76.167 24.5 -123.5 24.5c-56.667 0 -104 -12.333 -142 -37s-61.667 -58.667 -71 -102h286v-76h-288c8 -46.667 31.5 -83.167 70.5 -109.5s88.5 -39.5 148.5 -39.5
c49.333 0 91.666 8.83301 126.999 26.5s59.333 42.5 72 74.5z" />
    <glyph glyph-name="uni0456" unicode="&#x456;" horiz-adv-x="271" 
d="M72 601v125h127v-125h-127zM76 0v524h120v-524h-120z" />
    <glyph glyph-name="uni0457" unicode="&#x457;" horiz-adv-x="271" 
d="M-15 605v111h105v-111h-105zM182 605v111h105v-111h-105zM76 0v524h120v-524h-120z" />
    <glyph glyph-name="uni045E" unicode="&#x45e;" horiz-adv-x="753" 
d="M381 589c-63.333 0 -111.167 13 -143.5 39s-49.5 61.333 -51.5 106h83c2.66699 -21.333 12.5 -39.5 29.5 -54.5s44.5 -22.5 82.5 -22.5c68 0 105.667 25.667 113 77h83c-2 -44.667 -19.333 -80 -52 -106s-80.667 -39 -144 -39zM601.999 524h129.997l-274 -573
c-28.667 -62.667 -59.667 -105.5 -93 -128.5s-84.666 -34.5 -153.999 -34.5c-23.333 0 -50.666 1.66699 -81.999 5v92c24.667 -2 49.334 -3 74.001 -3c38.667 0 68 5.66699 88 17s37.667 33.333 53 66l16 35h-50l-289 524h132l247 -475z" />
    <glyph glyph-name="uni0490" unicode="&#x490;" horiz-adv-x="736" 
d="M95 0v700h486v168h116v-271h-476v-597h-126z" />
    <glyph glyph-name="uni0491" unicode="&#x491;" horiz-adv-x="594" 
d="M76 0v524h371v145h113v-244h-364v-425h-120z" />
    <glyph glyph-name="uni04C1" unicode="&#x4c1;" horiz-adv-x="1405" 
d="M704 757c-130 0 -197.333 46 -202 138h82c6 -46.667 46 -70 120 -70c72.667 0 112 23.333 118 70h84c-4.66699 -92 -72 -138 -202 -138zM1381 0h-162l-301 304h-154v-304h-123v304h-153l-302 -304h-162l366 361l-353 339h154l295 -298h155v298h123v-298h156l294 298h153
l-351 -339z" />
    <glyph glyph-name="uni04C2" unicode="&#x4c2;" horiz-adv-x="1123" 
d="M561 589c-63.333 0 -111.167 13 -143.5 39s-49.5 61.333 -51.5 106h83c2.66699 -21.333 12.5 -39.5 29.5 -54.5s44.5 -22.5 82.5 -22.5c68 0 105.667 25.667 113 77h83c-2 -44.667 -19.333 -80 -52 -106s-80.667 -39 -144 -39zM1112 0h-158l-229 217h-105v-217h-117v217
h-105l-229 -217h-158l295 274l-284 250h150l222 -212h109v212h117v-212h109l222 212h150l-284 -250z" />
    <glyph glyph-name="Wgrave" unicode="&#x1e80;" horiz-adv-x="1335" 
d="M747 762h-97l-154 119h125zM1175 700h132l-250 -700h-188l-201 619l-205 -619h-189l-246 700h136l210 -619l205 619h180l203 -620z" />
    <glyph glyph-name="wgrave" unicode="&#x1e81;" horiz-adv-x="1175" 
d="M664 590h-95l-141 145h125zM1020 524h129l-225 -524h-171l-164 464l-166 -464h-175l-223 524h133l182 -449l166 449h170l162 -440z" />
    <glyph glyph-name="Wacute" unicode="&#x1e82;" horiz-adv-x="1335" 
d="M840 881l-155 -119h-96l125 119h126zM1175 700h132l-250 -700h-188l-201 619l-205 -619h-189l-246 700h136l210 -619l205 619h180l203 -620z" />
    <glyph glyph-name="wacute" unicode="&#x1e83;" horiz-adv-x="1175" 
d="M753 735l-141 -145h-94l111 145h124zM1020 524h129l-225 -524h-171l-164 464l-166 -464h-175l-223 524h133l182 -449l166 449h170l162 -440z" />
    <glyph glyph-name="Wdieresis" unicode="&#x1e84;" horiz-adv-x="1335" 
d="M598 868v-105h-121v105h121zM858 868v-105h-120v105h120zM1175 700h132l-250 -700h-188l-201 619l-205 -619h-189l-246 700h136l210 -619l205 619h180l203 -620z" />
    <glyph glyph-name="wdieresis" unicode="&#x1e85;" horiz-adv-x="1175" 
d="M530 716v-111h-110v111h110zM761 716v-111h-109v111h109zM1020 524h129l-225 -524h-171l-164 464l-166 -464h-175l-223 524h133l182 -449l166 449h170l162 -440z" />
    <glyph glyph-name="uni1E9E" unicode="&#x1e9e;" horiz-adv-x="882" 
d="M505 404c98 -1.33301 177.835 -18.667 239.502 -52s92.5 -84.666 92.5 -153.999c0 -68 -29.667 -119.333 -89 -154s-139.333 -52 -240 -52c-34.667 0 -73.334 2.66699 -116.001 8v97c29.333 -4 61.333 -6 96 -6c68.667 0 123 10 163 30s60 50 60 90
c0 38 -19.667 66.5 -59 85.5s-93 28.5 -161 28.5c-34.667 0 -71.334 -2.66699 -110.001 -8v93l216 191h-200c-62 0 -108.5 -11.333 -139.5 -34s-46.5 -58.667 -46.5 -108v-459h-126v478c0 79.333 27 136.166 81 170.499s135 51.5 243 51.5h349v-82z" />
    <glyph glyph-name="Ygrave" unicode="&#x1ef2;" horiz-adv-x="908" 
d="M533 762h-96l-155 119h126zM743 700h147l-373 -419v-281h-126v281l-373 419h152l287 -332z" />
    <glyph glyph-name="ygrave" unicode="&#x1ef3;" horiz-adv-x="753" 
d="M455 590h-95l-141 145h124zM602 524h129.997l-274 -573c-28.667 -62.667 -59.667 -105.5 -93 -128.5s-84.666 -34.5 -153.999 -34.5c-23.333 0 -50.666 1.66699 -81.999 5v92c24.667 -2 49.334 -3 74.001 -3c38.667 0 68 5.66699 88 17s37.667 33.333 53 66l16 35h-50
l-289 524h132l247 -475z" />
    <glyph glyph-name="endash" unicode="&#x2013;" horiz-adv-x="740" 
d="M64 345h613v-94h-613v94z" />
    <glyph glyph-name="emdash" unicode="&#x2014;" horiz-adv-x="923" 
d="M64 345h795v-94h-795v94z" />
    <glyph glyph-name="quoteleft" unicode="&#x2018;" horiz-adv-x="243" 
d="M174 712v-232h-117v75l65 157h52z" />
    <glyph glyph-name="quoteright" unicode="&#x2019;" horiz-adv-x="243" 
d="M69 468v232h117v-76l-65 -156h-52z" />
    <glyph glyph-name="quotesinglbase" unicode="&#x201a;" horiz-adv-x="243" 
d="M69 -97v233h117v-76l-65 -157h-52z" />
    <glyph glyph-name="quotedblleft" unicode="&#x201c;" horiz-adv-x="438" 
d="M174 712v-232h-117v75l65 157h52zM370 712v-232h-118v75l66 157h52z" />
    <glyph glyph-name="quotedblright" unicode="&#x201d;" horiz-adv-x="438" 
d="M69 468v232h117v-76l-65 -156h-52zM264 468v232h118v-76l-66 -156h-52z" />
    <glyph glyph-name="quotedblbase" unicode="&#x201e;" horiz-adv-x="438" 
d="M69 -97v233h117v-76l-65 -157h-52zM264 -97v233h118v-76l-66 -157h-52z" />
    <glyph glyph-name="dagger" unicode="&#x2020;" horiz-adv-x="494" 
d="M440 524v-89h-136v-495h-113v495h-136v89h136v176h113v-176h136z" />
    <glyph glyph-name="daggerdbl" unicode="&#x2021;" horiz-adv-x="502" 
d="M444 435h-136v-221h136v-88h-136v-186h-113v186h-136v88h136v221h-136v89h136v176h113v-176h136v-89z" />
    <glyph glyph-name="bullet" unicode="&#x2022;" horiz-adv-x="415" 
d="M207 202c-33.333 0 -60.666 10.5 -81.999 31.5s-32 48.167 -32 81.5c0 32.667 10.667 59.667 32 81s48.666 32 81.999 32s60.833 -10.667 82.5 -32s32.5 -48.333 32.5 -81s-10.833 -59.667 -32.5 -81s-49.167 -32 -82.5 -32z" />
    <glyph glyph-name="ellipsis" unicode="&#x2026;" horiz-adv-x="766" 
d="M73 0v136h136v-136h-136zM315 0v136h136v-136h-136zM556 0v136h137v-136h-137z" />
    <glyph glyph-name="perthousand" unicode="&#x2030;" horiz-adv-x="1593" 
d="M35 533c0 52 20.167 93.833 60.5 125.5s94.833 47.5 163.5 47.5s123.167 -15.833 163.5 -47.5s60.5 -73.5 60.5 -125.5s-20.167 -93.833 -60.5 -125.5s-94.833 -47.5 -163.5 -47.5s-123.167 15.833 -163.5 47.5s-60.5 73.5 -60.5 125.5zM162 0l668 700h84l-668 -700h-84z
M122 533c0 -32.667 12.5 -58.5 37.5 -77.5s58.167 -28.5 99.5 -28.5s74.333 9.5 99 28.5s37 44.833 37 77.5s-12.333 58.5 -37 77.5s-57.667 28.5 -99 28.5c-42 0 -75.333 -9.5 -100 -28.5s-37 -44.833 -37 -77.5zM594 167c0 52 20.167 93.833 60.5 125.5
s94.833 47.5 163.5 47.5c68 0 122.167 -15.833 162.5 -47.5s60.5 -73.5 60.5 -125.5s-20.167 -93.833 -60.5 -125.5s-94.5 -47.5 -162.5 -47.5c-68.667 0 -123.167 15.833 -163.5 47.5s-60.5 73.5 -60.5 125.5zM1119 167c0 52 20.167 93.833 60.5 125.5
s94.5 47.5 162.5 47.5c68.667 0 123.167 -15.833 163.5 -47.5s60.5 -73.5 60.5 -125.5s-20.167 -93.833 -60.5 -125.5s-94.833 -47.5 -163.5 -47.5c-68 0 -122.167 15.833 -162.5 47.5s-60.5 73.5 -60.5 125.5zM681 167c0 -32.667 12.5 -58.5 37.5 -77.5
s58.167 -28.5 99.5 -28.5s74.333 9.5 99 28.5s37 44.833 37 77.5s-12.333 58.5 -37 77.5s-57.667 28.5 -99 28.5s-74.5 -9.5 -99.5 -28.5s-37.5 -44.833 -37.5 -77.5zM1205 167c0 -32 12.5 -57.667 37.5 -77s58.167 -29 99.5 -29s74.5 9.5 99.5 28.5s37.5 44.833 37.5 77.5
s-12.5 58.5 -37.5 77.5s-58.167 28.5 -99.5 28.5s-74.5 -9.66699 -99.5 -29s-37.5 -45 -37.5 -77z" />
    <glyph glyph-name="guilsinglleft" unicode="&#x2039;" horiz-adv-x="374" 
d="M326 462l-202 -182l202 -182h-119l-173 158v48l173 158h119z" />
    <glyph glyph-name="guilsinglright" unicode="&#x203a;" horiz-adv-x="374" 
d="M167 462l173 -158v-48l-173 -158h-119l202 182l-202 182h119z" />
    <glyph glyph-name="fraction" unicode="&#x2044;" horiz-adv-x="196" 
d="M-229 0l567 700h87l-566 -700h-88z" />
    <glyph glyph-name="uni2070" unicode="&#x2070;" horiz-adv-x="546" 
d="M52 549c0 69.333 19.833 124.166 59.5 164.499s93.5 60.5 161.5 60.5s121.833 -20.167 161.5 -60.5s59.5 -95.166 59.5 -164.499s-19.667 -124.166 -59 -164.499s-93.333 -60.5 -162 -60.5s-122.667 20.167 -162 60.5s-59 95.166 -59 164.499zM144 549
c0 -46.667 11.5 -83.5 34.5 -110.5s54.5 -40.5 94.5 -40.5c39.333 0 70.5 13.5 93.5 40.5s34.5 63.833 34.5 110.5c0 46 -11.5 82.5 -34.5 109.5s-54.167 40.5 -93.5 40.5c-40 0 -71.5 -13.5 -94.5 -40.5s-34.5 -63.5 -34.5 -109.5z" />
    <glyph glyph-name="uni2074" unicode="&#x2074;" horiz-adv-x="530" 
d="M411 500h91v-74h-91v-93h-92v93h-295v68l247 270h140v-264zM116 500h203v221z" />
    <glyph glyph-name="uni2075" unicode="&#x2075;" horiz-adv-x="492" 
d="M271 613c54.667 0 98.498 -11.334 131.498 -34.001s49.5 -56.667 49.5 -102c0 -48.667 -19.167 -86 -57.5 -112s-88.5 -39 -150.5 -39c-56 0 -103.167 10.667 -141.5 32s-61.166 52.333 -68.499 93l89 7c6 -19.333 20.167 -34.166 42.5 -44.499s48.5 -15.5 78.5 -15.5
c34 0 61.667 6.83301 83 20.5s32 32.834 32 57.501c0 25.333 -10.833 44.666 -32.5 57.999s-49.5 20 -83.5 20c-51.333 0 -89.333 -12.333 -114 -37l-82 7l24 240h350v-74h-280l-13 -120c34.667 28.667 82.334 43 143.001 43z" />
    <glyph glyph-name="uni2076" unicode="&#x2076;" horiz-adv-x="528" 
d="M300 609c53.333 0 97.335 -11.665 132.002 -34.998s52 -57.333 52 -102c0 -46.667 -18.833 -83 -56.5 -109s-88.5 -39 -152.5 -39c-148.667 0 -223 73 -223 219c0 75.333 19.667 132.666 59 171.999s94.666 59 165.999 59c52 0 95 -10.833 129 -32.5
s53.333 -52.167 58 -91.5l-89 -5c-2.66699 16 -12.834 29.5 -30.501 40.5s-40.167 16.5 -67.5 16.5c-50 0 -86 -17.333 -108 -52c-15.333 -24.667 -23 -57.334 -23 -98.001c32 38 83.333 57 154 57zM275.002 396.002c36.667 0 65.334 6.66699 86.001 20s31 31.666 31 54.999
s-10.333 41.666 -31 54.999s-49.334 20 -86.001 20c-36 0 -64.5 -6.66699 -85.5 -20s-31.5 -31.666 -31.5 -54.999s10.5 -41.666 31.5 -54.999s49.5 -20 85.5 -20z" />
    <glyph glyph-name="uni2077" unicode="&#x2077;" horiz-adv-x="431" 
d="M22 764h392v-62c-106.667 -121.333 -176 -244.333 -208 -369h-99c33.333 120 105.333 239 216 357h-301v74z" />
    <glyph glyph-name="uni2078" unicode="&#x2078;" horiz-adv-x="521" 
d="M354 559c82.667 -16.667 123.998 -54 123.998 -112c0 -40 -20.667 -70.5 -62 -91.5s-93.333 -31.5 -156 -31.5c-62 0 -113.833 10.5 -155.5 31.5s-62.5 51.5 -62.5 91.5c0 29.333 11.333 53.333 34 72s53.667 32 93 40c-75.333 16 -113 49.667 -113 101
c0 37.333 19.333 65.666 58 84.999s87.334 29 146.001 29s107.334 -9.66699 146.001 -29s58 -47.666 58 -84.999c0 -51.333 -36.667 -85 -110 -101zM146.998 648c0 -18.667 10.333 -33.167 31 -43.5s48 -15.5 82 -15.5c34.667 0 62.334 5.16699 83.001 15.5
s31 24.833 31 43.5c0 19.333 -10.333 34 -31 44s-48.334 15 -83.001 15s-62.167 -5 -82.5 -15s-30.5 -24.667 -30.5 -44zM259.998 391c39.333 0 70.5 5.83301 93.5 17.5s34.5 27.834 34.5 48.501s-11.5 36.834 -34.5 48.501s-54.167 17.5 -93.5 17.5
c-38.667 0 -69.5 -5.83301 -92.5 -17.5s-34.5 -27.834 -34.5 -48.501s11.5 -36.834 34.5 -48.501s53.833 -17.5 92.5 -17.5z" />
    <glyph glyph-name="uni2079" unicode="&#x2079;" horiz-adv-x="528" 
d="M253 774c148.667 0 222.999 -72.998 222.999 -218.998c0 -76 -19.167 -133.5 -57.5 -172.5s-93.5 -58.5 -165.5 -58.5c-55.333 0 -99.5 10.667 -132.5 32s-51.833 52 -56.5 92l88 5c4 -16.667 14.833 -30.334 32.5 -41.001s40.5 -16 68.5 -16
c52.667 0 89.334 19 110.001 57c13.333 22.667 20 54.667 20 96c-30.667 -38.667 -82.667 -58 -156 -58c-52.667 0 -96.5 11.667 -131.5 35s-52.5 56.666 -52.5 99.999c0 46.667 19 83 57 109s89 39 153 39zM252.999 553.002c35.333 0 63.833 6.66699 85.5 20
s32.5 31.333 32.5 54s-10.833 40.834 -32.5 54.501s-50.167 20.5 -85.5 20.5s-63.833 -6.83301 -85.5 -20.5s-32.5 -31.834 -32.5 -54.501s10.833 -40.667 32.5 -54s50.167 -20 85.5 -20z" />
    <glyph glyph-name="uni2080" unicode="&#x2080;" horiz-adv-x="546" 
d="M52 99c0 69.333 19.833 124.166 59.5 164.499s93.5 60.5 161.5 60.5s121.833 -20.167 161.5 -60.5s59.5 -95.166 59.5 -164.499s-19.667 -124.166 -59 -164.499s-93.333 -60.5 -162 -60.5s-122.667 20.167 -162 60.5s-59 95.166 -59 164.499zM144 99
c0 -46.667 11.5 -83.5 34.5 -110.5s54.5 -40.5 94.5 -40.5c39.333 0 70.5 13.5 93.5 40.5s34.5 63.833 34.5 110.5c0 46 -11.5 82.5 -34.5 109.5s-54.167 40.5 -93.5 40.5c-40 0 -71.5 -13.5 -94.5 -40.5s-34.5 -63.5 -34.5 -109.5z" />
    <glyph glyph-name="uni2081" unicode="&#x2081;" horiz-adv-x="336" 
d="M158 315h76v-431h-93v332l-100 -65v88z" />
    <glyph glyph-name="uni2082" unicode="&#x2082;" horiz-adv-x="446" 
d="M155 -45l260.997 0.000976562v-74h-396v68l195 134c34.667 23.333 59.167 42.666 73.5 57.999s21.5 32 21.5 50c0 19.333 -7.66699 34 -23 44s-35.666 15 -60.999 15c-62 0 -96.333 -29.667 -103 -89l-90 7c4.66699 52.667 24.334 91.834 59.001 117.501
s79.334 38.5 134.001 38.5c51.333 0 93.5 -10.833 126.5 -32.5s49.5 -53.167 49.5 -94.5c0 -25.333 -8.5 -49.833 -25.5 -73.5s-47.167 -49.834 -90.5 -78.501z" />
    <glyph glyph-name="uni2083" unicode="&#x2083;" horiz-adv-x="466" 
d="M249 144c54 -2 97.501 -13.335 130.501 -34.002s49.5 -52.667 49.5 -96c0 -45.333 -19.5 -79.5 -58.5 -102.5s-89.5 -34.5 -151.5 -34.5c-57.333 0 -104.333 11.333 -141 34s-58 56.334 -64 101.001l90 6c8 -44.667 46.333 -67 115 -67
c35.333 0 63.666 6.33301 84.999 19s32 30 32 52c0 20.667 -9.83301 37.334 -29.5 50.001s-48.167 19 -85.5 19c-27.333 0 -55 -2 -83 -6v50l157 106h-253v74h372v-66z" />
    <glyph glyph-name="uni2084" unicode="&#x2084;" horiz-adv-x="530" 
d="M411 51h91v-74h-91v-93h-92v93h-295v68l247 270h140v-264zM116 51h203v221z" />
    <glyph glyph-name="uni2085" unicode="&#x2085;" horiz-adv-x="492" 
d="M271 164c54.667 0 98.498 -11.334 131.498 -34.001s49.5 -56.667 49.5 -102c0 -48.667 -19.167 -86 -57.5 -112s-88.5 -39 -150.5 -39c-56 0 -103.167 10.667 -141.5 32s-61.166 52.333 -68.499 93l89 7c6 -19.333 20.167 -34.166 42.5 -44.499s48.5 -15.5 78.5 -15.5
c34 0 61.667 6.83301 83 20.5s32 32.834 32 57.501c0 25.333 -10.833 44.666 -32.5 57.999s-49.5 20 -83.5 20c-51.333 0 -89.333 -12.333 -114 -37l-82 7l24 240h350v-74h-280l-13 -120c34.667 28.667 82.334 43 143.001 43z" />
    <glyph glyph-name="uni2086" unicode="&#x2086;" horiz-adv-x="528" 
d="M300 159c53.333 0 97.335 -11.665 132.002 -34.998s52 -57.333 52 -102c0 -46.667 -18.833 -83 -56.5 -109s-88.5 -39 -152.5 -39c-148.667 0 -223 73 -223 219c0 75.333 19.667 132.666 59 171.999s94.666 59 165.999 59c52 0 95 -10.833 129 -32.5
s53.333 -52.167 58 -91.5l-89 -5c-2.66699 16 -12.834 29.5 -30.501 40.5s-40.167 16.5 -67.5 16.5c-50 0 -86 -17.333 -108 -52c-15.333 -24.667 -23 -57.334 -23 -98.001c32 38 83.333 57 154 57zM275.002 -53.998c36.667 0 65.334 6.66699 86.001 20s31 31.666 31 54.999
s-10.333 41.666 -31 54.999s-49.334 20 -86.001 20c-36 0 -64.5 -6.66699 -85.5 -20s-31.5 -31.666 -31.5 -54.999s10.5 -41.666 31.5 -54.999s49.5 -20 85.5 -20z" />
    <glyph glyph-name="uni2087" unicode="&#x2087;" horiz-adv-x="431" 
d="M22 315h392v-62c-106.667 -121.333 -176 -244.333 -208 -369h-99c33.333 120 105.333 239 216 357h-301v74z" />
    <glyph glyph-name="uni2088" unicode="&#x2088;" horiz-adv-x="521" 
d="M354 109c82.667 -16.667 123.998 -54 123.998 -112c0 -40 -20.667 -70.5 -62 -91.5s-93.333 -31.5 -156 -31.5c-62 0 -113.833 10.5 -155.5 31.5s-62.5 51.5 -62.5 91.5c0 29.333 11.333 53.333 34 72s53.667 32 93 40c-75.333 16 -113 49.667 -113 101
c0 37.333 19.333 65.666 58 84.999s87.334 29 146.001 29s107.334 -9.66699 146.001 -29s58 -47.666 58 -84.999c0 -51.333 -36.667 -85 -110 -101zM146.998 198c0 -18.667 10.333 -33.167 31 -43.5s48 -15.5 82 -15.5c34.667 0 62.334 5.16699 83.001 15.5
s31 24.833 31 43.5c0 19.333 -10.333 34 -31 44s-48.334 15 -83.001 15s-62.167 -5 -82.5 -15s-30.5 -24.667 -30.5 -44zM259.998 -59c39.333 0 70.5 5.83301 93.5 17.5s34.5 27.834 34.5 48.501s-11.5 36.834 -34.5 48.501s-54.167 17.5 -93.5 17.5
c-38.667 0 -69.5 -5.83301 -92.5 -17.5s-34.5 -27.834 -34.5 -48.501s11.5 -36.834 34.5 -48.501s53.833 -17.5 92.5 -17.5z" />
    <glyph glyph-name="uni2089" unicode="&#x2089;" horiz-adv-x="528" 
d="M253 324c148.667 0 222.999 -72.998 222.999 -218.998c0 -76 -19.167 -133.5 -57.5 -172.5s-93.5 -58.5 -165.5 -58.5c-55.333 0 -99.5 10.667 -132.5 32s-51.833 52 -56.5 92l88 5c4 -16.667 14.833 -30.334 32.5 -41.001s40.5 -16 68.5 -16
c52.667 0 89.334 19 110.001 57c13.333 22.667 20 54.667 20 96c-30.667 -38.667 -82.667 -58 -156 -58c-52.667 0 -96.5 11.667 -131.5 35s-52.5 56.666 -52.5 99.999c0 46.667 19 83 57 109s89 39 153 39zM252.999 103.002c35.333 0 63.833 6.66699 85.5 20
s32.5 31.333 32.5 54s-10.833 40.834 -32.5 54.501s-50.167 20.5 -85.5 20.5s-63.833 -6.83301 -85.5 -20.5s-32.5 -31.834 -32.5 -54.501s10.833 -40.667 32.5 -54s50.167 -20 85.5 -20z" />
    <glyph glyph-name="Euro" unicode="&#x20ac;" horiz-adv-x="893" 
d="M745 217l112.998 -5.00098c-15.333 -68.667 -53.666 -123.167 -114.999 -163.5s-142 -60.5 -242 -60.5c-108.667 0 -196.834 23.833 -264.501 71.5s-110.5 112.834 -128.5 195.501h-94v58h85c0 3.33301 -0.166992 8.5 -0.5 15.5s-0.5 12.167 -0.5 15.5
s0.166992 8.5 0.5 15.5s0.5 12.167 0.5 15.5h-81v58h90c18 81.333 60 146.166 126 194.499s151.333 72.5 256 72.5c92.667 0 170.167 -17.833 232.5 -53.5s103.166 -84.167 122.499 -145.5l-113 -7c-15.333 32.667 -44.166 58.667 -86.499 78s-92.5 29 -150.5 29
c-69.333 0 -126.166 -15.333 -170.499 -46s-74.833 -71.334 -91.5 -122.001h378v-58h-390c-1.33301 -13.333 -2 -23.666 -2 -30.999s0.666992 -17.666 2 -30.999h386v-58h-374c17.333 -52 49.166 -93 95.499 -123s104.833 -45 175.5 -45c64.667 0 117.834 12 159.501 36
s68.834 55.333 81.501 94z" />
    <glyph glyph-name="uni20B4" unicode="&#x20b4;" horiz-adv-x="745" 
d="M578 385c-25.333 -14 -53.332 -25.9971 -83.999 -35.9971l-77 -27h299v-48h-434c-35.333 -14.667 -60.833 -29.834 -76.5 -45.501s-23.5 -33.5 -23.5 -53.5c0 -32.667 17.667 -56.667 53 -72s80 -23 134 -23c62 0 112.667 9.33301 152 28s60.333 46.667 63 84l112 -4
c-6.66699 -68 -38.667 -118.333 -96 -151s-134 -49 -230 -49c-94.667 0 -169.834 15.667 -225.501 47s-83.5 75.666 -83.5 132.999c0 42 15.667 77.333 47 106h-73v48h148c14 7.33301 38.667 17.333 74 30l95 33h-317v48h447c47.333 23.333 71 51.333 71 84
c0 27.333 -15 49.333 -45 66s-69.667 25 -119 25c-44.667 0 -85.167 -7 -121.5 -21s-56.833 -37 -61.5 -69l-112 6c4 33.333 15.833 62 35.5 86s44.5 42.333 74.5 55s60.333 21.667 91 27s62.667 8 96 8c82 0 149.667 -14.833 203 -44.5s80 -73.834 80 -132.501
c0 -34 -11 -64 -33 -90h75v-48h-138z" />
    <glyph glyph-name="uni20BD" unicode="&#x20bd;" horiz-adv-x="828" 
d="M522 276l-280 0.000976562v-62h309v-73h-309v-141h-121v141h-91v73h91v62h-91v90h91v322h401c81.333 0 145.166 -17.667 191.499 -53s69.5 -87 69.5 -155c0 -68.667 -22.667 -119.834 -68 -153.501s-109.666 -50.5 -192.999 -50.5zM242 588.001l0.000976562 -222h273
c46 0 82 10.167 108 30.5s39 48.166 39 83.499c0 34.667 -12.833 61.334 -38.5 80.001s-61.834 28 -108.501 28h-273z" />
    <glyph glyph-name="uni2116" unicode="&#x2116;" horiz-adv-x="1548" 
d="M1239 333c-76 0 -136.667 17.167 -182 51.5s-68 80.5 -68 138.5s22.5 104 67.5 138s105.833 51 182.5 51s137.5 -17 182.5 -51s67.5 -80 67.5 -138s-22.667 -104.167 -68 -138.5s-106 -51.5 -182 -51.5zM752 66v634h122v-700h-216l-442 634v-634h-121v700h215zM1239 636
c-46.667 0 -82.667 -10.333 -108 -31s-38 -48 -38 -82s12.833 -61.5 38.5 -82.5s61.5 -31.5 107.5 -31.5s81.833 10.5 107.5 31.5s38.5 48.5 38.5 82.5s-12.667 61.333 -38 82s-61.333 31 -108 31zM1007 195v81h464v-81h-464z" />
    <glyph glyph-name="trademark" unicode="&#x2122;" horiz-adv-x="920" 
d="M19 647v53h326v-53h-130v-316h-67v316h-129zM744 700h116v-369h-66v329l-114 -329h-92l-113 325v-325h-66v369h116l110 -332z" />
    <glyph glyph-name="oneeighth" unicode="&#x215b;" horiz-adv-x="981" 
d="M124 340v271l-90 -48v79l106 58h64v-360h-80zM624 700h87l-565 -700h-88zM792 185c32.667 -6 58.5 -17 77.5 -33s28.5 -36 28.5 -60c0 -34 -17.5 -59.833 -52.5 -77.5s-78.833 -26.5 -131.5 -26.5s-96.5 8.83301 -131.5 26.5s-52.5 43.5 -52.5 77.5
c0 24 9.66699 44 29 60s45.333 27 78 33c-63.333 14 -95 42.333 -95 85c0 32 16.333 56 49 72s73.667 24 123 24s90.333 -8 123 -24s49 -40 49 -72c0 -42.667 -31.333 -71 -94 -85zM620 259c0 -15.333 8.66699 -27.166 26 -35.499s40 -12.5 68 -12.5
c28.667 0 51.5 4.16699 68.5 12.5s25.5 20.166 25.5 35.499s-8.5 27.166 -25.5 35.499s-39.833 12.5 -68.5 12.5c-28 0 -50.667 -4.16699 -68 -12.5s-26 -20.166 -26 -35.499zM714 47c32.667 0 58.5 4.66699 77.5 14s28.5 22.666 28.5 39.999s-9.5 30.833 -28.5 40.5
s-44.833 14.5 -77.5 14.5c-32 0 -57.667 -4.83301 -77 -14.5s-29 -23.167 -29 -40.5s9.66699 -30.666 29 -39.999s45 -14 77 -14z" />
    <glyph glyph-name="threeeighths" unicode="&#x215c;" horiz-adv-x="1047" 
d="M372 448c0 -40 -16.832 -70.001 -50.499 -90.001s-77.167 -30 -130.5 -30c-108 0 -167 38.333 -177 115l80 5c4.66699 -39.333 37 -59 97 -59c30 0 54.333 5.33301 73 16s28 25.334 28 44.001c0 16.667 -8.33301 30.5 -25 41.5s-41.334 16.5 -74.001 16.5
c-16.667 0 -41 -2 -73 -6v51l132 85h-214v63h321v-57l-143 -85c104 -3.33301 156 -40 156 -110zM742.001 699.999h86l-565 -700h-88zM909.001 184.999c32.667 -6 58.502 -17 77.502 -33s28.5 -36 28.5 -60c0 -34 -17.333 -59.833 -52 -77.5s-78.334 -26.5 -131.001 -26.5
s-96.5 8.83301 -131.5 26.5s-52.5 43.5 -52.5 77.5c0 24 9.5 44 28.5 60s44.833 27 77.5 33c-62.667 14 -94 42.333 -94 85c0 32 16.333 56 49 72s73.667 24 123 24s90.166 -8 122.499 -24s48.5 -40 48.5 -72c0 -42.667 -31.333 -71 -94 -85zM738.003 258.999
c0 -15.333 8.5 -27.166 25.5 -35.499s39.833 -12.5 68.5 -12.5c28 0 50.667 4.16699 68 12.5s26 20.166 26 35.499s-8.66699 27.166 -26 35.499s-40 12.5 -68 12.5c-28.667 0 -51.5 -4.16699 -68.5 -12.5s-25.5 -20.166 -25.5 -35.499zM832.003 46.999
c32 0 57.667 4.66699 77 14s29 22.666 29 39.999s-9.66699 30.833 -29 40.5s-45 14.5 -77 14.5c-32.667 0 -58.5 -4.83301 -77.5 -14.5s-28.5 -23.167 -28.5 -40.5s9.5 -30.666 28.5 -39.999s44.833 -14 77.5 -14z" />
    <glyph glyph-name="fiveeighths" unicode="&#x215d;" horiz-adv-x="1063" 
d="M388 459c0 -42 -16.5 -74.167 -49.5 -96.5s-76.167 -33.5 -129.5 -33.5c-48.667 0 -89.5 9.16699 -122.5 27.5s-52.5 44.833 -58.5 79.5l75 6c10 -34 45 -51 105 -51c31.333 0 55.833 5.66699 73.5 17s26.5 28 26.5 50s-9 38.5 -27 49.5s-42.333 16.5 -73 16.5
c-45.333 0 -78.666 -11 -99.999 -33l-68 6l20 204h301v-61h-245l-10 -103c29.333 27.333 71.666 41 126.999 41c46 0 83.333 -10.333 112 -31s43 -50 43 -88zM757 700h87l-565 -700h-88zM925 185c32.667 -6 58.502 -17 77.502 -33s28.5 -36 28.5 -60
c0 -34 -17.5 -59.833 -52.5 -77.5s-78.833 -26.5 -131.5 -26.5s-96.334 8.83301 -131.001 26.5s-52 43.5 -52 77.5c0 24 9.5 44 28.5 60s44.833 27 77.5 33c-62.667 14 -94 42.333 -94 85c0 32 16.167 56 48.5 72s73.166 24 122.499 24c50 0 91.167 -8 123.5 -24
s48.5 -40 48.5 -72c0 -42.667 -31.333 -71 -94 -85zM753.002 259c0 -15.333 8.66699 -27.166 26 -35.499s40 -12.5 68 -12.5c28.667 0 51.667 4.16699 69 12.5s26 20.166 26 35.499s-8.66699 27.166 -26 35.499s-40.333 12.5 -69 12.5c-28 0 -50.667 -4.16699 -68 -12.5
s-26 -20.166 -26 -35.499zM847.002 47c32.667 0 58.667 4.66699 78 14s29 22.666 29 39.999s-9.66699 30.833 -29 40.5s-45.333 14.5 -78 14.5c-32 0 -57.667 -4.83301 -77 -14.5s-29 -23.167 -29 -40.5s9.66699 -30.666 29 -39.999s45 -14 77 -14z" />
    <glyph glyph-name="seveneighths" unicode="&#x215e;" horiz-adv-x="990" 
d="M178 340l-85.001 -0.00195312c28 100.667 87 199.334 177 296.001h-249v64h332v-53c-89.333 -99.333 -147.666 -201.666 -174.999 -306.999zM699.999 699.998h87l-565 -700h-88zM867.999 184.998c32.667 -6 58.502 -17 77.502 -33s28.5 -36 28.5 -60
c0 -34 -17.5 -59.833 -52.5 -77.5s-78.833 -26.5 -131.5 -26.5s-96.334 8.83301 -131.001 26.5s-52 43.5 -52 77.5c0 24 9.5 44 28.5 60s44.833 27 77.5 33c-62.667 14 -94 42.333 -94 85c0 32 16.167 56 48.5 72s73.166 24 122.499 24c50 0 91.167 -8 123.5 -24
s48.5 -40 48.5 -72c0 -42.667 -31.333 -71 -94 -85zM696.001 258.998c0 -15.333 8.66699 -27.166 26 -35.499s40 -12.5 68 -12.5c28.667 0 51.667 4.16699 69 12.5s26 20.166 26 35.499s-8.66699 27.166 -26 35.499s-40.333 12.5 -69 12.5c-28 0 -50.667 -4.16699 -68 -12.5
s-26 -20.166 -26 -35.499zM790.001 46.998c32.667 0 58.667 4.66699 78 14s29 22.666 29 39.999s-9.66699 30.833 -29 40.5s-45.333 14.5 -78 14.5c-32 0 -57.667 -4.83301 -77 -14.5s-29 -23.167 -29 -40.5s9.66699 -30.666 29 -39.999s45 -14 77 -14z" />
    <glyph glyph-name="arrowleft" unicode="&#x2190;" horiz-adv-x="806" 
d="M734 402v-92h-486l232 -226l-137 1l-271 271l271 272h137l-232 -226h486z" />
    <glyph glyph-name="arrowup" unicode="&#x2191;" horiz-adv-x="688" 
d="M616 489v-140l-224 230v-587h-97v586l-223 -229l1 140l271 271z" />
    <glyph glyph-name="arrowright" unicode="&#x2192;" horiz-adv-x="806" 
d="M463 628l271 -272l-271 -271l-137 -1l232 226h-486v92h486l-232 226h137z" />
    <glyph glyph-name="arrowdown" unicode="&#x2193;" horiz-adv-x="688" 
d="M392 121l224 230v-140l-272 -271l-271 271l-1 140l223 -229v586h97v-587z" />
    <glyph glyph-name="arrowboth" unicode="&#x2194;" horiz-adv-x="1080" 
d="M770 595l238 -239l-238 -239h-136l198 193h-584l198 -193h-136l-238 239l238 239h136l-198 -193h584l-198 193h136z" />
    <glyph glyph-name="arrowupdn" unicode="&#x2195;" horiz-adv-x="617" 
d="M544 435l-190 195v-560l190 195v-139l-238 -238l-234 233v139l185 -190v560l-185 -190v139l234 233l238 -239v-138z" />
    <glyph glyph-name="uni2196" unicode="&#x2196;" horiz-adv-x="671" 
d="M599 149l-66 -66l-363 363l4 -325l-102 98v384h384l97 -94l-318 4z" />
    <glyph glyph-name="uni2197" unicode="&#x2197;" horiz-adv-x="671" 
d="M215 603h384v-384l-102 -98l4 325l-363 -363l-66 66l364 364l-318 -4z" />
    <glyph glyph-name="uni2198" unicode="&#x2198;" horiz-adv-x="671" 
d="M497 580l102 -97v-384h-384l-97 94l318 -4l-364 364l66 66l363 -363z" />
    <glyph glyph-name="uni2199" unicode="&#x2199;" horiz-adv-x="671" 
d="M599 553l-364 -364l318 4l-97 -94h-384v384l102 97l-4 -324l363 363z" />
    <glyph glyph-name="partialdiff" unicode="&#x2202;" horiz-adv-x="643" 
d="M291 756c198.667 0 297.998 -132.001 297.998 -396.001c0 -129.333 -25.833 -223.666 -77.5 -282.999s-121.834 -89 -210.501 -89c-78.667 0 -141.167 21.833 -187.5 65.5s-69.5 104.167 -69.5 181.5c0 73.333 23.333 132.833 70 178.5s107.334 68.5 182.001 68.5
c72.667 0 130.667 -22.333 174 -67c-11.333 167.333 -73.666 251 -186.999 251c-60.667 0 -113 -22.667 -157 -68l-62 74c58.667 56 134.334 84 227.001 84zM296.998 80.999c105.333 0 163.331 71.333 173.998 214c-13.333 30.667 -33.666 54 -60.999 70
s-57.666 24 -90.999 24c-48.667 0 -87.167 -14.333 -115.5 -43s-42.5 -65.667 -42.5 -111c0 -50 12.5 -88.167 37.5 -114.5s57.833 -39.5 98.5 -39.5z" />
    <glyph glyph-name="emptyset" unicode="&#x2205;" horiz-adv-x="654" 
d="M615 522l-82 -73c34 -39.333 51 -88 51 -146c0 -71.333 -23.833 -127.5 -71.5 -168.5s-109.5 -61.5 -185.5 -61.5c-66 0 -121.333 15.333 -166 46l-83 -74l-39 39l81 72c-33.333 39.333 -50 88.333 -50 147c0 71.333 23.833 127.5 71.5 168.5s109.5 61.5 185.5 61.5
c66.667 0 121.667 -15.667 165 -47l84 74zM170 303c0 -31.333 8.33301 -58.333 25 -81l222 198c-24.667 13.333 -54.667 20 -90 20c-48.667 0 -87 -12.333 -115 -37s-42 -58 -42 -100zM483 303c0 32 -8.00098 59 -24.001 81l-222 -198c24.667 -13.333 54.667 -20 90 -20
c48.667 0 86.834 12.333 114.501 37s41.5 58 41.5 100z" />
    <glyph glyph-name="product" unicode="&#x220f;" horiz-adv-x="840" 
d="M745 700v-795h-117v699h-417v-699h-116v795h650z" />
    <glyph glyph-name="summation" unicode="&#x2211;" horiz-adv-x="679" 
d="M198 0h452v-95h-609v85l324 328l-308 297v85h581v-96h-422l286 -286z" />
    <glyph glyph-name="minus" unicode="&#x2212;" horiz-adv-x="567" 
d="M64 374h439v-86h-439v86z" />
    <glyph glyph-name="radical" unicode="&#x221a;" horiz-adv-x="663" 
d="M529 712h100l-247 -813h-136l-132 398h-86v87h162l124 -405z" />
    <glyph glyph-name="infinity" unicode="&#x221e;" horiz-adv-x="699" 
d="M509 475c48 0 86.5 -12.833 115.5 -38.5s43.5 -62.834 43.5 -111.501c0 -49.333 -14.5 -87 -43.5 -113s-67.5 -39 -115.5 -39c-31.333 0 -59.5 6.5 -84.5 19.5s-50.167 35.833 -75.5 68.5c-24.667 -32.667 -49.5 -55.5 -74.5 -68.5s-53.167 -19.5 -84.5 -19.5
c-48 0 -86.5 13 -115.5 39s-43.5 63.667 -43.5 113c0 48.667 14.5 85.834 43.5 111.501s67.5 38.5 115.5 38.5c32 0 60.5 -6.5 85.5 -19.5s49.5 -35.833 73.5 -68.5c25.333 32.667 50.333 55.5 75 68.5s53 19.5 85 19.5zM196 244c21.333 0 41.167 6 59.5 18
s37.5 32.667 57.5 62c-36.667 54 -75.667 81 -117 81c-24 0 -43.667 -6.66699 -59 -20s-23 -33.333 -23 -60c0 -26 7.83301 -46 23.5 -60s35.167 -21 58.5 -21zM503.001 244c23.333 0 42.834 7 58.501 21s23.5 34 23.5 60c0 26.667 -7.66699 46.667 -23 60s-35 20 -59 20
c-41.333 0 -80.333 -27 -117 -81c20 -29.333 39.167 -50 57.5 -62s38.166 -18 59.499 -18z" />
    <glyph glyph-name="integral" unicode="&#x222b;" horiz-adv-x="459" 
d="M319 733c16.667 0 37.333 -1.66699 62 -5v-81c-9.33301 2 -23.666 3 -42.999 3c-20.667 0 -35.834 -5.33301 -45.501 -16s-14.5 -29 -14.5 -55v-539c0 -94 -47.667 -141 -143 -141c-26.667 0 -47.667 1.66699 -63 5v81c9.33301 -2 23.333 -3 42 -3
c20.667 0 36 5.16699 46 15.5s15 28.5 15 54.5v539c0 94.667 48 142 144 142z" />
    <glyph glyph-name="approxequal" unicode="&#x2248;" horiz-adv-x="608" 
d="M204 409c-19.333 0 -34.166 -6.50098 -44.499 -19.501s-15.5 -29.5 -15.5 -49.5h-68c0 40.667 9.66699 74.334 29 101.001s50.333 40 93 40c22 0 43.5 -4.33301 64.5 -13s38.167 -18.167 51.5 -28.5s28.166 -19.833 44.499 -28.5s31.833 -13 46.5 -13
c19.333 0 34 6.33301 44 19s15 29 15 49h68c0 -40 -9.83301 -73.333 -29.5 -100s-50.167 -40 -91.5 -40c-28.667 0 -55.667 7 -81 21s-48.333 27.833 -69 41.5s-39.667 20.5 -57 20.5zM405 228.999c19.333 0 34 6.16602 44 18.499s15 28.833 15 49.5h68
c0 -40.667 -9.83301 -74.334 -29.5 -101.001s-50.167 -40 -91.5 -40c-28.667 0 -55.667 7 -81 21s-48.333 27.833 -69 41.5s-39.667 20.5 -57 20.5c-19.333 0 -34.166 -6.5 -44.499 -19.5s-15.5 -29.5 -15.5 -49.5h-68c0 40.667 9.66699 74.167 29 100.5
s50.333 39.5 93 39.5c22 0 43.5 -4.16699 64.5 -12.5s38.167 -17.666 51.5 -27.999s28.166 -19.666 44.499 -27.999s31.833 -12.5 46.5 -12.5z" />
    <glyph glyph-name="notequal" unicode="&#x2260;" horiz-adv-x="583" 
d="M511 371h-162l-45 -95h207v-81h-245l-41 -85h-73l40 85h-120v81h159l45 95h-204v81h243l41 86h73l-41 -86h123v-81z" />
    <glyph glyph-name="lessequal" unicode="&#x2264;" horiz-adv-x="565" 
d="M481 575v-99l-319 -100l319 -76v-99l-415 120v104zM66 77v81h415v-81h-415z" />
    <glyph glyph-name="greaterequal" unicode="&#x2265;" horiz-adv-x="565" 
d="M84 575l415 -150v-104l-415 -120v99l319 76l-319 100v99zM84 77v81h415v-81h-415z" />
    <glyph glyph-name="uni2460" unicode="&#x2460;" 
d="M410 -12c-105.333 0 -191.666 33.167 -258.999 99.5s-101 153.833 -101 262.5s33.667 196.167 101 262.5s153.666 99.5 258.999 99.5s191.666 -33.167 258.999 -99.5s101 -153.833 101 -262.5s-33.667 -196.167 -101 -262.5s-153.666 -99.5 -258.999 -99.5zM410 35
c91.333 0 165.833 28.833 223.5 86.5s86.5 133.834 86.5 228.501s-28.833 170.834 -86.5 228.501s-132.167 86.5 -223.5 86.5s-165.833 -28.833 -223.5 -86.5s-86.5 -133.834 -86.5 -228.501s28.833 -170.834 86.5 -228.501s132.167 -86.5 223.5 -86.5zM319 414v68l80 46h56
v-356h-69v280z" />
    <glyph glyph-name="uni2461" unicode="&#x2461;" 
d="M410 -12c-105.333 0 -191.666 33.167 -258.999 99.5s-101 153.833 -101 262.5s33.667 196.167 101 262.5s153.666 99.5 258.999 99.5s191.666 -33.167 258.999 -99.5s101 -153.833 101 -262.5s-33.667 -196.167 -101 -262.5s-153.666 -99.5 -258.999 -99.5zM410 35
c91.333 0 165.833 28.833 223.5 86.5s86.5 133.834 86.5 228.501s-28.833 170.834 -86.5 228.501s-132.167 86.5 -223.5 86.5s-165.833 -28.833 -223.5 -86.5s-86.5 -133.834 -86.5 -228.501s28.833 -170.834 86.5 -228.501s132.167 -86.5 223.5 -86.5zM281 173
l0.00292969 51.001l113 105c18 16 31.167 28.167 39.5 36.5s16.166 18.5 23.499 30.5s11 23.667 11 35c0 14.667 -4.5 26.334 -13.5 35.001s-21.167 13 -36.5 13c-36.667 0 -57 -25.333 -61 -76l-67 5c3.33301 42.667 16.666 74.5 39.999 95.5s52.666 31.5 87.999 31.5
c34.667 0 63.167 -9 85.5 -27s33.5 -43.667 33.5 -77c0 -20.667 -5.66699 -40.334 -17 -59.001s-31.333 -40.334 -60 -65.001l-82 -78h169v-56h-266z" />
    <glyph glyph-name="uni2462" unicode="&#x2462;" 
d="M410 -12c-105.333 0 -191.666 33.167 -258.999 99.5s-101 153.833 -101 262.5s33.667 196.167 101 262.5s153.666 99.5 258.999 99.5s191.666 -33.167 258.999 -99.5s101 -153.833 101 -262.5s-33.667 -196.167 -101 -262.5s-153.666 -99.5 -258.999 -99.5zM410 35
c91.333 0 165.833 28.833 223.5 86.5s86.5 133.834 86.5 228.501s-28.833 170.834 -86.5 228.501s-132.167 86.5 -223.5 86.5s-165.833 -28.833 -223.5 -86.5s-86.5 -133.834 -86.5 -228.501s28.833 -170.834 86.5 -228.501s132.167 -86.5 223.5 -86.5zM271 277
l66.998 3.99902c6 -39.333 29.333 -59 70 -59c22.667 0 40.5 5.33301 53.5 16s19.5 25.667 19.5 45c0 18 -6 32.5 -18 43.5s-29.667 16.5 -53 16.5c-13.333 0 -31.666 -2.33301 -54.999 -7v48l95 88h-160v56h249v-50l-104 -89c76 -5.33301 114 -40.666 114 -105.999
c0 -38.667 -13.167 -67.834 -39.5 -87.501s-60.166 -29.5 -101.499 -29.5c-38.667 0 -70.167 9.33301 -94.5 28s-38.5 46.334 -42.5 83.001z" />
    <glyph glyph-name="uni2463" unicode="&#x2463;" 
d="M410 -12c-105.333 0 -191.666 33.167 -258.999 99.5s-101 153.833 -101 262.5s33.667 196.167 101 262.5s153.666 99.5 258.999 99.5s191.666 -33.167 258.999 -99.5s101 -153.833 101 -262.5s-33.667 -196.167 -101 -262.5s-153.666 -99.5 -258.999 -99.5zM410 35
c91.333 0 165.833 28.833 223.5 86.5s86.5 133.834 86.5 228.501s-28.833 170.834 -86.5 228.501s-132.167 86.5 -223.5 86.5s-165.833 -28.833 -223.5 -86.5s-86.5 -133.834 -86.5 -228.501s28.833 -170.834 86.5 -228.501s132.167 -86.5 223.5 -86.5zM244 250v52l150 226
h112v-222h60v-56h-60v-78h-69v78h-193zM311 306h126v187z" />
    <glyph glyph-name="uni2464" unicode="&#x2464;" 
d="M410 -12c-105.333 0 -191.666 33.167 -258.999 99.5s-101 153.833 -101 262.5s33.667 196.167 101 262.5s153.666 99.5 258.999 99.5s191.666 -33.167 258.999 -99.5s101 -153.833 101 -262.5s-33.667 -196.167 -101 -262.5s-153.666 -99.5 -258.999 -99.5zM410 35
c91.333 0 165.833 28.833 223.5 86.5s86.5 133.834 86.5 228.501s-28.833 170.834 -86.5 228.501s-132.167 86.5 -223.5 86.5s-165.833 -28.833 -223.5 -86.5s-86.5 -133.834 -86.5 -228.501s28.833 -170.834 86.5 -228.501s132.167 -86.5 223.5 -86.5zM271 269l66.999 5
c8 -34.667 32.667 -52 74 -52c21.333 0 38.5 6 51.5 18s19.5 29 19.5 51s-6.66699 38.833 -20 50.5s-30.666 17.5 -51.999 17.5c-31.333 0 -54.333 -11.333 -69 -34l-62 6l16 197h235v-56h-183l-8 -98c23.333 22 54.333 33 93 33c36 0 64.833 -10 86.5 -30
s32.5 -48.667 32.5 -86c0 -40 -12.833 -70.833 -38.5 -92.5s-59.5 -32.5 -101.5 -32.5c-37.333 0 -68.833 8.83301 -94.5 26.5s-41.167 43.167 -46.5 76.5z" />
    <glyph glyph-name="uni2465" unicode="&#x2465;" 
d="M410 -12c-105.333 0 -191.666 33.167 -258.999 99.5s-101 153.833 -101 262.5s33.667 196.167 101 262.5s153.666 99.5 258.999 99.5s191.666 -33.167 258.999 -99.5s101 -153.833 101 -262.5s-33.667 -196.167 -101 -262.5s-153.666 -99.5 -258.999 -99.5zM410 35
c91.333 0 165.833 28.833 223.5 86.5s86.5 133.834 86.5 228.501s-28.833 170.834 -86.5 228.501s-132.167 86.5 -223.5 86.5s-165.833 -28.833 -223.5 -86.5s-86.5 -133.834 -86.5 -228.501s28.833 -170.834 86.5 -228.501s132.167 -86.5 223.5 -86.5zM265 345
c0 62.667 13.5 110 40.5 142s63.833 48 110.5 48c36 0 65.333 -9 88 -27s35.667 -43 39 -75l-67 -4c-1.33301 14.667 -7.33301 26.667 -18 36s-24.667 14 -42 14c-52.667 0 -80 -41.667 -82 -125c19.333 30.667 52 46 98 46c36.667 0 66.5 -9.66699 89.5 -29
s34.5 -47.333 34.5 -84c0 -38 -12.667 -67.667 -38 -89s-60 -32 -104 -32c-47.333 0 -84 14.833 -110 44.5s-39 74.5 -39 134.5zM342 287c0 -19.333 6.66699 -35 20 -47s30.666 -18 51.999 -18c22 0 39.667 6 53 18s20 27.667 20 47c0 20 -6.66699 35.833 -20 47.5
s-31 17.5 -53 17.5c-21.333 0 -38.666 -5.83301 -51.999 -17.5s-20 -27.5 -20 -47.5z" />
    <glyph glyph-name="uni2466" unicode="&#x2466;" 
d="M410 -12c-105.333 0 -191.666 33.167 -258.999 99.5s-101 153.833 -101 262.5s33.667 196.167 101 262.5s153.666 99.5 258.999 99.5s191.666 -33.167 258.999 -99.5s101 -153.833 101 -262.5s-33.667 -196.167 -101 -262.5s-153.666 -99.5 -258.999 -99.5zM410 35
c91.333 0 165.833 28.833 223.5 86.5s86.5 133.834 86.5 228.501s-28.833 170.834 -86.5 228.501s-132.167 86.5 -223.5 86.5s-165.833 -28.833 -223.5 -86.5s-86.5 -133.834 -86.5 -228.501s28.833 -170.834 86.5 -228.501s132.167 -86.5 223.5 -86.5zM282 472
l0.000976562 56h263v-47c-68.667 -102 -113.334 -205 -134.001 -309h-74c22 102 68.667 202 140 300h-195z" />
    <glyph glyph-name="uni2467" unicode="&#x2467;" 
d="M410 -12c-105.333 0 -191.666 33.167 -258.999 99.5s-101 153.833 -101 262.5s33.667 196.167 101 262.5s153.666 99.5 258.999 99.5s191.666 -33.167 258.999 -99.5s101 -153.833 101 -262.5s-33.667 -196.167 -101 -262.5s-153.666 -99.5 -258.999 -99.5zM411 35
c91.333 0 165.833 28.833 223.5 86.5s86.5 133.834 86.5 228.501s-28.833 170.834 -86.5 228.501s-132.167 86.5 -223.5 86.5s-165.833 -28.833 -223.5 -86.5s-86.5 -133.834 -86.5 -228.501s28.833 -170.834 86.5 -228.501s132.167 -86.5 223.5 -86.5zM263 267
c0 46.667 28.999 77.334 86.999 92.001c-51.333 12 -77 39.333 -77 82c0 30.667 13 54 39 70s58.667 24 98 24s72 -8 98 -24s39 -39.333 39 -70c0 -42.667 -25.667 -70 -77 -82c58 -14.667 87 -45.334 87 -92.001c0 -32.667 -14.167 -57.667 -42.5 -75
s-63.166 -26 -104.499 -26c-42 0 -77 8.66699 -105 26s-42 42.333 -42 75zM339.999 432c0 -15.333 6.33301 -27.333 19 -36s29.667 -13 51 -13s38.333 4.33301 51 13s19 20.667 19 36s-6.33301 27.333 -19 36s-29.667 13 -51 13s-38.333 -4.33301 -51 -13
s-19 -20.667 -19 -36zM329.999 275c0 -17.333 7.5 -30.833 22.5 -40.5s34.167 -14.5 57.5 -14.5s42.5 4.83301 57.5 14.5s22.5 23.167 22.5 40.5s-7.5 30.666 -22.5 39.999s-34.167 14 -57.5 14s-42.5 -4.66699 -57.5 -14s-22.5 -22.666 -22.5 -39.999z" />
    <glyph glyph-name="uni2468" unicode="&#x2468;" 
d="M410 -12c-105.333 0 -191.666 33.167 -258.999 99.5s-101 153.833 -101 262.5s33.667 196.167 101 262.5s153.666 99.5 258.999 99.5s191.666 -33.167 258.999 -99.5s101 -153.833 101 -262.5s-33.667 -196.167 -101 -262.5s-153.666 -99.5 -258.999 -99.5zM412 35
c91.333 0 165.833 28.833 223.5 86.5s86.5 133.834 86.5 228.501s-28.833 170.834 -86.5 228.501s-132.167 86.5 -223.5 86.5s-165.833 -28.833 -223.5 -86.5s-86.5 -133.834 -86.5 -228.501s28.833 -170.834 86.5 -228.501s132.167 -86.5 223.5 -86.5zM264 414
c0 37.333 12.832 66.835 38.499 88.502s59.5 32.5 101.5 32.5c101.333 0 152 -60 152 -180c0 -62.667 -13.333 -109.834 -40 -141.501s-63.667 -47.5 -111 -47.5c-36.667 0 -66.167 8.83301 -88.5 26.5s-35.166 42.5 -38.499 74.5l66 4c2 -14.667 8.33301 -26.5 19 -35.5
s24.667 -13.5 42 -13.5c52.667 0 80 42.667 82 128c-19.333 -31.333 -52.333 -47 -99 -47c-36 0 -65.667 9.66699 -89 29s-35 46.666 -35 81.999zM333.999 414.002c0 -18.667 6.66699 -33.834 20 -45.501s30.666 -17.5 51.999 -17.5c22 0 39.667 5.83301 53 17.5
s20 26.834 20 45.501c0 19.333 -6.66699 35 -20 47s-31 18 -53 18c-21.333 0 -38.666 -6 -51.999 -18s-20 -27.667 -20 -47z" />
    <glyph glyph-name="uni24EA" unicode="&#x24ea;" 
d="M410 -12c-105.333 0 -191.666 33.167 -258.999 99.5s-101 153.833 -101 262.5s33.667 196.167 101 262.5s153.666 99.5 258.999 99.5s191.666 -33.167 258.999 -99.5s101 -153.833 101 -262.5s-33.667 -196.167 -101 -262.5s-153.666 -99.5 -258.999 -99.5zM410 35
c91.333 0 165.833 28.833 223.5 86.5s86.5 133.834 86.5 228.501s-28.833 170.834 -86.5 228.501s-132.167 86.5 -223.5 86.5s-165.833 -28.833 -223.5 -86.5s-86.5 -133.834 -86.5 -228.501s28.833 -170.834 86.5 -228.501s132.167 -86.5 223.5 -86.5zM261 350
c0 57.333 13 102.5 39 135.5s62.667 49.5 110 49.5s84 -16.5 110 -49.5s39 -78.167 39 -135.5s-13 -102.333 -39 -135s-62.667 -49 -110 -49s-84 16.333 -110 49s-39 77.667 -39 135zM330 350c0 -41.333 7.16699 -73 21.5 -95s33.833 -33 58.5 -33s44.167 11 58.5 33
s21.5 53.667 21.5 95s-7.16699 73 -21.5 95s-33.833 33 -58.5 33s-44.167 -11 -58.5 -33s-21.5 -53.667 -21.5 -95z" />
    <glyph glyph-name="uni24FF" unicode="&#x24ff;" 
d="M410 -12c-105.333 0 -191.666 33.167 -258.999 99.5s-101 153.833 -101 262.5s33.667 196.167 101 262.5s153.666 99.5 258.999 99.5s191.666 -33.167 258.999 -99.5s101 -153.833 101 -262.5s-33.667 -196.167 -101 -262.5s-153.666 -99.5 -258.999 -99.5zM261 350
c0 -57.333 13 -102.333 39 -135s62.667 -49 110 -49s84 16.333 110 49s39 77.667 39 135s-13 102.5 -39 135.5s-62.667 49.5 -110 49.5s-84 -16.5 -110 -49.5s-39 -78.167 -39 -135.5zM330 350c0 41.333 7.16699 73 21.5 95s33.833 33 58.5 33s44.167 -11 58.5 -33
s21.5 -53.667 21.5 -95s-7.16699 -73 -21.5 -95s-33.833 -33 -58.5 -33s-44.167 11 -58.5 33s-21.5 53.667 -21.5 95z" />
    <glyph glyph-name="lozenge" unicode="&#x25ca;" horiz-adv-x="570" 
d="M346 700l185 -350l-185 -350h-123l-184 350l184 350h123zM285 61l146 289l-146 289l-147 -289z" />
    <glyph glyph-name="uni2776" unicode="&#x2776;" 
d="M410 -12c-105.333 0 -191.666 33.167 -258.999 99.5s-101 153.833 -101 262.5s33.667 196.167 101 262.5s153.666 99.5 258.999 99.5s191.666 -33.167 258.999 -99.5s101 -153.833 101 -262.5s-33.667 -196.167 -101 -262.5s-153.666 -99.5 -258.999 -99.5zM319 414
l67 38v-280h69v356h-56l-80 -46v-68z" />
    <glyph glyph-name="uni2777" unicode="&#x2777;" 
d="M410 -12c-105.333 0 -191.666 33.167 -258.999 99.5s-101 153.833 -101 262.5s33.667 196.167 101 262.5s153.666 99.5 258.999 99.5s191.666 -33.167 258.999 -99.5s101 -153.833 101 -262.5s-33.667 -196.167 -101 -262.5s-153.666 -99.5 -258.999 -99.5zM281 173
l265.998 -0.000976562v56h-169l82 78c28.667 24.667 48.667 46.334 60 65.001s17 38.334 17 59.001c0 33.333 -11.167 59 -33.5 77s-50.833 27 -85.5 27c-35.333 0 -64.666 -10.5 -87.999 -31.5s-36.666 -52.833 -39.999 -95.5l67 -5c4 50.667 24.333 76 61 76
c15.333 0 27.5 -4.33301 36.5 -13s13.5 -20.334 13.5 -35.001c0 -16 -5.83301 -31 -17.5 -45s-30.5 -33 -56.5 -57l-113 -105v-51z" />
    <glyph glyph-name="uni2778" unicode="&#x2778;" 
d="M410 -12c-105.333 0 -191.666 33.167 -258.999 99.5s-101 153.833 -101 262.5s33.667 196.167 101 262.5s153.666 99.5 258.999 99.5s191.666 -33.167 258.999 -99.5s101 -153.833 101 -262.5s-33.667 -196.167 -101 -262.5s-153.666 -99.5 -258.999 -99.5zM271 277
c4 -36.667 18.1689 -64.333 42.502 -83s55.833 -28 94.5 -28c41.333 0 75.166 9.83301 101.499 29.5s39.5 48.834 39.5 87.501c0 65.333 -38 100.666 -114 105.999l104 89v50h-249v-56h160l-95 -88v-48c23.333 4.66699 41.666 7 54.999 7c23.333 0 41 -5.5 53 -16.5
s18 -25.5 18 -43.5c0 -19.333 -6.5 -34.333 -19.5 -45s-30.833 -16 -53.5 -16c-40.667 0 -64 19.667 -70 59z" />
    <glyph glyph-name="uni2779" unicode="&#x2779;" 
d="M410 -12c-105.333 0 -191.666 33.167 -258.999 99.5s-101 153.833 -101 262.5s33.667 196.167 101 262.5s153.666 99.5 258.999 99.5s191.666 -33.167 258.999 -99.5s101 -153.833 101 -262.5s-33.667 -196.167 -101 -262.5s-153.666 -99.5 -258.999 -99.5zM244 250h193
v-78h69v78h60v56h-60v222h-112l-150 -226v-52zM311 306l126 187v-187h-126z" />
    <glyph glyph-name="uni277A" unicode="&#x277a;" 
d="M410 -12c-105.333 0 -191.666 33.167 -258.999 99.5s-101 153.833 -101 262.5s33.667 196.167 101 262.5s153.666 99.5 258.999 99.5s191.666 -33.167 258.999 -99.5s101 -153.833 101 -262.5s-33.667 -196.167 -101 -262.5s-153.666 -99.5 -258.999 -99.5zM271 269
c5.33301 -33.333 20.834 -58.833 46.501 -76.5s57.167 -26.5 94.5 -26.5c42 0 75.833 10.833 101.5 32.5s38.5 52.5 38.5 92.5c0 37.333 -10.833 66 -32.5 86s-50.5 30 -86.5 30c-38.667 0 -69.667 -11 -93 -33l8 98h183v56h-235l-16 -197l62 -6
c14.667 22.667 37.667 34 69 34c21.333 0 38.666 -5.83301 51.999 -17.5s20 -28.5 20 -50.5s-6.5 -39 -19.5 -51s-30.167 -18 -51.5 -18c-41.333 0 -66 17.333 -74 52z" />
    <glyph glyph-name="uni277B" unicode="&#x277b;" 
d="M410 -12c-105.333 0 -191.666 33.167 -258.999 99.5s-101 153.833 -101 262.5s33.667 196.167 101 262.5s153.666 99.5 258.999 99.5s191.666 -33.167 258.999 -99.5s101 -153.833 101 -262.5s-33.667 -196.167 -101 -262.5s-153.666 -99.5 -258.999 -99.5zM265 345
c0 -60 13 -104.833 39 -134.5s62.667 -44.5 110 -44.5c44 0 78.667 10.667 104 32s38 51 38 89c0 36.667 -11.5 64.667 -34.5 84s-52.833 29 -89.5 29c-46 0 -78.667 -15.333 -98 -46c2 83.333 29.333 125 82 125c17.333 0 31.333 -4.66699 42 -14s16.667 -21.333 18 -36
l67 4c-3.33301 32 -16.333 57 -39 75s-52 27 -88 27c-46.667 0 -83.5 -16 -110.5 -48s-40.5 -79.333 -40.5 -142zM342 287c0 20 6.66699 35.833 20 47.5s30.666 17.5 51.999 17.5c22 0 39.667 -5.83301 53 -17.5s20 -27.5 20 -47.5c0 -19.333 -6.66699 -35 -20 -47
s-31 -18 -53 -18c-21.333 0 -38.666 6 -51.999 18s-20 27.667 -20 47z" />
    <glyph glyph-name="uni277C" unicode="&#x277c;" 
d="M410 -12c-105.333 0 -191.666 33.167 -258.999 99.5s-101 153.833 -101 262.5s33.667 196.167 101 262.5s153.666 99.5 258.999 99.5s191.666 -33.167 258.999 -99.5s101 -153.833 101 -262.5s-33.667 -196.167 -101 -262.5s-153.666 -99.5 -258.999 -99.5zM282 472
h194.999c-71.333 -98 -118 -198 -140 -300h74c20.667 104 65.334 207 134.001 309v47h-263v-56z" />
    <glyph glyph-name="uni277D" unicode="&#x277d;" 
d="M410 -12c-105.333 0 -191.666 33.167 -258.999 99.5s-101 153.833 -101 262.5s33.667 196.167 101 262.5s153.666 99.5 258.999 99.5s191.666 -33.167 258.999 -99.5s101 -153.833 101 -262.5s-33.667 -196.167 -101 -262.5s-153.666 -99.5 -258.999 -99.5zM263 267
c0 -32.667 14.001 -57.667 42.001 -75s63 -26 105 -26c41.333 0 76.166 8.66699 104.499 26s42.5 42.333 42.5 75c0 46.667 -29 77.334 -87 92.001c51.333 12 77 39.333 77 82c0 30.667 -13 54 -39 70s-58.667 24 -98 24s-72 -8 -98 -24s-39 -39.333 -39 -70
c0 -42.667 25.667 -70 77 -82c-58 -14.667 -87 -45.334 -87 -92.001zM340.001 432c0 15.333 6.33301 27.333 19 36s29.667 13 51 13s38.333 -4.33301 51 -13s19 -20.667 19 -36s-6.33301 -27.333 -19 -36s-29.667 -13 -51 -13s-38.333 4.33301 -51 13s-19 20.667 -19 36z
M330.001 275c0 16.667 7.5 29.834 22.5 39.501s34.167 14.5 57.5 14.5s42.5 -4.83301 57.5 -14.5s22.5 -22.834 22.5 -39.501c0 -17.333 -7.5 -30.833 -22.5 -40.5s-34.167 -14.5 -57.5 -14.5s-42.5 4.83301 -57.5 14.5s-22.5 23.167 -22.5 40.5z" />
    <glyph glyph-name="uni277E" unicode="&#x277e;" 
d="M410 -12c-105.333 0 -191.666 33.167 -258.999 99.5s-101 153.833 -101 262.5s33.667 196.167 101 262.5s153.666 99.5 258.999 99.5s191.666 -33.167 258.999 -99.5s101 -153.833 101 -262.5s-33.667 -196.167 -101 -262.5s-153.666 -99.5 -258.999 -99.5zM264 414
c0 -35.333 11.668 -62.668 35.001 -82.001s53 -29 89 -29c46.667 0 79.667 15.667 99 47c-2 -85.333 -29.333 -128 -82 -128c-17.333 0 -31.333 4.5 -42 13.5s-17 20.833 -19 35.5l-66 -4c3.33301 -32 16.166 -56.833 38.499 -74.5s51.833 -26.5 88.5 -26.5
c47.333 0 84.333 15.833 111 47.5s40 78.834 40 141.501c0 120 -50.667 180 -152 180c-42 0 -75.833 -10.833 -101.5 -32.5s-38.5 -51.167 -38.5 -88.5zM334.001 413.998c0 19.333 6.66699 35 20 47s30.666 18 51.999 18c22 0 39.667 -6 53 -18s20 -27.667 20 -47
c0 -18.667 -6.66699 -33.834 -20 -45.501s-31 -17.5 -53 -17.5c-21.333 0 -38.666 5.83301 -51.999 17.5s-20 26.834 -20 45.501z" />
    <glyph glyph-name=".null" horiz-adv-x="0" 
 />
    <glyph glyph-name="nonmarkingreturn" horiz-adv-x="333" 
 />
    <glyph glyph-name="i.loclTRK" horiz-adv-x="271" 
d="M72 601v125h127v-125h-127zM76 0v524h120v-524h-120z" />
    <glyph glyph-name="zero.osf" 
d="M52 283c0 91.333 31.167 163 93.5 215s150.5 78 264.5 78s202.167 -26 264.5 -78s93.5 -123.667 93.5 -215s-31.167 -163 -93.5 -215s-150.5 -78 -264.5 -78s-202.167 26 -264.5 78s-93.5 123.667 -93.5 215zM170 283c0 -60 21.167 -108 63.5 -144
s101.166 -54 176.499 -54s134 18 176 54s63 84 63 144s-21 108 -63 144s-100.667 54 -176 54s-134.166 -18 -176.499 -54s-63.5 -84 -63.5 -144z" />
    <glyph glyph-name="one.osf" horiz-adv-x="660" 
d="M417 98h213v-98h-574v98h243v347l-210 -85v113l233 93h95v-468z" />
    <glyph glyph-name="two.osf" horiz-adv-x="715" 
d="M228 98l458.996 -0.000976562v-98h-665v91l392 198l49.5 25c11.667 6 24.834 14 39.501 24s25.334 20.167 32.001 30.5s10 21.166 10 32.499c0 25.333 -16 45 -48 59s-75 21 -129 21c-127.333 0 -197.666 -39 -210.999 -117l-113 9c8 67.333 41.333 118 100 152
s133.334 51 224.001 51c88.667 0 160 -14.333 214 -43s81 -69.667 81 -123c0 -35.333 -13.5 -67.166 -40.5 -95.499s-71.167 -56.166 -132.5 -83.499z" />
    <glyph glyph-name="three.osf" horiz-adv-x="750" 
d="M388 297c44.667 -0.666992 85.1719 -4.49902 121.505 -11.499s70.166 -17.833 101.499 -32.5s55.666 -35.667 72.999 -63s26 -60 26 -98c0 -73.333 -31.667 -128.833 -95 -166.5s-147.333 -56.5 -252 -56.5c-98.667 0 -177.834 17.167 -237.501 51.5
s-93.834 87.166 -102.501 158.499l115 8c13.333 -82 88.333 -123 225 -123c70.667 0 126.5 11.333 167.5 34s61.5 54 61.5 94c0 36.667 -18.833 66 -56.5 88s-93.834 33 -168.501 33c-46.667 0 -93.667 -3.33301 -141 -10v83l281 182h-439v98h616v-89z" />
    <glyph glyph-name="four.osf" horiz-adv-x="817" 
d="M636 121h148v-99h-148v-143h-118v143h-492v90l415 454h195v-445zM159 121h359v390z" />
    <glyph glyph-name="five.osf" horiz-adv-x="759" 
d="M411 335c92.667 0 167.166 -20.1641 223.499 -60.4971s84.5 -96.5 84.5 -168.5c0 -76 -31.5 -134.5 -94.5 -175.5s-146.167 -61.5 -249.5 -61.5c-94 0 -172.333 16.667 -235 50s-100 81.666 -112 144.999l117 8c10 -34.667 35.833 -61.334 77.5 -80.001
s92.5 -28 152.5 -28c66.667 0 120.834 12 162.501 36s62.5 59 62.5 105c0 45.333 -20.833 80.166 -62.5 104.499s-95.167 36.5 -160.5 36.5c-98.667 0 -172 -22.333 -220 -67l-106 9l42 378h573v-98h-483l-24 -207c60.667 49.333 144.667 74 252 74z" />
    <glyph glyph-name="six.osf" horiz-adv-x="806" 
d="M449 456c92.667 0 168.333 -20.167 227 -60.5s88 -96.833 88 -169.5c0 -74.667 -30.833 -133 -92.5 -175s-145.167 -63 -250.5 -63c-243.333 0 -365 117 -365 351c0 122 32.333 214.667 97 278s155 95 271 95c88.667 0 159.667 -17.167 213 -51.5
s83.666 -82.5 90.999 -144.5l-115 -6c-6 30.667 -25.667 56.167 -59 76.5s-76.666 30.5 -129.999 30.5c-77.333 0 -138 -23.167 -182 -69.5s-66 -112.5 -66 -198.5v-5c24 36.667 60 64.5 108 83.5s103 28.5 165 28.5zM419.999 83c68.667 0 123 12.833 163 38.5
s60 59.834 60 102.501s-20 76.834 -60 102.501s-94.333 38.5 -163 38.5s-123 -12.833 -163 -38.5s-60 -59.834 -60 -102.501s20 -76.834 60 -102.501s94.333 -38.5 163 -38.5z" />
    <glyph glyph-name="seven.osf" horiz-adv-x="726" 
d="M34 566h662v-83c-184 -190 -310 -391.333 -378 -604h-133c65.333 200 195 396.333 389 589h-540v98z" />
    <glyph glyph-name="eight.osf" horiz-adv-x="800" 
d="M543 366c67.333 -12.667 119.667 -34.334 157 -65.001s56 -69.334 56 -116.001c0 -63.333 -33.167 -112 -99.5 -146s-151.833 -51 -256.5 -51s-190.167 17 -256.5 51s-99.5 82.667 -99.5 146c0 46.667 19 85.334 57 116.001s91 52.334 159 65.001
c-60.667 12 -108 31.833 -142 59.5s-51 62.5 -51 104.5c0 40 15.167 74 45.5 102s70 48.333 119 61s105.167 19 168.5 19c97.333 0 177 -15.333 239 -46s93 -76 93 -136c0 -42.667 -16.5 -77.667 -49.5 -105s-79.5 -47 -139.5 -59zM185.001 514
c0 -33.333 19.667 -59.166 59 -77.499s91.333 -27.5 156 -27.5s116.667 9.16699 156 27.5s59 44.166 59 77.499s-19.5 58.833 -58.5 76.5s-91.167 26.5 -156.5 26.5s-117.5 -8.83301 -156.5 -26.5s-58.5 -43.167 -58.5 -76.5zM400.001 83c70 0 127.333 10.167 172 30.5
s67 48.833 67 85.5s-22.333 65.167 -67 85.5s-102 30.5 -172 30.5c-70.667 0 -128.167 -10.167 -172.5 -30.5s-66.5 -48.833 -66.5 -85.5s22.167 -65.167 66.5 -85.5s101.833 -30.5 172.5 -30.5z" />
    <glyph glyph-name="nine.osf" horiz-adv-x="807" 
d="M384 576c244.667 0 367.002 -114.332 367.002 -342.999c0 -121.333 -31.333 -212.333 -94 -273s-153.334 -91 -272.001 -91c-90 0 -161.5 16.5 -214.5 49.5s-83.833 80.167 -92.5 141.5l116 6c6 -30 25.667 -54.5 59 -73.5s77.333 -28.5 132 -28.5
c77.333 0 137.5 22.333 180.5 67s64.5 108.667 64.5 192v9c-23.333 -35.333 -59 -62 -107 -80s-103.667 -27 -167 -27c-92.667 0 -168.167 19.667 -226.5 59s-87.5 93.666 -87.5 162.999c0 71.333 30.667 127.333 92 168s144.666 61 249.999 61zM386.002 216.001
c68.667 0 122.834 12.167 162.501 36.5s59.5 56.5 59.5 96.5s-19.833 72 -59.5 96s-93.834 36 -162.501 36s-123 -12 -163 -36s-60 -56 -60 -96s20 -72.167 60 -96.5s94.333 -36.5 163 -36.5z" />
    <glyph glyph-name="zero.subs" horiz-adv-x="546" 
d="M52 99c0 69.333 19.833 124.166 59.5 164.499s93.5 60.5 161.5 60.5s121.833 -20.167 161.5 -60.5s59.5 -95.166 59.5 -164.499s-19.667 -124.166 -59 -164.499s-93.333 -60.5 -162 -60.5s-122.667 20.167 -162 60.5s-59 95.166 -59 164.499zM144 99
c0 -46.667 11.5 -83.5 34.5 -110.5s54.5 -40.5 94.5 -40.5c39.333 0 70.5 13.5 93.5 40.5s34.5 63.833 34.5 110.5c0 46 -11.5 82.5 -34.5 109.5s-54.167 40.5 -93.5 40.5c-40 0 -71.5 -13.5 -94.5 -40.5s-34.5 -63.5 -34.5 -109.5z" />
    <glyph glyph-name="one.subs" horiz-adv-x="336" 
d="M158 315h76v-431h-93v332l-100 -65v88z" />
    <glyph glyph-name="two.subs" horiz-adv-x="446" 
d="M155 -45l260.997 0.000976562v-74h-396v68l195 134c34.667 23.333 59.167 42.666 73.5 57.999s21.5 32 21.5 50c0 19.333 -7.66699 34 -23 44s-35.666 15 -60.999 15c-62 0 -96.333 -29.667 -103 -89l-90 7c4.66699 52.667 24.334 91.834 59.001 117.501
s79.334 38.5 134.001 38.5c51.333 0 93.5 -10.833 126.5 -32.5s49.5 -53.167 49.5 -94.5c0 -25.333 -8.5 -49.833 -25.5 -73.5s-47.167 -49.834 -90.5 -78.501z" />
    <glyph glyph-name="three.subs" horiz-adv-x="466" 
d="M249 144c54 -2 97.501 -13.335 130.501 -34.002s49.5 -52.667 49.5 -96c0 -45.333 -19.5 -79.5 -58.5 -102.5s-89.5 -34.5 -151.5 -34.5c-57.333 0 -104.333 11.333 -141 34s-58 56.334 -64 101.001l90 6c8 -44.667 46.333 -67 115 -67
c35.333 0 63.666 6.33301 84.999 19s32 30 32 52c0 20.667 -9.83301 37.334 -29.5 50.001s-48.167 19 -85.5 19c-27.333 0 -55 -2 -83 -6v50l157 106h-253v74h372v-66z" />
    <glyph glyph-name="four.subs" horiz-adv-x="530" 
d="M411 51h91v-74h-91v-93h-92v93h-295v68l247 270h140v-264zM116 51h203v221z" />
    <glyph glyph-name="five.subs" horiz-adv-x="492" 
d="M271 164c54.667 0 98.498 -11.334 131.498 -34.001s49.5 -56.667 49.5 -102c0 -48.667 -19.167 -86 -57.5 -112s-88.5 -39 -150.5 -39c-56 0 -103.167 10.667 -141.5 32s-61.166 52.333 -68.499 93l89 7c6 -19.333 20.167 -34.166 42.5 -44.499s48.5 -15.5 78.5 -15.5
c34 0 61.667 6.83301 83 20.5s32 32.834 32 57.501c0 25.333 -10.833 44.666 -32.5 57.999s-49.5 20 -83.5 20c-51.333 0 -89.333 -12.333 -114 -37l-82 7l24 240h350v-74h-280l-13 -120c34.667 28.667 82.334 43 143.001 43z" />
    <glyph glyph-name="six.subs" horiz-adv-x="528" 
d="M300 159c53.333 0 97.335 -11.665 132.002 -34.998s52 -57.333 52 -102c0 -46.667 -18.833 -83 -56.5 -109s-88.5 -39 -152.5 -39c-148.667 0 -223 73 -223 219c0 75.333 19.667 132.666 59 171.999s94.666 59 165.999 59c52 0 95 -10.833 129 -32.5
s53.333 -52.167 58 -91.5l-89 -5c-2.66699 16 -12.834 29.5 -30.501 40.5s-40.167 16.5 -67.5 16.5c-50 0 -86 -17.333 -108 -52c-15.333 -24.667 -23 -57.334 -23 -98.001c32 38 83.333 57 154 57zM275.002 -53.998c36.667 0 65.334 6.66699 86.001 20s31 31.666 31 54.999
s-10.333 41.666 -31 54.999s-49.334 20 -86.001 20c-36 0 -64.5 -6.66699 -85.5 -20s-31.5 -31.666 -31.5 -54.999s10.5 -41.666 31.5 -54.999s49.5 -20 85.5 -20z" />
    <glyph glyph-name="seven.subs" horiz-adv-x="431" 
d="M22 315h392v-62c-106.667 -121.333 -176 -244.333 -208 -369h-99c33.333 120 105.333 239 216 357h-301v74z" />
    <glyph glyph-name="eight.subs" horiz-adv-x="521" 
d="M354 109c82.667 -16.667 123.998 -54 123.998 -112c0 -40 -20.667 -70.5 -62 -91.5s-93.333 -31.5 -156 -31.5c-62 0 -113.833 10.5 -155.5 31.5s-62.5 51.5 -62.5 91.5c0 29.333 11.333 53.333 34 72s53.667 32 93 40c-75.333 16 -113 49.667 -113 101
c0 37.333 19.333 65.666 58 84.999s87.334 29 146.001 29s107.334 -9.66699 146.001 -29s58 -47.666 58 -84.999c0 -51.333 -36.667 -85 -110 -101zM146.998 198c0 -18.667 10.333 -33.167 31 -43.5s48 -15.5 82 -15.5c34.667 0 62.334 5.16699 83.001 15.5
s31 24.833 31 43.5c0 19.333 -10.333 34 -31 44s-48.334 15 -83.001 15s-62.167 -5 -82.5 -15s-30.5 -24.667 -30.5 -44zM259.998 -59c39.333 0 70.5 5.83301 93.5 17.5s34.5 27.834 34.5 48.501s-11.5 36.834 -34.5 48.501s-54.167 17.5 -93.5 17.5
c-38.667 0 -69.5 -5.83301 -92.5 -17.5s-34.5 -27.834 -34.5 -48.501s11.5 -36.834 34.5 -48.501s53.833 -17.5 92.5 -17.5z" />
    <glyph glyph-name="nine.subs" horiz-adv-x="528" 
d="M253 324c148.667 0 222.999 -72.998 222.999 -218.998c0 -76 -19.167 -133.5 -57.5 -172.5s-93.5 -58.5 -165.5 -58.5c-55.333 0 -99.5 10.667 -132.5 32s-51.833 52 -56.5 92l88 5c4 -16.667 14.833 -30.334 32.5 -41.001s40.5 -16 68.5 -16
c52.667 0 89.334 19 110.001 57c13.333 22.667 20 54.667 20 96c-30.667 -38.667 -82.667 -58 -156 -58c-52.667 0 -96.5 11.667 -131.5 35s-52.5 56.666 -52.5 99.999c0 46.667 19 83 57 109s89 39 153 39zM252.999 103.002c35.333 0 63.833 6.66699 85.5 20
s32.5 31.333 32.5 54s-10.833 40.834 -32.5 54.501s-50.167 20.5 -85.5 20.5s-63.833 -6.83301 -85.5 -20.5s-32.5 -31.834 -32.5 -54.501s10.833 -40.667 32.5 -54s50.167 -20 85.5 -20z" />
    <glyph glyph-name="zero.tf" horiz-adv-x="780" 
d="M49 350c0 112 30.667 200.333 92 265s144.333 97 249 97s187.667 -32.333 249 -97s92 -153 92 -265s-30.667 -200.333 -92 -265s-144.333 -97 -249 -97s-187.667 32.333 -249 97s-92 153 -92 265zM170 350c0 -80.667 19.5 -144.667 58.5 -192s92.833 -71 161.5 -71
s122.5 23.667 161.5 71s58.5 111.333 58.5 192s-19.5 144.667 -58.5 192s-92.833 71 -161.5 71s-122.5 -23.667 -161.5 -71s-58.5 -111.333 -58.5 -192z" />
    <glyph glyph-name="one.tf" horiz-adv-x="780" 
d="M485 99h244v-99h-651v99h286v474l-255 -125v116l280 136h96v-601z" />
    <glyph glyph-name="two.tf" horiz-adv-x="780" 
d="M248 99h449.999v-99h-633v91l379 270c34.667 24 61.834 47.5 81.501 70.5s29.5 49.167 29.5 78.5c0 34.667 -14.5 60.5 -43.5 77.5s-67.167 25.5 -114.5 25.5c-118 0 -183 -51 -195 -153l-116 8c8 82 39.667 143.167 95 183.5s127 60.5 215 60.5
c82.667 0 150 -16.833 202 -50.5s78 -81.5 78 -143.5c0 -40.667 -12.833 -78.5 -38.5 -113.5s-66.5 -71.833 -122.5 -110.5z" />
    <glyph glyph-name="three.tf" horiz-adv-x="780" 
d="M396 427c97.333 -1.33301 171.334 -20 222.001 -56s76 -87.333 76 -154c0 -75.333 -30.5 -132.333 -91.5 -171s-141.167 -58 -240.5 -58c-90.667 0 -164.5 17.667 -221.5 53s-90.167 88.333 -99.5 159l116 6c7.33301 -40 29.166 -69.833 65.499 -89.5
s82.833 -29.5 139.5 -29.5c63.333 0 114.333 11.333 153 34s58 54.667 58 96c0 38 -17.5 68.333 -52.5 91s-86.167 34 -153.5 34c-42 0 -86.667 -4 -134 -12v81l270 190h-420v99h586v-89z" />
    <glyph glyph-name="four.tf" horiz-adv-x="780" 
d="M612 256h140v-99h-140v-157h-121v157h-460v91l375 452h206v-444zM164 256h327v392z" />
    <glyph glyph-name="five.tf" horiz-adv-x="780" 
d="M432 467c86.667 0 156.833 -20.499 210.5 -61.499s80.5 -98.833 80.5 -173.5c0 -78 -29.833 -138.167 -89.5 -180.5s-138.834 -63.5 -237.501 -63.5c-88.667 0 -162.5 17 -221.5 51s-94.833 82.667 -107.5 146l120 7c10.667 -34.667 34.334 -60.834 71.001 -78.501
s81.667 -26.5 135 -26.5c62 0 112.333 12.5 151 37.5s58 61.167 58 108.5c0 46 -19.333 81.167 -58 105.5s-87.667 36.5 -147 36.5c-90.667 0 -158.334 -23.333 -203.001 -70l-105 10l38 385h98h448v-99h-458l-22 -216c56.667 54.667 136.334 82 239.001 82z" />
    <glyph glyph-name="six.tf" horiz-adv-x="780" 
d="M438 457c87.333 0 158.668 -20.333 214.001 -61s83 -97.334 83 -170.001c0 -74 -29.333 -132.167 -88 -174.5s-137.667 -63.5 -237 -63.5c-231.333 0 -347 117 -347 351c0 122 30.833 214.667 92.5 278s147.167 95 256.5 95c84 0 151.5 -17.167 202.5 -51.5
s80.167 -82.5 87.5 -144.5l-117 -6c-5.33301 30 -23.333 54.667 -54 74s-70.334 29 -119.001 29c-71.333 0 -127.333 -22.667 -168 -68s-61 -110.666 -61 -195.999v-2c22.667 36 56.667 63.333 102 82s96.333 28 153 28zM408.002 87c62.667 0 112.667 12.5 150 37.5
s56 58.833 56 101.5c0 41.333 -18.667 74.666 -56 99.999s-87.333 38 -150 38c-61.333 0 -110.833 -12.667 -148.5 -38s-56.5 -58.666 -56.5 -99.999c0 -42 18.667 -75.667 56 -101s87 -38 149 -38z" />
    <glyph glyph-name="seven.tf" horiz-adv-x="780" 
d="M72 700h629v-84c-178 -200.667 -295.667 -406 -353 -616h-133c62.667 210 181 410.333 355 601h-498v99z" />
    </font>
</defs>
</svg>
