<svg width="41" height="49" viewBox="0 0 41 49" fill="none" xmlns="http://www.w3.org/2000/svg">
<mask id="mask0_1317_7867" style="mask-type:alpha" maskUnits="userSpaceOnUse" x="0" y="0" width="41" height="49">
<path fill-rule="evenodd" clip-rule="evenodd" d="M0 0H40.2855V48.3318H0V0Z" fill="white"/>
</mask>
<g mask="url(#mask0_1317_7867)">
<path fill-rule="evenodd" clip-rule="evenodd" d="M20.1436 3.56067C18.1302 3.56067 5.42727 8.03399 3.96228 9.25679C3.53015 9.6913 3.51353 10.4464 3.60613 15.5014C3.64887 17.9375 3.70823 21.2474 3.70823 25.8299C3.70823 38.179 17.2944 43.6615 20.1413 44.6706C22.9858 43.6567 36.579 38.1434 36.579 25.8299C36.579 21.2426 36.6384 17.9304 36.6835 15.4943C36.7737 10.444 36.7571 9.68893 36.2989 9.23305C34.8624 8.03399 22.1571 3.56067 20.1436 3.56067ZM20.1428 48.3318C19.9695 48.3318 19.7961 48.308 19.6276 48.2558C18.8321 48.016 0.145821 42.1703 0.145821 25.8298C0.145821 21.2782 0.0864617 17.9849 0.043723 15.5678C-0.0654982 9.52976 -0.089242 8.27134 1.47072 6.71375C3.3346 4.84512 17.4503 -0.000976562 20.1428 -0.000976562C22.833 -0.000976562 36.9486 4.84512 38.8172 6.71375C40.3748 8.27134 40.3511 9.52976 40.2419 15.5607C40.1991 17.9778 40.1398 21.271 40.1398 25.8298C40.1398 42.1703 21.4534 48.016 20.658 48.2558C20.4895 48.308 20.3161 48.3318 20.1428 48.3318Z" fill="url(#paint0_linear_1317_7867)"/>
</g>
<path fill-rule="evenodd" clip-rule="evenodd" d="M18.4662 29.7251C17.9937 29.7251 17.5402 29.5375 17.2054 29.2027L12.7131 24.7056C12.0197 24.01 12.0197 22.8798 12.7154 22.1864C13.4087 21.4907 14.5389 21.4907 15.2346 22.1864L18.4662 25.4227L26.463 17.4258C27.1587 16.7301 28.2842 16.7301 28.9799 17.4258C29.6756 18.1215 29.6756 19.2493 28.9799 19.945L19.7246 29.2027C19.3922 29.5375 18.9387 29.7251 18.4662 29.7251Z" fill="black"/>
<defs>
<linearGradient id="paint0_linear_1317_7867" x1="0.00356801" y1="48.1602" x2="47.6513" y2="39.1863" gradientUnits="userSpaceOnUse">
<stop offset="0.34375" stop-color="#6D879C"/>
<stop offset="0.6875" stop-color="#A9C1D5"/>
<stop offset="0.927083" stop-color="#6D879C"/>
</linearGradient>
</defs>
</svg>
