<svg width="42" height="42" viewBox="0 0 42 42" fill="none" xmlns="http://www.w3.org/2000/svg">
<path d="M20.0223 1.55306C20.2485 0.49966 21.7515 0.499663 21.9777 1.55306L25.1069 16.1253C25.1895 16.51 25.49 16.8105 25.8747 16.8931L40.4469 20.0223C41.5003 20.2485 41.5003 21.7515 40.4469 21.9777L25.8747 25.1069C25.49 25.1895 25.1895 25.49 25.1069 25.8747L21.9777 40.4469C21.7515 41.5003 20.2485 41.5003 20.0223 40.4469L16.8931 25.8747C16.8105 25.49 16.51 25.1895 16.1253 25.1069L1.55306 21.9777C0.49966 21.7515 0.499663 20.2485 1.55306 20.0223L16.1253 16.8931C16.51 16.8105 16.8105 16.51 16.8931 16.1253L20.0223 1.55306Z" fill="white"/>
</svg>
