<svg width="18" height="21" viewBox="0 0 18 21" fill="none" xmlns="http://www.w3.org/2000/svg">
<mask id="mask0_1835_565" style="mask-type:alpha" maskUnits="userSpaceOnUse" x="0" y="0" width="18" height="21">
<path fill-rule="evenodd" clip-rule="evenodd" d="M0.5 0.000396729H17.4668V20.356H0.5V0.000396729Z" fill="white"/>
</mask>
<g mask="url(#mask0_1835_565)">
<path fill-rule="evenodd" clip-rule="evenodd" d="M8.98341 1.5C8.13541 1.5 2.78541 3.384 2.16841 3.899C1.98641 4.082 1.97941 4.4 2.01841 6.529C2.03641 7.555 2.06141 8.949 2.06141 10.879C2.06141 16.08 7.78341 18.389 8.98241 18.814C10.1804 18.387 15.9054 16.065 15.9054 10.879C15.9054 8.947 15.9304 7.552 15.9494 6.526C15.9874 4.399 15.9804 4.081 15.7874 3.889C15.1824 3.384 9.83142 1.5 8.98341 1.5ZM8.98341 20.356C8.91041 20.356 8.83741 20.346 8.76641 20.324C8.43141 20.223 0.561415 17.761 0.561415 10.879C0.561415 8.962 0.536415 7.575 0.518415 6.557C0.472415 4.014 0.462415 3.484 1.11941 2.828C1.90441 2.041 7.84941 0 8.98341 0C10.1164 0 16.0614 2.041 16.8484 2.828C17.5044 3.484 17.4944 4.014 17.4484 6.554C17.4304 7.572 17.4054 8.959 17.4054 10.879C17.4054 17.761 9.53541 20.223 9.20041 20.324C9.12941 20.346 9.05641 20.356 8.98341 20.356Z" fill="white"/>
</g>
<path fill-rule="evenodd" clip-rule="evenodd" d="M8.27664 12.5195C8.07764 12.5195 7.88664 12.4405 7.74564 12.2995L5.85364 10.4055C5.56164 10.1125 5.56164 9.6365 5.85464 9.3445C6.14664 9.0515 6.62264 9.0515 6.91564 9.3445L8.27664 10.7075L11.6446 7.3395C11.9376 7.0465 12.4116 7.0465 12.7046 7.3395C12.9976 7.6325 12.9976 8.1075 12.7046 8.4005L8.80664 12.2995C8.66664 12.4405 8.47564 12.5195 8.27664 12.5195Z" fill="white"/>
</svg>
