<svg width="32" height="32" viewBox="0 0 32 32" fill="none" xmlns="http://www.w3.org/2000/svg">
<path d="M13.5218 20.416L21.2018 20.416L21.2018 22L10.5298 22V20.544L17.0098 16.208C17.6178 15.824 18.0818 15.456 18.4018 15.104C18.7325 14.752 18.8978 14.3413 18.8978 13.872C18.8978 13.3067 18.6418 12.8853 18.1298 12.608C17.6285 12.3307 16.9618 12.192 16.1298 12.192C14.0818 12.192 12.9511 13.008 12.7378 14.64L10.8818 14.512C11.0098 13.2 11.5431 12.224 12.4818 11.584C13.4311 10.9333 14.6471 10.608 16.1298 10.608C17.5271 10.608 18.6578 10.88 19.5218 11.424C20.3858 11.968 20.8178 12.7467 20.8178 13.76C20.8178 14.4213 20.6045 15.024 20.1778 15.568C19.7511 16.112 19.0631 16.6773 18.1138 17.264L13.5218 20.416Z" fill="black"/>
<rect x="1" y="1" width="30" height="30" rx="15" stroke="#A5A5A5" stroke-width="2"/>
</svg>
