<svg width="24" height="24" viewBox="0 0 24 24" fill="none" xmlns="http://www.w3.org/2000/svg">
<g id="Iconly/Search">
<path id="Union" fill-rule="evenodd" clip-rule="evenodd" d="M3.36768 11.3772C3.36768 6.83416 7.06368 3.13916 11.6067 3.13916C16.1487 3.13916 19.8447 6.83416 19.8447 11.3772C19.8447 15.9202 16.1487 19.6162 11.6067 19.6162C7.06368 19.6162 3.36768 15.9202 3.36768 11.3772ZM1.86768 11.3772C1.86768 16.7472 6.23668 21.1162 11.6067 21.1162C13.9033 21.1162 16.0167 20.317 17.6835 18.9822L20.8522 22.1419C20.9992 22.2879 21.1912 22.3609 21.3822 22.3609C21.5742 22.3609 21.7672 22.2879 21.9132 22.1399C22.2062 21.8469 22.2052 21.3729 21.9122 21.0799L18.7806 17.9564C20.3721 16.2221 21.3447 13.9111 21.3447 11.3772C21.3447 6.00716 16.9767 1.63916 11.6067 1.63916C6.23668 1.63916 1.86768 6.00716 1.86768 11.3772Z" fill="black" fill-opacity="0.38"/>
</g>
</svg>
