<svg width="337" height="39" viewBox="0 0 337 39" fill="none" xmlns="http://www.w3.org/2000/svg">
<path fill-rule="evenodd" clip-rule="evenodd" d="M9 0.476562C4.02944 0.476562 0 4.50612 0 9.47668C0 10.029 0.447714 10.4767 0.999999 10.4767H53C57.9706 10.4767 62 6.44714 62 1.47658C62 0.924291 61.5523 0.476562 61 0.476562H9ZM76.04 0.476562C71.0695 0.476562 67.04 4.50612 67.04 9.47668C67.04 10.029 67.4878 10.4767 68.04 10.4767H120C124.97 10.4767 129 6.44714 129 1.47658C129 0.924291 128.552 0.476562 128 0.476562H76.04Z" fill="url(#paint0_linear_1551_5175)"/>
<path fill-rule="evenodd" clip-rule="evenodd" d="M1 28.4766C0.447715 28.4766 0 28.9243 0 29.4766C0 34.4471 4.02944 38.4766 9 38.4766H67.6114C67.7319 38.5306 67.8656 38.5607 68.0063 38.5607C70.1419 38.5607 72.0978 37.7908 73.6114 36.5135C75.6768 34.8643 77 32.325 77 29.4766C77 28.9243 76.5523 28.4766 76 28.4766H1Z" fill="url(#paint1_linear_1551_5175)"/>
<path opacity="0.9" fill-rule="evenodd" clip-rule="evenodd" d="M5 14.4766C2.23858 14.4766 0 16.7151 0 19.4766V23.4766C0 24.0288 0.447715 24.4766 1 24.4766H19C23.9706 24.4766 28 20.4471 28 15.4766C28 14.9243 27.5523 14.4766 27 14.4766H5ZM72 14.4766C69.2386 14.4766 67 16.7151 67 19.4766V23.56C67 24.1123 67.4477 24.56 68 24.56H86.3429C91.3134 24.56 95.3429 20.4555 95.3429 15.4849C95.3429 14.9326 94.8952 14.4766 94.3429 14.4766H72Z" fill="url(#paint2_linear_1551_5175)"/>
<path d="M157.598 5.63855C157.598 4.83855 157.511 4.20522 157.338 3.73855C157.165 3.27189 156.879 2.91855 156.48 2.67855C156.081 2.43855 155.555 2.28522 154.903 2.21855C154.258 2.15189 153.456 2.11855 152.498 2.11855H148.016C147.165 2.11855 146.446 2.14522 145.86 2.19855C145.282 2.24522 144.802 2.34522 144.423 2.49855C144.044 2.65189 143.751 2.87189 143.545 3.15855C143.339 3.44522 143.189 3.82522 143.096 4.29855C143.003 4.77189 142.949 5.35522 142.936 6.04855C142.923 6.73522 142.916 7.55855 142.916 8.51855C142.916 9.47855 142.923 10.3052 142.936 10.9986C142.956 11.6852 143.013 12.2652 143.106 12.7386C143.199 13.2119 143.345 13.5919 143.545 13.8786C143.751 14.1652 144.044 14.3852 144.423 14.5386C144.802 14.6919 145.282 14.7952 145.86 14.8486C146.446 14.8952 147.165 14.9186 148.016 14.9186H152.498C153.243 14.9186 153.885 14.8986 154.424 14.8586C154.963 14.8186 155.422 14.7452 155.801 14.6386C156.181 14.5319 156.487 14.3852 156.72 14.1986C156.952 14.0119 157.132 13.7786 157.259 13.4986C157.392 13.2119 157.481 12.8719 157.528 12.4786C157.575 12.0786 157.598 11.6119 157.598 11.0786H159.514C159.514 11.7186 159.474 12.2986 159.394 12.8186C159.315 13.3319 159.172 13.7919 158.965 14.1986C158.766 14.5986 158.496 14.9452 158.157 15.2386C157.817 15.5319 157.388 15.7752 156.869 15.9686C156.35 16.1552 155.731 16.2919 155.013 16.3786C154.294 16.4719 153.456 16.5186 152.498 16.5186H148.016C146.845 16.5186 145.857 16.4452 145.052 16.2986C144.254 16.1586 143.595 15.9452 143.076 15.6586C142.557 15.3652 142.154 14.9986 141.868 14.5586C141.589 14.1186 141.382 13.6019 141.249 13.0086C141.123 12.4152 141.05 11.7452 141.03 10.9986C141.01 10.2519 141 9.42522 141 8.51855C141 7.61189 141.01 6.78522 141.03 6.03855C141.05 5.29189 141.123 4.62189 141.249 4.02855C141.382 3.43522 141.589 2.91855 141.868 2.47855C142.154 2.03855 142.557 1.67522 143.076 1.38855C143.595 1.09522 144.254 0.878555 145.052 0.738555C145.857 0.591888 146.845 0.518555 148.016 0.518555H152.498C153.456 0.518555 154.294 0.565221 155.013 0.658555C155.731 0.745221 156.35 0.881888 156.869 1.06855C157.388 1.24855 157.817 1.47855 158.157 1.75855C158.496 2.03855 158.766 2.36855 158.965 2.74855C159.172 3.12855 159.315 3.55855 159.394 4.03855C159.474 4.51855 159.514 5.05189 159.514 5.63855H157.598Z" fill="url(#paint3_linear_1551_5175)"/>
<path d="M174.946 0.518555C176.118 0.518555 177.102 0.591888 177.901 0.738555C178.706 0.878555 179.368 1.09522 179.887 1.38855C180.406 1.67522 180.805 2.03855 181.085 2.47855C181.364 2.91855 181.567 3.43522 181.694 4.02855C181.827 4.62189 181.903 5.29189 181.923 6.03855C181.95 6.78522 181.963 7.61189 181.963 8.51855C181.963 9.42522 181.95 10.2519 181.923 10.9986C181.903 11.7452 181.827 12.4152 181.694 13.0086C181.567 13.6019 181.364 14.1186 181.085 14.5586C180.805 14.9986 180.406 15.3652 179.887 15.6586C179.368 15.9452 178.706 16.1586 177.901 16.2986C177.102 16.4452 176.118 16.5186 174.946 16.5186H169.178C168.006 16.5186 167.018 16.4452 166.213 16.2986C165.415 16.1586 164.756 15.9452 164.237 15.6586C163.718 15.3652 163.315 14.9986 163.029 14.5586C162.75 14.1186 162.544 13.6019 162.411 13.0086C162.284 12.4152 162.211 11.7452 162.191 10.9986C162.171 10.2519 162.161 9.42522 162.161 8.51855C162.161 7.61189 162.171 6.78522 162.191 6.03855C162.211 5.29189 162.284 4.62189 162.411 4.02855C162.544 3.43522 162.75 2.91855 163.029 2.47855C163.315 2.03855 163.718 1.67522 164.237 1.38855C164.756 1.09522 165.415 0.878555 166.213 0.738555C167.018 0.591888 168.006 0.518555 169.178 0.518555H174.946ZM174.946 14.9186C175.792 14.9186 176.503 14.8952 177.082 14.8486C177.668 14.7952 178.15 14.6919 178.53 14.5386C178.909 14.3852 179.202 14.1652 179.408 13.8786C179.614 13.5919 179.764 13.2119 179.857 12.7386C179.95 12.2652 180.003 11.6852 180.017 10.9986C180.037 10.3052 180.047 9.47855 180.047 8.51855C180.047 7.55855 180.037 6.73522 180.017 6.04855C180.003 5.35522 179.95 4.77189 179.857 4.29855C179.764 3.82522 179.614 3.44522 179.408 3.15855C179.202 2.87189 178.909 2.65189 178.53 2.49855C178.157 2.34522 177.678 2.24522 177.092 2.19855C176.513 2.14522 175.798 2.11855 174.946 2.11855H169.178C168.326 2.11855 167.607 2.14522 167.022 2.19855C166.443 2.24522 165.964 2.34522 165.584 2.49855C165.205 2.65189 164.912 2.87189 164.706 3.15855C164.5 3.44522 164.35 3.82522 164.257 4.29855C164.164 4.77189 164.111 5.35522 164.097 6.04855C164.084 6.73522 164.077 7.55855 164.077 8.51855C164.077 9.47855 164.084 10.3052 164.097 10.9986C164.117 11.6852 164.174 12.2652 164.267 12.7386C164.36 13.2119 164.507 13.5919 164.706 13.8786C164.912 14.1652 165.205 14.3852 165.584 14.5386C165.964 14.6919 166.443 14.7952 167.022 14.8486C167.607 14.8952 168.326 14.9186 169.178 14.9186H174.946Z" fill="url(#paint4_linear_1551_5175)"/>
<path d="M187.155 16.1986H185.239V0.838555H188.602L202.655 14.2786V0.838555H204.571V16.1986H202.016L187.155 2.43855V16.1986Z" fill="url(#paint5_linear_1551_5175)"/>
<path d="M223.507 12.6786H211.37L209.454 16.1986H207.218L216.161 0.838555H218.716L227.659 16.1986H225.423L223.507 12.6786ZM222.549 11.0786L217.439 2.11855L212.328 11.0786H222.549Z" fill="url(#paint6_linear_1551_5175)"/>
<path d="M141 38.1986V22.8386H155.692V24.4386H142.916V29.5586H155.053V31.1586H142.916V38.1986H141Z" fill="url(#paint7_linear_1551_5175)"/>
<path d="M170.475 22.5186C171.646 22.5186 172.631 22.5919 173.429 22.7386C174.234 22.8786 174.897 23.0952 175.416 23.3886C175.935 23.6752 176.334 24.0386 176.613 24.4786C176.893 24.9186 177.096 25.4352 177.222 26.0286C177.355 26.6219 177.432 27.2919 177.452 28.0386C177.478 28.7852 177.492 29.6119 177.492 30.5186C177.492 31.4252 177.478 32.2519 177.452 32.9986C177.432 33.7452 177.355 34.4152 177.222 35.0086C177.096 35.6019 176.893 36.1186 176.613 36.5586C176.334 36.9986 175.935 37.3652 175.416 37.6586C174.897 37.9452 174.234 38.1586 173.429 38.2986C172.631 38.4452 171.646 38.5186 170.475 38.5186H164.706C163.535 38.5186 162.547 38.4452 161.742 38.2986C160.943 38.1586 160.285 37.9452 159.766 37.6586C159.247 37.3652 158.844 36.9986 158.558 36.5586C158.278 36.1186 158.072 35.6019 157.939 35.0086C157.813 34.4152 157.74 33.7452 157.72 32.9986C157.7 32.2519 157.69 31.4252 157.69 30.5186C157.69 29.6119 157.7 28.7852 157.72 28.0386C157.74 27.2919 157.813 26.6219 157.939 26.0286C158.072 25.4352 158.278 24.9186 158.558 24.4786C158.844 24.0386 159.247 23.6752 159.766 23.3886C160.285 23.0952 160.943 22.8786 161.742 22.7386C162.547 22.5919 163.535 22.5186 164.706 22.5186H170.475ZM170.475 36.9186C171.32 36.9186 172.032 36.8952 172.611 36.8486C173.196 36.7952 173.679 36.6919 174.058 36.5386C174.437 36.3852 174.73 36.1652 174.936 35.8786C175.143 35.5919 175.292 35.2119 175.386 34.7386C175.479 34.2652 175.532 33.6852 175.545 32.9986C175.565 32.3052 175.575 31.4786 175.575 30.5186C175.575 29.5586 175.565 28.7352 175.545 28.0486C175.532 27.3552 175.479 26.7719 175.386 26.2986C175.292 25.8252 175.143 25.4452 174.936 25.1586C174.73 24.8719 174.437 24.6519 174.058 24.4986C173.686 24.3452 173.206 24.2452 172.621 24.1986C172.042 24.1452 171.327 24.1186 170.475 24.1186H164.706C163.854 24.1186 163.136 24.1452 162.55 24.1986C161.971 24.2452 161.492 24.3452 161.113 24.4986C160.734 24.6519 160.441 24.8719 160.235 25.1586C160.028 25.4452 159.879 25.8252 159.786 26.2986C159.692 26.7719 159.639 27.3552 159.626 28.0486C159.613 28.7352 159.606 29.5586 159.606 30.5186C159.606 31.4786 159.613 32.3052 159.626 32.9986C159.646 33.6852 159.702 34.2652 159.796 34.7386C159.889 35.2119 160.035 35.5919 160.235 35.8786C160.441 36.1652 160.734 36.3852 161.113 36.5386C161.492 36.6919 161.971 36.7952 162.55 36.8486C163.136 36.8952 163.854 36.9186 164.706 36.9186H170.475Z" fill="url(#paint8_linear_1551_5175)"/>
<path d="M198.663 22.8386V30.5186C198.663 31.4252 198.65 32.2519 198.623 32.9986C198.603 33.7452 198.526 34.4152 198.393 35.0086C198.267 35.6019 198.064 36.1186 197.785 36.5586C197.505 36.9986 197.106 37.3652 196.587 37.6586C196.068 37.9452 195.406 38.1586 194.601 38.2986C193.802 38.4452 192.817 38.5186 191.646 38.5186H187.155C185.984 38.5186 184.996 38.4452 184.191 38.2986C183.392 38.1586 182.733 37.9452 182.214 37.6586C181.695 37.3652 181.293 36.9986 181.007 36.5586C180.727 36.1186 180.521 35.6019 180.388 35.0086C180.261 34.4152 180.188 33.7452 180.168 32.9986C180.148 32.2519 180.138 31.4252 180.138 30.5186V22.8386H182.055V30.5186C182.055 31.4786 182.061 32.3052 182.075 32.9986C182.095 33.6852 182.151 34.2652 182.244 34.7386C182.338 35.2119 182.484 35.5919 182.684 35.8786C182.89 36.1652 183.183 36.3852 183.562 36.5386C183.941 36.6919 184.42 36.7952 184.999 36.8486C185.585 36.8952 186.303 36.9186 187.155 36.9186H191.646C192.491 36.9186 193.207 36.8952 193.792 36.8486C194.378 36.7952 194.857 36.6919 195.229 36.5386C195.609 36.3852 195.901 36.1652 196.108 35.8786C196.314 35.5919 196.464 35.2119 196.557 34.7386C196.657 34.2652 196.713 33.6852 196.727 32.9986C196.74 32.3052 196.746 31.4786 196.746 30.5186L196.737 22.8386H198.663Z" fill="url(#paint9_linear_1551_5175)"/>
<path d="M203.865 38.1986H201.948V22.8386H205.312L219.365 36.2786V22.8386H221.281V38.1986H218.726L203.865 24.4386V38.1986Z" fill="url(#paint10_linear_1551_5175)"/>
<path d="M236.694 36.5986C237.539 36.5986 238.254 36.5752 238.839 36.5286C239.425 36.4819 239.907 36.3886 240.287 36.2486C240.666 36.1019 240.959 35.8919 241.165 35.6186C241.371 35.3452 241.521 34.9852 241.614 34.5386C241.714 34.0852 241.771 33.5319 241.784 32.8786C241.804 32.2186 241.814 31.4319 241.814 30.5186C241.814 29.6052 241.804 28.8219 241.784 28.1686C241.771 27.5086 241.714 26.9552 241.614 26.5086C241.521 26.0552 241.371 25.6919 241.165 25.4186C240.959 25.1452 240.666 24.9386 240.287 24.7986C239.907 24.6519 239.425 24.5552 238.839 24.5086C238.261 24.4619 237.545 24.4386 236.694 24.4386H227.122V36.5986H236.694ZM225.206 38.1986V22.8386H236.694C237.865 22.8386 238.849 22.9086 239.648 23.0486C240.453 23.1819 241.115 23.3886 241.634 23.6686C242.16 23.9486 242.562 24.2986 242.842 24.7186C243.128 25.1386 243.334 25.6352 243.461 26.2086C243.594 26.7752 243.67 27.4186 243.69 28.1386C243.717 28.8519 243.73 29.6452 243.73 30.5186C243.73 31.3919 243.717 32.1886 243.69 32.9086C243.67 33.6219 243.594 34.2652 243.461 34.8386C243.334 35.4052 243.128 35.8986 242.842 36.3186C242.562 36.7386 242.16 37.0886 241.634 37.3686C241.115 37.6486 240.453 37.8586 239.648 37.9986C238.849 38.1319 237.865 38.1986 236.694 38.1986H225.206Z" fill="url(#paint11_linear_1551_5175)"/>
<path d="M262.017 34.6786H249.88L247.964 38.1986H245.728L254.671 22.8386H257.226L266.169 38.1986H263.933L262.017 34.6786ZM261.059 33.0786L255.949 24.1186L250.838 33.0786H261.059Z" fill="url(#paint12_linear_1551_5175)"/>
<path d="M285.414 22.8386V24.4386H277.749V38.1986H275.832V24.4386H268.167V22.8386H285.414Z" fill="url(#paint13_linear_1551_5175)"/>
<path d="M288.689 22.8386H290.606V38.1986H288.689V22.8386Z" fill="url(#paint14_linear_1551_5175)"/>
<path d="M306.667 22.5186C307.838 22.5186 308.823 22.5919 309.621 22.7386C310.426 22.8786 311.088 23.0952 311.607 23.3886C312.126 23.6752 312.526 24.0386 312.805 24.4786C313.085 24.9186 313.287 25.4352 313.414 26.0286C313.547 26.6219 313.623 27.2919 313.643 28.0386C313.67 28.7852 313.683 29.6119 313.683 30.5186C313.683 31.4252 313.67 32.2519 313.643 32.9986C313.623 33.7452 313.547 34.4152 313.414 35.0086C313.287 35.6019 313.085 36.1186 312.805 36.5586C312.526 36.9986 312.126 37.3652 311.607 37.6586C311.088 37.9452 310.426 38.1586 309.621 38.2986C308.823 38.4452 307.838 38.5186 306.667 38.5186H300.898C299.727 38.5186 298.739 38.4452 297.934 38.2986C297.135 38.1586 296.476 37.9452 295.957 37.6586C295.438 37.3652 295.036 36.9986 294.75 36.5586C294.47 36.1186 294.264 35.6019 294.131 35.0086C294.005 34.4152 293.931 33.7452 293.911 32.9986C293.891 32.2519 293.881 31.4252 293.881 30.5186C293.881 29.6119 293.891 28.7852 293.911 28.0386C293.931 27.2919 294.005 26.6219 294.131 26.0286C294.264 25.4352 294.47 24.9186 294.75 24.4786C295.036 24.0386 295.438 23.6752 295.957 23.3886C296.476 23.0952 297.135 22.8786 297.934 22.7386C298.739 22.5919 299.727 22.5186 300.898 22.5186H306.667ZM306.667 36.9186C307.512 36.9186 308.224 36.8952 308.803 36.8486C309.388 36.7952 309.871 36.6919 310.25 36.5386C310.629 36.3852 310.922 36.1652 311.128 35.8786C311.335 35.5919 311.484 35.2119 311.577 34.7386C311.671 34.2652 311.724 33.6852 311.737 32.9986C311.757 32.3052 311.767 31.4786 311.767 30.5186C311.767 29.5586 311.757 28.7352 311.737 28.0486C311.724 27.3552 311.671 26.7719 311.577 26.2986C311.484 25.8252 311.335 25.4452 311.128 25.1586C310.922 24.8719 310.629 24.6519 310.25 24.4986C309.877 24.3452 309.398 24.2452 308.813 24.1986C308.234 24.1452 307.519 24.1186 306.667 24.1186H300.898C300.046 24.1186 299.328 24.1452 298.742 24.1986C298.163 24.2452 297.684 24.3452 297.305 24.4986C296.926 24.6519 296.633 24.8719 296.427 25.1586C296.22 25.4452 296.071 25.8252 295.977 26.2986C295.884 26.7719 295.831 27.3552 295.818 28.0486C295.804 28.7352 295.798 29.5586 295.798 30.5186C295.798 31.4786 295.804 32.3052 295.818 32.9986C295.838 33.6852 295.894 34.2652 295.987 34.7386C296.081 35.2119 296.227 35.5919 296.427 35.8786C296.633 36.1652 296.926 36.3852 297.305 36.5386C297.684 36.6919 298.163 36.7952 298.742 36.8486C299.328 36.8952 300.046 36.9186 300.898 36.9186H306.667Z" fill="url(#paint15_linear_1551_5175)"/>
<path d="M318.875 38.1986H316.959V22.8386H320.323L334.376 36.2786V22.8386H336.292V38.1986H333.737L318.875 24.4386V38.1986Z" fill="url(#paint16_linear_1551_5175)"/>
<defs>
<linearGradient id="paint0_linear_1551_5175" x1="0.0114252" y1="10.4412" x2="16.6482" y2="-38.0521" gradientUnits="userSpaceOnUse">
<stop offset="0.34375" stop-color="#6D879C"/>
<stop offset="0.6875" stop-color="#A9C1D5"/>
<stop offset="0.927083" stop-color="#6D879C"/>
</linearGradient>
<linearGradient id="paint1_linear_1551_5175" x1="-1.14739e-06" y1="38.5607" x2="46.6292" y2="-4.44965" gradientUnits="userSpaceOnUse">
<stop stop-color="#E5E5E5"/>
<stop offset="0.703125" stop-color="#ECECEC"/>
<stop offset="1" stop-color="#E5E5E5"/>
</linearGradient>
<linearGradient id="paint2_linear_1551_5175" x1="-1.42072e-06" y1="24.56" x2="46.368" y2="-28.4013" gradientUnits="userSpaceOnUse">
<stop stop-color="#E5E5E5"/>
<stop offset="0.703125" stop-color="#ECECEC"/>
<stop offset="1" stop-color="#E5E5E5"/>
</linearGradient>
<linearGradient id="paint3_linear_1551_5175" x1="141.007" y1="16.4618" x2="183.498" y2="-35.5397" gradientUnits="userSpaceOnUse">
<stop offset="0.34375" stop-color="#6D879C"/>
<stop offset="0.6875" stop-color="#A9C1D5"/>
<stop offset="0.927083" stop-color="#6D879C"/>
</linearGradient>
<linearGradient id="paint4_linear_1551_5175" x1="141.007" y1="16.4618" x2="183.498" y2="-35.5397" gradientUnits="userSpaceOnUse">
<stop offset="0.34375" stop-color="#6D879C"/>
<stop offset="0.6875" stop-color="#A9C1D5"/>
<stop offset="0.927083" stop-color="#6D879C"/>
</linearGradient>
<linearGradient id="paint5_linear_1551_5175" x1="141.007" y1="16.4618" x2="183.498" y2="-35.5397" gradientUnits="userSpaceOnUse">
<stop offset="0.34375" stop-color="#6D879C"/>
<stop offset="0.6875" stop-color="#A9C1D5"/>
<stop offset="0.927083" stop-color="#6D879C"/>
</linearGradient>
<linearGradient id="paint6_linear_1551_5175" x1="141.007" y1="16.4618" x2="183.498" y2="-35.5397" gradientUnits="userSpaceOnUse">
<stop offset="0.34375" stop-color="#6D879C"/>
<stop offset="0.6875" stop-color="#A9C1D5"/>
<stop offset="0.927083" stop-color="#6D879C"/>
</linearGradient>
<linearGradient id="paint7_linear_1551_5175" x1="141.017" y1="38.4618" x2="168.807" y2="-38.1825" gradientUnits="userSpaceOnUse">
<stop offset="0.34375" stop-color="#6D879C"/>
<stop offset="0.6875" stop-color="#A9C1D5"/>
<stop offset="0.927083" stop-color="#6D879C"/>
</linearGradient>
<linearGradient id="paint8_linear_1551_5175" x1="141.017" y1="38.4618" x2="168.807" y2="-38.1825" gradientUnits="userSpaceOnUse">
<stop offset="0.34375" stop-color="#6D879C"/>
<stop offset="0.6875" stop-color="#A9C1D5"/>
<stop offset="0.927083" stop-color="#6D879C"/>
</linearGradient>
<linearGradient id="paint9_linear_1551_5175" x1="141.017" y1="38.4618" x2="168.807" y2="-38.1825" gradientUnits="userSpaceOnUse">
<stop offset="0.34375" stop-color="#6D879C"/>
<stop offset="0.6875" stop-color="#A9C1D5"/>
<stop offset="0.927083" stop-color="#6D879C"/>
</linearGradient>
<linearGradient id="paint10_linear_1551_5175" x1="141.017" y1="38.4618" x2="168.807" y2="-38.1825" gradientUnits="userSpaceOnUse">
<stop offset="0.34375" stop-color="#6D879C"/>
<stop offset="0.6875" stop-color="#A9C1D5"/>
<stop offset="0.927083" stop-color="#6D879C"/>
</linearGradient>
<linearGradient id="paint11_linear_1551_5175" x1="141.017" y1="38.4618" x2="168.807" y2="-38.1825" gradientUnits="userSpaceOnUse">
<stop offset="0.34375" stop-color="#6D879C"/>
<stop offset="0.6875" stop-color="#A9C1D5"/>
<stop offset="0.927083" stop-color="#6D879C"/>
</linearGradient>
<linearGradient id="paint12_linear_1551_5175" x1="141.017" y1="38.4618" x2="168.807" y2="-38.1825" gradientUnits="userSpaceOnUse">
<stop offset="0.34375" stop-color="#6D879C"/>
<stop offset="0.6875" stop-color="#A9C1D5"/>
<stop offset="0.927083" stop-color="#6D879C"/>
</linearGradient>
<linearGradient id="paint13_linear_1551_5175" x1="141.017" y1="38.4618" x2="168.807" y2="-38.1825" gradientUnits="userSpaceOnUse">
<stop offset="0.34375" stop-color="#6D879C"/>
<stop offset="0.6875" stop-color="#A9C1D5"/>
<stop offset="0.927083" stop-color="#6D879C"/>
</linearGradient>
<linearGradient id="paint14_linear_1551_5175" x1="141.017" y1="38.4618" x2="168.807" y2="-38.1825" gradientUnits="userSpaceOnUse">
<stop offset="0.34375" stop-color="#6D879C"/>
<stop offset="0.6875" stop-color="#A9C1D5"/>
<stop offset="0.927083" stop-color="#6D879C"/>
</linearGradient>
<linearGradient id="paint15_linear_1551_5175" x1="141.017" y1="38.4618" x2="168.807" y2="-38.1825" gradientUnits="userSpaceOnUse">
<stop offset="0.34375" stop-color="#6D879C"/>
<stop offset="0.6875" stop-color="#A9C1D5"/>
<stop offset="0.927083" stop-color="#6D879C"/>
</linearGradient>
<linearGradient id="paint16_linear_1551_5175" x1="141.017" y1="38.4618" x2="168.807" y2="-38.1825" gradientUnits="userSpaceOnUse">
<stop offset="0.34375" stop-color="#6D879C"/>
<stop offset="0.6875" stop-color="#A9C1D5"/>
<stop offset="0.927083" stop-color="#6D879C"/>
</linearGradient>
</defs>
</svg>
