<svg class="test" width="21" height="22" viewBox="0 0 21 22" fill="none" xmlns="http://www.w3.org/2000/svg">
<mask id="mask0_754_6427" style="mask-type:alpha" maskUnits="userSpaceOnUse" x="0" y="7" width="21" height="15">
<path fill-rule="evenodd" clip-rule="evenodd" d="M0.5 7.52499H20.4996V21.269H0.5V7.52499Z" fill="white"/>
</mask>
<g mask="url(#mask0_754_6427)">
<path fill-rule="evenodd" clip-rule="evenodd" d="M16.065 21.269H4.935C2.49 21.269 0.5 19.28 0.5 16.834V11.959C0.5 9.51399 2.49 7.52499 4.935 7.52499H5.868C6.282 7.52499 6.618 7.86099 6.618 8.27499C6.618 8.68899 6.282 9.02499 5.868 9.02499H4.935C3.316 9.02499 2 10.341 2 11.959V16.834C2 18.453 3.316 19.769 4.935 19.769H16.065C17.683 19.769 19 18.453 19 16.834V11.95C19 10.337 17.688 9.02499 16.076 9.02499H15.133C14.719 9.02499 14.383 8.68899 14.383 8.27499C14.383 7.86099 14.719 7.52499 15.133 7.52499H16.076C18.515 7.52499 20.5 9.50999 20.5 11.95V16.834C20.5 19.28 18.51 21.269 16.065 21.269Z" fill="#6D879C"/>
</g>
<mask id="mask1_754_6427" style="mask-type:alpha" maskUnits="userSpaceOnUse" x="9" y="0" width="3" height="15">
<path fill-rule="evenodd" clip-rule="evenodd" d="M9.74951 0.730988H11.2495V14.2719H9.74951V0.730988Z" fill="white"/>
</mask>
<g mask="url(#mask1_754_6427)">
<path fill-rule="evenodd" clip-rule="evenodd" d="M10.4995 14.2719C10.0855 14.2719 9.74951 13.9359 9.74951 13.5219V1.4809C9.74951 1.0669 10.0855 0.730896 10.4995 0.730896C10.9135 0.730896 11.2495 1.0669 11.2495 1.4809V13.5219C11.2495 13.9359 10.9135 14.2719 10.4995 14.2719Z" fill="#6D879C"/>
</g>
<path fill-rule="evenodd" clip-rule="evenodd" d="M7.58471 5.15958C7.39371 5.15958 7.20171 5.08658 7.05571 4.94058C6.76271 4.64858 6.76071 4.17458 7.05371 3.88058L9.96871 0.952576C10.2497 0.669576 10.7497 0.669576 11.0307 0.952576L13.9467 3.88058C14.2387 4.17458 14.2377 4.64858 13.9447 4.94058C13.6507 5.23258 13.1767 5.23258 12.8847 4.93858L10.4997 2.54458L8.11571 4.93858C7.96971 5.08658 7.77671 5.15958 7.58471 5.15958Z" fill="#6D879C"/>
</svg>
