<svg width="21" height="24" viewBox="0 0 21 24" fill="none" xmlns="http://www.w3.org/2000/svg">
<mask id="mask0_1611_1147" style="mask-type:alpha" maskUnits="userSpaceOnUse" x="0" y="0" width="21" height="24">
<path fill-rule="evenodd" clip-rule="evenodd" d="M0 0H20.0045V24H0V0Z" fill="white"/>
</mask>
<g mask="url(#mask0_1611_1147)">
<path fill-rule="evenodd" clip-rule="evenodd" d="M10.0022 1.76805C9.00237 1.76805 2.69452 3.98936 1.96706 4.59656C1.75247 4.81233 1.74422 5.18726 1.7902 7.69743C1.81142 8.90712 1.8409 10.5507 1.8409 12.8262C1.8409 18.9584 8.58735 21.6808 10.001 22.1819C11.4135 21.6784 18.1635 18.9407 18.1635 12.8262C18.1635 10.5483 18.193 8.90358 18.2154 7.69389C18.2602 5.18608 18.2519 4.81115 18.0244 4.58477C17.311 3.98936 11.002 1.76805 10.0022 1.76805ZM10.0023 24C9.91619 24 9.83012 23.9882 9.74641 23.9623C9.35143 23.8432 0.07241 20.9404 0.07241 12.8263C0.07241 10.566 0.0429341 8.93071 0.0217114 7.73045C-0.0325243 4.73216 -0.0443147 4.10728 0.730313 3.33383C1.65586 2.40593 8.66523 -0.000488281 10.0023 -0.000488281C11.3381 -0.000488281 18.3475 2.40593 19.2754 3.33383C20.0488 4.10728 20.037 4.73216 19.9828 7.72692C19.9616 8.92718 19.9321 10.5625 19.9321 12.8263C19.9321 20.9404 10.6531 23.8432 10.2581 23.9623C10.1744 23.9882 10.0883 24 10.0023 24Z" fill="#00BF84"/>
</g>
<path fill-rule="evenodd" clip-rule="evenodd" d="M9.16956 14.7605C8.93493 14.7605 8.70973 14.6674 8.54349 14.5012L6.31275 12.2681C5.96847 11.9226 5.96847 11.3614 6.31393 11.0171C6.65821 10.6716 7.21943 10.6716 7.56489 11.0171L9.16956 12.6241L13.1406 8.65314C13.486 8.30768 14.0449 8.30768 14.3903 8.65314C14.7358 8.99859 14.7358 9.55864 14.3903 9.90409L9.79445 14.5012C9.62938 14.6674 9.40418 14.7605 9.16956 14.7605Z" fill="#00BF84"/>
</svg>
