<svg width="337" height="40" viewBox="0 0 337 40" fill="none" xmlns="http://www.w3.org/2000/svg">
<path fill-rule="evenodd" clip-rule="evenodd" d="M9 0.958008C4.02944 0.958008 0 4.98756 0 9.95812C0 10.5104 0.447714 10.9581 0.999999 10.9581H53C57.9706 10.9581 62 6.92858 62 1.95802C62 1.40574 61.5523 0.958008 61 0.958008H9ZM76.04 0.958008C71.0695 0.958008 67.04 4.98756 67.04 9.95812C67.04 10.5104 67.4878 10.9581 68.04 10.9581H120C124.97 10.9581 129 6.92858 129 1.95802C129 1.40574 128.552 0.958008 128 0.958008H76.04Z" fill="url(#paint0_linear_1529_3971)"/>
<path fill-rule="evenodd" clip-rule="evenodd" d="M1 28.958C0.447715 28.958 0 29.4057 0 29.958C0 34.9286 4.02944 38.958 9 38.958H67.6114C67.7319 39.0121 67.8656 39.0421 68.0063 39.0421C70.142 39.0421 72.0978 38.2722 73.6115 36.9949C75.6768 35.3457 77 32.8064 77 29.958C77 29.4057 76.5523 28.958 76 28.958H1Z" fill="url(#paint1_linear_1529_3971)"/>
<path opacity="0.9" fill-rule="evenodd" clip-rule="evenodd" d="M5 14.958C2.23858 14.958 0 17.1966 0 19.958V23.958C0 24.5103 0.447715 24.958 1 24.958H19C23.9706 24.958 28 20.9286 28 15.958C28 15.4057 27.5523 14.958 27 14.958H5ZM72 14.958C69.2386 14.958 67 17.1966 67 19.958V24.0415C67 24.5938 67.4477 25.0415 68 25.0415H86.3429C91.3134 25.0415 95.3429 20.9369 95.3429 15.9664C95.3429 15.4141 94.8952 14.958 94.3429 14.958H72Z" fill="url(#paint2_linear_1529_3971)"/>
<path d="M157.598 6.12C157.598 5.32 157.511 4.68667 157.338 4.22C157.165 3.75333 156.879 3.4 156.48 3.16C156.081 2.92 155.555 2.76667 154.903 2.7C154.258 2.63333 153.456 2.6 152.498 2.6H148.016C147.165 2.6 146.446 2.62667 145.86 2.68C145.282 2.72667 144.802 2.82667 144.423 2.98C144.044 3.13333 143.751 3.35333 143.545 3.64C143.339 3.92667 143.189 4.30667 143.096 4.78C143.003 5.25333 142.949 5.83667 142.936 6.53C142.923 7.21667 142.916 8.04 142.916 9C142.916 9.96 142.923 10.7867 142.936 11.48C142.956 12.1667 143.013 12.7467 143.106 13.22C143.199 13.6933 143.345 14.0733 143.545 14.36C143.751 14.6467 144.044 14.8667 144.423 15.02C144.802 15.1733 145.282 15.2767 145.86 15.33C146.446 15.3767 147.165 15.4 148.016 15.4H152.498C153.243 15.4 153.885 15.38 154.424 15.34C154.963 15.3 155.422 15.2267 155.801 15.12C156.181 15.0133 156.487 14.8667 156.72 14.68C156.952 14.4933 157.132 14.26 157.259 13.98C157.392 13.6933 157.481 13.3533 157.528 12.96C157.575 12.56 157.598 12.0933 157.598 11.56H159.514C159.514 12.2 159.474 12.78 159.394 13.3C159.315 13.8133 159.172 14.2733 158.965 14.68C158.766 15.08 158.496 15.4267 158.157 15.72C157.817 16.0133 157.388 16.2567 156.869 16.45C156.35 16.6367 155.731 16.7733 155.013 16.86C154.294 16.9533 153.456 17 152.498 17H148.016C146.845 17 145.857 16.9267 145.052 16.78C144.254 16.64 143.595 16.4267 143.076 16.14C142.557 15.8467 142.154 15.48 141.868 15.04C141.589 14.6 141.382 14.0833 141.249 13.49C141.123 12.8967 141.05 12.2267 141.03 11.48C141.01 10.7333 141 9.90667 141 9C141 8.09333 141.01 7.26667 141.03 6.52C141.05 5.77333 141.123 5.10333 141.249 4.51C141.382 3.91667 141.589 3.4 141.868 2.96C142.154 2.52 142.557 2.15667 143.076 1.87C143.595 1.57667 144.254 1.36 145.052 1.22C145.857 1.07333 146.845 1 148.016 1H152.498C153.456 1 154.294 1.04667 155.013 1.14C155.731 1.22667 156.35 1.36333 156.869 1.55C157.388 1.73 157.817 1.96 158.157 2.24C158.496 2.52 158.766 2.85 158.965 3.23C159.172 3.61 159.315 4.04 159.394 4.52C159.474 5 159.514 5.53333 159.514 6.12H157.598Z" fill="url(#paint3_linear_1529_3971)"/>
<path d="M174.946 1C176.118 1 177.102 1.07333 177.901 1.22C178.706 1.36 179.368 1.57667 179.887 1.87C180.406 2.15667 180.805 2.52 181.085 2.96C181.364 3.4 181.567 3.91667 181.694 4.51C181.827 5.10333 181.903 5.77333 181.923 6.52C181.95 7.26667 181.963 8.09333 181.963 9C181.963 9.90667 181.95 10.7333 181.923 11.48C181.903 12.2267 181.827 12.8967 181.694 13.49C181.567 14.0833 181.364 14.6 181.085 15.04C180.805 15.48 180.406 15.8467 179.887 16.14C179.368 16.4267 178.706 16.64 177.901 16.78C177.102 16.9267 176.118 17 174.946 17H169.178C168.006 17 167.018 16.9267 166.213 16.78C165.415 16.64 164.756 16.4267 164.237 16.14C163.718 15.8467 163.315 15.48 163.029 15.04C162.75 14.6 162.544 14.0833 162.411 13.49C162.284 12.8967 162.211 12.2267 162.191 11.48C162.171 10.7333 162.161 9.90667 162.161 9C162.161 8.09333 162.171 7.26667 162.191 6.52C162.211 5.77333 162.284 5.10333 162.411 4.51C162.544 3.91667 162.75 3.4 163.029 2.96C163.315 2.52 163.718 2.15667 164.237 1.87C164.756 1.57667 165.415 1.36 166.213 1.22C167.018 1.07333 168.006 1 169.178 1H174.946ZM174.946 15.4C175.792 15.4 176.503 15.3767 177.082 15.33C177.668 15.2767 178.15 15.1733 178.53 15.02C178.909 14.8667 179.202 14.6467 179.408 14.36C179.614 14.0733 179.764 13.6933 179.857 13.22C179.95 12.7467 180.003 12.1667 180.017 11.48C180.037 10.7867 180.047 9.96 180.047 9C180.047 8.04 180.037 7.21667 180.017 6.53C180.003 5.83667 179.95 5.25333 179.857 4.78C179.764 4.30667 179.614 3.92667 179.408 3.64C179.202 3.35333 178.909 3.13333 178.53 2.98C178.157 2.82667 177.678 2.72667 177.092 2.68C176.513 2.62667 175.798 2.6 174.946 2.6H169.178C168.326 2.6 167.607 2.62667 167.022 2.68C166.443 2.72667 165.964 2.82667 165.584 2.98C165.205 3.13333 164.912 3.35333 164.706 3.64C164.5 3.92667 164.35 4.30667 164.257 4.78C164.164 5.25333 164.111 5.83667 164.097 6.53C164.084 7.21667 164.077 8.04 164.077 9C164.077 9.96 164.084 10.7867 164.097 11.48C164.117 12.1667 164.174 12.7467 164.267 13.22C164.36 13.6933 164.507 14.0733 164.706 14.36C164.912 14.6467 165.205 14.8667 165.584 15.02C165.964 15.1733 166.443 15.2767 167.022 15.33C167.607 15.3767 168.326 15.4 169.178 15.4H174.946Z" fill="url(#paint4_linear_1529_3971)"/>
<path d="M187.155 16.68H185.239V1.32H188.602L202.655 14.76V1.32H204.571V16.68H202.016L187.155 2.92V16.68Z" fill="url(#paint5_linear_1529_3971)"/>
<path d="M223.507 13.16H211.37L209.454 16.68H207.218L216.161 1.32H218.716L227.659 16.68H225.423L223.507 13.16ZM222.549 11.56L217.439 2.6L212.328 11.56H222.549Z" fill="url(#paint6_linear_1529_3971)"/>
<path d="M141 38.68V23.32H155.692V24.92H142.916V30.04H155.053V31.64H142.916V38.68H141Z" fill="url(#paint7_linear_1529_3971)"/>
<path d="M170.475 23C171.646 23 172.631 23.0733 173.429 23.22C174.234 23.36 174.897 23.5767 175.416 23.87C175.935 24.1567 176.334 24.52 176.613 24.96C176.893 25.4 177.096 25.9167 177.222 26.51C177.355 27.1033 177.432 27.7733 177.452 28.52C177.478 29.2667 177.492 30.0933 177.492 31C177.492 31.9067 177.478 32.7333 177.452 33.48C177.432 34.2267 177.355 34.8967 177.222 35.49C177.096 36.0833 176.893 36.6 176.613 37.04C176.334 37.48 175.935 37.8467 175.416 38.14C174.897 38.4267 174.234 38.64 173.429 38.78C172.631 38.9267 171.646 39 170.475 39H164.706C163.535 39 162.547 38.9267 161.742 38.78C160.943 38.64 160.285 38.4267 159.766 38.14C159.247 37.8467 158.844 37.48 158.558 37.04C158.278 36.6 158.072 36.0833 157.939 35.49C157.813 34.8967 157.74 34.2267 157.72 33.48C157.7 32.7333 157.69 31.9067 157.69 31C157.69 30.0933 157.7 29.2667 157.72 28.52C157.74 27.7733 157.813 27.1033 157.939 26.51C158.072 25.9167 158.278 25.4 158.558 24.96C158.844 24.52 159.247 24.1567 159.766 23.87C160.285 23.5767 160.943 23.36 161.742 23.22C162.547 23.0733 163.535 23 164.706 23H170.475ZM170.475 37.4C171.32 37.4 172.032 37.3767 172.611 37.33C173.196 37.2767 173.679 37.1733 174.058 37.02C174.437 36.8667 174.73 36.6467 174.936 36.36C175.143 36.0733 175.292 35.6933 175.386 35.22C175.479 34.7467 175.532 34.1667 175.545 33.48C175.565 32.7867 175.575 31.96 175.575 31C175.575 30.04 175.565 29.2167 175.545 28.53C175.532 27.8367 175.479 27.2533 175.386 26.78C175.292 26.3067 175.143 25.9267 174.936 25.64C174.73 25.3533 174.437 25.1333 174.058 24.98C173.686 24.8267 173.206 24.7267 172.621 24.68C172.042 24.6267 171.327 24.6 170.475 24.6H164.706C163.854 24.6 163.136 24.6267 162.55 24.68C161.971 24.7267 161.492 24.8267 161.113 24.98C160.734 25.1333 160.441 25.3533 160.235 25.64C160.028 25.9267 159.879 26.3067 159.786 26.78C159.692 27.2533 159.639 27.8367 159.626 28.53C159.613 29.2167 159.606 30.04 159.606 31C159.606 31.96 159.613 32.7867 159.626 33.48C159.646 34.1667 159.702 34.7467 159.796 35.22C159.889 35.6933 160.035 36.0733 160.235 36.36C160.441 36.6467 160.734 36.8667 161.113 37.02C161.492 37.1733 161.971 37.2767 162.55 37.33C163.136 37.3767 163.854 37.4 164.706 37.4H170.475Z" fill="url(#paint8_linear_1529_3971)"/>
<path d="M198.663 23.32V31C198.663 31.9067 198.65 32.7333 198.623 33.48C198.603 34.2267 198.526 34.8967 198.393 35.49C198.267 36.0833 198.064 36.6 197.785 37.04C197.505 37.48 197.106 37.8467 196.587 38.14C196.068 38.4267 195.406 38.64 194.601 38.78C193.802 38.9267 192.817 39 191.646 39H187.155C185.984 39 184.996 38.9267 184.191 38.78C183.392 38.64 182.733 38.4267 182.214 38.14C181.695 37.8467 181.293 37.48 181.007 37.04C180.727 36.6 180.521 36.0833 180.388 35.49C180.261 34.8967 180.188 34.2267 180.168 33.48C180.148 32.7333 180.138 31.9067 180.138 31V23.32H182.055V31C182.055 31.96 182.061 32.7867 182.075 33.48C182.095 34.1667 182.151 34.7467 182.244 35.22C182.338 35.6933 182.484 36.0733 182.684 36.36C182.89 36.6467 183.183 36.8667 183.562 37.02C183.941 37.1733 184.42 37.2767 184.999 37.33C185.585 37.3767 186.303 37.4 187.155 37.4H191.646C192.491 37.4 193.207 37.3767 193.792 37.33C194.378 37.2767 194.857 37.1733 195.229 37.02C195.609 36.8667 195.901 36.6467 196.108 36.36C196.314 36.0733 196.464 35.6933 196.557 35.22C196.657 34.7467 196.713 34.1667 196.727 33.48C196.74 32.7867 196.746 31.96 196.746 31L196.737 23.32H198.663Z" fill="url(#paint9_linear_1529_3971)"/>
<path d="M203.865 38.68H201.948V23.32H205.312L219.365 36.76V23.32H221.281V38.68H218.726L203.865 24.92V38.68Z" fill="url(#paint10_linear_1529_3971)"/>
<path d="M236.694 37.08C237.539 37.08 238.254 37.0567 238.839 37.01C239.425 36.9633 239.907 36.87 240.287 36.73C240.666 36.5833 240.959 36.3733 241.165 36.1C241.371 35.8267 241.521 35.4667 241.614 35.02C241.714 34.5667 241.771 34.0133 241.784 33.36C241.804 32.7 241.814 31.9133 241.814 31C241.814 30.0867 241.804 29.3033 241.784 28.65C241.771 27.99 241.714 27.4367 241.614 26.99C241.521 26.5367 241.371 26.1733 241.165 25.9C240.959 25.6267 240.666 25.42 240.287 25.28C239.907 25.1333 239.425 25.0367 238.839 24.99C238.261 24.9433 237.545 24.92 236.694 24.92H227.122V37.08H236.694ZM225.206 38.68V23.32H236.694C237.865 23.32 238.849 23.39 239.648 23.53C240.453 23.6633 241.115 23.87 241.634 24.15C242.16 24.43 242.562 24.78 242.842 25.2C243.128 25.62 243.334 26.1167 243.461 26.69C243.594 27.2567 243.67 27.9 243.69 28.62C243.717 29.3333 243.73 30.1267 243.73 31C243.73 31.8733 243.717 32.67 243.69 33.39C243.67 34.1033 243.594 34.7467 243.461 35.32C243.334 35.8867 243.128 36.38 242.842 36.8C242.562 37.22 242.16 37.57 241.634 37.85C241.115 38.13 240.453 38.34 239.648 38.48C238.849 38.6133 237.865 38.68 236.694 38.68H225.206Z" fill="url(#paint11_linear_1529_3971)"/>
<path d="M262.017 35.16H249.88L247.964 38.68H245.728L254.671 23.32H257.226L266.169 38.68H263.933L262.017 35.16ZM261.059 33.56L255.949 24.6L250.838 33.56H261.059Z" fill="url(#paint12_linear_1529_3971)"/>
<path d="M285.414 23.32V24.92H277.749V38.68H275.832V24.92H268.167V23.32H285.414Z" fill="url(#paint13_linear_1529_3971)"/>
<path d="M288.689 23.32H290.606V38.68H288.689V23.32Z" fill="url(#paint14_linear_1529_3971)"/>
<path d="M306.667 23C307.838 23 308.823 23.0733 309.621 23.22C310.426 23.36 311.088 23.5767 311.607 23.87C312.126 24.1567 312.526 24.52 312.805 24.96C313.085 25.4 313.287 25.9167 313.414 26.51C313.547 27.1033 313.623 27.7733 313.643 28.52C313.67 29.2667 313.683 30.0933 313.683 31C313.683 31.9067 313.67 32.7333 313.643 33.48C313.623 34.2267 313.547 34.8967 313.414 35.49C313.287 36.0833 313.085 36.6 312.805 37.04C312.526 37.48 312.126 37.8467 311.607 38.14C311.088 38.4267 310.426 38.64 309.621 38.78C308.823 38.9267 307.838 39 306.667 39H300.898C299.727 39 298.739 38.9267 297.934 38.78C297.135 38.64 296.476 38.4267 295.957 38.14C295.438 37.8467 295.036 37.48 294.75 37.04C294.47 36.6 294.264 36.0833 294.131 35.49C294.005 34.8967 293.931 34.2267 293.911 33.48C293.891 32.7333 293.881 31.9067 293.881 31C293.881 30.0933 293.891 29.2667 293.911 28.52C293.931 27.7733 294.005 27.1033 294.131 26.51C294.264 25.9167 294.47 25.4 294.75 24.96C295.036 24.52 295.438 24.1567 295.957 23.87C296.476 23.5767 297.135 23.36 297.934 23.22C298.739 23.0733 299.727 23 300.898 23H306.667ZM306.667 37.4C307.512 37.4 308.224 37.3767 308.803 37.33C309.388 37.2767 309.871 37.1733 310.25 37.02C310.629 36.8667 310.922 36.6467 311.128 36.36C311.335 36.0733 311.484 35.6933 311.577 35.22C311.671 34.7467 311.724 34.1667 311.737 33.48C311.757 32.7867 311.767 31.96 311.767 31C311.767 30.04 311.757 29.2167 311.737 28.53C311.724 27.8367 311.671 27.2533 311.577 26.78C311.484 26.3067 311.335 25.9267 311.128 25.64C310.922 25.3533 310.629 25.1333 310.25 24.98C309.877 24.8267 309.398 24.7267 308.813 24.68C308.234 24.6267 307.519 24.6 306.667 24.6H300.898C300.046 24.6 299.328 24.6267 298.742 24.68C298.163 24.7267 297.684 24.8267 297.305 24.98C296.926 25.1333 296.633 25.3533 296.427 25.64C296.22 25.9267 296.071 26.3067 295.977 26.78C295.884 27.2533 295.831 27.8367 295.818 28.53C295.804 29.2167 295.798 30.04 295.798 31C295.798 31.96 295.804 32.7867 295.818 33.48C295.838 34.1667 295.894 34.7467 295.987 35.22C296.081 35.6933 296.227 36.0733 296.427 36.36C296.633 36.6467 296.926 36.8667 297.305 37.02C297.684 37.1733 298.163 37.2767 298.742 37.33C299.328 37.3767 300.046 37.4 300.898 37.4H306.667Z" fill="url(#paint15_linear_1529_3971)"/>
<path d="M318.875 38.68H316.959V23.32H320.323L334.376 36.76V23.32H336.292V38.68H333.737L318.875 24.92V38.68Z" fill="url(#paint16_linear_1529_3971)"/>
<defs>
<linearGradient id="paint0_linear_1529_3971" x1="0.0114252" y1="10.9226" x2="16.6482" y2="-37.5707" gradientUnits="userSpaceOnUse">
<stop offset="0.34375" stop-color="#6D879C"/>
<stop offset="0.6875" stop-color="#A9C1D5"/>
<stop offset="0.927083" stop-color="#6D879C"/>
</linearGradient>
<linearGradient id="paint1_linear_1529_3971" x1="-1.14739e-06" y1="39.0421" x2="46.6292" y2="-3.9682" gradientUnits="userSpaceOnUse">
<stop/>
<stop offset="0.0001" stop-color="#010101"/>
<stop offset="0.317708" stop-color="#444444"/>
<stop offset="1"/>
<stop offset="1"/>
<stop offset="1"/>
</linearGradient>
<linearGradient id="paint2_linear_1529_3971" x1="-1.42072e-06" y1="25.0415" x2="46.368" y2="-27.9198" gradientUnits="userSpaceOnUse">
<stop/>
<stop offset="0.0001" stop-color="#010101"/>
<stop offset="0.317708" stop-color="#444444"/>
<stop offset="1"/>
<stop offset="1"/>
<stop offset="1"/>
</linearGradient>
<linearGradient id="paint3_linear_1529_3971" x1="141.007" y1="16.9432" x2="183.498" y2="-35.0582" gradientUnits="userSpaceOnUse">
<stop offset="0.34375" stop-color="#6D879C"/>
<stop offset="0.6875" stop-color="#A9C1D5"/>
<stop offset="0.927083" stop-color="#6D879C"/>
</linearGradient>
<linearGradient id="paint4_linear_1529_3971" x1="141.007" y1="16.9432" x2="183.498" y2="-35.0582" gradientUnits="userSpaceOnUse">
<stop offset="0.34375" stop-color="#6D879C"/>
<stop offset="0.6875" stop-color="#A9C1D5"/>
<stop offset="0.927083" stop-color="#6D879C"/>
</linearGradient>
<linearGradient id="paint5_linear_1529_3971" x1="141.007" y1="16.9432" x2="183.498" y2="-35.0582" gradientUnits="userSpaceOnUse">
<stop offset="0.34375" stop-color="#6D879C"/>
<stop offset="0.6875" stop-color="#A9C1D5"/>
<stop offset="0.927083" stop-color="#6D879C"/>
</linearGradient>
<linearGradient id="paint6_linear_1529_3971" x1="141.007" y1="16.9432" x2="183.498" y2="-35.0582" gradientUnits="userSpaceOnUse">
<stop offset="0.34375" stop-color="#6D879C"/>
<stop offset="0.6875" stop-color="#A9C1D5"/>
<stop offset="0.927083" stop-color="#6D879C"/>
</linearGradient>
<linearGradient id="paint7_linear_1529_3971" x1="141.017" y1="38.9432" x2="168.807" y2="-37.7011" gradientUnits="userSpaceOnUse">
<stop offset="0.34375" stop-color="#6D879C"/>
<stop offset="0.6875" stop-color="#A9C1D5"/>
<stop offset="0.927083" stop-color="#6D879C"/>
</linearGradient>
<linearGradient id="paint8_linear_1529_3971" x1="141.017" y1="38.9432" x2="168.807" y2="-37.7011" gradientUnits="userSpaceOnUse">
<stop offset="0.34375" stop-color="#6D879C"/>
<stop offset="0.6875" stop-color="#A9C1D5"/>
<stop offset="0.927083" stop-color="#6D879C"/>
</linearGradient>
<linearGradient id="paint9_linear_1529_3971" x1="141.017" y1="38.9432" x2="168.807" y2="-37.7011" gradientUnits="userSpaceOnUse">
<stop offset="0.34375" stop-color="#6D879C"/>
<stop offset="0.6875" stop-color="#A9C1D5"/>
<stop offset="0.927083" stop-color="#6D879C"/>
</linearGradient>
<linearGradient id="paint10_linear_1529_3971" x1="141.017" y1="38.9432" x2="168.807" y2="-37.7011" gradientUnits="userSpaceOnUse">
<stop offset="0.34375" stop-color="#6D879C"/>
<stop offset="0.6875" stop-color="#A9C1D5"/>
<stop offset="0.927083" stop-color="#6D879C"/>
</linearGradient>
<linearGradient id="paint11_linear_1529_3971" x1="141.017" y1="38.9432" x2="168.807" y2="-37.7011" gradientUnits="userSpaceOnUse">
<stop offset="0.34375" stop-color="#6D879C"/>
<stop offset="0.6875" stop-color="#A9C1D5"/>
<stop offset="0.927083" stop-color="#6D879C"/>
</linearGradient>
<linearGradient id="paint12_linear_1529_3971" x1="141.017" y1="38.9432" x2="168.807" y2="-37.7011" gradientUnits="userSpaceOnUse">
<stop offset="0.34375" stop-color="#6D879C"/>
<stop offset="0.6875" stop-color="#A9C1D5"/>
<stop offset="0.927083" stop-color="#6D879C"/>
</linearGradient>
<linearGradient id="paint13_linear_1529_3971" x1="141.017" y1="38.9432" x2="168.807" y2="-37.7011" gradientUnits="userSpaceOnUse">
<stop offset="0.34375" stop-color="#6D879C"/>
<stop offset="0.6875" stop-color="#A9C1D5"/>
<stop offset="0.927083" stop-color="#6D879C"/>
</linearGradient>
<linearGradient id="paint14_linear_1529_3971" x1="141.017" y1="38.9432" x2="168.807" y2="-37.7011" gradientUnits="userSpaceOnUse">
<stop offset="0.34375" stop-color="#6D879C"/>
<stop offset="0.6875" stop-color="#A9C1D5"/>
<stop offset="0.927083" stop-color="#6D879C"/>
</linearGradient>
<linearGradient id="paint15_linear_1529_3971" x1="141.017" y1="38.9432" x2="168.807" y2="-37.7011" gradientUnits="userSpaceOnUse">
<stop offset="0.34375" stop-color="#6D879C"/>
<stop offset="0.6875" stop-color="#A9C1D5"/>
<stop offset="0.927083" stop-color="#6D879C"/>
</linearGradient>
<linearGradient id="paint16_linear_1529_3971" x1="141.017" y1="38.9432" x2="168.807" y2="-37.7011" gradientUnits="userSpaceOnUse">
<stop offset="0.34375" stop-color="#6D879C"/>
<stop offset="0.6875" stop-color="#A9C1D5"/>
<stop offset="0.927083" stop-color="#6D879C"/>
</linearGradient>
</defs>
</svg>
